G04 #@! TF.GenerationSoftware,KiCad,Pcbnew,8.0.1-rc1*
G04 #@! TF.CreationDate,2024-03-16T10:29:41-04:00*
G04 #@! TF.ProjectId,keystone-esp,6b657973-746f-46e6-952d-6573702e6b69,rev?*
G04 #@! TF.SameCoordinates,Original*
G04 #@! TF.FileFunction,Paste,Top*
G04 #@! TF.FilePolarity,Positive*
%FSLAX46Y46*%
G04 Gerber Fmt 4.6, Leading zero omitted, Abs format (unit mm)*
G04 Created by KiCad (PCBNEW 8.0.1-rc1) date 2024-03-16 10:29:41*
%MOMM*%
%LPD*%
G01*
G04 APERTURE LIST*
G04 Aperture macros list*
%AMRoundRect*
0 Rectangle with rounded corners*
0 $1 Rounding radius*
0 $2 $3 $4 $5 $6 $7 $8 $9 X,Y pos of 4 corners*
0 Add a 4 corners polygon primitive as box body*
4,1,4,$2,$3,$4,$5,$6,$7,$8,$9,$2,$3,0*
0 Add four circle primitives for the rounded corners*
1,1,$1+$1,$2,$3*
1,1,$1+$1,$4,$5*
1,1,$1+$1,$6,$7*
1,1,$1+$1,$8,$9*
0 Add four rect primitives between the rounded corners*
20,1,$1+$1,$2,$3,$4,$5,0*
20,1,$1+$1,$4,$5,$6,$7,0*
20,1,$1+$1,$6,$7,$8,$9,0*
20,1,$1+$1,$8,$9,$2,$3,0*%
G04 Aperture macros list end*
%ADD10RoundRect,0.250000X-0.400000X-0.625000X0.400000X-0.625000X0.400000X0.625000X-0.400000X0.625000X0*%
%ADD11RoundRect,0.150000X0.825000X0.150000X-0.825000X0.150000X-0.825000X-0.150000X0.825000X-0.150000X0*%
%ADD12R,1.250000X1.000000*%
%ADD13RoundRect,0.250000X-0.412500X-0.650000X0.412500X-0.650000X0.412500X0.650000X-0.412500X0.650000X0*%
%ADD14R,1.181100X0.508000*%
%ADD15RoundRect,0.250000X-0.625000X0.400000X-0.625000X-0.400000X0.625000X-0.400000X0.625000X0.400000X0*%
%ADD16RoundRect,0.150000X0.150000X-0.587500X0.150000X0.587500X-0.150000X0.587500X-0.150000X-0.587500X0*%
%ADD17RoundRect,0.250000X0.650000X-0.412500X0.650000X0.412500X-0.650000X0.412500X-0.650000X-0.412500X0*%
%ADD18RoundRect,0.250000X0.412500X0.650000X-0.412500X0.650000X-0.412500X-0.650000X0.412500X-0.650000X0*%
%ADD19RoundRect,0.250000X0.400000X0.625000X-0.400000X0.625000X-0.400000X-0.625000X0.400000X-0.625000X0*%
%ADD20RoundRect,0.150000X-0.150000X0.587500X-0.150000X-0.587500X0.150000X-0.587500X0.150000X0.587500X0*%
%ADD21RoundRect,0.250001X0.462499X0.624999X-0.462499X0.624999X-0.462499X-0.624999X0.462499X-0.624999X0*%
%ADD22RoundRect,0.150000X0.587500X0.150000X-0.587500X0.150000X-0.587500X-0.150000X0.587500X-0.150000X0*%
%ADD23R,0.900000X1.500000*%
%ADD24R,1.500000X0.900000*%
%ADD25R,1.050000X1.050000*%
G04 APERTURE END LIST*
D10*
G04 #@! TO.C,R9*
X204190000Y-107950000D03*
X207290000Y-107950000D03*
G04 #@! TD*
G04 #@! TO.C,R3*
X191236000Y-102870000D03*
X194336000Y-102870000D03*
G04 #@! TD*
D11*
G04 #@! TO.C,U2*
X198309000Y-97536000D03*
X198309000Y-96266000D03*
X198309000Y-94996000D03*
X198309000Y-93726000D03*
X198309000Y-92456000D03*
X198309000Y-91186000D03*
X198309000Y-89916000D03*
X198309000Y-88646000D03*
X193359000Y-88646000D03*
X193359000Y-89916000D03*
X193359000Y-91186000D03*
X193359000Y-92456000D03*
X193359000Y-93726000D03*
X193359000Y-94996000D03*
X193359000Y-96266000D03*
X193359000Y-97536000D03*
G04 #@! TD*
D12*
G04 #@! TO.C,SW1*
X182688000Y-81280000D03*
X190438000Y-81280000D03*
G04 #@! TD*
D13*
G04 #@! TO.C,C1*
X194652500Y-85979000D03*
X197777500Y-85979000D03*
G04 #@! TD*
D10*
G04 #@! TO.C,R10*
X186257000Y-77724000D03*
X189357000Y-77724000D03*
G04 #@! TD*
D14*
G04 #@! TO.C,U3*
X194760850Y-107884001D03*
X194760850Y-106934000D03*
X194760850Y-105983999D03*
X191827150Y-105983999D03*
X191827150Y-107884001D03*
G04 #@! TD*
D15*
G04 #@! TO.C,R4*
X189230000Y-106146000D03*
X189230000Y-109246000D03*
G04 #@! TD*
D16*
G04 #@! TO.C,Q4*
X187010000Y-87043500D03*
X188910000Y-87043500D03*
X187960000Y-85168500D03*
G04 #@! TD*
D17*
G04 #@! TO.C,C3*
X191897000Y-86271500D03*
X191897000Y-83146500D03*
G04 #@! TD*
D10*
G04 #@! TO.C,R6*
X200888000Y-83312000D03*
X203988000Y-83312000D03*
G04 #@! TD*
D18*
G04 #@! TO.C,C6*
X215557500Y-83058000D03*
X212432500Y-83058000D03*
G04 #@! TD*
D10*
G04 #@! TO.C,R1*
X186283000Y-99060000D03*
X189383000Y-99060000D03*
G04 #@! TD*
D19*
G04 #@! TO.C,R7*
X215799000Y-107950000D03*
X212699000Y-107950000D03*
G04 #@! TD*
D20*
G04 #@! TO.C,Q3*
X189570400Y-89740500D03*
X187670400Y-89740500D03*
X188620400Y-91615500D03*
G04 #@! TD*
D17*
G04 #@! TO.C,C2*
X184531000Y-88049500D03*
X184531000Y-84924500D03*
G04 #@! TD*
D10*
G04 #@! TO.C,R2*
X186029000Y-94742000D03*
X189129000Y-94742000D03*
G04 #@! TD*
D21*
G04 #@! TO.C,D3*
X181827500Y-87757000D03*
X178852500Y-87757000D03*
G04 #@! TD*
D10*
G04 #@! TO.C,R8*
X217652000Y-107950000D03*
X220752000Y-107950000D03*
G04 #@! TD*
D22*
G04 #@! TO.C,Q2*
X186484500Y-108900000D03*
X186484500Y-107000000D03*
X184609500Y-107950000D03*
G04 #@! TD*
D23*
G04 #@! TO.C,U4*
X220599000Y-86903000D03*
X219329000Y-86903000D03*
X218059000Y-86903000D03*
X216789000Y-86903000D03*
X215519000Y-86903000D03*
X214249000Y-86903000D03*
X212979000Y-86903000D03*
X211709000Y-86903000D03*
X210439000Y-86903000D03*
X209169000Y-86903000D03*
X207899000Y-86903000D03*
X206629000Y-86903000D03*
X205359000Y-86903000D03*
X204089000Y-86903000D03*
D24*
X202839000Y-89943000D03*
X202839000Y-91213000D03*
X202839000Y-92483000D03*
X202839000Y-93753000D03*
X202839000Y-95023000D03*
X202839000Y-96293000D03*
X202839000Y-97563000D03*
X202839000Y-98833000D03*
X202839000Y-100103000D03*
X202839000Y-101373000D03*
D23*
X204089000Y-104403000D03*
X205359000Y-104403000D03*
X206629000Y-104403000D03*
X207899000Y-104403000D03*
X209169000Y-104403000D03*
X210439000Y-104403000D03*
X211709000Y-104403000D03*
X212979000Y-104403000D03*
X214249000Y-104403000D03*
X215519000Y-104403000D03*
X216789000Y-104403000D03*
X218059000Y-104403000D03*
X219329000Y-104403000D03*
X220599000Y-104403000D03*
D25*
X214784000Y-93448000D03*
X213259000Y-93448000D03*
X211734000Y-93448000D03*
X214784000Y-94973000D03*
X213259000Y-94973000D03*
X211734000Y-94973000D03*
X214784000Y-96498000D03*
X213259000Y-96498000D03*
X211734000Y-96498000D03*
G04 #@! TD*
D14*
G04 #@! TO.C,U1*
X199713850Y-103947001D03*
X199713850Y-102997000D03*
X199713850Y-102046999D03*
X196780150Y-102046999D03*
X196780150Y-103947001D03*
G04 #@! TD*
D10*
G04 #@! TO.C,R5*
X178790000Y-84074000D03*
X181890000Y-84074000D03*
G04 #@! TD*
D22*
G04 #@! TO.C,Q1*
X186738500Y-104683600D03*
X186738500Y-102783600D03*
X184863500Y-103733600D03*
G04 #@! TD*
D13*
G04 #@! TO.C,C5*
X217639500Y-83058000D03*
X220764500Y-83058000D03*
G04 #@! TD*
G04 #@! TO.C,C4*
X206463500Y-83312000D03*
X209588500Y-83312000D03*
G04 #@! TD*
D21*
G04 #@! TO.C,D2*
X181954500Y-106553000D03*
X178979500Y-106553000D03*
G04 #@! TD*
G04 #@! TO.C,D1*
X181827500Y-102870000D03*
X178852500Y-102870000D03*
G04 #@! TD*
M02*
