G04 #@! TF.GenerationSoftware,KiCad,Pcbnew,8.0.1-rc1*
G04 #@! TF.CreationDate,2024-03-16T10:29:41-04:00*
G04 #@! TF.ProjectId,keystone-esp,6b657973-746f-46e6-952d-6573702e6b69,rev?*
G04 #@! TF.SameCoordinates,Original*
G04 #@! TF.FileFunction,Copper,L2,Bot*
G04 #@! TF.FilePolarity,Positive*
%FSLAX46Y46*%
G04 Gerber Fmt 4.6, Leading zero omitted, Abs format (unit mm)*
G04 Created by KiCad (PCBNEW 8.0.1-rc1) date 2024-03-16 10:29:41*
%MOMM*%
%LPD*%
G01*
G04 APERTURE LIST*
G04 Aperture macros list*
%AMFreePoly0*
4,1,19,0.500000,-0.750000,0.000000,-0.750000,0.000000,-0.744911,-0.071157,-0.744911,-0.207708,-0.704816,-0.327430,-0.627875,-0.420627,-0.520320,-0.479746,-0.390866,-0.500000,-0.250000,-0.500000,0.250000,-0.479746,0.390866,-0.420627,0.520320,-0.327430,0.627875,-0.207708,0.704816,-0.071157,0.744911,0.000000,0.744911,0.000000,0.750000,0.500000,0.750000,0.500000,-0.750000,0.500000,-0.750000,
$1*%
%AMFreePoly1*
4,1,19,0.000000,0.744911,0.071157,0.744911,0.207708,0.704816,0.327430,0.627875,0.420627,0.520320,0.479746,0.390866,0.500000,0.250000,0.500000,-0.250000,0.479746,-0.390866,0.420627,-0.520320,0.327430,-0.627875,0.207708,-0.704816,0.071157,-0.744911,0.000000,-0.744911,0.000000,-0.750000,-0.500000,-0.750000,-0.500000,0.750000,0.000000,0.750000,0.000000,0.744911,0.000000,0.744911,
$1*%
G04 Aperture macros list end*
G04 #@! TA.AperFunction,ComponentPad*
%ADD10O,1.700000X3.700000*%
G04 #@! TD*
G04 #@! TA.AperFunction,ComponentPad*
%ADD11C,0.650000*%
G04 #@! TD*
G04 #@! TA.AperFunction,ComponentPad*
%ADD12O,1.700000X0.900000*%
G04 #@! TD*
G04 #@! TA.AperFunction,ComponentPad*
%ADD13O,2.400000X0.900000*%
G04 #@! TD*
G04 #@! TA.AperFunction,HeatsinkPad*
%ADD14C,0.600000*%
G04 #@! TD*
G04 #@! TA.AperFunction,SMDPad,CuDef*
%ADD15O,3.000000X1.700000*%
G04 #@! TD*
G04 #@! TA.AperFunction,SMDPad,CuDef*
%ADD16FreePoly0,270.000000*%
G04 #@! TD*
G04 #@! TA.AperFunction,SMDPad,CuDef*
%ADD17FreePoly1,270.000000*%
G04 #@! TD*
G04 #@! TA.AperFunction,ViaPad*
%ADD18C,0.800000*%
G04 #@! TD*
G04 #@! TA.AperFunction,Conductor*
%ADD19C,0.304800*%
G04 #@! TD*
G04 APERTURE END LIST*
D10*
G04 #@! TO.P,J3,1,Pin_1*
G04 #@! TO.N,GND*
X220452000Y-77978000D03*
G04 #@! TO.P,J3,2,Pin_2*
G04 #@! TO.N,/IO36*
X217912000Y-77978000D03*
G04 #@! TO.P,J3,3,Pin_3*
G04 #@! TO.N,/IO39*
X215372000Y-77978000D03*
G04 #@! TO.P,J3,4,Pin_4*
G04 #@! TO.N,/IO34*
X212832000Y-77978000D03*
G04 #@! TO.P,J3,5,Pin_5*
G04 #@! TO.N,/IO35*
X210292000Y-77978000D03*
G04 #@! TO.P,J3,6,Pin_6*
G04 #@! TO.N,/IO32*
X207752000Y-77978000D03*
G04 #@! TO.P,J3,7,Pin_7*
G04 #@! TO.N,/IO33*
X205212000Y-77978000D03*
G04 #@! TO.P,J3,8,Pin_8*
G04 #@! TO.N,/IO25*
X202672000Y-77978000D03*
G04 #@! TO.P,J3,9,Pin_9*
G04 #@! TO.N,/IO26*
X200132000Y-77978000D03*
G04 #@! TO.P,J3,10,Pin_10*
G04 #@! TO.N,/IO27*
X197592000Y-77978000D03*
G04 #@! TO.P,J3,11,Pin_11*
G04 #@! TO.N,/IO14*
X195052000Y-77978000D03*
G04 #@! TO.P,J3,12,Pin_12*
G04 #@! TO.N,GND*
X192512000Y-77978000D03*
G04 #@! TD*
D11*
G04 #@! TO.P,J1,A1,GND*
G04 #@! TO.N,GND*
X182706000Y-91723000D03*
G04 #@! TO.P,J1,A4,VBUS*
G04 #@! TO.N,VBUS*
X182706000Y-92573000D03*
G04 #@! TO.P,J1,A5,CC1*
G04 #@! TO.N,Net-(J1-CC1)*
X182706000Y-93423000D03*
G04 #@! TO.P,J1,A6,DP1*
G04 #@! TO.N,Net-(J1-DP1)*
X182706000Y-94273000D03*
G04 #@! TO.P,J1,A7,DN1*
G04 #@! TO.N,Net-(J1-DN1)*
X182706000Y-95123000D03*
G04 #@! TO.P,J1,A8,SBU1*
G04 #@! TO.N,unconnected-(J1-SBU1-PadA8)*
X182706000Y-95973000D03*
G04 #@! TO.P,J1,A9,VBUS*
G04 #@! TO.N,VBUS*
X182706000Y-96823000D03*
G04 #@! TO.P,J1,A12,GND*
G04 #@! TO.N,GND*
X182706000Y-97673000D03*
G04 #@! TO.P,J1,B1,GND*
X181356000Y-97673000D03*
G04 #@! TO.P,J1,B4,VBUS*
G04 #@! TO.N,VBUS*
X181356000Y-96823000D03*
G04 #@! TO.P,J1,B5,CC2*
G04 #@! TO.N,Net-(J1-CC2)*
X181356000Y-95973000D03*
G04 #@! TO.P,J1,B6,DP2*
G04 #@! TO.N,Net-(J1-DP1)*
X181356000Y-95123000D03*
G04 #@! TO.P,J1,B7,DN2*
G04 #@! TO.N,Net-(J1-DN1)*
X181356000Y-94273000D03*
G04 #@! TO.P,J1,B8,SBU2*
G04 #@! TO.N,unconnected-(J1-SBU2-PadB8)*
X181356000Y-93423000D03*
G04 #@! TO.P,J1,B9,VBUS*
G04 #@! TO.N,VBUS*
X181356000Y-92573000D03*
G04 #@! TO.P,J1,B12,GND*
G04 #@! TO.N,GND*
X181356000Y-91723000D03*
D12*
G04 #@! TO.P,J1,S1,SHELL*
X178346000Y-90373000D03*
G04 #@! TO.P,J1,S2,SHELL*
X178346000Y-99023000D03*
D13*
G04 #@! TO.P,J1,S3,SHELL*
X181726000Y-90373000D03*
G04 #@! TO.P,J1,S4,SHELL*
X181726000Y-99023000D03*
G04 #@! TD*
D10*
G04 #@! TO.P,J4,1,Pin_1*
G04 #@! TO.N,GND*
X220472000Y-112776000D03*
G04 #@! TO.P,J4,2,Pin_2*
G04 #@! TO.N,/IO23*
X217932000Y-112776000D03*
G04 #@! TO.P,J4,3,Pin_3*
G04 #@! TO.N,/IO22*
X215392000Y-112776000D03*
G04 #@! TO.P,J4,4,Pin_4*
G04 #@! TO.N,/IO21*
X212852000Y-112776000D03*
G04 #@! TO.P,J4,5,Pin_5*
G04 #@! TO.N,/IO19*
X210312000Y-112776000D03*
G04 #@! TO.P,J4,6,Pin_6*
G04 #@! TO.N,/IO18*
X207772000Y-112776000D03*
G04 #@! TO.P,J4,7,Pin_7*
G04 #@! TO.N,/IO5*
X205232000Y-112776000D03*
G04 #@! TO.P,J4,8,Pin_8*
G04 #@! TO.N,/IO17*
X202692000Y-112776000D03*
G04 #@! TO.P,J4,9,Pin_9*
G04 #@! TO.N,/IO16*
X200152000Y-112776000D03*
G04 #@! TO.P,J4,10,Pin_10*
G04 #@! TO.N,/IO4*
X197612000Y-112776000D03*
G04 #@! TO.P,J4,11,Pin_11*
G04 #@! TO.N,/IO13*
X195072000Y-112776000D03*
G04 #@! TO.P,J4,12,Pin_12*
G04 #@! TO.N,/IO15*
X192532000Y-112776000D03*
G04 #@! TO.P,J4,13,Pin_13*
G04 #@! TO.N,VCC*
X189992000Y-112776000D03*
G04 #@! TO.P,J4,14,Pin_14*
G04 #@! TO.N,VBUS*
X187452000Y-112776000D03*
G04 #@! TO.P,J4,15,Pin_15*
G04 #@! TO.N,GND*
X184912000Y-112776000D03*
G04 #@! TD*
D14*
G04 #@! TO.P,U4,39,GND*
G04 #@! TO.N,GND*
X214021500Y-93448000D03*
X212496500Y-93448000D03*
X214784000Y-94210500D03*
X213259000Y-94210500D03*
X211734000Y-94210500D03*
X214021500Y-94973000D03*
X212496500Y-94973000D03*
X214784000Y-95735500D03*
X213259000Y-95735500D03*
X211734000Y-95735500D03*
X214021500Y-96498000D03*
X212496500Y-96498000D03*
G04 #@! TD*
D15*
G04 #@! TO.P,J2,1,Pin_1*
G04 #@! TO.N,/IO0*
X219075000Y-101981000D03*
G04 #@! TO.P,J2,2,Pin_2*
G04 #@! TO.N,/RX*
X219075000Y-99441000D03*
G04 #@! TO.P,J2,3,Pin_3*
G04 #@! TO.N,/TX*
X219075000Y-96901000D03*
G04 #@! TO.P,J2,4,Pin_4*
G04 #@! TO.N,Net-(J2-Pin_4)*
X219075000Y-94361000D03*
G04 #@! TO.P,J2,5,Pin_5*
G04 #@! TO.N,/EN*
X219075000Y-91821000D03*
G04 #@! TO.P,J2,6,Pin_6*
G04 #@! TO.N,GND*
X219075000Y-89281000D03*
G04 #@! TD*
D16*
G04 #@! TO.P,JP2,1,A*
G04 #@! TO.N,Net-(J2-Pin_4)*
X200660000Y-94600000D03*
D17*
G04 #@! TO.P,JP2,2,B*
G04 #@! TO.N,VBUS*
X200660000Y-95900000D03*
G04 #@! TD*
D18*
G04 #@! TO.N,GND*
X187960000Y-101473000D03*
X195072000Y-84201000D03*
X193665400Y-106299000D03*
X195199000Y-87503000D03*
X190119000Y-94996000D03*
X184912000Y-99695000D03*
X184531000Y-92075000D03*
X212725000Y-81788000D03*
X180594000Y-97790000D03*
X209550000Y-81407000D03*
X197866000Y-98933000D03*
X205105000Y-90932000D03*
X185801000Y-105791000D03*
X179832000Y-91313000D03*
X190500000Y-99949000D03*
G04 #@! TO.N,VCC*
X216789000Y-109347000D03*
X194183000Y-98688600D03*
X193230500Y-104203500D03*
X193040000Y-109093000D03*
X209677000Y-94742000D03*
G04 #@! TO.N,Net-(D1-A)*
X178852500Y-104394000D03*
X190119000Y-103759000D03*
G04 #@! TO.N,Net-(D2-A)*
X187706000Y-106172000D03*
X178979500Y-108204000D03*
G04 #@! TO.N,VBUS*
X180340000Y-101346000D03*
X199771000Y-99187000D03*
G04 #@! TO.N,Net-(J1-DN1)*
X185166000Y-97536000D03*
X187706000Y-96139000D03*
G04 #@! TO.N,/IO0*
X196342000Y-105410000D03*
X208534000Y-107188000D03*
X191008000Y-90805000D03*
X198882000Y-107315000D03*
G04 #@! TO.N,/RX*
X215686000Y-100624000D03*
X196342000Y-107061000D03*
G04 #@! TO.N,/TX*
X215265000Y-98171000D03*
X198374000Y-102997000D03*
G04 #@! TO.N,/IO25*
X202692000Y-80772000D03*
X209296000Y-88392000D03*
G04 #@! TO.N,/IO26*
X200152000Y-80772000D03*
X207899000Y-88519000D03*
G04 #@! TO.N,/IO27*
X206756000Y-88392000D03*
X197612000Y-80772000D03*
G04 #@! TO.N,/IO23*
X220345000Y-106172000D03*
G04 #@! TO.N,/EN*
X186309000Y-78994000D03*
X218186000Y-85217000D03*
X192405000Y-81534000D03*
X187452000Y-91440000D03*
X184531000Y-89535000D03*
X205232000Y-84074000D03*
G04 #@! TD*
D19*
G04 #@! TO.N,VCC*
X193230500Y-104203500D02*
X195262500Y-104203500D01*
X205867000Y-94742000D02*
X209677000Y-94742000D01*
X197485000Y-101981000D02*
X198628000Y-101981000D01*
X193230500Y-104203500D02*
X192786000Y-103759000D01*
X192786000Y-100085600D02*
X194183000Y-98688600D01*
X195262500Y-104203500D02*
X197485000Y-101981000D01*
X193294000Y-109347000D02*
X193040000Y-109093000D01*
X198628000Y-101981000D02*
X205867000Y-94742000D01*
X192786000Y-103759000D02*
X192786000Y-100085600D01*
X216789000Y-109347000D02*
X193294000Y-109347000D01*
G04 #@! TO.N,Net-(J2-Pin_4)*
X200787000Y-94473000D02*
X203947000Y-94473000D01*
X215392000Y-91440000D02*
X218313000Y-94361000D01*
X218313000Y-94361000D02*
X219075000Y-94361000D01*
X203962000Y-94488000D02*
X207010000Y-91440000D01*
X207010000Y-91440000D02*
X215392000Y-91440000D01*
X200660000Y-94600000D02*
X200787000Y-94473000D01*
X203947000Y-94473000D02*
X203962000Y-94488000D01*
G04 #@! TO.N,Net-(D1-A)*
X190119000Y-103759000D02*
X188849000Y-102489000D01*
X183515000Y-102489000D02*
X181610000Y-104394000D01*
X188849000Y-102489000D02*
X183515000Y-102489000D01*
X181610000Y-104394000D02*
X178852500Y-104394000D01*
G04 #@! TO.N,Net-(D2-A)*
X187706000Y-106172000D02*
X186817000Y-107061000D01*
X182499000Y-108204000D02*
X178979500Y-108204000D01*
X183642000Y-107061000D02*
X182499000Y-108204000D01*
X186817000Y-107061000D02*
X183642000Y-107061000D01*
G04 #@! TO.N,VBUS*
X180008000Y-96823000D02*
X179324000Y-96139000D01*
X179324000Y-93345000D02*
X180096000Y-92573000D01*
X182880000Y-101219000D02*
X180467000Y-101219000D01*
X200660000Y-98298000D02*
X200660000Y-95900000D01*
X180467000Y-101219000D02*
X180340000Y-101346000D01*
X179324000Y-96139000D02*
X179324000Y-93345000D01*
X180096000Y-92573000D02*
X181356000Y-92573000D01*
X183769000Y-97426381D02*
X183769000Y-100330000D01*
X183165619Y-96823000D02*
X183769000Y-97426381D01*
X182706000Y-96823000D02*
X183165619Y-96823000D01*
X183769000Y-100330000D02*
X182880000Y-101219000D01*
X199771000Y-99187000D02*
X200660000Y-98298000D01*
X181356000Y-96823000D02*
X180008000Y-96823000D01*
G04 #@! TO.N,Net-(J1-DN1)*
X182499000Y-95123000D02*
X182706000Y-95123000D01*
X185166000Y-97536000D02*
X186309000Y-97536000D01*
X181356000Y-94273000D02*
X181649000Y-94273000D01*
X181649000Y-94273000D02*
X182499000Y-95123000D01*
X186309000Y-97536000D02*
X187706000Y-96139000D01*
G04 #@! TO.N,/IO0*
X191389000Y-91186000D02*
X191008000Y-90805000D01*
X206274594Y-107315000D02*
X207150297Y-106439297D01*
X196342000Y-105410000D02*
X196215000Y-105283000D01*
X207277297Y-106439297D02*
X207150297Y-106439297D01*
X191389000Y-104140000D02*
X191389000Y-91186000D01*
X208534000Y-107188000D02*
X208026000Y-107188000D01*
X192532000Y-105283000D02*
X191389000Y-104140000D01*
X208026000Y-107188000D02*
X207277297Y-106439297D01*
X207150297Y-106439297D02*
X207264000Y-106325594D01*
X196215000Y-105283000D02*
X192532000Y-105283000D01*
X198882000Y-107315000D02*
X206274594Y-107315000D01*
X208280000Y-101981000D02*
X219075000Y-101981000D01*
X207264000Y-106325594D02*
X207264000Y-102997000D01*
X207264000Y-102997000D02*
X208280000Y-101981000D01*
G04 #@! TO.N,/RX*
X203962000Y-99822000D02*
X214884000Y-99822000D01*
X216869000Y-99441000D02*
X219075000Y-99441000D01*
X214884000Y-99822000D02*
X215686000Y-100624000D01*
X198882000Y-104902000D02*
X203962000Y-99822000D01*
X215686000Y-100624000D02*
X216869000Y-99441000D01*
X198501000Y-104902000D02*
X198882000Y-104902000D01*
X196342000Y-107061000D02*
X198501000Y-104902000D01*
G04 #@! TO.N,/TX*
X198374000Y-102997000D02*
X199263000Y-102997000D01*
X204089000Y-98171000D02*
X215265000Y-98171000D01*
X199263000Y-102997000D02*
X204089000Y-98171000D01*
X215265000Y-98171000D02*
X216535000Y-96901000D01*
X216535000Y-96901000D02*
X219075000Y-96901000D01*
G04 #@! TO.N,/IO25*
X209296000Y-83566000D02*
X206756000Y-81026000D01*
X206756000Y-81026000D02*
X202946000Y-81026000D01*
X209296000Y-88392000D02*
X209296000Y-83566000D01*
X202946000Y-81026000D02*
X202692000Y-80772000D01*
G04 #@! TO.N,/IO26*
X207899000Y-83693000D02*
X206375000Y-82169000D01*
X201549000Y-82169000D02*
X200152000Y-80772000D01*
X206375000Y-82169000D02*
X201549000Y-82169000D01*
X207899000Y-88519000D02*
X207899000Y-83693000D01*
G04 #@! TO.N,/IO27*
X197612000Y-81534000D02*
X197612000Y-80772000D01*
X206756000Y-84074000D02*
X205486000Y-82804000D01*
X206756000Y-88392000D02*
X206756000Y-84074000D01*
X198882000Y-82804000D02*
X197612000Y-81534000D01*
X205486000Y-82804000D02*
X198882000Y-82804000D01*
G04 #@! TO.N,/IO23*
X220345000Y-109220000D02*
X220345000Y-106172000D01*
X217932000Y-112776000D02*
X217932000Y-111633000D01*
X217932000Y-111633000D02*
X220345000Y-109220000D01*
G04 #@! TO.N,/EN*
X199517000Y-88519000D02*
X200533000Y-89535000D01*
X192532000Y-88519000D02*
X192532000Y-81661000D01*
X216154000Y-90297000D02*
X216154000Y-86106000D01*
X215392000Y-89535000D02*
X205232000Y-89535000D01*
X216154000Y-90297000D02*
X215392000Y-89535000D01*
X190373000Y-88519000D02*
X190500000Y-88519000D01*
X219075000Y-91821000D02*
X217678000Y-91821000D01*
X216916000Y-85344000D02*
X217043000Y-85217000D01*
X217678000Y-91821000D02*
X216154000Y-90297000D01*
X205232000Y-84074000D02*
X205232000Y-89535000D01*
X200533000Y-89535000D02*
X205232000Y-89535000D01*
X186563000Y-88519000D02*
X190373000Y-88519000D01*
X184531000Y-89535000D02*
X185547000Y-89535000D01*
X217043000Y-85217000D02*
X218186000Y-85217000D01*
X186309000Y-79121000D02*
X186309000Y-78994000D01*
X188722000Y-81534000D02*
X186309000Y-79121000D01*
X192405000Y-81534000D02*
X188722000Y-81534000D01*
X192532000Y-81661000D02*
X192405000Y-81534000D01*
X190500000Y-88519000D02*
X199517000Y-88519000D01*
X216154000Y-86106000D02*
X216916000Y-85344000D01*
X187452000Y-91440000D02*
X185547000Y-89535000D01*
X186563000Y-88519000D02*
X185547000Y-89535000D01*
G04 #@! TD*
G04 #@! TA.AperFunction,Conductor*
G04 #@! TO.N,GND*
G36*
X181646394Y-97625342D02*
G01*
X181690188Y-97653635D01*
X182058864Y-98022311D01*
X182092349Y-98083634D01*
X182087365Y-98153326D01*
X182058864Y-98197673D01*
X181976000Y-98280536D01*
X181976000Y-98723000D01*
X181476000Y-98723000D01*
X181476000Y-98146553D01*
X181189628Y-97860181D01*
X181156143Y-97798858D01*
X181161127Y-97729166D01*
X181162195Y-97727738D01*
X181186448Y-97786291D01*
X181242709Y-97842552D01*
X181316218Y-97873000D01*
X181395782Y-97873000D01*
X181469291Y-97842552D01*
X181525552Y-97786291D01*
X181556000Y-97712782D01*
X181556000Y-97633218D01*
X181552655Y-97625142D01*
X181576727Y-97620026D01*
X181646394Y-97625342D01*
G37*
G04 #@! TD.AperFunction*
G04 #@! TA.AperFunction,Conductor*
G36*
X215137236Y-92112585D02*
G01*
X215157878Y-92129219D01*
X217058383Y-94029723D01*
X217091868Y-94091046D01*
X217093175Y-94136801D01*
X217074500Y-94254712D01*
X217074500Y-94467286D01*
X217097199Y-94610606D01*
X217107754Y-94677243D01*
X217142894Y-94785393D01*
X217173444Y-94879414D01*
X217269951Y-95068820D01*
X217394890Y-95240786D01*
X217545213Y-95391109D01*
X217717182Y-95516050D01*
X217725946Y-95520516D01*
X217776742Y-95568491D01*
X217793536Y-95636312D01*
X217770998Y-95702447D01*
X217725946Y-95741484D01*
X217717182Y-95745949D01*
X217545213Y-95870890D01*
X217394896Y-96021207D01*
X217345604Y-96089053D01*
X217269949Y-96193184D01*
X217269947Y-96193186D01*
X217267188Y-96196985D01*
X217211858Y-96239651D01*
X217166869Y-96248100D01*
X216470693Y-96248100D01*
X216344561Y-96273189D01*
X216344555Y-96273191D01*
X216225737Y-96322407D01*
X216118797Y-96393861D01*
X216118796Y-96393862D01*
X215278478Y-97234181D01*
X215217155Y-97267666D01*
X215190797Y-97270500D01*
X215170354Y-97270500D01*
X215139501Y-97277058D01*
X214985197Y-97309855D01*
X214985192Y-97309857D01*
X214812270Y-97386848D01*
X214812265Y-97386851D01*
X214664213Y-97494418D01*
X214598407Y-97517898D01*
X214591328Y-97518100D01*
X214258227Y-97518100D01*
X214191188Y-97498415D01*
X214145433Y-97445611D01*
X214135489Y-97376453D01*
X214164514Y-97312897D01*
X214217273Y-97277058D01*
X214370805Y-97223334D01*
X214370806Y-97223334D01*
X214384606Y-97214661D01*
X214384606Y-97214660D01*
X214021501Y-96851553D01*
X214021500Y-96851553D01*
X213658392Y-97214660D01*
X213658392Y-97214661D01*
X213672192Y-97223333D01*
X213672199Y-97223336D01*
X213825728Y-97277059D01*
X213882504Y-97317780D01*
X213908251Y-97382733D01*
X213894795Y-97451295D01*
X213846407Y-97501697D01*
X213784773Y-97518100D01*
X212733227Y-97518100D01*
X212666188Y-97498415D01*
X212620433Y-97445611D01*
X212610489Y-97376453D01*
X212639514Y-97312897D01*
X212692273Y-97277058D01*
X212845805Y-97223334D01*
X212845806Y-97223334D01*
X212859606Y-97214661D01*
X212859606Y-97214660D01*
X212496501Y-96851553D01*
X212496500Y-96851553D01*
X212133392Y-97214660D01*
X212133392Y-97214661D01*
X212147192Y-97223333D01*
X212147199Y-97223336D01*
X212300728Y-97277059D01*
X212357504Y-97317780D01*
X212383251Y-97382733D01*
X212369795Y-97451295D01*
X212321407Y-97501697D01*
X212259773Y-97518100D01*
X204313602Y-97518100D01*
X204246563Y-97498415D01*
X204200808Y-97445611D01*
X204190864Y-97376453D01*
X204219889Y-97312897D01*
X204225921Y-97306419D01*
X205080180Y-96452161D01*
X211370892Y-96452161D01*
X211384692Y-96460833D01*
X211384691Y-96460833D01*
X211554861Y-96520378D01*
X211597482Y-96525180D01*
X211661896Y-96552246D01*
X211701451Y-96609840D01*
X211706819Y-96634515D01*
X211711621Y-96677138D01*
X211771165Y-96847304D01*
X211779838Y-96861107D01*
X212103164Y-96537782D01*
X212296500Y-96537782D01*
X212326948Y-96611291D01*
X212383209Y-96667552D01*
X212456718Y-96698000D01*
X212536282Y-96698000D01*
X212609791Y-96667552D01*
X212666052Y-96611291D01*
X212696500Y-96537782D01*
X212696500Y-96498002D01*
X212850053Y-96498002D01*
X213213160Y-96861106D01*
X213245122Y-96857506D01*
X213272885Y-96857507D01*
X213304838Y-96861107D01*
X213628164Y-96537782D01*
X213821500Y-96537782D01*
X213851948Y-96611291D01*
X213908209Y-96667552D01*
X213981718Y-96698000D01*
X214061282Y-96698000D01*
X214134791Y-96667552D01*
X214191052Y-96611291D01*
X214221500Y-96537782D01*
X214221500Y-96498000D01*
X214375053Y-96498000D01*
X214738160Y-96861106D01*
X214738161Y-96861106D01*
X214746834Y-96847306D01*
X214746834Y-96847305D01*
X214806378Y-96677139D01*
X214811180Y-96634518D01*
X214838246Y-96570103D01*
X214895840Y-96530548D01*
X214920518Y-96525180D01*
X214963139Y-96520378D01*
X215133305Y-96460834D01*
X215133306Y-96460834D01*
X215147106Y-96452161D01*
X215147106Y-96452160D01*
X214784000Y-96089053D01*
X214734055Y-96138999D01*
X214734054Y-96139000D01*
X214375053Y-96497999D01*
X214375053Y-96498000D01*
X214221500Y-96498000D01*
X214221500Y-96458218D01*
X214191052Y-96384709D01*
X214134791Y-96328448D01*
X214061282Y-96298000D01*
X213981718Y-96298000D01*
X213908209Y-96328448D01*
X213851948Y-96384709D01*
X213821500Y-96458218D01*
X213821500Y-96537782D01*
X213628164Y-96537782D01*
X213667946Y-96498000D01*
X213308945Y-96138999D01*
X213259000Y-96089053D01*
X213209055Y-96138999D01*
X213209054Y-96139001D01*
X212850053Y-96497997D01*
X212850053Y-96498002D01*
X212696500Y-96498002D01*
X212696500Y-96458218D01*
X212666052Y-96384709D01*
X212609791Y-96328448D01*
X212536282Y-96298000D01*
X212456718Y-96298000D01*
X212383209Y-96328448D01*
X212326948Y-96384709D01*
X212296500Y-96458218D01*
X212296500Y-96537782D01*
X212103164Y-96537782D01*
X212142946Y-96498000D01*
X211733999Y-96089053D01*
X211733998Y-96089053D01*
X211370892Y-96452160D01*
X211370892Y-96452161D01*
X205080180Y-96452161D01*
X205796839Y-95735502D01*
X210928938Y-95735502D01*
X210949121Y-95914638D01*
X211008665Y-96084804D01*
X211017338Y-96098607D01*
X211340664Y-95775282D01*
X211534000Y-95775282D01*
X211564448Y-95848791D01*
X211620709Y-95905052D01*
X211694218Y-95935500D01*
X211773782Y-95935500D01*
X211847291Y-95905052D01*
X211903552Y-95848791D01*
X211934000Y-95775282D01*
X211934000Y-95735500D01*
X212087553Y-95735500D01*
X212122769Y-95770715D01*
X212496500Y-96144446D01*
X212865664Y-95775282D01*
X213059000Y-95775282D01*
X213089448Y-95848791D01*
X213145709Y-95905052D01*
X213219218Y-95935500D01*
X213298782Y-95935500D01*
X213372291Y-95905052D01*
X213428552Y-95848791D01*
X213459000Y-95775282D01*
X213459000Y-95735500D01*
X213612553Y-95735500D01*
X213647769Y-95770715D01*
X214021500Y-96144446D01*
X214390664Y-95775282D01*
X214584000Y-95775282D01*
X214614448Y-95848791D01*
X214670709Y-95905052D01*
X214744218Y-95935500D01*
X214823782Y-95935500D01*
X214897291Y-95905052D01*
X214953552Y-95848791D01*
X214984000Y-95775282D01*
X214984000Y-95735500D01*
X215137552Y-95735500D01*
X215500660Y-96098606D01*
X215500661Y-96098606D01*
X215509334Y-96084806D01*
X215509334Y-96084805D01*
X215568877Y-95914641D01*
X215568878Y-95914638D01*
X215589062Y-95735502D01*
X215589062Y-95735497D01*
X215568878Y-95556361D01*
X215509333Y-95386192D01*
X215500661Y-95372392D01*
X215500660Y-95372392D01*
X215137552Y-95735500D01*
X214984000Y-95735500D01*
X214984000Y-95695718D01*
X214953552Y-95622209D01*
X214897291Y-95565948D01*
X214823782Y-95535500D01*
X214744218Y-95535500D01*
X214670709Y-95565948D01*
X214614448Y-95622209D01*
X214584000Y-95695718D01*
X214584000Y-95775282D01*
X214390664Y-95775282D01*
X214430446Y-95735500D01*
X214076892Y-95381946D01*
X214021500Y-95326553D01*
X213966108Y-95381946D01*
X213966107Y-95381947D01*
X213612553Y-95735500D01*
X213459000Y-95735500D01*
X213459000Y-95695718D01*
X213428552Y-95622209D01*
X213372291Y-95565948D01*
X213298782Y-95535500D01*
X213219218Y-95535500D01*
X213145709Y-95565948D01*
X213089448Y-95622209D01*
X213059000Y-95695718D01*
X213059000Y-95775282D01*
X212865664Y-95775282D01*
X212905446Y-95735500D01*
X212551892Y-95381946D01*
X212496500Y-95326553D01*
X212441108Y-95381946D01*
X212441107Y-95381947D01*
X212087553Y-95735500D01*
X211934000Y-95735500D01*
X211934000Y-95695718D01*
X211903552Y-95622209D01*
X211847291Y-95565948D01*
X211773782Y-95535500D01*
X211694218Y-95535500D01*
X211620709Y-95565948D01*
X211564448Y-95622209D01*
X211534000Y-95695718D01*
X211534000Y-95775282D01*
X211340664Y-95775282D01*
X211380446Y-95735500D01*
X211380446Y-95735499D01*
X211017338Y-95372391D01*
X211017337Y-95372391D01*
X211008667Y-95386191D01*
X211008662Y-95386201D01*
X210949122Y-95556358D01*
X210949121Y-95556361D01*
X210928938Y-95735497D01*
X210928938Y-95735502D01*
X205796839Y-95735502D01*
X206101122Y-95431219D01*
X206162445Y-95397734D01*
X206188803Y-95394900D01*
X209003328Y-95394900D01*
X209070367Y-95414585D01*
X209076213Y-95418582D01*
X209224265Y-95526148D01*
X209224270Y-95526151D01*
X209397192Y-95603142D01*
X209397197Y-95603144D01*
X209582354Y-95642500D01*
X209582355Y-95642500D01*
X209771644Y-95642500D01*
X209771646Y-95642500D01*
X209956803Y-95603144D01*
X210129730Y-95526151D01*
X210282871Y-95414888D01*
X210409533Y-95274216D01*
X210504179Y-95110284D01*
X210533892Y-95018838D01*
X211370891Y-95018838D01*
X211733998Y-95381946D01*
X211733999Y-95381946D01*
X212103164Y-95012782D01*
X212296500Y-95012782D01*
X212326948Y-95086291D01*
X212383209Y-95142552D01*
X212456718Y-95173000D01*
X212536282Y-95173000D01*
X212609791Y-95142552D01*
X212666052Y-95086291D01*
X212696500Y-95012782D01*
X212696500Y-94973000D01*
X212850053Y-94973000D01*
X212887217Y-95010163D01*
X213259000Y-95381946D01*
X213628164Y-95012782D01*
X213821500Y-95012782D01*
X213851948Y-95086291D01*
X213908209Y-95142552D01*
X213981718Y-95173000D01*
X214061282Y-95173000D01*
X214134791Y-95142552D01*
X214191052Y-95086291D01*
X214221500Y-95012782D01*
X214221500Y-94973000D01*
X214375053Y-94973000D01*
X214412217Y-95010163D01*
X214784000Y-95381946D01*
X214784001Y-95381946D01*
X215147107Y-95018838D01*
X215143507Y-94986885D01*
X215143506Y-94959122D01*
X215147106Y-94927160D01*
X214784000Y-94564053D01*
X214737445Y-94610610D01*
X214737443Y-94610611D01*
X214375053Y-94973000D01*
X214221500Y-94973000D01*
X214221500Y-94933218D01*
X214191052Y-94859709D01*
X214134791Y-94803448D01*
X214061282Y-94773000D01*
X213981718Y-94773000D01*
X213908209Y-94803448D01*
X213851948Y-94859709D01*
X213821500Y-94933218D01*
X213821500Y-95012782D01*
X213628164Y-95012782D01*
X213667946Y-94973000D01*
X213305556Y-94610610D01*
X213259000Y-94564053D01*
X213212444Y-94610610D01*
X213212443Y-94610611D01*
X212850053Y-94973000D01*
X212696500Y-94973000D01*
X212696500Y-94933218D01*
X212666052Y-94859709D01*
X212609791Y-94803448D01*
X212536282Y-94773000D01*
X212456718Y-94773000D01*
X212383209Y-94803448D01*
X212326948Y-94859709D01*
X212296500Y-94933218D01*
X212296500Y-95012782D01*
X212103164Y-95012782D01*
X212105782Y-95010164D01*
X212142946Y-94973000D01*
X211733999Y-94564053D01*
X211733998Y-94564053D01*
X211370892Y-94927160D01*
X211374493Y-94959119D01*
X211374492Y-94986884D01*
X211370891Y-95018838D01*
X210533892Y-95018838D01*
X210562674Y-94930256D01*
X210582460Y-94742000D01*
X210562674Y-94553744D01*
X210504179Y-94373716D01*
X210409948Y-94210502D01*
X210928938Y-94210502D01*
X210949121Y-94389638D01*
X211008665Y-94559804D01*
X211017338Y-94573607D01*
X211340664Y-94250282D01*
X211534000Y-94250282D01*
X211564448Y-94323791D01*
X211620709Y-94380052D01*
X211694218Y-94410500D01*
X211773782Y-94410500D01*
X211847291Y-94380052D01*
X211903552Y-94323791D01*
X211934000Y-94250282D01*
X211934000Y-94210500D01*
X212087553Y-94210500D01*
X212124794Y-94247740D01*
X212496500Y-94619446D01*
X212865664Y-94250282D01*
X213059000Y-94250282D01*
X213089448Y-94323791D01*
X213145709Y-94380052D01*
X213219218Y-94410500D01*
X213298782Y-94410500D01*
X213372291Y-94380052D01*
X213428552Y-94323791D01*
X213459000Y-94250282D01*
X213459000Y-94210500D01*
X213612553Y-94210500D01*
X213649794Y-94247740D01*
X214021500Y-94619446D01*
X214390664Y-94250282D01*
X214584000Y-94250282D01*
X214614448Y-94323791D01*
X214670709Y-94380052D01*
X214744218Y-94410500D01*
X214823782Y-94410500D01*
X214897291Y-94380052D01*
X214953552Y-94323791D01*
X214984000Y-94250282D01*
X214984000Y-94210500D01*
X215137553Y-94210500D01*
X215500660Y-94573606D01*
X215500661Y-94573606D01*
X215509334Y-94559806D01*
X215509334Y-94559805D01*
X215568877Y-94389641D01*
X215568878Y-94389638D01*
X215589062Y-94210502D01*
X215589062Y-94210497D01*
X215568878Y-94031361D01*
X215509333Y-93861192D01*
X215500661Y-93847392D01*
X215500660Y-93847392D01*
X215137553Y-94210500D01*
X214984000Y-94210500D01*
X214984000Y-94170718D01*
X214953552Y-94097209D01*
X214897291Y-94040948D01*
X214823782Y-94010500D01*
X214744218Y-94010500D01*
X214670709Y-94040948D01*
X214614448Y-94097209D01*
X214584000Y-94170718D01*
X214584000Y-94250282D01*
X214390664Y-94250282D01*
X214430446Y-94210500D01*
X214061445Y-93841499D01*
X214021500Y-93801553D01*
X213981555Y-93841499D01*
X213981554Y-93841500D01*
X213612553Y-94210500D01*
X213459000Y-94210500D01*
X213459000Y-94170718D01*
X213428552Y-94097209D01*
X213372291Y-94040948D01*
X213298782Y-94010500D01*
X213219218Y-94010500D01*
X213145709Y-94040948D01*
X213089448Y-94097209D01*
X213059000Y-94170718D01*
X213059000Y-94250282D01*
X212865664Y-94250282D01*
X212905446Y-94210500D01*
X212536445Y-93841499D01*
X212496500Y-93801553D01*
X212456555Y-93841499D01*
X212456554Y-93841500D01*
X212087553Y-94210500D01*
X211934000Y-94210500D01*
X211934000Y-94170718D01*
X211903552Y-94097209D01*
X211847291Y-94040948D01*
X211773782Y-94010500D01*
X211694218Y-94010500D01*
X211620709Y-94040948D01*
X211564448Y-94097209D01*
X211534000Y-94170718D01*
X211534000Y-94250282D01*
X211340664Y-94250282D01*
X211380446Y-94210500D01*
X211380446Y-94210499D01*
X211017338Y-93847391D01*
X211017337Y-93847391D01*
X211008667Y-93861191D01*
X211008662Y-93861201D01*
X210949122Y-94031358D01*
X210949121Y-94031361D01*
X210928938Y-94210497D01*
X210928938Y-94210502D01*
X210409948Y-94210502D01*
X210409533Y-94209784D01*
X210282871Y-94069112D01*
X210277787Y-94065418D01*
X210129734Y-93957851D01*
X210129729Y-93957848D01*
X209956807Y-93880857D01*
X209956802Y-93880855D01*
X209799361Y-93847391D01*
X209771646Y-93841500D01*
X209582354Y-93841500D01*
X209554639Y-93847391D01*
X209397197Y-93880855D01*
X209397192Y-93880857D01*
X209224270Y-93957848D01*
X209224265Y-93957851D01*
X209076213Y-94065418D01*
X209010407Y-94088898D01*
X209003328Y-94089100D01*
X205802693Y-94089100D01*
X205676561Y-94114189D01*
X205676555Y-94114191D01*
X205557733Y-94163408D01*
X205557732Y-94163409D01*
X205556374Y-94164317D01*
X205555555Y-94164573D01*
X205552366Y-94166278D01*
X205552042Y-94165672D01*
X205489694Y-94185187D01*
X205422316Y-94166695D01*
X205375632Y-94114711D01*
X205364463Y-94045740D01*
X205392356Y-93981679D01*
X205399807Y-93973533D01*
X205879502Y-93493838D01*
X211370891Y-93493838D01*
X211733998Y-93856946D01*
X211733999Y-93856946D01*
X212103165Y-93487782D01*
X212296500Y-93487782D01*
X212326948Y-93561291D01*
X212383209Y-93617552D01*
X212456718Y-93648000D01*
X212536282Y-93648000D01*
X212609791Y-93617552D01*
X212666052Y-93561291D01*
X212696500Y-93487782D01*
X212696500Y-93447999D01*
X212850053Y-93447999D01*
X213259000Y-93856946D01*
X213628165Y-93487782D01*
X213821500Y-93487782D01*
X213851948Y-93561291D01*
X213908209Y-93617552D01*
X213981718Y-93648000D01*
X214061282Y-93648000D01*
X214134791Y-93617552D01*
X214191052Y-93561291D01*
X214221500Y-93487782D01*
X214221500Y-93447999D01*
X214375053Y-93447999D01*
X214784000Y-93856946D01*
X214784001Y-93856946D01*
X215147107Y-93493838D01*
X215133304Y-93485165D01*
X214963138Y-93425621D01*
X214920515Y-93420819D01*
X214856102Y-93393752D01*
X214816547Y-93336157D01*
X214811180Y-93311482D01*
X214806378Y-93268861D01*
X214746833Y-93098692D01*
X214738161Y-93084892D01*
X214738160Y-93084892D01*
X214375053Y-93447998D01*
X214375053Y-93447999D01*
X214221500Y-93447999D01*
X214221500Y-93408218D01*
X214191052Y-93334709D01*
X214134791Y-93278448D01*
X214061282Y-93248000D01*
X213981718Y-93248000D01*
X213908209Y-93278448D01*
X213851948Y-93334709D01*
X213821500Y-93408218D01*
X213821500Y-93487782D01*
X213628165Y-93487782D01*
X213634739Y-93481208D01*
X213667946Y-93447999D01*
X213667946Y-93447998D01*
X213304837Y-93084890D01*
X213272885Y-93088491D01*
X213245122Y-93088492D01*
X213213160Y-93084891D01*
X212850053Y-93447998D01*
X212850053Y-93447999D01*
X212696500Y-93447999D01*
X212696500Y-93408218D01*
X212666052Y-93334709D01*
X212609791Y-93278448D01*
X212536282Y-93248000D01*
X212456718Y-93248000D01*
X212383209Y-93278448D01*
X212326948Y-93334709D01*
X212296500Y-93408218D01*
X212296500Y-93487782D01*
X212103165Y-93487782D01*
X212109739Y-93481208D01*
X212142946Y-93447999D01*
X212142946Y-93447998D01*
X211779838Y-93084891D01*
X211779837Y-93084891D01*
X211771167Y-93098691D01*
X211771162Y-93098701D01*
X211711622Y-93268858D01*
X211706819Y-93311484D01*
X211679752Y-93375898D01*
X211622156Y-93415452D01*
X211597484Y-93420819D01*
X211554858Y-93425622D01*
X211384701Y-93485162D01*
X211384691Y-93485167D01*
X211370891Y-93493837D01*
X211370891Y-93493838D01*
X205879502Y-93493838D01*
X206642001Y-92731338D01*
X212133391Y-92731338D01*
X212496500Y-93094446D01*
X212496501Y-93094446D01*
X212859607Y-92731338D01*
X213658391Y-92731338D01*
X214021500Y-93094446D01*
X214021501Y-93094446D01*
X214384607Y-92731338D01*
X214370804Y-92722665D01*
X214200638Y-92663121D01*
X214021503Y-92642938D01*
X214021497Y-92642938D01*
X213842361Y-92663121D01*
X213842358Y-92663122D01*
X213672201Y-92722662D01*
X213672191Y-92722667D01*
X213658391Y-92731337D01*
X213658391Y-92731338D01*
X212859607Y-92731338D01*
X212845804Y-92722665D01*
X212675638Y-92663121D01*
X212496503Y-92642938D01*
X212496497Y-92642938D01*
X212317361Y-92663121D01*
X212317358Y-92663122D01*
X212147201Y-92722662D01*
X212147191Y-92722667D01*
X212133391Y-92731337D01*
X212133391Y-92731338D01*
X206642001Y-92731338D01*
X207244121Y-92129218D01*
X207305444Y-92095734D01*
X207331802Y-92092900D01*
X215070197Y-92092900D01*
X215137236Y-92112585D01*
G37*
G04 #@! TD.AperFunction*
G04 #@! TA.AperFunction,Conductor*
G36*
X181976000Y-91115462D02*
G01*
X182058864Y-91198326D01*
X182092349Y-91259649D01*
X182087365Y-91329341D01*
X182058864Y-91373688D01*
X181690187Y-91742364D01*
X181628864Y-91775849D01*
X181576726Y-91775974D01*
X181552654Y-91770857D01*
X181556000Y-91762782D01*
X181556000Y-91683218D01*
X181525552Y-91609709D01*
X181469291Y-91553448D01*
X181395782Y-91523000D01*
X181316218Y-91523000D01*
X181242709Y-91553448D01*
X181186448Y-91609709D01*
X181163196Y-91665843D01*
X181154571Y-91605853D01*
X181183596Y-91542297D01*
X181189628Y-91535819D01*
X181475999Y-91249447D01*
X181476000Y-91249446D01*
X181476000Y-90673000D01*
X181976000Y-90673000D01*
X181976000Y-91115462D01*
G37*
G04 #@! TD.AperFunction*
G04 #@! TA.AperFunction,Conductor*
G36*
X220404060Y-74839020D02*
G01*
X220538061Y-74841295D01*
X220553594Y-74842538D01*
X220819923Y-74880830D01*
X220837209Y-74884590D01*
X221094357Y-74960096D01*
X221110929Y-74966277D01*
X221354717Y-75077612D01*
X221370238Y-75086087D01*
X221595701Y-75230984D01*
X221609856Y-75241580D01*
X221754505Y-75366919D01*
X221812403Y-75417088D01*
X221824913Y-75429598D01*
X222000417Y-75632140D01*
X222011019Y-75646303D01*
X222129315Y-75830375D01*
X222149000Y-75897415D01*
X222149000Y-114780366D01*
X222129315Y-114847405D01*
X222129315Y-114847406D01*
X222010925Y-115031623D01*
X222000323Y-115045786D01*
X221824828Y-115248319D01*
X221812318Y-115260829D01*
X221609789Y-115436322D01*
X221595625Y-115446925D01*
X221370178Y-115591810D01*
X221354650Y-115600288D01*
X221110890Y-115711609D01*
X221094314Y-115717792D01*
X220837185Y-115793292D01*
X220819897Y-115797053D01*
X220553536Y-115835350D01*
X220538101Y-115836592D01*
X220407818Y-115838916D01*
X220404120Y-115838982D01*
X220401910Y-115839002D01*
X183403586Y-115839002D01*
X183402454Y-115838997D01*
X183145236Y-115836649D01*
X183137101Y-115836307D01*
X182623598Y-115797824D01*
X182614384Y-115796786D01*
X182105743Y-115720121D01*
X182096632Y-115718397D01*
X181595143Y-115603936D01*
X181586186Y-115601536D01*
X181094647Y-115449917D01*
X181085894Y-115446854D01*
X180607079Y-115258933D01*
X180598579Y-115255225D01*
X180135126Y-115032037D01*
X180126928Y-115027704D01*
X179742444Y-114805723D01*
X179681463Y-114770515D01*
X179673615Y-114765585D01*
X179512097Y-114655464D01*
X179248596Y-114475811D01*
X179241137Y-114470306D01*
X179162334Y-114407463D01*
X179020329Y-114294217D01*
X178838980Y-114149596D01*
X178831952Y-114143548D01*
X178550334Y-113882246D01*
X183562000Y-113882246D01*
X183595242Y-114092127D01*
X183595242Y-114092130D01*
X183660904Y-114294217D01*
X183757379Y-114483557D01*
X183882272Y-114655459D01*
X183882276Y-114655464D01*
X184032535Y-114805723D01*
X184032540Y-114805727D01*
X184204442Y-114930620D01*
X184393782Y-115027095D01*
X184595871Y-115092757D01*
X184662000Y-115103231D01*
X184662000Y-113209012D01*
X184719007Y-113241925D01*
X184846174Y-113276000D01*
X184977826Y-113276000D01*
X185104993Y-113241925D01*
X185162000Y-113209012D01*
X185162000Y-115103230D01*
X185228126Y-115092757D01*
X185228129Y-115092757D01*
X185430217Y-115027095D01*
X185619557Y-114930620D01*
X185791459Y-114805727D01*
X185791464Y-114805723D01*
X185941723Y-114655464D01*
X185941727Y-114655459D01*
X186066620Y-114483558D01*
X186071232Y-114474507D01*
X186119205Y-114423709D01*
X186187025Y-114406912D01*
X186253161Y-114429447D01*
X186292204Y-114474504D01*
X186296949Y-114483817D01*
X186421890Y-114655786D01*
X186572213Y-114806109D01*
X186744179Y-114931048D01*
X186744181Y-114931049D01*
X186744184Y-114931051D01*
X186933588Y-115027557D01*
X187135757Y-115093246D01*
X187345713Y-115126500D01*
X187345714Y-115126500D01*
X187558286Y-115126500D01*
X187558287Y-115126500D01*
X187768243Y-115093246D01*
X187970412Y-115027557D01*
X188159816Y-114931051D01*
X188181789Y-114915086D01*
X188331786Y-114806109D01*
X188331788Y-114806106D01*
X188331792Y-114806104D01*
X188482104Y-114655792D01*
X188482106Y-114655788D01*
X188482109Y-114655786D01*
X188607048Y-114483820D01*
X188607047Y-114483820D01*
X188607051Y-114483816D01*
X188611514Y-114475054D01*
X188659488Y-114424259D01*
X188727308Y-114407463D01*
X188793444Y-114429999D01*
X188832484Y-114475054D01*
X188836591Y-114483115D01*
X188836951Y-114483820D01*
X188961890Y-114655786D01*
X189112213Y-114806109D01*
X189284179Y-114931048D01*
X189284181Y-114931049D01*
X189284184Y-114931051D01*
X189473588Y-115027557D01*
X189675757Y-115093246D01*
X189885713Y-115126500D01*
X189885714Y-115126500D01*
X190098286Y-115126500D01*
X190098287Y-115126500D01*
X190308243Y-115093246D01*
X190510412Y-115027557D01*
X190699816Y-114931051D01*
X190721789Y-114915086D01*
X190871786Y-114806109D01*
X190871788Y-114806106D01*
X190871792Y-114806104D01*
X191022104Y-114655792D01*
X191022106Y-114655788D01*
X191022109Y-114655786D01*
X191147048Y-114483820D01*
X191147047Y-114483820D01*
X191147051Y-114483816D01*
X191151514Y-114475054D01*
X191199488Y-114424259D01*
X191267308Y-114407463D01*
X191333444Y-114429999D01*
X191372484Y-114475054D01*
X191376591Y-114483115D01*
X191376951Y-114483820D01*
X191501890Y-114655786D01*
X191652213Y-114806109D01*
X191824179Y-114931048D01*
X191824181Y-114931049D01*
X191824184Y-114931051D01*
X192013588Y-115027557D01*
X192215757Y-115093246D01*
X192425713Y-115126500D01*
X192425714Y-115126500D01*
X192638286Y-115126500D01*
X192638287Y-115126500D01*
X192848243Y-115093246D01*
X193050412Y-115027557D01*
X193239816Y-114931051D01*
X193261789Y-114915086D01*
X193411786Y-114806109D01*
X193411788Y-114806106D01*
X193411792Y-114806104D01*
X193562104Y-114655792D01*
X193562106Y-114655788D01*
X193562109Y-114655786D01*
X193687048Y-114483820D01*
X193687047Y-114483820D01*
X193687051Y-114483816D01*
X193691514Y-114475054D01*
X193739488Y-114424259D01*
X193807308Y-114407463D01*
X193873444Y-114429999D01*
X193912484Y-114475054D01*
X193916591Y-114483115D01*
X193916951Y-114483820D01*
X194041890Y-114655786D01*
X194192213Y-114806109D01*
X194364179Y-114931048D01*
X194364181Y-114931049D01*
X194364184Y-114931051D01*
X194553588Y-115027557D01*
X194755757Y-115093246D01*
X194965713Y-115126500D01*
X194965714Y-115126500D01*
X195178286Y-115126500D01*
X195178287Y-115126500D01*
X195388243Y-115093246D01*
X195590412Y-115027557D01*
X195779816Y-114931051D01*
X195801789Y-114915086D01*
X195951786Y-114806109D01*
X195951788Y-114806106D01*
X195951792Y-114806104D01*
X196102104Y-114655792D01*
X196102106Y-114655788D01*
X196102109Y-114655786D01*
X196227048Y-114483820D01*
X196227047Y-114483820D01*
X196227051Y-114483816D01*
X196231514Y-114475054D01*
X196279488Y-114424259D01*
X196347308Y-114407463D01*
X196413444Y-114429999D01*
X196452484Y-114475054D01*
X196456591Y-114483115D01*
X196456951Y-114483820D01*
X196581890Y-114655786D01*
X196732213Y-114806109D01*
X196904179Y-114931048D01*
X196904181Y-114931049D01*
X196904184Y-114931051D01*
X197093588Y-115027557D01*
X197295757Y-115093246D01*
X197505713Y-115126500D01*
X197505714Y-115126500D01*
X197718286Y-115126500D01*
X197718287Y-115126500D01*
X197928243Y-115093246D01*
X198130412Y-115027557D01*
X198319816Y-114931051D01*
X198341789Y-114915086D01*
X198491786Y-114806109D01*
X198491788Y-114806106D01*
X198491792Y-114806104D01*
X198642104Y-114655792D01*
X198642106Y-114655788D01*
X198642109Y-114655786D01*
X198767048Y-114483820D01*
X198767047Y-114483820D01*
X198767051Y-114483816D01*
X198771514Y-114475054D01*
X198819488Y-114424259D01*
X198887308Y-114407463D01*
X198953444Y-114429999D01*
X198992484Y-114475054D01*
X198996591Y-114483115D01*
X198996951Y-114483820D01*
X199121890Y-114655786D01*
X199272213Y-114806109D01*
X199444179Y-114931048D01*
X199444181Y-114931049D01*
X199444184Y-114931051D01*
X199633588Y-115027557D01*
X199835757Y-115093246D01*
X200045713Y-115126500D01*
X200045714Y-115126500D01*
X200258286Y-115126500D01*
X200258287Y-115126500D01*
X200468243Y-115093246D01*
X200670412Y-115027557D01*
X200859816Y-114931051D01*
X200881789Y-114915086D01*
X201031786Y-114806109D01*
X201031788Y-114806106D01*
X201031792Y-114806104D01*
X201182104Y-114655792D01*
X201182106Y-114655788D01*
X201182109Y-114655786D01*
X201307048Y-114483820D01*
X201307047Y-114483820D01*
X201307051Y-114483816D01*
X201311514Y-114475054D01*
X201359488Y-114424259D01*
X201427308Y-114407463D01*
X201493444Y-114429999D01*
X201532484Y-114475054D01*
X201536591Y-114483115D01*
X201536951Y-114483820D01*
X201661890Y-114655786D01*
X201812213Y-114806109D01*
X201984179Y-114931048D01*
X201984181Y-114931049D01*
X201984184Y-114931051D01*
X202173588Y-115027557D01*
X202375757Y-115093246D01*
X202585713Y-115126500D01*
X202585714Y-115126500D01*
X202798286Y-115126500D01*
X202798287Y-115126500D01*
X203008243Y-115093246D01*
X203210412Y-115027557D01*
X203399816Y-114931051D01*
X203421789Y-114915086D01*
X203571786Y-114806109D01*
X203571788Y-114806106D01*
X203571792Y-114806104D01*
X203722104Y-114655792D01*
X203722106Y-114655788D01*
X203722109Y-114655786D01*
X203847048Y-114483820D01*
X203847047Y-114483820D01*
X203847051Y-114483816D01*
X203851514Y-114475054D01*
X203899488Y-114424259D01*
X203967308Y-114407463D01*
X204033444Y-114429999D01*
X204072484Y-114475054D01*
X204076591Y-114483115D01*
X204076951Y-114483820D01*
X204201890Y-114655786D01*
X204352213Y-114806109D01*
X204524179Y-114931048D01*
X204524181Y-114931049D01*
X204524184Y-114931051D01*
X204713588Y-115027557D01*
X204915757Y-115093246D01*
X205125713Y-115126500D01*
X205125714Y-115126500D01*
X205338286Y-115126500D01*
X205338287Y-115126500D01*
X205548243Y-115093246D01*
X205750412Y-115027557D01*
X205939816Y-114931051D01*
X205961789Y-114915086D01*
X206111786Y-114806109D01*
X206111788Y-114806106D01*
X206111792Y-114806104D01*
X206262104Y-114655792D01*
X206262106Y-114655788D01*
X206262109Y-114655786D01*
X206387048Y-114483820D01*
X206387047Y-114483820D01*
X206387051Y-114483816D01*
X206391514Y-114475054D01*
X206439488Y-114424259D01*
X206507308Y-114407463D01*
X206573444Y-114429999D01*
X206612484Y-114475054D01*
X206616591Y-114483115D01*
X206616951Y-114483820D01*
X206741890Y-114655786D01*
X206892213Y-114806109D01*
X207064179Y-114931048D01*
X207064181Y-114931049D01*
X207064184Y-114931051D01*
X207253588Y-115027557D01*
X207455757Y-115093246D01*
X207665713Y-115126500D01*
X207665714Y-115126500D01*
X207878286Y-115126500D01*
X207878287Y-115126500D01*
X208088243Y-115093246D01*
X208290412Y-115027557D01*
X208479816Y-114931051D01*
X208501789Y-114915086D01*
X208651786Y-114806109D01*
X208651788Y-114806106D01*
X208651792Y-114806104D01*
X208802104Y-114655792D01*
X208802106Y-114655788D01*
X208802109Y-114655786D01*
X208927048Y-114483820D01*
X208927047Y-114483820D01*
X208927051Y-114483816D01*
X208931514Y-114475054D01*
X208979488Y-114424259D01*
X209047308Y-114407463D01*
X209113444Y-114429999D01*
X209152484Y-114475054D01*
X209156591Y-114483115D01*
X209156951Y-114483820D01*
X209281890Y-114655786D01*
X209432213Y-114806109D01*
X209604179Y-114931048D01*
X209604181Y-114931049D01*
X209604184Y-114931051D01*
X209793588Y-115027557D01*
X209995757Y-115093246D01*
X210205713Y-115126500D01*
X210205714Y-115126500D01*
X210418286Y-115126500D01*
X210418287Y-115126500D01*
X210628243Y-115093246D01*
X210830412Y-115027557D01*
X211019816Y-114931051D01*
X211041789Y-114915086D01*
X211191786Y-114806109D01*
X211191788Y-114806106D01*
X211191792Y-114806104D01*
X211342104Y-114655792D01*
X211342106Y-114655788D01*
X211342109Y-114655786D01*
X211467048Y-114483820D01*
X211467047Y-114483820D01*
X211467051Y-114483816D01*
X211471514Y-114475054D01*
X211519488Y-114424259D01*
X211587308Y-114407463D01*
X211653444Y-114429999D01*
X211692484Y-114475054D01*
X211696591Y-114483115D01*
X211696951Y-114483820D01*
X211821890Y-114655786D01*
X211972213Y-114806109D01*
X212144179Y-114931048D01*
X212144181Y-114931049D01*
X212144184Y-114931051D01*
X212333588Y-115027557D01*
X212535757Y-115093246D01*
X212745713Y-115126500D01*
X212745714Y-115126500D01*
X212958286Y-115126500D01*
X212958287Y-115126500D01*
X213168243Y-115093246D01*
X213370412Y-115027557D01*
X213559816Y-114931051D01*
X213581789Y-114915086D01*
X213731786Y-114806109D01*
X213731788Y-114806106D01*
X213731792Y-114806104D01*
X213882104Y-114655792D01*
X213882106Y-114655788D01*
X213882109Y-114655786D01*
X214007048Y-114483820D01*
X214007047Y-114483820D01*
X214007051Y-114483816D01*
X214011514Y-114475054D01*
X214059488Y-114424259D01*
X214127308Y-114407463D01*
X214193444Y-114429999D01*
X214232484Y-114475054D01*
X214236591Y-114483115D01*
X214236951Y-114483820D01*
X214361890Y-114655786D01*
X214512213Y-114806109D01*
X214684179Y-114931048D01*
X214684181Y-114931049D01*
X214684184Y-114931051D01*
X214873588Y-115027557D01*
X215075757Y-115093246D01*
X215285713Y-115126500D01*
X215285714Y-115126500D01*
X215498286Y-115126500D01*
X215498287Y-115126500D01*
X215708243Y-115093246D01*
X215910412Y-115027557D01*
X216099816Y-114931051D01*
X216121789Y-114915086D01*
X216271786Y-114806109D01*
X216271788Y-114806106D01*
X216271792Y-114806104D01*
X216422104Y-114655792D01*
X216422106Y-114655788D01*
X216422109Y-114655786D01*
X216547048Y-114483820D01*
X216547047Y-114483820D01*
X216547051Y-114483816D01*
X216551514Y-114475054D01*
X216599488Y-114424259D01*
X216667308Y-114407463D01*
X216733444Y-114429999D01*
X216772484Y-114475054D01*
X216776591Y-114483115D01*
X216776951Y-114483820D01*
X216901890Y-114655786D01*
X217052213Y-114806109D01*
X217224179Y-114931048D01*
X217224181Y-114931049D01*
X217224184Y-114931051D01*
X217413588Y-115027557D01*
X217615757Y-115093246D01*
X217825713Y-115126500D01*
X217825714Y-115126500D01*
X218038286Y-115126500D01*
X218038287Y-115126500D01*
X218248243Y-115093246D01*
X218450412Y-115027557D01*
X218639816Y-114931051D01*
X218661789Y-114915086D01*
X218811786Y-114806109D01*
X218811788Y-114806106D01*
X218811792Y-114806104D01*
X218962104Y-114655792D01*
X218962106Y-114655788D01*
X218962109Y-114655786D01*
X219087048Y-114483820D01*
X219087051Y-114483816D01*
X219091793Y-114474508D01*
X219139763Y-114423711D01*
X219207583Y-114406911D01*
X219273719Y-114429445D01*
X219312763Y-114474500D01*
X219317377Y-114483555D01*
X219442272Y-114655459D01*
X219442276Y-114655464D01*
X219592535Y-114805723D01*
X219592540Y-114805727D01*
X219764442Y-114930620D01*
X219953782Y-115027095D01*
X220155871Y-115092757D01*
X220222000Y-115103231D01*
X220222000Y-113209012D01*
X220279007Y-113241925D01*
X220406174Y-113276000D01*
X220537826Y-113276000D01*
X220664993Y-113241925D01*
X220722000Y-113209012D01*
X220722000Y-115103230D01*
X220788126Y-115092757D01*
X220788129Y-115092757D01*
X220990217Y-115027095D01*
X221179557Y-114930620D01*
X221351459Y-114805727D01*
X221351464Y-114805723D01*
X221501723Y-114655464D01*
X221501727Y-114655459D01*
X221626620Y-114483557D01*
X221723095Y-114294217D01*
X221788757Y-114092130D01*
X221788757Y-114092127D01*
X221822000Y-113882246D01*
X221822000Y-113026000D01*
X220905012Y-113026000D01*
X220937925Y-112968993D01*
X220972000Y-112841826D01*
X220972000Y-112710174D01*
X220937925Y-112583007D01*
X220905012Y-112526000D01*
X221822000Y-112526000D01*
X221822000Y-111669753D01*
X221788757Y-111459872D01*
X221788757Y-111459869D01*
X221723095Y-111257782D01*
X221626620Y-111068442D01*
X221501727Y-110896540D01*
X221501723Y-110896535D01*
X221351464Y-110746276D01*
X221351459Y-110746272D01*
X221179557Y-110621379D01*
X220990215Y-110524903D01*
X220788124Y-110459241D01*
X220722000Y-110448768D01*
X220722000Y-112342988D01*
X220664993Y-112310075D01*
X220537826Y-112276000D01*
X220406174Y-112276000D01*
X220279007Y-112310075D01*
X220222000Y-112342988D01*
X220222000Y-110446322D01*
X220187416Y-110393345D01*
X220186916Y-110323477D01*
X220218456Y-110269883D01*
X220852140Y-109636200D01*
X220923592Y-109529264D01*
X220972809Y-109410444D01*
X220974436Y-109402264D01*
X220997900Y-109284305D01*
X220997900Y-106840256D01*
X221017585Y-106773217D01*
X221029750Y-106757284D01*
X221077533Y-106704216D01*
X221172179Y-106540284D01*
X221230674Y-106360256D01*
X221250460Y-106172000D01*
X221230674Y-105983744D01*
X221172179Y-105803716D01*
X221077533Y-105639784D01*
X220950871Y-105499112D01*
X220925382Y-105480593D01*
X220797734Y-105387851D01*
X220797729Y-105387848D01*
X220624807Y-105310857D01*
X220624802Y-105310855D01*
X220479001Y-105279865D01*
X220439646Y-105271500D01*
X220250354Y-105271500D01*
X220217897Y-105278398D01*
X220065197Y-105310855D01*
X220065192Y-105310857D01*
X219892270Y-105387848D01*
X219892265Y-105387851D01*
X219739129Y-105499111D01*
X219612466Y-105639785D01*
X219517821Y-105803715D01*
X219517818Y-105803722D01*
X219459327Y-105983740D01*
X219459326Y-105983744D01*
X219439540Y-106172000D01*
X219459326Y-106360256D01*
X219459327Y-106360259D01*
X219517818Y-106540277D01*
X219517821Y-106540284D01*
X219612467Y-106704216D01*
X219660250Y-106757284D01*
X219690480Y-106820275D01*
X219692100Y-106840256D01*
X219692100Y-108898196D01*
X219672415Y-108965235D01*
X219655781Y-108985877D01*
X218236513Y-110405144D01*
X218175190Y-110438629D01*
X218129433Y-110439936D01*
X218038291Y-110425500D01*
X218038287Y-110425500D01*
X217825713Y-110425500D01*
X217777042Y-110433208D01*
X217615760Y-110458753D01*
X217413585Y-110524444D01*
X217224179Y-110620951D01*
X217052213Y-110745890D01*
X216901890Y-110896213D01*
X216776949Y-111068182D01*
X216772484Y-111076946D01*
X216724509Y-111127742D01*
X216656688Y-111144536D01*
X216590553Y-111121998D01*
X216551516Y-111076946D01*
X216547050Y-111068182D01*
X216422109Y-110896213D01*
X216271786Y-110745890D01*
X216099820Y-110620951D01*
X215910414Y-110524444D01*
X215910413Y-110524443D01*
X215910412Y-110524443D01*
X215708243Y-110458754D01*
X215708241Y-110458753D01*
X215708240Y-110458753D01*
X215546957Y-110433208D01*
X215498287Y-110425500D01*
X215285713Y-110425500D01*
X215237042Y-110433208D01*
X215075760Y-110458753D01*
X214873585Y-110524444D01*
X214684179Y-110620951D01*
X214512213Y-110745890D01*
X214361890Y-110896213D01*
X214236949Y-111068182D01*
X214232484Y-111076946D01*
X214184509Y-111127742D01*
X214116688Y-111144536D01*
X214050553Y-111121998D01*
X214011516Y-111076946D01*
X214007050Y-111068182D01*
X213882109Y-110896213D01*
X213731786Y-110745890D01*
X213559820Y-110620951D01*
X213370414Y-110524444D01*
X213370413Y-110524443D01*
X213370412Y-110524443D01*
X213168243Y-110458754D01*
X213168241Y-110458753D01*
X213168240Y-110458753D01*
X213006957Y-110433208D01*
X212958287Y-110425500D01*
X212745713Y-110425500D01*
X212697042Y-110433208D01*
X212535760Y-110458753D01*
X212333585Y-110524444D01*
X212144179Y-110620951D01*
X211972213Y-110745890D01*
X211821890Y-110896213D01*
X211696949Y-111068182D01*
X211692484Y-111076946D01*
X211644509Y-111127742D01*
X211576688Y-111144536D01*
X211510553Y-111121998D01*
X211471516Y-111076946D01*
X211467050Y-111068182D01*
X211342109Y-110896213D01*
X211191786Y-110745890D01*
X211019820Y-110620951D01*
X210830414Y-110524444D01*
X210830413Y-110524443D01*
X210830412Y-110524443D01*
X210628243Y-110458754D01*
X210628241Y-110458753D01*
X210628240Y-110458753D01*
X210466957Y-110433208D01*
X210418287Y-110425500D01*
X210205713Y-110425500D01*
X210157042Y-110433208D01*
X209995760Y-110458753D01*
X209793585Y-110524444D01*
X209604179Y-110620951D01*
X209432213Y-110745890D01*
X209281890Y-110896213D01*
X209156949Y-111068182D01*
X209152484Y-111076946D01*
X209104509Y-111127742D01*
X209036688Y-111144536D01*
X208970553Y-111121998D01*
X208931516Y-111076946D01*
X208927050Y-111068182D01*
X208802109Y-110896213D01*
X208651786Y-110745890D01*
X208479820Y-110620951D01*
X208290414Y-110524444D01*
X208290413Y-110524443D01*
X208290412Y-110524443D01*
X208088243Y-110458754D01*
X208088241Y-110458753D01*
X208088240Y-110458753D01*
X207926957Y-110433208D01*
X207878287Y-110425500D01*
X207665713Y-110425500D01*
X207617042Y-110433208D01*
X207455760Y-110458753D01*
X207253585Y-110524444D01*
X207064179Y-110620951D01*
X206892213Y-110745890D01*
X206741890Y-110896213D01*
X206616949Y-111068182D01*
X206612484Y-111076946D01*
X206564509Y-111127742D01*
X206496688Y-111144536D01*
X206430553Y-111121998D01*
X206391516Y-111076946D01*
X206387050Y-111068182D01*
X206262109Y-110896213D01*
X206111786Y-110745890D01*
X205939820Y-110620951D01*
X205750414Y-110524444D01*
X205750413Y-110524443D01*
X205750412Y-110524443D01*
X205548243Y-110458754D01*
X205548241Y-110458753D01*
X205548240Y-110458753D01*
X205386957Y-110433208D01*
X205338287Y-110425500D01*
X205125713Y-110425500D01*
X205077042Y-110433208D01*
X204915760Y-110458753D01*
X204713585Y-110524444D01*
X204524179Y-110620951D01*
X204352213Y-110745890D01*
X204201890Y-110896213D01*
X204076949Y-111068182D01*
X204072484Y-111076946D01*
X204024509Y-111127742D01*
X203956688Y-111144536D01*
X203890553Y-111121998D01*
X203851516Y-111076946D01*
X203847050Y-111068182D01*
X203722109Y-110896213D01*
X203571786Y-110745890D01*
X203399820Y-110620951D01*
X203210414Y-110524444D01*
X203210413Y-110524443D01*
X203210412Y-110524443D01*
X203008243Y-110458754D01*
X203008241Y-110458753D01*
X203008240Y-110458753D01*
X202846957Y-110433208D01*
X202798287Y-110425500D01*
X202585713Y-110425500D01*
X202537042Y-110433208D01*
X202375760Y-110458753D01*
X202173585Y-110524444D01*
X201984179Y-110620951D01*
X201812213Y-110745890D01*
X201661890Y-110896213D01*
X201536949Y-111068182D01*
X201532484Y-111076946D01*
X201484509Y-111127742D01*
X201416688Y-111144536D01*
X201350553Y-111121998D01*
X201311516Y-111076946D01*
X201307050Y-111068182D01*
X201182109Y-110896213D01*
X201031786Y-110745890D01*
X200859820Y-110620951D01*
X200670414Y-110524444D01*
X200670413Y-110524443D01*
X200670412Y-110524443D01*
X200468243Y-110458754D01*
X200468241Y-110458753D01*
X200468240Y-110458753D01*
X200306957Y-110433208D01*
X200258287Y-110425500D01*
X200045713Y-110425500D01*
X199997042Y-110433208D01*
X199835760Y-110458753D01*
X199633585Y-110524444D01*
X199444179Y-110620951D01*
X199272213Y-110745890D01*
X199121890Y-110896213D01*
X198996949Y-111068182D01*
X198992484Y-111076946D01*
X198944509Y-111127742D01*
X198876688Y-111144536D01*
X198810553Y-111121998D01*
X198771516Y-111076946D01*
X198767050Y-111068182D01*
X198642109Y-110896213D01*
X198491786Y-110745890D01*
X198319820Y-110620951D01*
X198130414Y-110524444D01*
X198130413Y-110524443D01*
X198130412Y-110524443D01*
X197928243Y-110458754D01*
X197928241Y-110458753D01*
X197928240Y-110458753D01*
X197766957Y-110433208D01*
X197718287Y-110425500D01*
X197505713Y-110425500D01*
X197457042Y-110433208D01*
X197295760Y-110458753D01*
X197093585Y-110524444D01*
X196904179Y-110620951D01*
X196732213Y-110745890D01*
X196581890Y-110896213D01*
X196456949Y-111068182D01*
X196452484Y-111076946D01*
X196404509Y-111127742D01*
X196336688Y-111144536D01*
X196270553Y-111121998D01*
X196231516Y-111076946D01*
X196227050Y-111068182D01*
X196102109Y-110896213D01*
X195951786Y-110745890D01*
X195779820Y-110620951D01*
X195590414Y-110524444D01*
X195590413Y-110524443D01*
X195590412Y-110524443D01*
X195388243Y-110458754D01*
X195388241Y-110458753D01*
X195388240Y-110458753D01*
X195226957Y-110433208D01*
X195178287Y-110425500D01*
X194965713Y-110425500D01*
X194917042Y-110433208D01*
X194755760Y-110458753D01*
X194553585Y-110524444D01*
X194364179Y-110620951D01*
X194192213Y-110745890D01*
X194041890Y-110896213D01*
X193916949Y-111068182D01*
X193912484Y-111076946D01*
X193864509Y-111127742D01*
X193796688Y-111144536D01*
X193730553Y-111121998D01*
X193691516Y-111076946D01*
X193687050Y-111068182D01*
X193562109Y-110896213D01*
X193411786Y-110745890D01*
X193239820Y-110620951D01*
X193050414Y-110524444D01*
X193050413Y-110524443D01*
X193050412Y-110524443D01*
X192848243Y-110458754D01*
X192848241Y-110458753D01*
X192848240Y-110458753D01*
X192686957Y-110433208D01*
X192638287Y-110425500D01*
X192425713Y-110425500D01*
X192377042Y-110433208D01*
X192215760Y-110458753D01*
X192013585Y-110524444D01*
X191824179Y-110620951D01*
X191652213Y-110745890D01*
X191501890Y-110896213D01*
X191376949Y-111068182D01*
X191372484Y-111076946D01*
X191324509Y-111127742D01*
X191256688Y-111144536D01*
X191190553Y-111121998D01*
X191151516Y-111076946D01*
X191147050Y-111068182D01*
X191022109Y-110896213D01*
X190871786Y-110745890D01*
X190699820Y-110620951D01*
X190510414Y-110524444D01*
X190510413Y-110524443D01*
X190510412Y-110524443D01*
X190308243Y-110458754D01*
X190308241Y-110458753D01*
X190308240Y-110458753D01*
X190146957Y-110433208D01*
X190098287Y-110425500D01*
X189885713Y-110425500D01*
X189837042Y-110433208D01*
X189675760Y-110458753D01*
X189473585Y-110524444D01*
X189284179Y-110620951D01*
X189112213Y-110745890D01*
X188961890Y-110896213D01*
X188836949Y-111068182D01*
X188832484Y-111076946D01*
X188784509Y-111127742D01*
X188716688Y-111144536D01*
X188650553Y-111121998D01*
X188611516Y-111076946D01*
X188607050Y-111068182D01*
X188482109Y-110896213D01*
X188331786Y-110745890D01*
X188159820Y-110620951D01*
X187970414Y-110524444D01*
X187970413Y-110524443D01*
X187970412Y-110524443D01*
X187768243Y-110458754D01*
X187768241Y-110458753D01*
X187768240Y-110458753D01*
X187606957Y-110433208D01*
X187558287Y-110425500D01*
X187345713Y-110425500D01*
X187297042Y-110433208D01*
X187135760Y-110458753D01*
X186933585Y-110524444D01*
X186744179Y-110620951D01*
X186572213Y-110745890D01*
X186421890Y-110896213D01*
X186296949Y-111068182D01*
X186292202Y-111077499D01*
X186244227Y-111128293D01*
X186176405Y-111145087D01*
X186110271Y-111122548D01*
X186071234Y-111077495D01*
X186066622Y-111068444D01*
X185941727Y-110896540D01*
X185941723Y-110896535D01*
X185791464Y-110746276D01*
X185791459Y-110746272D01*
X185619557Y-110621379D01*
X185430215Y-110524903D01*
X185228124Y-110459241D01*
X185162000Y-110448768D01*
X185162000Y-112342988D01*
X185104993Y-112310075D01*
X184977826Y-112276000D01*
X184846174Y-112276000D01*
X184719007Y-112310075D01*
X184662000Y-112342988D01*
X184662000Y-110448768D01*
X184661999Y-110448768D01*
X184595875Y-110459241D01*
X184393784Y-110524903D01*
X184204442Y-110621379D01*
X184032540Y-110746272D01*
X184032535Y-110746276D01*
X183882276Y-110896535D01*
X183882272Y-110896540D01*
X183757379Y-111068442D01*
X183660904Y-111257782D01*
X183595242Y-111459869D01*
X183595242Y-111459872D01*
X183562000Y-111669753D01*
X183562000Y-112526000D01*
X184478988Y-112526000D01*
X184446075Y-112583007D01*
X184412000Y-112710174D01*
X184412000Y-112841826D01*
X184446075Y-112968993D01*
X184478988Y-113026000D01*
X183562000Y-113026000D01*
X183562000Y-113882246D01*
X178550334Y-113882246D01*
X178454873Y-113793671D01*
X178448327Y-113787125D01*
X178098455Y-113410052D01*
X178092410Y-113403028D01*
X177897964Y-113159201D01*
X177771688Y-113000856D01*
X177766187Y-112993403D01*
X177476408Y-112568376D01*
X177471489Y-112560545D01*
X177214296Y-112115073D01*
X177209963Y-112106875D01*
X176986775Y-111643422D01*
X176983067Y-111634922D01*
X176914364Y-111459869D01*
X176795142Y-111156096D01*
X176792083Y-111147355D01*
X176791383Y-111145087D01*
X176640460Y-110655806D01*
X176638063Y-110646858D01*
X176595129Y-110458753D01*
X176523602Y-110145369D01*
X176521878Y-110136258D01*
X176504292Y-110019585D01*
X176445212Y-109627615D01*
X176444175Y-109618403D01*
X176437944Y-109535259D01*
X176405690Y-109104873D01*
X176405351Y-109096790D01*
X176403005Y-108839547D01*
X176403000Y-108838417D01*
X176403000Y-108204000D01*
X178074040Y-108204000D01*
X178093826Y-108392256D01*
X178093827Y-108392259D01*
X178152318Y-108572277D01*
X178152321Y-108572284D01*
X178246967Y-108736216D01*
X178340007Y-108839547D01*
X178373629Y-108876888D01*
X178526765Y-108988148D01*
X178526770Y-108988151D01*
X178699692Y-109065142D01*
X178699697Y-109065144D01*
X178884854Y-109104500D01*
X178884855Y-109104500D01*
X179074144Y-109104500D01*
X179074146Y-109104500D01*
X179128250Y-109093000D01*
X192134540Y-109093000D01*
X192154326Y-109281256D01*
X192154327Y-109281259D01*
X192212818Y-109461277D01*
X192212821Y-109461284D01*
X192307467Y-109625216D01*
X192388559Y-109715277D01*
X192434129Y-109765888D01*
X192587265Y-109877148D01*
X192587270Y-109877151D01*
X192760192Y-109954142D01*
X192760197Y-109954144D01*
X192945354Y-109993500D01*
X192945355Y-109993500D01*
X193134642Y-109993500D01*
X193134646Y-109993500D01*
X193140089Y-109992342D01*
X193190061Y-109992016D01*
X193209292Y-109995841D01*
X193229694Y-109999900D01*
X193229695Y-109999900D01*
X216115328Y-109999900D01*
X216182367Y-110019585D01*
X216188213Y-110023582D01*
X216336265Y-110131148D01*
X216336270Y-110131151D01*
X216509192Y-110208142D01*
X216509197Y-110208144D01*
X216694354Y-110247500D01*
X216694355Y-110247500D01*
X216883644Y-110247500D01*
X216883646Y-110247500D01*
X217068803Y-110208144D01*
X217241730Y-110131151D01*
X217394871Y-110019888D01*
X217521533Y-109879216D01*
X217616179Y-109715284D01*
X217674674Y-109535256D01*
X217694460Y-109347000D01*
X217674674Y-109158744D01*
X217616179Y-108978716D01*
X217521533Y-108814784D01*
X217394871Y-108674112D01*
X217389787Y-108670418D01*
X217241734Y-108562851D01*
X217241729Y-108562848D01*
X217068807Y-108485857D01*
X217068802Y-108485855D01*
X216923001Y-108454865D01*
X216883646Y-108446500D01*
X216694354Y-108446500D01*
X216661897Y-108453398D01*
X216509197Y-108485855D01*
X216509192Y-108485857D01*
X216336270Y-108562848D01*
X216336265Y-108562851D01*
X216188213Y-108670418D01*
X216122407Y-108693898D01*
X216115328Y-108694100D01*
X193921094Y-108694100D01*
X193854055Y-108674415D01*
X193813707Y-108632100D01*
X193772533Y-108560784D01*
X193645871Y-108420112D01*
X193645870Y-108420111D01*
X193492734Y-108308851D01*
X193492729Y-108308848D01*
X193319807Y-108231857D01*
X193319802Y-108231855D01*
X193174001Y-108200865D01*
X193134646Y-108192500D01*
X192945354Y-108192500D01*
X192912897Y-108199398D01*
X192760197Y-108231855D01*
X192760192Y-108231857D01*
X192587270Y-108308848D01*
X192587265Y-108308851D01*
X192434129Y-108420111D01*
X192307466Y-108560785D01*
X192212821Y-108724715D01*
X192212818Y-108724722D01*
X192154327Y-108904740D01*
X192154326Y-108904744D01*
X192134540Y-109093000D01*
X179128250Y-109093000D01*
X179259303Y-109065144D01*
X179432230Y-108988151D01*
X179485348Y-108949559D01*
X179580287Y-108880582D01*
X179646093Y-108857102D01*
X179653172Y-108856900D01*
X182563307Y-108856900D01*
X182656224Y-108838417D01*
X182689444Y-108831809D01*
X182808264Y-108782592D01*
X182829492Y-108768408D01*
X182915200Y-108711141D01*
X183876121Y-107750218D01*
X183937444Y-107716734D01*
X183963802Y-107713900D01*
X186881307Y-107713900D01*
X186975626Y-107695138D01*
X187007444Y-107688809D01*
X187126264Y-107639592D01*
X187149204Y-107624264D01*
X187233200Y-107568141D01*
X187692521Y-107108818D01*
X187753844Y-107075334D01*
X187780202Y-107072500D01*
X187800644Y-107072500D01*
X187800646Y-107072500D01*
X187985803Y-107033144D01*
X188158730Y-106956151D01*
X188311871Y-106844888D01*
X188438533Y-106704216D01*
X188533179Y-106540284D01*
X188591674Y-106360256D01*
X188611460Y-106172000D01*
X188591674Y-105983744D01*
X188533179Y-105803716D01*
X188438533Y-105639784D01*
X188311871Y-105499112D01*
X188286382Y-105480593D01*
X188158734Y-105387851D01*
X188158729Y-105387848D01*
X187985807Y-105310857D01*
X187985802Y-105310855D01*
X187840001Y-105279865D01*
X187800646Y-105271500D01*
X187611354Y-105271500D01*
X187578897Y-105278398D01*
X187426197Y-105310855D01*
X187426192Y-105310857D01*
X187253270Y-105387848D01*
X187253265Y-105387851D01*
X187100129Y-105499111D01*
X186973466Y-105639785D01*
X186878821Y-105803715D01*
X186878818Y-105803722D01*
X186820327Y-105983739D01*
X186820327Y-105983740D01*
X186820326Y-105983744D01*
X186807229Y-106108351D01*
X186780644Y-106172965D01*
X186771589Y-106183069D01*
X186582878Y-106371781D01*
X186521555Y-106405266D01*
X186495197Y-106408100D01*
X183577693Y-106408100D01*
X183451561Y-106433189D01*
X183451555Y-106433191D01*
X183332737Y-106482407D01*
X183225797Y-106553861D01*
X183225796Y-106553862D01*
X182264878Y-107514781D01*
X182203555Y-107548266D01*
X182177197Y-107551100D01*
X179653172Y-107551100D01*
X179586133Y-107531415D01*
X179580287Y-107527418D01*
X179432234Y-107419851D01*
X179432229Y-107419848D01*
X179259307Y-107342857D01*
X179259302Y-107342855D01*
X179113501Y-107311865D01*
X179074146Y-107303500D01*
X178884854Y-107303500D01*
X178852397Y-107310398D01*
X178699697Y-107342855D01*
X178699692Y-107342857D01*
X178526770Y-107419848D01*
X178526765Y-107419851D01*
X178373629Y-107531111D01*
X178246966Y-107671785D01*
X178152321Y-107835715D01*
X178152318Y-107835722D01*
X178093827Y-108015740D01*
X178093826Y-108015744D01*
X178074040Y-108204000D01*
X176403000Y-108204000D01*
X176403000Y-104394000D01*
X177947040Y-104394000D01*
X177966826Y-104582256D01*
X177966827Y-104582259D01*
X178025318Y-104762277D01*
X178025321Y-104762284D01*
X178119967Y-104926216D01*
X178223963Y-105041715D01*
X178246629Y-105066888D01*
X178399765Y-105178148D01*
X178399770Y-105178151D01*
X178572692Y-105255142D01*
X178572697Y-105255144D01*
X178757854Y-105294500D01*
X178757855Y-105294500D01*
X178947144Y-105294500D01*
X178947146Y-105294500D01*
X179132303Y-105255144D01*
X179305230Y-105178151D01*
X179410751Y-105101486D01*
X179453287Y-105070582D01*
X179519093Y-105047102D01*
X179526172Y-105046900D01*
X181674307Y-105046900D01*
X181759165Y-105030019D01*
X181800444Y-105021809D01*
X181919264Y-104972592D01*
X181928673Y-104966305D01*
X182026200Y-104901141D01*
X183749121Y-103178218D01*
X183810444Y-103144734D01*
X183836802Y-103141900D01*
X188527197Y-103141900D01*
X188594236Y-103161585D01*
X188614878Y-103178219D01*
X189184589Y-103747930D01*
X189218074Y-103809253D01*
X189220228Y-103822647D01*
X189225285Y-103870753D01*
X189233326Y-103947257D01*
X189233327Y-103947260D01*
X189291818Y-104127277D01*
X189291821Y-104127284D01*
X189386467Y-104291216D01*
X189479789Y-104394860D01*
X189513129Y-104431888D01*
X189666265Y-104543148D01*
X189666270Y-104543151D01*
X189839192Y-104620142D01*
X189839197Y-104620144D01*
X190024354Y-104659500D01*
X190024355Y-104659500D01*
X190213644Y-104659500D01*
X190213646Y-104659500D01*
X190398803Y-104620144D01*
X190571730Y-104543151D01*
X190670303Y-104471533D01*
X190736105Y-104448055D01*
X190804159Y-104463880D01*
X190846287Y-104502962D01*
X190881860Y-104556202D01*
X190881863Y-104556205D01*
X192115794Y-105790135D01*
X192115797Y-105790138D01*
X192221410Y-105860706D01*
X192221406Y-105860710D01*
X192221432Y-105860720D01*
X192222736Y-105861592D01*
X192222738Y-105861593D01*
X192222740Y-105861594D01*
X192266629Y-105879773D01*
X192341556Y-105910809D01*
X192341560Y-105910809D01*
X192341561Y-105910810D01*
X192467692Y-105935900D01*
X192467695Y-105935900D01*
X195548572Y-105935900D01*
X195615611Y-105955585D01*
X195640721Y-105976927D01*
X195736129Y-106082888D01*
X195808106Y-106135182D01*
X195850771Y-106190512D01*
X195856750Y-106260125D01*
X195824144Y-106321920D01*
X195808106Y-106335818D01*
X195736127Y-106388113D01*
X195609466Y-106528785D01*
X195514821Y-106692715D01*
X195514818Y-106692722D01*
X195473374Y-106820275D01*
X195456326Y-106872744D01*
X195436540Y-107061000D01*
X195456326Y-107249256D01*
X195456327Y-107249259D01*
X195514818Y-107429277D01*
X195514821Y-107429284D01*
X195609467Y-107593216D01*
X195723817Y-107720214D01*
X195736129Y-107733888D01*
X195889265Y-107845148D01*
X195889270Y-107845151D01*
X196062192Y-107922142D01*
X196062197Y-107922144D01*
X196247354Y-107961500D01*
X196247355Y-107961500D01*
X196436644Y-107961500D01*
X196436646Y-107961500D01*
X196621803Y-107922144D01*
X196794730Y-107845151D01*
X196947871Y-107733888D01*
X197074533Y-107593216D01*
X197169179Y-107429284D01*
X197227674Y-107249256D01*
X197240769Y-107124648D01*
X197267352Y-107060035D01*
X197276400Y-107049938D01*
X198735121Y-105591219D01*
X198796444Y-105557734D01*
X198822802Y-105554900D01*
X198946307Y-105554900D01*
X199031165Y-105538019D01*
X199072444Y-105529809D01*
X199191264Y-105480592D01*
X199204871Y-105471500D01*
X199298200Y-105409141D01*
X204196121Y-100511218D01*
X204257444Y-100477734D01*
X204283802Y-100474900D01*
X214562197Y-100474900D01*
X214629236Y-100494585D01*
X214649878Y-100511219D01*
X214751589Y-100612930D01*
X214785074Y-100674253D01*
X214787229Y-100687649D01*
X214800326Y-100812257D01*
X214800327Y-100812260D01*
X214858818Y-100992277D01*
X214858821Y-100992284D01*
X214945317Y-101142100D01*
X214961790Y-101210001D01*
X214938937Y-101276027D01*
X214884016Y-101319218D01*
X214837930Y-101328100D01*
X208215693Y-101328100D01*
X208089561Y-101353189D01*
X208089555Y-101353191D01*
X207970737Y-101402407D01*
X207863795Y-101473862D01*
X206756862Y-102580795D01*
X206685407Y-102687737D01*
X206636191Y-102806555D01*
X206636189Y-102806561D01*
X206611100Y-102932692D01*
X206611100Y-106003791D01*
X206591415Y-106070830D01*
X206574781Y-106091472D01*
X206040472Y-106625781D01*
X205979149Y-106659266D01*
X205952791Y-106662100D01*
X199555672Y-106662100D01*
X199488633Y-106642415D01*
X199482787Y-106638418D01*
X199334734Y-106530851D01*
X199334729Y-106530848D01*
X199161807Y-106453857D01*
X199161802Y-106453855D01*
X199016001Y-106422865D01*
X198976646Y-106414500D01*
X198787354Y-106414500D01*
X198754897Y-106421398D01*
X198602197Y-106453855D01*
X198602192Y-106453857D01*
X198429270Y-106530848D01*
X198429265Y-106530851D01*
X198276129Y-106642111D01*
X198149466Y-106782785D01*
X198054821Y-106946715D01*
X198054818Y-106946722D01*
X198002150Y-107108819D01*
X197996326Y-107126744D01*
X197976540Y-107315000D01*
X197996326Y-107503256D01*
X197996327Y-107503259D01*
X198054818Y-107683277D01*
X198054821Y-107683284D01*
X198149467Y-107847216D01*
X198252369Y-107961500D01*
X198276129Y-107987888D01*
X198429265Y-108099148D01*
X198429270Y-108099151D01*
X198602192Y-108176142D01*
X198602197Y-108176144D01*
X198787354Y-108215500D01*
X198787355Y-108215500D01*
X198976644Y-108215500D01*
X198976646Y-108215500D01*
X199161803Y-108176144D01*
X199334730Y-108099151D01*
X199403562Y-108049142D01*
X199482787Y-107991582D01*
X199548593Y-107968102D01*
X199555672Y-107967900D01*
X206338901Y-107967900D01*
X206423759Y-107951019D01*
X206465038Y-107942809D01*
X206583858Y-107893592D01*
X206591479Y-107888500D01*
X206690794Y-107822141D01*
X207126116Y-107386816D01*
X207187437Y-107353333D01*
X207257129Y-107358317D01*
X207301477Y-107386818D01*
X207462926Y-107548266D01*
X207609801Y-107695141D01*
X207642118Y-107716734D01*
X207663769Y-107731201D01*
X207716729Y-107766588D01*
X207716735Y-107766591D01*
X207716736Y-107766592D01*
X207835556Y-107815809D01*
X207858480Y-107820369D01*
X207920391Y-107852751D01*
X207926435Y-107859007D01*
X207928129Y-107860888D01*
X207928131Y-107860890D01*
X207928135Y-107860893D01*
X208081265Y-107972148D01*
X208081270Y-107972151D01*
X208254192Y-108049142D01*
X208254197Y-108049144D01*
X208439354Y-108088500D01*
X208439355Y-108088500D01*
X208628644Y-108088500D01*
X208628646Y-108088500D01*
X208813803Y-108049144D01*
X208986730Y-107972151D01*
X209139871Y-107860888D01*
X209266533Y-107720216D01*
X209361179Y-107556284D01*
X209419674Y-107376256D01*
X209439460Y-107188000D01*
X209419674Y-106999744D01*
X209361179Y-106819716D01*
X209266533Y-106655784D01*
X209139871Y-106515112D01*
X209094858Y-106482408D01*
X208986734Y-106403851D01*
X208986729Y-106403848D01*
X208813807Y-106326857D01*
X208813802Y-106326855D01*
X208668001Y-106295865D01*
X208628646Y-106287500D01*
X208439354Y-106287500D01*
X208399999Y-106295865D01*
X208254198Y-106326855D01*
X208254197Y-106326855D01*
X208217188Y-106343333D01*
X208147938Y-106352616D01*
X208084662Y-106322986D01*
X208079074Y-106317733D01*
X207953219Y-106191878D01*
X207919734Y-106130555D01*
X207916900Y-106104197D01*
X207916900Y-103318803D01*
X207936585Y-103251764D01*
X207953219Y-103231122D01*
X208514122Y-102670219D01*
X208575445Y-102636734D01*
X208601803Y-102633900D01*
X217166869Y-102633900D01*
X217233908Y-102653585D01*
X217267188Y-102685015D01*
X217269947Y-102688813D01*
X217269949Y-102688816D01*
X217269952Y-102688820D01*
X217394896Y-102860792D01*
X217545213Y-103011109D01*
X217717179Y-103136048D01*
X217717181Y-103136049D01*
X217717184Y-103136051D01*
X217906588Y-103232557D01*
X218108757Y-103298246D01*
X218318713Y-103331500D01*
X218318714Y-103331500D01*
X219831286Y-103331500D01*
X219831287Y-103331500D01*
X220041243Y-103298246D01*
X220243412Y-103232557D01*
X220432816Y-103136051D01*
X220512183Y-103078388D01*
X220604786Y-103011109D01*
X220604788Y-103011106D01*
X220604792Y-103011104D01*
X220755104Y-102860792D01*
X220755106Y-102860788D01*
X220755109Y-102860786D01*
X220880048Y-102688820D01*
X220880047Y-102688820D01*
X220880051Y-102688816D01*
X220976557Y-102499412D01*
X221042246Y-102297243D01*
X221075500Y-102087287D01*
X221075500Y-101874713D01*
X221042246Y-101664757D01*
X220976557Y-101462588D01*
X220880051Y-101273184D01*
X220880049Y-101273181D01*
X220880048Y-101273179D01*
X220755109Y-101101213D01*
X220604786Y-100950890D01*
X220432820Y-100825951D01*
X220432115Y-100825591D01*
X220424054Y-100821485D01*
X220373259Y-100773512D01*
X220356463Y-100705692D01*
X220378999Y-100639556D01*
X220424054Y-100600515D01*
X220432816Y-100596051D01*
X220488797Y-100555379D01*
X220604786Y-100471109D01*
X220604788Y-100471106D01*
X220604792Y-100471104D01*
X220755104Y-100320792D01*
X220755106Y-100320788D01*
X220755109Y-100320786D01*
X220880048Y-100148820D01*
X220880047Y-100148820D01*
X220880051Y-100148816D01*
X220976557Y-99959412D01*
X221042246Y-99757243D01*
X221075500Y-99547287D01*
X221075500Y-99334713D01*
X221042246Y-99124757D01*
X220976557Y-98922588D01*
X220880051Y-98733184D01*
X220880049Y-98733181D01*
X220880048Y-98733179D01*
X220755109Y-98561213D01*
X220604786Y-98410890D01*
X220432820Y-98285951D01*
X220431122Y-98285086D01*
X220424054Y-98281485D01*
X220373259Y-98233512D01*
X220356463Y-98165692D01*
X220378999Y-98099556D01*
X220424054Y-98060515D01*
X220432816Y-98056051D01*
X220472032Y-98027559D01*
X220604786Y-97931109D01*
X220604788Y-97931106D01*
X220604792Y-97931104D01*
X220755104Y-97780792D01*
X220755106Y-97780788D01*
X220755109Y-97780786D01*
X220868044Y-97625342D01*
X220880051Y-97608816D01*
X220976557Y-97419412D01*
X221042246Y-97217243D01*
X221075500Y-97007287D01*
X221075500Y-96794713D01*
X221042246Y-96584757D01*
X220976557Y-96382588D01*
X220880051Y-96193184D01*
X220880049Y-96193181D01*
X220880048Y-96193179D01*
X220755109Y-96021213D01*
X220604786Y-95870890D01*
X220432820Y-95745951D01*
X220432115Y-95745591D01*
X220424054Y-95741485D01*
X220373259Y-95693512D01*
X220356463Y-95625692D01*
X220378999Y-95559556D01*
X220424054Y-95520515D01*
X220432816Y-95516051D01*
X220501553Y-95466111D01*
X220604786Y-95391109D01*
X220604788Y-95391106D01*
X220604792Y-95391104D01*
X220755104Y-95240792D01*
X220755106Y-95240788D01*
X220755109Y-95240786D01*
X220880048Y-95068820D01*
X220880047Y-95068820D01*
X220880051Y-95068816D01*
X220976557Y-94879412D01*
X221042246Y-94677243D01*
X221075500Y-94467287D01*
X221075500Y-94254713D01*
X221042246Y-94044757D01*
X220976557Y-93842588D01*
X220880051Y-93653184D01*
X220880049Y-93653181D01*
X220880048Y-93653179D01*
X220755106Y-93481210D01*
X220604786Y-93330890D01*
X220432820Y-93205951D01*
X220432115Y-93205591D01*
X220424054Y-93201485D01*
X220373259Y-93153512D01*
X220356463Y-93085692D01*
X220378999Y-93019556D01*
X220424054Y-92980515D01*
X220432816Y-92976051D01*
X220522894Y-92910606D01*
X220604786Y-92851109D01*
X220604788Y-92851106D01*
X220604792Y-92851104D01*
X220755104Y-92700792D01*
X220755106Y-92700788D01*
X220755109Y-92700786D01*
X220880048Y-92528820D01*
X220880047Y-92528820D01*
X220880051Y-92528816D01*
X220976557Y-92339412D01*
X221042246Y-92137243D01*
X221075500Y-91927287D01*
X221075500Y-91714713D01*
X221042246Y-91504757D01*
X220976557Y-91302588D01*
X220880051Y-91113184D01*
X220880049Y-91113181D01*
X220880048Y-91113179D01*
X220755109Y-90941213D01*
X220604786Y-90790890D01*
X220432817Y-90665949D01*
X220423504Y-90661204D01*
X220372707Y-90613230D01*
X220355912Y-90545409D01*
X220378449Y-90479274D01*
X220423507Y-90440232D01*
X220432558Y-90435620D01*
X220604459Y-90310727D01*
X220604464Y-90310723D01*
X220754723Y-90160464D01*
X220754727Y-90160459D01*
X220879620Y-89988557D01*
X220976095Y-89799217D01*
X221041757Y-89597129D01*
X221041757Y-89597126D01*
X221052231Y-89531000D01*
X217097769Y-89531000D01*
X217108242Y-89597126D01*
X217108242Y-89597129D01*
X217173904Y-89799217D01*
X217270379Y-89988557D01*
X217395272Y-90160459D01*
X217395276Y-90160464D01*
X217545535Y-90310723D01*
X217545540Y-90310727D01*
X217717444Y-90435622D01*
X217726495Y-90440234D01*
X217777292Y-90488208D01*
X217794087Y-90556029D01*
X217771550Y-90622164D01*
X217726499Y-90661202D01*
X217717190Y-90665944D01*
X217717183Y-90665949D01*
X217645961Y-90717694D01*
X217580154Y-90741173D01*
X217512100Y-90725347D01*
X217485396Y-90705056D01*
X217176484Y-90396144D01*
X216843219Y-90062878D01*
X216809734Y-90001555D01*
X216806900Y-89975197D01*
X216806900Y-89031000D01*
X217097769Y-89031000D01*
X218825000Y-89031000D01*
X218825000Y-87931000D01*
X219325000Y-87931000D01*
X219325000Y-89031000D01*
X221052231Y-89031000D01*
X221041757Y-88964873D01*
X221041757Y-88964870D01*
X220976095Y-88762782D01*
X220879620Y-88573442D01*
X220754727Y-88401540D01*
X220754723Y-88401535D01*
X220604464Y-88251276D01*
X220604459Y-88251272D01*
X220432557Y-88126379D01*
X220243217Y-88029904D01*
X220041129Y-87964242D01*
X219831246Y-87931000D01*
X219325000Y-87931000D01*
X218825000Y-87931000D01*
X218318754Y-87931000D01*
X218108872Y-87964242D01*
X218108869Y-87964242D01*
X217906782Y-88029904D01*
X217717442Y-88126379D01*
X217545540Y-88251272D01*
X217545535Y-88251276D01*
X217395276Y-88401535D01*
X217395272Y-88401540D01*
X217270379Y-88573442D01*
X217173904Y-88762782D01*
X217108242Y-88964870D01*
X217108242Y-88964873D01*
X217097769Y-89031000D01*
X216806900Y-89031000D01*
X216806900Y-86427802D01*
X216826585Y-86360763D01*
X216843219Y-86340121D01*
X217277121Y-85906219D01*
X217338444Y-85872734D01*
X217364802Y-85869900D01*
X217512328Y-85869900D01*
X217579367Y-85889585D01*
X217585213Y-85893582D01*
X217733265Y-86001148D01*
X217733270Y-86001151D01*
X217906192Y-86078142D01*
X217906197Y-86078144D01*
X218091354Y-86117500D01*
X218091355Y-86117500D01*
X218280644Y-86117500D01*
X218280646Y-86117500D01*
X218465803Y-86078144D01*
X218638730Y-86001151D01*
X218791871Y-85889888D01*
X218918533Y-85749216D01*
X219013179Y-85585284D01*
X219071674Y-85405256D01*
X219091460Y-85217000D01*
X219071674Y-85028744D01*
X219013179Y-84848716D01*
X218918533Y-84684784D01*
X218791871Y-84544112D01*
X218786787Y-84540418D01*
X218638734Y-84432851D01*
X218638729Y-84432848D01*
X218465807Y-84355857D01*
X218465802Y-84355855D01*
X218320001Y-84324865D01*
X218280646Y-84316500D01*
X218091354Y-84316500D01*
X218058897Y-84323398D01*
X217906197Y-84355855D01*
X217906192Y-84355857D01*
X217733270Y-84432848D01*
X217733265Y-84432851D01*
X217585213Y-84540418D01*
X217519407Y-84563898D01*
X217512328Y-84564100D01*
X216978693Y-84564100D01*
X216852561Y-84589189D01*
X216852555Y-84589191D01*
X216733737Y-84638407D01*
X216626797Y-84709861D01*
X216626796Y-84709862D01*
X216408857Y-84927802D01*
X215646863Y-85689794D01*
X215646860Y-85689797D01*
X215576181Y-85795576D01*
X215576182Y-85795577D01*
X215575406Y-85796738D01*
X215526192Y-85915551D01*
X215526189Y-85915561D01*
X215501100Y-86041692D01*
X215501100Y-88758100D01*
X215481415Y-88825139D01*
X215428611Y-88870894D01*
X215377100Y-88882100D01*
X210254270Y-88882100D01*
X210187231Y-88862415D01*
X210141476Y-88809611D01*
X210131532Y-88740453D01*
X210136339Y-88719782D01*
X210151261Y-88673856D01*
X210181674Y-88580256D01*
X210201460Y-88392000D01*
X210181674Y-88203744D01*
X210123179Y-88023716D01*
X210075081Y-87940407D01*
X210028534Y-87859785D01*
X210028529Y-87859778D01*
X209980750Y-87806714D01*
X209950520Y-87743722D01*
X209948900Y-87723742D01*
X209948900Y-83501692D01*
X209923810Y-83375561D01*
X209923809Y-83375560D01*
X209923809Y-83375556D01*
X209874592Y-83256736D01*
X209803140Y-83149800D01*
X209803138Y-83149797D01*
X209803137Y-83149796D01*
X207172205Y-80518863D01*
X207172204Y-80518862D01*
X207172200Y-80518859D01*
X207065264Y-80447408D01*
X206959782Y-80403716D01*
X206946444Y-80398191D01*
X206946438Y-80398189D01*
X206820307Y-80373100D01*
X206820305Y-80373100D01*
X205965191Y-80373100D01*
X205898152Y-80353415D01*
X205852397Y-80300611D01*
X205842453Y-80231453D01*
X205871478Y-80167897D01*
X205908895Y-80138616D01*
X205914306Y-80135858D01*
X205919816Y-80133051D01*
X206060094Y-80031134D01*
X206091786Y-80008109D01*
X206091788Y-80008106D01*
X206091792Y-80008104D01*
X206242104Y-79857792D01*
X206242104Y-79857791D01*
X206242108Y-79857788D01*
X206242109Y-79857786D01*
X206367048Y-79685820D01*
X206367047Y-79685820D01*
X206367051Y-79685816D01*
X206371514Y-79677054D01*
X206419488Y-79626259D01*
X206487308Y-79609463D01*
X206553444Y-79631999D01*
X206592486Y-79677056D01*
X206596951Y-79685820D01*
X206721890Y-79857786D01*
X206872213Y-80008109D01*
X207044179Y-80133048D01*
X207044181Y-80133049D01*
X207044184Y-80133051D01*
X207233588Y-80229557D01*
X207435757Y-80295246D01*
X207645713Y-80328500D01*
X207645714Y-80328500D01*
X207858286Y-80328500D01*
X207858287Y-80328500D01*
X208068243Y-80295246D01*
X208270412Y-80229557D01*
X208459816Y-80133051D01*
X208481789Y-80117086D01*
X208631786Y-80008109D01*
X208631788Y-80008106D01*
X208631792Y-80008104D01*
X208782104Y-79857792D01*
X208782104Y-79857791D01*
X208782108Y-79857788D01*
X208782109Y-79857786D01*
X208907048Y-79685820D01*
X208907047Y-79685820D01*
X208907051Y-79685816D01*
X208911514Y-79677054D01*
X208959488Y-79626259D01*
X209027308Y-79609463D01*
X209093444Y-79631999D01*
X209132486Y-79677056D01*
X209136951Y-79685820D01*
X209261890Y-79857786D01*
X209412213Y-80008109D01*
X209584179Y-80133048D01*
X209584181Y-80133049D01*
X209584184Y-80133051D01*
X209773588Y-80229557D01*
X209975757Y-80295246D01*
X210185713Y-80328500D01*
X210185714Y-80328500D01*
X210398286Y-80328500D01*
X210398287Y-80328500D01*
X210608243Y-80295246D01*
X210810412Y-80229557D01*
X210999816Y-80133051D01*
X211021789Y-80117086D01*
X211171786Y-80008109D01*
X211171788Y-80008106D01*
X211171792Y-80008104D01*
X211322104Y-79857792D01*
X211322104Y-79857791D01*
X211322108Y-79857788D01*
X211322109Y-79857786D01*
X211447048Y-79685820D01*
X211447047Y-79685820D01*
X211447051Y-79685816D01*
X211451514Y-79677054D01*
X211499488Y-79626259D01*
X211567308Y-79609463D01*
X211633444Y-79631999D01*
X211672486Y-79677056D01*
X211676951Y-79685820D01*
X211801890Y-79857786D01*
X211952213Y-80008109D01*
X212124179Y-80133048D01*
X212124181Y-80133049D01*
X212124184Y-80133051D01*
X212313588Y-80229557D01*
X212515757Y-80295246D01*
X212725713Y-80328500D01*
X212725714Y-80328500D01*
X212938286Y-80328500D01*
X212938287Y-80328500D01*
X213148243Y-80295246D01*
X213350412Y-80229557D01*
X213539816Y-80133051D01*
X213561789Y-80117086D01*
X213711786Y-80008109D01*
X213711788Y-80008106D01*
X213711792Y-80008104D01*
X213862104Y-79857792D01*
X213862104Y-79857791D01*
X213862108Y-79857788D01*
X213862109Y-79857786D01*
X213987048Y-79685820D01*
X213987047Y-79685820D01*
X213987051Y-79685816D01*
X213991514Y-79677054D01*
X214039488Y-79626259D01*
X214107308Y-79609463D01*
X214173444Y-79631999D01*
X214212486Y-79677056D01*
X214216951Y-79685820D01*
X214341890Y-79857786D01*
X214492213Y-80008109D01*
X214664179Y-80133048D01*
X214664181Y-80133049D01*
X214664184Y-80133051D01*
X214853588Y-80229557D01*
X215055757Y-80295246D01*
X215265713Y-80328500D01*
X215265714Y-80328500D01*
X215478286Y-80328500D01*
X215478287Y-80328500D01*
X215688243Y-80295246D01*
X215890412Y-80229557D01*
X216079816Y-80133051D01*
X216101789Y-80117086D01*
X216251786Y-80008109D01*
X216251788Y-80008106D01*
X216251792Y-80008104D01*
X216402104Y-79857792D01*
X216402104Y-79857791D01*
X216402108Y-79857788D01*
X216402109Y-79857786D01*
X216527048Y-79685820D01*
X216527047Y-79685820D01*
X216527051Y-79685816D01*
X216531514Y-79677054D01*
X216579488Y-79626259D01*
X216647308Y-79609463D01*
X216713444Y-79631999D01*
X216752486Y-79677056D01*
X216756951Y-79685820D01*
X216881890Y-79857786D01*
X217032213Y-80008109D01*
X217204179Y-80133048D01*
X217204181Y-80133049D01*
X217204184Y-80133051D01*
X217393588Y-80229557D01*
X217595757Y-80295246D01*
X217805713Y-80328500D01*
X217805714Y-80328500D01*
X218018286Y-80328500D01*
X218018287Y-80328500D01*
X218228243Y-80295246D01*
X218430412Y-80229557D01*
X218619816Y-80133051D01*
X218641789Y-80117086D01*
X218791786Y-80008109D01*
X218791788Y-80008106D01*
X218791792Y-80008104D01*
X218942104Y-79857792D01*
X218942104Y-79857791D01*
X218942108Y-79857788D01*
X218942109Y-79857786D01*
X219067048Y-79685820D01*
X219067051Y-79685816D01*
X219071793Y-79676508D01*
X219119763Y-79625711D01*
X219187583Y-79608911D01*
X219253719Y-79631445D01*
X219292763Y-79676500D01*
X219297377Y-79685555D01*
X219422272Y-79857459D01*
X219422276Y-79857464D01*
X219572535Y-80007723D01*
X219572540Y-80007727D01*
X219744442Y-80132620D01*
X219933782Y-80229095D01*
X220135871Y-80294757D01*
X220202000Y-80305231D01*
X220202000Y-78411012D01*
X220259007Y-78443925D01*
X220386174Y-78478000D01*
X220517826Y-78478000D01*
X220644993Y-78443925D01*
X220702000Y-78411012D01*
X220702000Y-80305230D01*
X220768126Y-80294757D01*
X220768129Y-80294757D01*
X220970217Y-80229095D01*
X221159557Y-80132620D01*
X221331459Y-80007727D01*
X221331464Y-80007723D01*
X221481723Y-79857464D01*
X221481727Y-79857459D01*
X221606620Y-79685557D01*
X221703095Y-79496217D01*
X221768757Y-79294130D01*
X221768757Y-79294127D01*
X221802000Y-79084246D01*
X221802000Y-78228000D01*
X220885012Y-78228000D01*
X220917925Y-78170993D01*
X220952000Y-78043826D01*
X220952000Y-77912174D01*
X220917925Y-77785007D01*
X220885012Y-77728000D01*
X221802000Y-77728000D01*
X221802000Y-76871753D01*
X221768757Y-76661872D01*
X221768757Y-76661869D01*
X221703095Y-76459782D01*
X221606620Y-76270442D01*
X221481727Y-76098540D01*
X221481723Y-76098535D01*
X221331464Y-75948276D01*
X221331459Y-75948272D01*
X221159557Y-75823379D01*
X220970215Y-75726903D01*
X220768124Y-75661241D01*
X220702000Y-75650768D01*
X220702000Y-77544988D01*
X220644993Y-77512075D01*
X220517826Y-77478000D01*
X220386174Y-77478000D01*
X220259007Y-77512075D01*
X220202000Y-77544988D01*
X220202000Y-75650768D01*
X220201999Y-75650768D01*
X220135875Y-75661241D01*
X219933784Y-75726903D01*
X219744442Y-75823379D01*
X219572540Y-75948272D01*
X219572535Y-75948276D01*
X219422276Y-76098535D01*
X219422272Y-76098540D01*
X219297378Y-76270443D01*
X219292762Y-76279502D01*
X219244784Y-76330295D01*
X219176963Y-76347087D01*
X219110829Y-76324546D01*
X219071794Y-76279493D01*
X219067051Y-76270184D01*
X219067049Y-76270181D01*
X219067048Y-76270179D01*
X218942109Y-76098213D01*
X218791786Y-75947890D01*
X218619820Y-75822951D01*
X218430414Y-75726444D01*
X218430413Y-75726443D01*
X218430412Y-75726443D01*
X218228243Y-75660754D01*
X218228241Y-75660753D01*
X218228240Y-75660753D01*
X218066957Y-75635208D01*
X218018287Y-75627500D01*
X217805713Y-75627500D01*
X217757042Y-75635208D01*
X217595760Y-75660753D01*
X217393585Y-75726444D01*
X217204179Y-75822951D01*
X217032213Y-75947890D01*
X216881890Y-76098213D01*
X216756949Y-76270182D01*
X216752484Y-76278946D01*
X216704509Y-76329742D01*
X216636688Y-76346536D01*
X216570553Y-76323998D01*
X216531516Y-76278946D01*
X216527050Y-76270182D01*
X216402109Y-76098213D01*
X216251786Y-75947890D01*
X216079820Y-75822951D01*
X215890414Y-75726444D01*
X215890413Y-75726443D01*
X215890412Y-75726443D01*
X215688243Y-75660754D01*
X215688241Y-75660753D01*
X215688240Y-75660753D01*
X215526957Y-75635208D01*
X215478287Y-75627500D01*
X215265713Y-75627500D01*
X215217042Y-75635208D01*
X215055760Y-75660753D01*
X214853585Y-75726444D01*
X214664179Y-75822951D01*
X214492213Y-75947890D01*
X214341890Y-76098213D01*
X214216949Y-76270182D01*
X214212484Y-76278946D01*
X214164509Y-76329742D01*
X214096688Y-76346536D01*
X214030553Y-76323998D01*
X213991516Y-76278946D01*
X213987050Y-76270182D01*
X213862109Y-76098213D01*
X213711786Y-75947890D01*
X213539820Y-75822951D01*
X213350414Y-75726444D01*
X213350413Y-75726443D01*
X213350412Y-75726443D01*
X213148243Y-75660754D01*
X213148241Y-75660753D01*
X213148240Y-75660753D01*
X212986957Y-75635208D01*
X212938287Y-75627500D01*
X212725713Y-75627500D01*
X212677042Y-75635208D01*
X212515760Y-75660753D01*
X212313585Y-75726444D01*
X212124179Y-75822951D01*
X211952213Y-75947890D01*
X211801890Y-76098213D01*
X211676949Y-76270182D01*
X211672484Y-76278946D01*
X211624509Y-76329742D01*
X211556688Y-76346536D01*
X211490553Y-76323998D01*
X211451516Y-76278946D01*
X211447050Y-76270182D01*
X211322109Y-76098213D01*
X211171786Y-75947890D01*
X210999820Y-75822951D01*
X210810414Y-75726444D01*
X210810413Y-75726443D01*
X210810412Y-75726443D01*
X210608243Y-75660754D01*
X210608241Y-75660753D01*
X210608240Y-75660753D01*
X210446957Y-75635208D01*
X210398287Y-75627500D01*
X210185713Y-75627500D01*
X210137042Y-75635208D01*
X209975760Y-75660753D01*
X209773585Y-75726444D01*
X209584179Y-75822951D01*
X209412213Y-75947890D01*
X209261890Y-76098213D01*
X209136949Y-76270182D01*
X209132484Y-76278946D01*
X209084509Y-76329742D01*
X209016688Y-76346536D01*
X208950553Y-76323998D01*
X208911516Y-76278946D01*
X208907050Y-76270182D01*
X208782109Y-76098213D01*
X208631786Y-75947890D01*
X208459820Y-75822951D01*
X208270414Y-75726444D01*
X208270413Y-75726443D01*
X208270412Y-75726443D01*
X208068243Y-75660754D01*
X208068241Y-75660753D01*
X208068240Y-75660753D01*
X207906957Y-75635208D01*
X207858287Y-75627500D01*
X207645713Y-75627500D01*
X207597042Y-75635208D01*
X207435760Y-75660753D01*
X207233585Y-75726444D01*
X207044179Y-75822951D01*
X206872213Y-75947890D01*
X206721890Y-76098213D01*
X206596949Y-76270182D01*
X206592484Y-76278946D01*
X206544509Y-76329742D01*
X206476688Y-76346536D01*
X206410553Y-76323998D01*
X206371516Y-76278946D01*
X206367050Y-76270182D01*
X206242109Y-76098213D01*
X206091786Y-75947890D01*
X205919820Y-75822951D01*
X205730414Y-75726444D01*
X205730413Y-75726443D01*
X205730412Y-75726443D01*
X205528243Y-75660754D01*
X205528241Y-75660753D01*
X205528240Y-75660753D01*
X205366957Y-75635208D01*
X205318287Y-75627500D01*
X205105713Y-75627500D01*
X205057042Y-75635208D01*
X204895760Y-75660753D01*
X204693585Y-75726444D01*
X204504179Y-75822951D01*
X204332213Y-75947890D01*
X204181890Y-76098213D01*
X204056949Y-76270182D01*
X204052484Y-76278946D01*
X204004509Y-76329742D01*
X203936688Y-76346536D01*
X203870553Y-76323998D01*
X203831516Y-76278946D01*
X203827050Y-76270182D01*
X203702109Y-76098213D01*
X203551786Y-75947890D01*
X203379820Y-75822951D01*
X203190414Y-75726444D01*
X203190413Y-75726443D01*
X203190412Y-75726443D01*
X202988243Y-75660754D01*
X202988241Y-75660753D01*
X202988240Y-75660753D01*
X202826957Y-75635208D01*
X202778287Y-75627500D01*
X202565713Y-75627500D01*
X202517042Y-75635208D01*
X202355760Y-75660753D01*
X202153585Y-75726444D01*
X201964179Y-75822951D01*
X201792213Y-75947890D01*
X201641890Y-76098213D01*
X201516949Y-76270182D01*
X201512484Y-76278946D01*
X201464509Y-76329742D01*
X201396688Y-76346536D01*
X201330553Y-76323998D01*
X201291516Y-76278946D01*
X201287050Y-76270182D01*
X201162109Y-76098213D01*
X201011786Y-75947890D01*
X200839820Y-75822951D01*
X200650414Y-75726444D01*
X200650413Y-75726443D01*
X200650412Y-75726443D01*
X200448243Y-75660754D01*
X200448241Y-75660753D01*
X200448240Y-75660753D01*
X200286957Y-75635208D01*
X200238287Y-75627500D01*
X200025713Y-75627500D01*
X199977042Y-75635208D01*
X199815760Y-75660753D01*
X199613585Y-75726444D01*
X199424179Y-75822951D01*
X199252213Y-75947890D01*
X199101890Y-76098213D01*
X198976949Y-76270182D01*
X198972484Y-76278946D01*
X198924509Y-76329742D01*
X198856688Y-76346536D01*
X198790553Y-76323998D01*
X198751516Y-76278946D01*
X198747050Y-76270182D01*
X198622109Y-76098213D01*
X198471786Y-75947890D01*
X198299820Y-75822951D01*
X198110414Y-75726444D01*
X198110413Y-75726443D01*
X198110412Y-75726443D01*
X197908243Y-75660754D01*
X197908241Y-75660753D01*
X197908240Y-75660753D01*
X197746957Y-75635208D01*
X197698287Y-75627500D01*
X197485713Y-75627500D01*
X197437042Y-75635208D01*
X197275760Y-75660753D01*
X197073585Y-75726444D01*
X196884179Y-75822951D01*
X196712213Y-75947890D01*
X196561890Y-76098213D01*
X196436949Y-76270182D01*
X196432484Y-76278946D01*
X196384509Y-76329742D01*
X196316688Y-76346536D01*
X196250553Y-76323998D01*
X196211516Y-76278946D01*
X196207050Y-76270182D01*
X196082109Y-76098213D01*
X195931786Y-75947890D01*
X195759820Y-75822951D01*
X195570414Y-75726444D01*
X195570413Y-75726443D01*
X195570412Y-75726443D01*
X195368243Y-75660754D01*
X195368241Y-75660753D01*
X195368240Y-75660753D01*
X195206957Y-75635208D01*
X195158287Y-75627500D01*
X194945713Y-75627500D01*
X194897042Y-75635208D01*
X194735760Y-75660753D01*
X194533585Y-75726444D01*
X194344179Y-75822951D01*
X194172213Y-75947890D01*
X194021890Y-76098213D01*
X193896949Y-76270182D01*
X193892202Y-76279499D01*
X193844227Y-76330293D01*
X193776405Y-76347087D01*
X193710271Y-76324548D01*
X193671234Y-76279495D01*
X193666622Y-76270444D01*
X193541727Y-76098540D01*
X193541723Y-76098535D01*
X193391464Y-75948276D01*
X193391459Y-75948272D01*
X193219557Y-75823379D01*
X193030215Y-75726903D01*
X192828124Y-75661241D01*
X192762000Y-75650768D01*
X192762000Y-77544988D01*
X192704993Y-77512075D01*
X192577826Y-77478000D01*
X192446174Y-77478000D01*
X192319007Y-77512075D01*
X192262000Y-77544988D01*
X192262000Y-75650768D01*
X192261999Y-75650768D01*
X192195875Y-75661241D01*
X191993784Y-75726903D01*
X191804442Y-75823379D01*
X191632540Y-75948272D01*
X191632535Y-75948276D01*
X191482276Y-76098535D01*
X191482272Y-76098540D01*
X191357379Y-76270442D01*
X191260904Y-76459782D01*
X191195242Y-76661869D01*
X191195242Y-76661872D01*
X191162000Y-76871753D01*
X191162000Y-77728000D01*
X192078988Y-77728000D01*
X192046075Y-77785007D01*
X192012000Y-77912174D01*
X192012000Y-78043826D01*
X192046075Y-78170993D01*
X192078988Y-78228000D01*
X191162000Y-78228000D01*
X191162000Y-79084246D01*
X191195242Y-79294127D01*
X191195242Y-79294130D01*
X191260904Y-79496217D01*
X191357379Y-79685557D01*
X191482272Y-79857459D01*
X191482276Y-79857464D01*
X191632535Y-80007723D01*
X191632540Y-80007727D01*
X191804442Y-80132620D01*
X191993782Y-80229095D01*
X192195871Y-80294757D01*
X192262000Y-80305231D01*
X192262000Y-78411012D01*
X192319007Y-78443925D01*
X192446174Y-78478000D01*
X192577826Y-78478000D01*
X192704993Y-78443925D01*
X192762000Y-78411012D01*
X192762000Y-80305230D01*
X192828126Y-80294757D01*
X192828129Y-80294757D01*
X193030217Y-80229095D01*
X193219557Y-80132620D01*
X193391459Y-80007727D01*
X193391464Y-80007723D01*
X193541723Y-79857464D01*
X193541727Y-79857459D01*
X193666620Y-79685558D01*
X193671232Y-79676507D01*
X193719205Y-79625709D01*
X193787025Y-79608912D01*
X193853161Y-79631447D01*
X193892204Y-79676504D01*
X193896949Y-79685817D01*
X194021890Y-79857786D01*
X194172213Y-80008109D01*
X194344179Y-80133048D01*
X194344181Y-80133049D01*
X194344184Y-80133051D01*
X194533588Y-80229557D01*
X194735757Y-80295246D01*
X194945713Y-80328500D01*
X194945714Y-80328500D01*
X195158286Y-80328500D01*
X195158287Y-80328500D01*
X195368243Y-80295246D01*
X195570412Y-80229557D01*
X195759816Y-80133051D01*
X195781789Y-80117086D01*
X195931786Y-80008109D01*
X195931788Y-80008106D01*
X195931792Y-80008104D01*
X196082104Y-79857792D01*
X196082104Y-79857791D01*
X196082108Y-79857788D01*
X196082109Y-79857786D01*
X196207048Y-79685820D01*
X196207047Y-79685820D01*
X196207051Y-79685816D01*
X196211514Y-79677054D01*
X196259488Y-79626259D01*
X196327308Y-79609463D01*
X196393444Y-79631999D01*
X196432486Y-79677056D01*
X196436951Y-79685820D01*
X196561890Y-79857786D01*
X196561896Y-79857792D01*
X196712208Y-80008104D01*
X196833945Y-80096551D01*
X196876611Y-80151880D01*
X196882590Y-80221493D01*
X196868448Y-80258868D01*
X196784820Y-80403718D01*
X196784818Y-80403722D01*
X196739975Y-80541736D01*
X196726326Y-80583744D01*
X196706540Y-80772000D01*
X196726326Y-80960256D01*
X196726327Y-80960259D01*
X196784818Y-81140277D01*
X196784821Y-81140284D01*
X196879467Y-81304216D01*
X196907080Y-81334883D01*
X196927250Y-81357284D01*
X196957480Y-81420275D01*
X196959100Y-81440256D01*
X196959100Y-81598305D01*
X196959100Y-81598307D01*
X196959099Y-81598307D01*
X196975131Y-81678898D01*
X196975131Y-81678899D01*
X196984189Y-81724437D01*
X196984190Y-81724441D01*
X196984191Y-81724444D01*
X197033408Y-81843264D01*
X197072843Y-81902284D01*
X197104862Y-81950204D01*
X197104863Y-81950205D01*
X198465796Y-83311137D01*
X198465800Y-83311140D01*
X198559129Y-83373500D01*
X198572736Y-83382592D01*
X198691556Y-83431809D01*
X198691560Y-83431809D01*
X198691561Y-83431810D01*
X198817692Y-83456900D01*
X198817695Y-83456900D01*
X204333701Y-83456900D01*
X204400740Y-83476585D01*
X204446495Y-83529389D01*
X204456439Y-83598547D01*
X204441088Y-83642900D01*
X204404821Y-83705715D01*
X204404818Y-83705722D01*
X204346327Y-83885740D01*
X204346326Y-83885744D01*
X204326540Y-84074000D01*
X204346326Y-84262256D01*
X204346327Y-84262259D01*
X204404818Y-84442277D01*
X204404821Y-84442284D01*
X204499467Y-84606216D01*
X204528452Y-84638407D01*
X204547250Y-84659284D01*
X204577480Y-84722275D01*
X204579100Y-84742256D01*
X204579100Y-88758100D01*
X204559415Y-88825139D01*
X204506611Y-88870894D01*
X204455100Y-88882100D01*
X200854803Y-88882100D01*
X200787764Y-88862415D01*
X200767122Y-88845781D01*
X199933205Y-88011863D01*
X199933204Y-88011862D01*
X199933200Y-88011859D01*
X199826264Y-87940408D01*
X199707444Y-87891191D01*
X199707438Y-87891189D01*
X199581307Y-87866100D01*
X199581305Y-87866100D01*
X193308900Y-87866100D01*
X193241861Y-87846415D01*
X193196106Y-87793611D01*
X193184900Y-87742100D01*
X193184900Y-82017398D01*
X193201513Y-81955398D01*
X193232179Y-81902284D01*
X193290674Y-81722256D01*
X193310460Y-81534000D01*
X193290674Y-81345744D01*
X193232179Y-81165716D01*
X193137533Y-81001784D01*
X193010871Y-80861112D01*
X193005787Y-80857418D01*
X192857734Y-80749851D01*
X192857729Y-80749848D01*
X192684807Y-80672857D01*
X192684802Y-80672855D01*
X192539001Y-80641865D01*
X192499646Y-80633500D01*
X192310354Y-80633500D01*
X192277897Y-80640398D01*
X192125197Y-80672855D01*
X192125192Y-80672857D01*
X191952270Y-80749848D01*
X191952265Y-80749851D01*
X191804213Y-80857418D01*
X191738407Y-80880898D01*
X191731328Y-80881100D01*
X189043802Y-80881100D01*
X188976763Y-80861415D01*
X188956121Y-80844781D01*
X187245904Y-79134563D01*
X187212419Y-79073240D01*
X187210264Y-79033921D01*
X187214460Y-78994000D01*
X187194674Y-78805744D01*
X187136179Y-78625716D01*
X187041533Y-78461784D01*
X186914871Y-78321112D01*
X186865177Y-78285007D01*
X186761734Y-78209851D01*
X186761729Y-78209848D01*
X186588807Y-78132857D01*
X186588802Y-78132855D01*
X186443001Y-78101865D01*
X186403646Y-78093500D01*
X186214354Y-78093500D01*
X186181897Y-78100398D01*
X186029197Y-78132855D01*
X186029192Y-78132857D01*
X185856270Y-78209848D01*
X185856265Y-78209851D01*
X185703129Y-78321111D01*
X185576466Y-78461785D01*
X185481821Y-78625715D01*
X185481818Y-78625722D01*
X185423327Y-78805740D01*
X185423326Y-78805744D01*
X185403540Y-78994000D01*
X185423326Y-79182256D01*
X185423327Y-79182259D01*
X185481818Y-79362277D01*
X185481821Y-79362284D01*
X185576467Y-79526216D01*
X185671216Y-79631445D01*
X185703129Y-79666888D01*
X185856265Y-79778148D01*
X185856270Y-79778151D01*
X186029191Y-79855142D01*
X186029195Y-79855143D01*
X186029197Y-79855144D01*
X186108331Y-79871964D01*
X186169813Y-79905156D01*
X186170232Y-79905573D01*
X188305799Y-82041140D01*
X188400915Y-82104694D01*
X188412736Y-82112592D01*
X188531556Y-82161809D01*
X188531560Y-82161809D01*
X188531561Y-82161810D01*
X188657692Y-82186900D01*
X188657695Y-82186900D01*
X191731328Y-82186900D01*
X191798367Y-82206585D01*
X191804212Y-82210581D01*
X191827984Y-82227852D01*
X191870651Y-82283182D01*
X191879100Y-82328171D01*
X191879100Y-87742100D01*
X191859415Y-87809139D01*
X191806611Y-87854894D01*
X191755100Y-87866100D01*
X186498693Y-87866100D01*
X186372561Y-87891189D01*
X186372555Y-87891191D01*
X186253737Y-87940407D01*
X186146795Y-88011862D01*
X186146794Y-88011863D01*
X185312878Y-88845781D01*
X185251555Y-88879266D01*
X185225197Y-88882100D01*
X185204672Y-88882100D01*
X185137633Y-88862415D01*
X185131787Y-88858418D01*
X184983734Y-88750851D01*
X184983729Y-88750848D01*
X184810807Y-88673857D01*
X184810802Y-88673855D01*
X184665001Y-88642865D01*
X184625646Y-88634500D01*
X184436354Y-88634500D01*
X184403897Y-88641398D01*
X184251197Y-88673855D01*
X184251192Y-88673857D01*
X184078270Y-88750848D01*
X184078265Y-88750851D01*
X183925129Y-88862111D01*
X183798466Y-89002785D01*
X183703821Y-89166715D01*
X183703818Y-89166722D01*
X183645327Y-89346740D01*
X183645326Y-89346744D01*
X183625540Y-89535000D01*
X183645326Y-89723256D01*
X183645327Y-89723259D01*
X183703818Y-89903277D01*
X183703821Y-89903284D01*
X183798467Y-90067216D01*
X183907132Y-90187900D01*
X183925129Y-90207888D01*
X184078265Y-90319148D01*
X184078270Y-90319151D01*
X184251192Y-90396142D01*
X184251197Y-90396144D01*
X184436354Y-90435500D01*
X184436355Y-90435500D01*
X184625644Y-90435500D01*
X184625646Y-90435500D01*
X184810803Y-90396144D01*
X184983730Y-90319151D01*
X185068993Y-90257204D01*
X185131787Y-90211582D01*
X185197593Y-90188102D01*
X185204672Y-90187900D01*
X185225197Y-90187900D01*
X185292236Y-90207585D01*
X185312878Y-90224219D01*
X186517589Y-91428930D01*
X186551074Y-91490253D01*
X186553229Y-91503649D01*
X186566326Y-91628257D01*
X186566327Y-91628260D01*
X186624818Y-91808277D01*
X186624821Y-91808284D01*
X186719467Y-91972216D01*
X186845856Y-92112585D01*
X186846129Y-92112888D01*
X186999265Y-92224148D01*
X186999270Y-92224151D01*
X187172192Y-92301142D01*
X187172197Y-92301144D01*
X187357354Y-92340500D01*
X187357355Y-92340500D01*
X187546644Y-92340500D01*
X187546646Y-92340500D01*
X187731803Y-92301144D01*
X187904730Y-92224151D01*
X188057871Y-92112888D01*
X188184533Y-91972216D01*
X188279179Y-91808284D01*
X188337674Y-91628256D01*
X188357460Y-91440000D01*
X188337674Y-91251744D01*
X188279179Y-91071716D01*
X188184533Y-90907784D01*
X188057871Y-90767112D01*
X188057870Y-90767111D01*
X187904734Y-90655851D01*
X187904729Y-90655848D01*
X187731807Y-90578857D01*
X187731802Y-90578855D01*
X187574446Y-90545409D01*
X187546646Y-90539500D01*
X187546645Y-90539500D01*
X187526202Y-90539500D01*
X187459163Y-90519815D01*
X187438521Y-90503181D01*
X186558021Y-89622681D01*
X186524536Y-89561358D01*
X186529520Y-89491666D01*
X186558021Y-89447319D01*
X186658597Y-89346744D01*
X186797122Y-89208219D01*
X186858445Y-89174734D01*
X186884803Y-89171900D01*
X190308695Y-89171900D01*
X190435695Y-89171900D01*
X192467695Y-89171900D01*
X192596305Y-89171900D01*
X199195197Y-89171900D01*
X199262236Y-89191585D01*
X199282878Y-89208219D01*
X200116794Y-90042136D01*
X200116795Y-90042137D01*
X200116798Y-90042139D01*
X200116800Y-90042141D01*
X200210129Y-90104500D01*
X200223736Y-90113592D01*
X200342556Y-90162809D01*
X200342560Y-90162809D01*
X200342561Y-90162810D01*
X200468692Y-90187900D01*
X200468695Y-90187900D01*
X205167695Y-90187900D01*
X205296305Y-90187900D01*
X215070197Y-90187900D01*
X215137236Y-90207585D01*
X215157878Y-90224219D01*
X215373893Y-90440234D01*
X215509079Y-90575419D01*
X215542564Y-90636742D01*
X215537580Y-90706433D01*
X215495709Y-90762367D01*
X215430244Y-90786784D01*
X215421398Y-90787100D01*
X206945693Y-90787100D01*
X206819561Y-90812189D01*
X206819555Y-90812191D01*
X206700736Y-90861407D01*
X206593798Y-90932860D01*
X206593795Y-90932863D01*
X203742878Y-93783781D01*
X203681555Y-93817266D01*
X203655197Y-93820100D01*
X201591584Y-93820100D01*
X201524545Y-93800415D01*
X201517277Y-93795369D01*
X201514140Y-93793021D01*
X201514131Y-93793015D01*
X201514130Y-93793014D01*
X201393094Y-93715230D01*
X201393087Y-93715227D01*
X201393081Y-93715223D01*
X201268356Y-93658263D01*
X201264057Y-93656014D01*
X201124261Y-93614966D01*
X201124251Y-93614963D01*
X200996300Y-93596567D01*
X200981941Y-93594503D01*
X200981940Y-93594503D01*
X200925601Y-93594503D01*
X200925591Y-93594500D01*
X200874236Y-93594500D01*
X200445764Y-93594500D01*
X200394427Y-93594500D01*
X200394399Y-93594503D01*
X200338059Y-93594503D01*
X200204521Y-93613703D01*
X200204519Y-93613703D01*
X200195744Y-93614964D01*
X200057686Y-93655503D01*
X199926918Y-93715223D01*
X199926908Y-93715228D01*
X199926906Y-93715230D01*
X199893253Y-93736857D01*
X199805867Y-93793015D01*
X199805863Y-93793018D01*
X199697226Y-93887152D01*
X199697207Y-93887169D01*
X199697206Y-93887171D01*
X199602985Y-93995909D01*
X199602983Y-93995911D01*
X199602983Y-93995912D01*
X199602981Y-93995915D01*
X199525255Y-94116857D01*
X199525252Y-94116863D01*
X199502686Y-94166278D01*
X199465483Y-94247741D01*
X199443153Y-94323791D01*
X199424977Y-94385691D01*
X199424974Y-94385703D01*
X199404500Y-94528110D01*
X199404500Y-95100002D01*
X199409644Y-95171939D01*
X199420603Y-95209262D01*
X199424363Y-95261841D01*
X199404500Y-95399998D01*
X199404500Y-95971889D01*
X199424974Y-96114296D01*
X199424977Y-96114308D01*
X199434159Y-96145579D01*
X199465483Y-96252259D01*
X199486372Y-96298000D01*
X199525252Y-96383136D01*
X199525253Y-96383138D01*
X199599376Y-96498476D01*
X199600196Y-96499917D01*
X199602988Y-96504098D01*
X199697207Y-96612830D01*
X199697210Y-96612833D01*
X199805864Y-96706981D01*
X199805867Y-96706984D01*
X199805869Y-96706985D01*
X199805870Y-96706986D01*
X199926906Y-96784770D01*
X199926913Y-96784773D01*
X199926916Y-96784775D01*
X199934609Y-96788288D01*
X199987414Y-96834041D01*
X200007100Y-96901081D01*
X200007100Y-97976197D01*
X199987415Y-98043236D01*
X199970781Y-98063878D01*
X199784478Y-98250181D01*
X199723155Y-98283666D01*
X199696797Y-98286500D01*
X199676354Y-98286500D01*
X199643897Y-98293398D01*
X199491197Y-98325855D01*
X199491192Y-98325857D01*
X199318270Y-98402848D01*
X199318265Y-98402851D01*
X199165129Y-98514111D01*
X199038466Y-98654785D01*
X198943821Y-98818715D01*
X198943818Y-98818722D01*
X198885327Y-98998740D01*
X198885326Y-98998744D01*
X198865540Y-99187000D01*
X198885326Y-99375256D01*
X198885327Y-99375259D01*
X198943818Y-99555277D01*
X198943821Y-99555284D01*
X199038467Y-99719216D01*
X199152500Y-99845862D01*
X199165129Y-99859888D01*
X199318265Y-99971148D01*
X199318270Y-99971151D01*
X199427616Y-100019836D01*
X199480853Y-100065086D01*
X199501174Y-100131936D01*
X199482128Y-100199159D01*
X199464861Y-100220796D01*
X198393878Y-101291781D01*
X198332555Y-101325266D01*
X198306197Y-101328100D01*
X197420693Y-101328100D01*
X197294561Y-101353189D01*
X197294555Y-101353191D01*
X197175736Y-101402407D01*
X197068798Y-101473860D01*
X197068795Y-101473863D01*
X195028378Y-103514281D01*
X194967055Y-103547766D01*
X194940697Y-103550600D01*
X193904172Y-103550600D01*
X193837133Y-103530915D01*
X193831287Y-103526918D01*
X193683234Y-103419351D01*
X193683232Y-103419350D01*
X193512463Y-103343317D01*
X193459227Y-103298066D01*
X193438906Y-103231217D01*
X193438900Y-103230038D01*
X193438900Y-100407402D01*
X193458585Y-100340363D01*
X193475219Y-100319721D01*
X194169521Y-99625419D01*
X194230844Y-99591934D01*
X194257202Y-99589100D01*
X194277644Y-99589100D01*
X194277646Y-99589100D01*
X194462803Y-99549744D01*
X194635730Y-99472751D01*
X194788871Y-99361488D01*
X194915533Y-99220816D01*
X195010179Y-99056884D01*
X195068674Y-98876856D01*
X195088460Y-98688600D01*
X195068674Y-98500344D01*
X195010179Y-98320316D01*
X194915533Y-98156384D01*
X194788871Y-98015712D01*
X194788870Y-98015711D01*
X194635734Y-97904451D01*
X194635729Y-97904448D01*
X194462807Y-97827457D01*
X194462802Y-97827455D01*
X194317001Y-97796465D01*
X194277646Y-97788100D01*
X194088354Y-97788100D01*
X194055897Y-97794998D01*
X193903197Y-97827455D01*
X193903192Y-97827457D01*
X193730270Y-97904448D01*
X193730265Y-97904451D01*
X193577129Y-98015711D01*
X193450466Y-98156385D01*
X193355821Y-98320315D01*
X193355818Y-98320322D01*
X193297327Y-98500339D01*
X193297327Y-98500340D01*
X193297326Y-98500344D01*
X193284229Y-98624950D01*
X193257644Y-98689564D01*
X193248589Y-98699668D01*
X192278861Y-99669397D01*
X192278856Y-99669403D01*
X192269001Y-99684153D01*
X192215389Y-99728957D01*
X192146063Y-99737664D01*
X192083036Y-99707509D01*
X192046318Y-99648065D01*
X192041900Y-99615261D01*
X192041900Y-91121692D01*
X192016810Y-90995561D01*
X192016809Y-90995560D01*
X192016809Y-90995556D01*
X191967592Y-90876736D01*
X191967591Y-90876733D01*
X191955919Y-90859266D01*
X191929317Y-90819454D01*
X191909100Y-90763526D01*
X191908978Y-90762367D01*
X191893674Y-90616744D01*
X191835179Y-90436716D01*
X191740533Y-90272784D01*
X191613871Y-90132112D01*
X191613870Y-90132111D01*
X191460734Y-90020851D01*
X191460729Y-90020848D01*
X191287807Y-89943857D01*
X191287802Y-89943855D01*
X191142001Y-89912865D01*
X191102646Y-89904500D01*
X190913354Y-89904500D01*
X190880897Y-89911398D01*
X190728197Y-89943855D01*
X190728192Y-89943857D01*
X190555270Y-90020848D01*
X190555265Y-90020851D01*
X190402129Y-90132111D01*
X190275466Y-90272785D01*
X190180821Y-90436715D01*
X190180818Y-90436722D01*
X190122327Y-90616740D01*
X190122326Y-90616744D01*
X190102540Y-90805000D01*
X190122326Y-90993256D01*
X190122327Y-90993259D01*
X190180818Y-91173277D01*
X190180821Y-91173284D01*
X190275467Y-91337216D01*
X190386005Y-91459980D01*
X190402129Y-91477888D01*
X190490780Y-91542297D01*
X190555270Y-91589151D01*
X190662539Y-91636911D01*
X190715773Y-91682159D01*
X190736094Y-91749008D01*
X190736100Y-91750188D01*
X190736100Y-102857088D01*
X190716415Y-102924127D01*
X190663611Y-102969882D01*
X190594453Y-102979826D01*
X190561664Y-102970367D01*
X190398807Y-102897857D01*
X190398802Y-102897855D01*
X190253001Y-102866865D01*
X190213646Y-102858500D01*
X190213645Y-102858500D01*
X190193202Y-102858500D01*
X190126163Y-102838815D01*
X190105521Y-102822181D01*
X189265205Y-101981863D01*
X189265204Y-101981862D01*
X189209121Y-101944389D01*
X189158264Y-101910408D01*
X189112821Y-101891585D01*
X189039444Y-101861191D01*
X189039438Y-101861189D01*
X188913307Y-101836100D01*
X188913305Y-101836100D01*
X183485604Y-101836100D01*
X183418565Y-101816415D01*
X183372810Y-101763611D01*
X183362866Y-101694453D01*
X183391891Y-101630897D01*
X183397923Y-101624419D01*
X184276136Y-100746204D01*
X184276139Y-100746201D01*
X184276138Y-100746201D01*
X184276141Y-100746199D01*
X184347592Y-100639264D01*
X184396809Y-100520444D01*
X184405868Y-100474900D01*
X184421900Y-100394307D01*
X184421900Y-98351822D01*
X184441585Y-98284783D01*
X184494389Y-98239028D01*
X184563547Y-98229084D01*
X184618785Y-98251504D01*
X184713265Y-98320148D01*
X184713270Y-98320151D01*
X184886192Y-98397142D01*
X184886197Y-98397144D01*
X185071354Y-98436500D01*
X185071355Y-98436500D01*
X185260644Y-98436500D01*
X185260646Y-98436500D01*
X185445803Y-98397144D01*
X185618730Y-98320151D01*
X185667410Y-98284783D01*
X185766787Y-98212582D01*
X185832593Y-98189102D01*
X185839672Y-98188900D01*
X186373307Y-98188900D01*
X186468149Y-98170034D01*
X186499444Y-98163809D01*
X186618264Y-98114592D01*
X186725200Y-98043141D01*
X187692521Y-97075818D01*
X187753844Y-97042334D01*
X187780202Y-97039500D01*
X187800644Y-97039500D01*
X187800646Y-97039500D01*
X187985803Y-97000144D01*
X188158730Y-96923151D01*
X188311871Y-96811888D01*
X188438533Y-96671216D01*
X188533179Y-96507284D01*
X188591674Y-96327256D01*
X188611460Y-96139000D01*
X188610911Y-96133781D01*
X188608864Y-96114304D01*
X188591674Y-95950744D01*
X188533179Y-95770716D01*
X188438533Y-95606784D01*
X188311871Y-95466112D01*
X188311870Y-95466111D01*
X188158734Y-95354851D01*
X188158729Y-95354848D01*
X187985807Y-95277857D01*
X187985802Y-95277855D01*
X187819069Y-95242416D01*
X187800646Y-95238500D01*
X187611354Y-95238500D01*
X187592931Y-95242416D01*
X187426197Y-95277855D01*
X187426192Y-95277857D01*
X187253270Y-95354848D01*
X187253265Y-95354851D01*
X187100129Y-95466111D01*
X186973466Y-95606785D01*
X186878821Y-95770715D01*
X186878818Y-95770722D01*
X186820327Y-95950739D01*
X186820327Y-95950740D01*
X186820326Y-95950744D01*
X186817987Y-95973000D01*
X186807229Y-96075350D01*
X186780644Y-96139964D01*
X186771589Y-96150068D01*
X186074878Y-96846781D01*
X186013555Y-96880266D01*
X185987197Y-96883100D01*
X185839672Y-96883100D01*
X185772633Y-96863415D01*
X185766787Y-96859418D01*
X185618734Y-96751851D01*
X185618729Y-96751848D01*
X185445807Y-96674857D01*
X185445802Y-96674855D01*
X185300001Y-96643865D01*
X185260646Y-96635500D01*
X185071354Y-96635500D01*
X185038897Y-96642398D01*
X184886197Y-96674855D01*
X184886192Y-96674857D01*
X184713270Y-96751848D01*
X184713265Y-96751851D01*
X184560129Y-96863111D01*
X184443330Y-96992830D01*
X184383843Y-97029479D01*
X184313986Y-97028148D01*
X184263499Y-96997539D01*
X183581824Y-96315863D01*
X183581818Y-96315858D01*
X183561894Y-96302545D01*
X183517089Y-96248932D01*
X183508383Y-96179607D01*
X183512856Y-96161123D01*
X183517908Y-96145576D01*
X183536047Y-95973000D01*
X183517908Y-95800424D01*
X183464286Y-95635389D01*
X183449627Y-95610000D01*
X183433154Y-95542103D01*
X183449627Y-95485999D01*
X183464286Y-95460611D01*
X183517908Y-95295576D01*
X183536047Y-95123000D01*
X183517908Y-94950424D01*
X183464286Y-94785389D01*
X183449627Y-94760000D01*
X183433154Y-94692103D01*
X183449627Y-94635999D01*
X183464286Y-94610611D01*
X183517908Y-94445576D01*
X183536047Y-94273000D01*
X183517908Y-94100424D01*
X183464286Y-93935389D01*
X183449627Y-93910000D01*
X183433154Y-93842103D01*
X183449627Y-93785999D01*
X183464286Y-93760611D01*
X183517908Y-93595576D01*
X183536047Y-93423000D01*
X183517908Y-93250424D01*
X183464286Y-93085389D01*
X183463998Y-93084891D01*
X183456877Y-93072557D01*
X183449627Y-93060000D01*
X183433154Y-92992103D01*
X183449627Y-92935999D01*
X183464286Y-92910611D01*
X183517908Y-92745576D01*
X183536047Y-92573000D01*
X183517908Y-92400424D01*
X183464286Y-92235389D01*
X183449337Y-92209498D01*
X183432865Y-92141599D01*
X183449339Y-92085497D01*
X183463826Y-92060404D01*
X183517414Y-91895476D01*
X183517415Y-91895473D01*
X183535543Y-91723000D01*
X183517415Y-91550526D01*
X183517414Y-91550523D01*
X183463826Y-91385595D01*
X183439349Y-91343202D01*
X183040187Y-91742364D01*
X182978864Y-91775849D01*
X182926726Y-91775974D01*
X182902654Y-91770857D01*
X182906000Y-91762782D01*
X182906000Y-91683218D01*
X182875552Y-91609709D01*
X182819291Y-91553448D01*
X182745782Y-91523000D01*
X182666218Y-91523000D01*
X182592709Y-91553448D01*
X182536448Y-91609709D01*
X182513196Y-91665843D01*
X182504571Y-91605853D01*
X182533596Y-91542297D01*
X182539628Y-91535819D01*
X183055311Y-91020135D01*
X183116634Y-90986650D01*
X183177201Y-90990981D01*
X183201519Y-90990981D01*
X183213913Y-90978588D01*
X183317875Y-90823000D01*
X183317880Y-90822991D01*
X183389492Y-90650103D01*
X183389493Y-90650100D01*
X183394884Y-90623000D01*
X182642988Y-90623000D01*
X182660205Y-90613060D01*
X182716060Y-90557205D01*
X182755556Y-90488796D01*
X182776000Y-90412496D01*
X182776000Y-90333504D01*
X182755556Y-90257204D01*
X182716060Y-90188795D01*
X182660205Y-90132940D01*
X182642988Y-90123000D01*
X183394884Y-90123000D01*
X183394884Y-90122999D01*
X183389493Y-90095899D01*
X183389492Y-90095896D01*
X183317880Y-89923008D01*
X183317875Y-89922999D01*
X183213913Y-89767410D01*
X183213910Y-89767406D01*
X183081593Y-89635089D01*
X183081589Y-89635086D01*
X182926000Y-89531124D01*
X182925991Y-89531119D01*
X182753105Y-89459508D01*
X182753097Y-89459506D01*
X182569570Y-89423000D01*
X181976000Y-89423000D01*
X181976000Y-90073000D01*
X181476000Y-90073000D01*
X181476000Y-89423000D01*
X180882430Y-89423000D01*
X180698902Y-89459506D01*
X180698894Y-89459508D01*
X180526008Y-89531119D01*
X180525999Y-89531124D01*
X180370410Y-89635086D01*
X180370406Y-89635089D01*
X180238089Y-89767406D01*
X180238086Y-89767410D01*
X180134124Y-89922999D01*
X180134119Y-89923008D01*
X180062507Y-90095896D01*
X180062506Y-90095899D01*
X180057115Y-90122999D01*
X180057116Y-90123000D01*
X180809012Y-90123000D01*
X180791795Y-90132940D01*
X180735940Y-90188795D01*
X180696444Y-90257204D01*
X180676000Y-90333504D01*
X180676000Y-90412496D01*
X180696444Y-90488796D01*
X180735940Y-90557205D01*
X180791795Y-90613060D01*
X180809012Y-90623000D01*
X180057116Y-90623000D01*
X180062506Y-90650100D01*
X180062507Y-90650103D01*
X180134119Y-90822991D01*
X180134124Y-90823000D01*
X180238086Y-90978589D01*
X180238089Y-90978593D01*
X180370406Y-91110910D01*
X180370410Y-91110913D01*
X180525999Y-91214875D01*
X180526012Y-91214882D01*
X180533508Y-91217987D01*
X180587912Y-91261828D01*
X180609977Y-91328122D01*
X180600039Y-91379367D01*
X180600182Y-91379414D01*
X180599805Y-91380571D01*
X180599340Y-91382974D01*
X180598174Y-91385591D01*
X180544585Y-91550523D01*
X180544584Y-91550526D01*
X180526456Y-91723000D01*
X180532777Y-91783139D01*
X180520207Y-91851868D01*
X180472475Y-91902892D01*
X180409456Y-91920100D01*
X180031693Y-91920100D01*
X179905561Y-91945189D01*
X179905555Y-91945191D01*
X179786736Y-91994407D01*
X179679798Y-92065860D01*
X179679795Y-92065863D01*
X178816863Y-92928794D01*
X178816862Y-92928795D01*
X178745407Y-93035737D01*
X178696191Y-93154555D01*
X178696189Y-93154561D01*
X178671100Y-93280692D01*
X178671100Y-93280695D01*
X178671100Y-96203305D01*
X178671100Y-96203307D01*
X178671099Y-96203307D01*
X178685001Y-96273191D01*
X178691291Y-96304811D01*
X178696191Y-96329444D01*
X178745408Y-96448264D01*
X178816859Y-96555200D01*
X178816862Y-96555204D01*
X178816863Y-96555205D01*
X179591796Y-97330137D01*
X179591797Y-97330138D01*
X179591800Y-97330140D01*
X179698736Y-97401592D01*
X179817556Y-97450809D01*
X179817560Y-97450809D01*
X179817561Y-97450810D01*
X179943692Y-97475900D01*
X179943695Y-97475900D01*
X180409456Y-97475900D01*
X180476495Y-97495585D01*
X180522250Y-97548389D01*
X180532777Y-97612861D01*
X180526456Y-97672999D01*
X180544584Y-97845473D01*
X180544585Y-97845476D01*
X180598175Y-98010412D01*
X180599337Y-98013020D01*
X180599557Y-98014663D01*
X180600182Y-98016586D01*
X180599830Y-98016700D01*
X180608620Y-98082270D01*
X180578989Y-98145546D01*
X180533516Y-98178009D01*
X180526013Y-98181117D01*
X180525999Y-98181124D01*
X180370410Y-98285086D01*
X180370406Y-98285089D01*
X180238089Y-98417406D01*
X180238086Y-98417410D01*
X180134124Y-98572999D01*
X180134119Y-98573008D01*
X180062507Y-98745896D01*
X180062506Y-98745899D01*
X180057115Y-98772999D01*
X180057116Y-98773000D01*
X180809012Y-98773000D01*
X180791795Y-98782940D01*
X180735940Y-98838795D01*
X180696444Y-98907204D01*
X180676000Y-98983504D01*
X180676000Y-99062496D01*
X180696444Y-99138796D01*
X180735940Y-99207205D01*
X180791795Y-99263060D01*
X180809012Y-99273000D01*
X180057116Y-99273000D01*
X180062506Y-99300100D01*
X180062507Y-99300103D01*
X180134119Y-99472991D01*
X180134124Y-99473000D01*
X180238086Y-99628589D01*
X180238089Y-99628593D01*
X180370406Y-99760910D01*
X180370410Y-99760913D01*
X180525999Y-99864875D01*
X180526008Y-99864880D01*
X180698894Y-99936491D01*
X180698902Y-99936493D01*
X180882428Y-99972999D01*
X180882431Y-99973000D01*
X181476000Y-99973000D01*
X181476000Y-99323000D01*
X181976000Y-99323000D01*
X181976000Y-99973000D01*
X182569569Y-99973000D01*
X182569571Y-99972999D01*
X182753097Y-99936493D01*
X182753105Y-99936491D01*
X182925991Y-99864880D01*
X182931369Y-99862006D01*
X182932368Y-99863876D01*
X182989866Y-99845862D01*
X183057249Y-99864336D01*
X183103948Y-99916307D01*
X183116100Y-99969842D01*
X183116100Y-100008197D01*
X183096415Y-100075236D01*
X183079781Y-100095878D01*
X182645878Y-100529781D01*
X182584555Y-100563266D01*
X182558197Y-100566100D01*
X180828634Y-100566100D01*
X180778198Y-100555379D01*
X180619806Y-100484857D01*
X180619802Y-100484855D01*
X180474001Y-100453865D01*
X180434646Y-100445500D01*
X180245354Y-100445500D01*
X180212897Y-100452398D01*
X180060197Y-100484855D01*
X180060192Y-100484857D01*
X179887270Y-100561848D01*
X179887265Y-100561851D01*
X179734129Y-100673111D01*
X179607466Y-100813785D01*
X179512821Y-100977715D01*
X179512818Y-100977722D01*
X179472694Y-101101213D01*
X179454326Y-101157744D01*
X179434540Y-101346000D01*
X179454326Y-101534256D01*
X179454327Y-101534259D01*
X179512818Y-101714277D01*
X179512821Y-101714284D01*
X179607467Y-101878216D01*
X179729320Y-102013547D01*
X179734129Y-102018888D01*
X179887265Y-102130148D01*
X179887270Y-102130151D01*
X180060192Y-102207142D01*
X180060197Y-102207144D01*
X180245354Y-102246500D01*
X180245355Y-102246500D01*
X180434644Y-102246500D01*
X180434646Y-102246500D01*
X180619803Y-102207144D01*
X180792730Y-102130151D01*
X180945871Y-102018888D01*
X181041278Y-101912927D01*
X181100765Y-101876279D01*
X181133428Y-101871900D01*
X182909397Y-101871900D01*
X182976436Y-101891585D01*
X183022191Y-101944389D01*
X183032135Y-102013547D01*
X183003110Y-102077103D01*
X182997078Y-102083581D01*
X181375878Y-103704781D01*
X181314555Y-103738266D01*
X181288197Y-103741100D01*
X179526172Y-103741100D01*
X179459133Y-103721415D01*
X179453287Y-103717418D01*
X179305234Y-103609851D01*
X179305229Y-103609848D01*
X179132307Y-103532857D01*
X179132302Y-103532855D01*
X178986501Y-103501865D01*
X178947146Y-103493500D01*
X178757854Y-103493500D01*
X178725397Y-103500398D01*
X178572697Y-103532855D01*
X178572692Y-103532857D01*
X178399770Y-103609848D01*
X178399765Y-103609851D01*
X178246629Y-103721111D01*
X178119966Y-103861785D01*
X178025321Y-104025715D01*
X178025318Y-104025722D01*
X177992319Y-104127284D01*
X177966826Y-104205744D01*
X177947040Y-104394000D01*
X176403000Y-104394000D01*
X176403000Y-98772999D01*
X177027115Y-98772999D01*
X177027116Y-98773000D01*
X177779012Y-98773000D01*
X177761795Y-98782940D01*
X177705940Y-98838795D01*
X177666444Y-98907204D01*
X177646000Y-98983504D01*
X177646000Y-99062496D01*
X177666444Y-99138796D01*
X177705940Y-99207205D01*
X177761795Y-99263060D01*
X177779012Y-99273000D01*
X177027116Y-99273000D01*
X177032506Y-99300100D01*
X177032507Y-99300103D01*
X177104119Y-99472991D01*
X177104124Y-99473000D01*
X177208086Y-99628589D01*
X177208089Y-99628593D01*
X177340406Y-99760910D01*
X177340410Y-99760913D01*
X177495999Y-99864875D01*
X177496008Y-99864880D01*
X177668894Y-99936491D01*
X177668902Y-99936493D01*
X177852428Y-99972999D01*
X177852431Y-99973000D01*
X178096000Y-99973000D01*
X178096000Y-99323000D01*
X178596000Y-99323000D01*
X178596000Y-99973000D01*
X178839569Y-99973000D01*
X178839571Y-99972999D01*
X179023097Y-99936493D01*
X179023105Y-99936491D01*
X179195991Y-99864880D01*
X179196000Y-99864875D01*
X179351589Y-99760913D01*
X179351593Y-99760910D01*
X179483910Y-99628593D01*
X179483913Y-99628589D01*
X179587875Y-99473000D01*
X179587880Y-99472991D01*
X179659492Y-99300103D01*
X179659493Y-99300100D01*
X179664884Y-99273000D01*
X178912988Y-99273000D01*
X178930205Y-99263060D01*
X178986060Y-99207205D01*
X179025556Y-99138796D01*
X179046000Y-99062496D01*
X179046000Y-98983504D01*
X179025556Y-98907204D01*
X178986060Y-98838795D01*
X178930205Y-98782940D01*
X178912988Y-98773000D01*
X179664884Y-98773000D01*
X179664884Y-98772999D01*
X179659493Y-98745899D01*
X179659492Y-98745896D01*
X179587880Y-98573008D01*
X179587875Y-98572999D01*
X179483913Y-98417410D01*
X179483910Y-98417406D01*
X179351593Y-98285089D01*
X179351589Y-98285086D01*
X179196000Y-98181124D01*
X179195991Y-98181119D01*
X179023105Y-98109508D01*
X179023097Y-98109506D01*
X178839570Y-98073000D01*
X178596000Y-98073000D01*
X178596000Y-98723000D01*
X178096000Y-98723000D01*
X178096000Y-98073000D01*
X177852430Y-98073000D01*
X177668902Y-98109506D01*
X177668894Y-98109508D01*
X177496008Y-98181119D01*
X177495999Y-98181124D01*
X177340410Y-98285086D01*
X177340406Y-98285089D01*
X177208089Y-98417406D01*
X177208086Y-98417410D01*
X177104124Y-98572999D01*
X177104119Y-98573008D01*
X177032507Y-98745896D01*
X177032506Y-98745899D01*
X177027115Y-98772999D01*
X176403000Y-98772999D01*
X176403000Y-90122999D01*
X177027115Y-90122999D01*
X177027116Y-90123000D01*
X177779012Y-90123000D01*
X177761795Y-90132940D01*
X177705940Y-90188795D01*
X177666444Y-90257204D01*
X177646000Y-90333504D01*
X177646000Y-90412496D01*
X177666444Y-90488796D01*
X177705940Y-90557205D01*
X177761795Y-90613060D01*
X177779012Y-90623000D01*
X177027116Y-90623000D01*
X177032506Y-90650100D01*
X177032507Y-90650103D01*
X177104119Y-90822991D01*
X177104124Y-90823000D01*
X177208086Y-90978589D01*
X177208089Y-90978593D01*
X177340406Y-91110910D01*
X177340410Y-91110913D01*
X177495999Y-91214875D01*
X177496008Y-91214880D01*
X177668894Y-91286491D01*
X177668902Y-91286493D01*
X177852428Y-91322999D01*
X177852431Y-91323000D01*
X178096000Y-91323000D01*
X178096000Y-90673000D01*
X178596000Y-90673000D01*
X178596000Y-91323000D01*
X178839569Y-91323000D01*
X178839571Y-91322999D01*
X179023097Y-91286493D01*
X179023105Y-91286491D01*
X179195991Y-91214880D01*
X179196000Y-91214875D01*
X179351589Y-91110913D01*
X179351593Y-91110910D01*
X179483910Y-90978593D01*
X179483913Y-90978589D01*
X179587875Y-90823000D01*
X179587880Y-90822991D01*
X179659492Y-90650103D01*
X179659493Y-90650100D01*
X179664884Y-90623000D01*
X178912988Y-90623000D01*
X178930205Y-90613060D01*
X178986060Y-90557205D01*
X179025556Y-90488796D01*
X179046000Y-90412496D01*
X179046000Y-90333504D01*
X179025556Y-90257204D01*
X178986060Y-90188795D01*
X178930205Y-90132940D01*
X178912988Y-90123000D01*
X179664884Y-90123000D01*
X179664884Y-90122999D01*
X179659493Y-90095899D01*
X179659492Y-90095896D01*
X179587880Y-89923008D01*
X179587875Y-89922999D01*
X179483913Y-89767410D01*
X179483910Y-89767406D01*
X179351593Y-89635089D01*
X179351589Y-89635086D01*
X179196000Y-89531124D01*
X179195991Y-89531119D01*
X179023105Y-89459508D01*
X179023097Y-89459506D01*
X178839570Y-89423000D01*
X178596000Y-89423000D01*
X178596000Y-90073000D01*
X178096000Y-90073000D01*
X178096000Y-89423000D01*
X177852430Y-89423000D01*
X177668902Y-89459506D01*
X177668894Y-89459508D01*
X177496008Y-89531119D01*
X177495999Y-89531124D01*
X177340410Y-89635086D01*
X177340406Y-89635089D01*
X177208089Y-89767406D01*
X177208086Y-89767410D01*
X177104124Y-89922999D01*
X177104119Y-89923008D01*
X177032507Y-90095896D01*
X177032506Y-90095899D01*
X177027115Y-90122999D01*
X176403000Y-90122999D01*
X176403000Y-81839588D01*
X176403005Y-81838457D01*
X176403023Y-81836442D01*
X176405353Y-81581211D01*
X176405692Y-81573131D01*
X176444178Y-81059574D01*
X176445209Y-81050415D01*
X176521880Y-80541736D01*
X176523603Y-80532634D01*
X176526746Y-80518862D01*
X176638066Y-80031134D01*
X176640459Y-80022204D01*
X176792090Y-79530628D01*
X176795140Y-79521914D01*
X176983079Y-79043054D01*
X176986763Y-79034607D01*
X177209971Y-78571109D01*
X177214286Y-78562947D01*
X177471496Y-78117445D01*
X177476416Y-78109616D01*
X177766188Y-77684600D01*
X177771678Y-77677159D01*
X178092412Y-77274971D01*
X178098443Y-77267963D01*
X178448340Y-76890863D01*
X178454873Y-76884332D01*
X178529670Y-76814930D01*
X178831961Y-76534445D01*
X178838955Y-76528426D01*
X179241145Y-76207689D01*
X179248599Y-76202189D01*
X179673615Y-75912417D01*
X179681444Y-75907497D01*
X180126938Y-75650291D01*
X180135116Y-75645969D01*
X180598591Y-75422771D01*
X180607066Y-75419074D01*
X181085912Y-75231141D01*
X181094626Y-75228091D01*
X181586202Y-75076460D01*
X181595132Y-75074067D01*
X182096634Y-74959603D01*
X182105734Y-74957881D01*
X182614389Y-74881214D01*
X182623593Y-74880177D01*
X183137129Y-74841692D01*
X183145210Y-74841353D01*
X183399296Y-74839035D01*
X183402455Y-74839007D01*
X183403585Y-74839002D01*
X220401955Y-74839002D01*
X220404060Y-74839020D01*
G37*
G04 #@! TD.AperFunction*
G04 #@! TD*
M02*
