G04 #@! TF.GenerationSoftware,KiCad,Pcbnew,8.0.1-rc1*
G04 #@! TF.CreationDate,2024-03-16T10:29:41-04:00*
G04 #@! TF.ProjectId,keystone-esp,6b657973-746f-46e6-952d-6573702e6b69,rev?*
G04 #@! TF.SameCoordinates,Original*
G04 #@! TF.FileFunction,Soldermask,Bot*
G04 #@! TF.FilePolarity,Negative*
%FSLAX46Y46*%
G04 Gerber Fmt 4.6, Leading zero omitted, Abs format (unit mm)*
G04 Created by KiCad (PCBNEW 8.0.1-rc1) date 2024-03-16 10:29:41*
%MOMM*%
%LPD*%
G01*
G04 APERTURE LIST*
G04 Aperture macros list*
%AMFreePoly0*
4,1,19,0.500000,-0.750000,0.000000,-0.750000,0.000000,-0.744911,-0.071157,-0.744911,-0.207708,-0.704816,-0.327430,-0.627875,-0.420627,-0.520320,-0.479746,-0.390866,-0.500000,-0.250000,-0.500000,0.250000,-0.479746,0.390866,-0.420627,0.520320,-0.327430,0.627875,-0.207708,0.704816,-0.071157,0.744911,0.000000,0.744911,0.000000,0.750000,0.500000,0.750000,0.500000,-0.750000,0.500000,-0.750000,
$1*%
%AMFreePoly1*
4,1,19,0.000000,0.744911,0.071157,0.744911,0.207708,0.704816,0.327430,0.627875,0.420627,0.520320,0.479746,0.390866,0.500000,0.250000,0.500000,-0.250000,0.479746,-0.390866,0.420627,-0.520320,0.327430,-0.627875,0.207708,-0.704816,0.071157,-0.744911,0.000000,-0.744911,0.000000,-0.750000,-0.500000,-0.750000,-0.500000,0.750000,0.000000,0.750000,0.000000,0.744911,0.000000,0.744911,
$1*%
G04 Aperture macros list end*
%ADD10O,1.700000X3.700000*%
%ADD11C,0.650000*%
%ADD12O,1.700000X0.900000*%
%ADD13O,2.400000X0.900000*%
%ADD14O,3.000000X1.700000*%
%ADD15FreePoly0,270.000000*%
%ADD16FreePoly1,270.000000*%
G04 APERTURE END LIST*
D10*
G04 #@! TO.C,J3*
X220452000Y-77978000D03*
X217912000Y-77978000D03*
X215372000Y-77978000D03*
X212832000Y-77978000D03*
X210292000Y-77978000D03*
X207752000Y-77978000D03*
X205212000Y-77978000D03*
X202672000Y-77978000D03*
X200132000Y-77978000D03*
X197592000Y-77978000D03*
X195052000Y-77978000D03*
X192512000Y-77978000D03*
G04 #@! TD*
D11*
G04 #@! TO.C,J1*
X182706000Y-91723000D03*
X182706000Y-92573000D03*
X182706000Y-93423000D03*
X182706000Y-94273000D03*
X182706000Y-95123000D03*
X182706000Y-95973000D03*
X182706000Y-96823000D03*
X182706000Y-97673000D03*
X181356000Y-97673000D03*
X181356000Y-96823000D03*
X181356000Y-95973000D03*
X181356000Y-95123000D03*
X181356000Y-94273000D03*
X181356000Y-93423000D03*
X181356000Y-92573000D03*
X181356000Y-91723000D03*
D12*
X178346000Y-90373000D03*
X178346000Y-99023000D03*
D13*
X181726000Y-90373000D03*
X181726000Y-99023000D03*
G04 #@! TD*
D10*
G04 #@! TO.C,J4*
X220472000Y-112776000D03*
X217932000Y-112776000D03*
X215392000Y-112776000D03*
X212852000Y-112776000D03*
X210312000Y-112776000D03*
X207772000Y-112776000D03*
X205232000Y-112776000D03*
X202692000Y-112776000D03*
X200152000Y-112776000D03*
X197612000Y-112776000D03*
X195072000Y-112776000D03*
X192532000Y-112776000D03*
X189992000Y-112776000D03*
X187452000Y-112776000D03*
X184912000Y-112776000D03*
G04 #@! TD*
D14*
G04 #@! TO.C,J2*
X219075000Y-101981000D03*
X219075000Y-99441000D03*
X219075000Y-96901000D03*
X219075000Y-94361000D03*
X219075000Y-91821000D03*
X219075000Y-89281000D03*
G04 #@! TD*
D15*
G04 #@! TO.C,JP2*
X200660000Y-94600000D03*
D16*
X200660000Y-95900000D03*
G04 #@! TD*
M02*
