M48
; DRILL file {KiCad 8.0.1-rc1} date 2024-03-16T10:29:38-0400
; FORMAT={-:-/ absolute / metric / decimal}
; #@! TF.CreationDate,2024-03-16T10:29:38-04:00
; #@! TF.GenerationSoftware,Kicad,Pcbnew,8.0.1-rc1
; #@! TF.FileFunction,MixedPlating,1,2
FMAT,2
METRIC
; #@! TA.AperFunction,Plated,PTH,ViaDrill
T1C0.400
; #@! TA.AperFunction,Plated,PTH,ComponentDrill
T2C0.400
; #@! TA.AperFunction,Plated,PTH,ComponentDrill
T3C0.600
; #@! TA.AperFunction,Plated,PTH,ComponentDrill
T4C1.000
%
G90
G05
T1
X178.852Y-104.394
X178.98Y-108.204
X179.832Y-91.313
X180.34Y-101.346
X180.594Y-97.79
X184.531Y-89.535
X184.531Y-92.075
X184.912Y-99.695
X185.166Y-97.536
X185.801Y-105.791
X186.309Y-78.994
X187.452Y-91.44
X187.706Y-96.139
X187.706Y-106.172
X187.96Y-101.473
X190.119Y-94.996
X190.119Y-103.759
X190.5Y-99.949
X191.008Y-90.805
X192.405Y-81.534
X193.04Y-109.093
X193.23Y-104.203
X193.665Y-106.299
X194.183Y-98.689
X195.072Y-84.201
X195.199Y-87.503
X196.342Y-105.41
X196.342Y-107.061
X197.612Y-80.772
X197.866Y-98.933
X198.374Y-102.997
X198.882Y-107.315
X199.771Y-99.187
X200.152Y-80.772
X202.692Y-80.772
X205.105Y-90.932
X205.232Y-84.074
X206.756Y-88.392
X207.899Y-88.519
X208.534Y-107.188
X209.296Y-88.392
X209.55Y-81.407
X209.677Y-94.742
X212.725Y-81.788
X215.265Y-98.171
X215.686Y-100.624
X216.789Y-109.347
X218.186Y-85.217
X220.345Y-106.172
T2
X181.356Y-91.723
X181.356Y-92.573
X181.356Y-93.423
X181.356Y-94.273
X181.356Y-95.123
X181.356Y-95.973
X181.356Y-96.823
X181.356Y-97.673
X182.706Y-91.723
X182.706Y-92.573
X182.706Y-93.423
X182.706Y-94.273
X182.706Y-95.123
X182.706Y-95.973
X182.706Y-96.823
X182.706Y-97.673
X211.734Y-94.21
X211.734Y-95.736
X212.496Y-93.448
X212.496Y-94.973
X212.496Y-96.498
X213.259Y-94.21
X213.259Y-95.736
X214.022Y-93.448
X214.022Y-94.973
X214.022Y-96.498
X214.784Y-94.21
X214.784Y-95.736
T4
X184.912Y-112.776
X187.452Y-112.776
X189.992Y-112.776
X192.512Y-77.978
X192.532Y-112.776
X195.052Y-77.978
X195.072Y-112.776
X197.592Y-77.978
X197.612Y-112.776
X200.132Y-77.978
X200.152Y-112.776
X202.672Y-77.978
X202.692Y-112.776
X205.212Y-77.978
X205.232Y-112.776
X207.752Y-77.978
X207.772Y-112.776
X210.292Y-77.978
X210.312Y-112.776
X212.832Y-77.978
X212.852Y-112.776
X215.372Y-77.978
X215.392Y-112.776
X217.912Y-77.978
X217.932Y-112.776
X220.452Y-77.978
X220.472Y-112.776
T3
G00X178.746Y-90.373
M15
G01X177.946Y-90.373
M16
G05
G00X178.746Y-99.023
M15
G01X177.946Y-99.023
M16
G05
G00X182.476Y-90.373
M15
G01X180.976Y-90.373
M16
G05
G00X182.476Y-99.023
M15
G01X180.976Y-99.023
M16
G05
M30
