G04 #@! TF.GenerationSoftware,KiCad,Pcbnew,8.0.1-rc1*
G04 #@! TF.CreationDate,2024-03-16T10:29:41-04:00*
G04 #@! TF.ProjectId,keystone-esp,6b657973-746f-46e6-952d-6573702e6b69,rev?*
G04 #@! TF.SameCoordinates,Original*
G04 #@! TF.FileFunction,Copper,L1,Top*
G04 #@! TF.FilePolarity,Positive*
%FSLAX46Y46*%
G04 Gerber Fmt 4.6, Leading zero omitted, Abs format (unit mm)*
G04 Created by KiCad (PCBNEW 8.0.1-rc1) date 2024-03-16 10:29:41*
%MOMM*%
%LPD*%
G01*
G04 APERTURE LIST*
G04 Aperture macros list*
%AMRoundRect*
0 Rectangle with rounded corners*
0 $1 Rounding radius*
0 $2 $3 $4 $5 $6 $7 $8 $9 X,Y pos of 4 corners*
0 Add a 4 corners polygon primitive as box body*
4,1,4,$2,$3,$4,$5,$6,$7,$8,$9,$2,$3,0*
0 Add four circle primitives for the rounded corners*
1,1,$1+$1,$2,$3*
1,1,$1+$1,$4,$5*
1,1,$1+$1,$6,$7*
1,1,$1+$1,$8,$9*
0 Add four rect primitives between the rounded corners*
20,1,$1+$1,$2,$3,$4,$5,0*
20,1,$1+$1,$4,$5,$6,$7,0*
20,1,$1+$1,$6,$7,$8,$9,0*
20,1,$1+$1,$8,$9,$2,$3,0*%
%AMFreePoly0*
4,1,19,0.500000,-0.750000,0.000000,-0.750000,0.000000,-0.744911,-0.071157,-0.744911,-0.207708,-0.704816,-0.327430,-0.627875,-0.420627,-0.520320,-0.479746,-0.390866,-0.500000,-0.250000,-0.500000,0.250000,-0.479746,0.390866,-0.420627,0.520320,-0.327430,0.627875,-0.207708,0.704816,-0.071157,0.744911,0.000000,0.744911,0.000000,0.750000,0.500000,0.750000,0.500000,-0.750000,0.500000,-0.750000,
$1*%
%AMFreePoly1*
4,1,19,0.000000,0.744911,0.071157,0.744911,0.207708,0.704816,0.327430,0.627875,0.420627,0.520320,0.479746,0.390866,0.500000,0.250000,0.500000,-0.250000,0.479746,-0.390866,0.420627,-0.520320,0.327430,-0.627875,0.207708,-0.704816,0.071157,-0.744911,0.000000,-0.744911,0.000000,-0.750000,-0.500000,-0.750000,-0.500000,0.750000,0.000000,0.750000,0.000000,0.744911,0.000000,0.744911,
$1*%
G04 Aperture macros list end*
G04 #@! TA.AperFunction,EtchedComponent*
%ADD10C,0.000000*%
G04 #@! TD*
G04 #@! TA.AperFunction,SMDPad,CuDef*
%ADD11RoundRect,0.250000X-0.400000X-0.625000X0.400000X-0.625000X0.400000X0.625000X-0.400000X0.625000X0*%
G04 #@! TD*
G04 #@! TA.AperFunction,ComponentPad*
%ADD12O,1.700000X3.700000*%
G04 #@! TD*
G04 #@! TA.AperFunction,SMDPad,CuDef*
%ADD13RoundRect,0.150000X0.825000X0.150000X-0.825000X0.150000X-0.825000X-0.150000X0.825000X-0.150000X0*%
G04 #@! TD*
G04 #@! TA.AperFunction,SMDPad,CuDef*
%ADD14R,1.250000X1.000000*%
G04 #@! TD*
G04 #@! TA.AperFunction,ComponentPad*
%ADD15C,0.650000*%
G04 #@! TD*
G04 #@! TA.AperFunction,ComponentPad*
%ADD16O,1.700000X0.900000*%
G04 #@! TD*
G04 #@! TA.AperFunction,ComponentPad*
%ADD17O,2.400000X0.900000*%
G04 #@! TD*
G04 #@! TA.AperFunction,SMDPad,CuDef*
%ADD18RoundRect,0.250000X-0.412500X-0.650000X0.412500X-0.650000X0.412500X0.650000X-0.412500X0.650000X0*%
G04 #@! TD*
G04 #@! TA.AperFunction,SMDPad,CuDef*
%ADD19FreePoly0,0.000000*%
G04 #@! TD*
G04 #@! TA.AperFunction,SMDPad,CuDef*
%ADD20FreePoly1,0.000000*%
G04 #@! TD*
G04 #@! TA.AperFunction,SMDPad,CuDef*
%ADD21R,1.181100X0.508000*%
G04 #@! TD*
G04 #@! TA.AperFunction,SMDPad,CuDef*
%ADD22RoundRect,0.250000X-0.625000X0.400000X-0.625000X-0.400000X0.625000X-0.400000X0.625000X0.400000X0*%
G04 #@! TD*
G04 #@! TA.AperFunction,SMDPad,CuDef*
%ADD23C,1.000000*%
G04 #@! TD*
G04 #@! TA.AperFunction,SMDPad,CuDef*
%ADD24RoundRect,0.150000X0.150000X-0.587500X0.150000X0.587500X-0.150000X0.587500X-0.150000X-0.587500X0*%
G04 #@! TD*
G04 #@! TA.AperFunction,SMDPad,CuDef*
%ADD25RoundRect,0.250000X0.650000X-0.412500X0.650000X0.412500X-0.650000X0.412500X-0.650000X-0.412500X0*%
G04 #@! TD*
G04 #@! TA.AperFunction,SMDPad,CuDef*
%ADD26RoundRect,0.250000X0.412500X0.650000X-0.412500X0.650000X-0.412500X-0.650000X0.412500X-0.650000X0*%
G04 #@! TD*
G04 #@! TA.AperFunction,SMDPad,CuDef*
%ADD27RoundRect,0.250000X0.400000X0.625000X-0.400000X0.625000X-0.400000X-0.625000X0.400000X-0.625000X0*%
G04 #@! TD*
G04 #@! TA.AperFunction,SMDPad,CuDef*
%ADD28RoundRect,0.150000X-0.150000X0.587500X-0.150000X-0.587500X0.150000X-0.587500X0.150000X0.587500X0*%
G04 #@! TD*
G04 #@! TA.AperFunction,SMDPad,CuDef*
%ADD29RoundRect,0.250001X0.462499X0.624999X-0.462499X0.624999X-0.462499X-0.624999X0.462499X-0.624999X0*%
G04 #@! TD*
G04 #@! TA.AperFunction,SMDPad,CuDef*
%ADD30RoundRect,0.150000X0.587500X0.150000X-0.587500X0.150000X-0.587500X-0.150000X0.587500X-0.150000X0*%
G04 #@! TD*
G04 #@! TA.AperFunction,SMDPad,CuDef*
%ADD31R,0.900000X1.500000*%
G04 #@! TD*
G04 #@! TA.AperFunction,SMDPad,CuDef*
%ADD32R,1.500000X0.900000*%
G04 #@! TD*
G04 #@! TA.AperFunction,SMDPad,CuDef*
%ADD33R,1.050000X1.050000*%
G04 #@! TD*
G04 #@! TA.AperFunction,HeatsinkPad*
%ADD34C,0.600000*%
G04 #@! TD*
G04 #@! TA.AperFunction,SMDPad,CuDef*
%ADD35R,4.200000X4.200000*%
G04 #@! TD*
G04 #@! TA.AperFunction,SMDPad,CuDef*
%ADD36FreePoly0,180.000000*%
G04 #@! TD*
G04 #@! TA.AperFunction,SMDPad,CuDef*
%ADD37FreePoly1,180.000000*%
G04 #@! TD*
G04 #@! TA.AperFunction,ViaPad*
%ADD38C,0.800000*%
G04 #@! TD*
G04 #@! TA.AperFunction,Conductor*
%ADD39C,0.304800*%
G04 #@! TD*
G04 APERTURE END LIST*
D10*
G04 #@! TA.AperFunction,EtchedComponent*
G04 #@! TO.C,JP3*
G36*
X179955000Y-81453000D02*
G01*
X179455000Y-81453000D01*
X179455000Y-80853000D01*
X179955000Y-80853000D01*
X179955000Y-81453000D01*
G37*
G04 #@! TD.AperFunction*
G04 #@! TA.AperFunction,EtchedComponent*
G04 #@! TO.C,JP1*
G36*
X181225000Y-110917000D02*
G01*
X180725000Y-110917000D01*
X180725000Y-110317000D01*
X181225000Y-110317000D01*
X181225000Y-110917000D01*
G37*
G04 #@! TD.AperFunction*
G04 #@! TD*
D11*
G04 #@! TO.P,R9,1*
G04 #@! TO.N,Net-(U4-IO0)*
X204190000Y-107950000D03*
G04 #@! TO.P,R9,2*
G04 #@! TO.N,/IO0*
X207290000Y-107950000D03*
G04 #@! TD*
G04 #@! TO.P,R3,1*
G04 #@! TO.N,Net-(D1-A)*
X191236000Y-102870000D03*
G04 #@! TO.P,R3,2*
G04 #@! TO.N,VCC*
X194336000Y-102870000D03*
G04 #@! TD*
D12*
G04 #@! TO.P,J3,1,Pin_1*
G04 #@! TO.N,GND*
X220452000Y-77978000D03*
G04 #@! TO.P,J3,2,Pin_2*
G04 #@! TO.N,/IO36*
X217912000Y-77978000D03*
G04 #@! TO.P,J3,3,Pin_3*
G04 #@! TO.N,/IO39*
X215372000Y-77978000D03*
G04 #@! TO.P,J3,4,Pin_4*
G04 #@! TO.N,/IO34*
X212832000Y-77978000D03*
G04 #@! TO.P,J3,5,Pin_5*
G04 #@! TO.N,/IO35*
X210292000Y-77978000D03*
G04 #@! TO.P,J3,6,Pin_6*
G04 #@! TO.N,/IO32*
X207752000Y-77978000D03*
G04 #@! TO.P,J3,7,Pin_7*
G04 #@! TO.N,/IO33*
X205212000Y-77978000D03*
G04 #@! TO.P,J3,8,Pin_8*
G04 #@! TO.N,/IO25*
X202672000Y-77978000D03*
G04 #@! TO.P,J3,9,Pin_9*
G04 #@! TO.N,/IO26*
X200132000Y-77978000D03*
G04 #@! TO.P,J3,10,Pin_10*
G04 #@! TO.N,/IO27*
X197592000Y-77978000D03*
G04 #@! TO.P,J3,11,Pin_11*
G04 #@! TO.N,/IO14*
X195052000Y-77978000D03*
G04 #@! TO.P,J3,12,Pin_12*
G04 #@! TO.N,GND*
X192512000Y-77978000D03*
G04 #@! TD*
D13*
G04 #@! TO.P,U2,1,GND*
G04 #@! TO.N,GND*
X198309000Y-97536000D03*
G04 #@! TO.P,U2,2,TXD*
G04 #@! TO.N,/RX*
X198309000Y-96266000D03*
G04 #@! TO.P,U2,3,RXD*
G04 #@! TO.N,/TX*
X198309000Y-94996000D03*
G04 #@! TO.P,U2,4,V3*
G04 #@! TO.N,Net-(U2-V3)*
X198309000Y-93726000D03*
G04 #@! TO.P,U2,5,UD+*
G04 #@! TO.N,Net-(J1-DP1)*
X198309000Y-92456000D03*
G04 #@! TO.P,U2,6,UD-*
G04 #@! TO.N,Net-(J1-DN1)*
X198309000Y-91186000D03*
G04 #@! TO.P,U2,7,NC*
G04 #@! TO.N,unconnected-(U2-NC-Pad7)*
X198309000Y-89916000D03*
G04 #@! TO.P,U2,8,NC*
G04 #@! TO.N,unconnected-(U2-NC-Pad8)*
X198309000Y-88646000D03*
G04 #@! TO.P,U2,9,~{CTS}*
G04 #@! TO.N,unconnected-(U2-~{CTS}-Pad9)*
X193359000Y-88646000D03*
G04 #@! TO.P,U2,10,~{DSR}*
G04 #@! TO.N,unconnected-(U2-~{DSR}-Pad10)*
X193359000Y-89916000D03*
G04 #@! TO.P,U2,11,~{RI}*
G04 #@! TO.N,unconnected-(U2-~{RI}-Pad11)*
X193359000Y-91186000D03*
G04 #@! TO.P,U2,12,~{DCD}*
G04 #@! TO.N,unconnected-(U2-~{DCD}-Pad12)*
X193359000Y-92456000D03*
G04 #@! TO.P,U2,13,~{DTR}*
G04 #@! TO.N,/DTR*
X193359000Y-93726000D03*
G04 #@! TO.P,U2,14,~{RTS}*
G04 #@! TO.N,/RTS*
X193359000Y-94996000D03*
G04 #@! TO.P,U2,15,R232*
G04 #@! TO.N,unconnected-(U2-R232-Pad15)*
X193359000Y-96266000D03*
G04 #@! TO.P,U2,16,VCC*
G04 #@! TO.N,VCC*
X193359000Y-97536000D03*
G04 #@! TD*
D14*
G04 #@! TO.P,SW1,1,1*
G04 #@! TO.N,GND*
X182688000Y-81280000D03*
G04 #@! TO.P,SW1,2,2*
G04 #@! TO.N,/EN*
X190438000Y-81280000D03*
G04 #@! TD*
D15*
G04 #@! TO.P,J1,A1,GND*
G04 #@! TO.N,GND*
X182706000Y-91723000D03*
G04 #@! TO.P,J1,A4,VBUS*
G04 #@! TO.N,VBUS*
X182706000Y-92573000D03*
G04 #@! TO.P,J1,A5,CC1*
G04 #@! TO.N,Net-(J1-CC1)*
X182706000Y-93423000D03*
G04 #@! TO.P,J1,A6,DP1*
G04 #@! TO.N,Net-(J1-DP1)*
X182706000Y-94273000D03*
G04 #@! TO.P,J1,A7,DN1*
G04 #@! TO.N,Net-(J1-DN1)*
X182706000Y-95123000D03*
G04 #@! TO.P,J1,A8,SBU1*
G04 #@! TO.N,unconnected-(J1-SBU1-PadA8)*
X182706000Y-95973000D03*
G04 #@! TO.P,J1,A9,VBUS*
G04 #@! TO.N,VBUS*
X182706000Y-96823000D03*
G04 #@! TO.P,J1,A12,GND*
G04 #@! TO.N,GND*
X182706000Y-97673000D03*
G04 #@! TO.P,J1,B1,GND*
X181356000Y-97673000D03*
G04 #@! TO.P,J1,B4,VBUS*
G04 #@! TO.N,VBUS*
X181356000Y-96823000D03*
G04 #@! TO.P,J1,B5,CC2*
G04 #@! TO.N,Net-(J1-CC2)*
X181356000Y-95973000D03*
G04 #@! TO.P,J1,B6,DP2*
G04 #@! TO.N,Net-(J1-DP1)*
X181356000Y-95123000D03*
G04 #@! TO.P,J1,B7,DN2*
G04 #@! TO.N,Net-(J1-DN1)*
X181356000Y-94273000D03*
G04 #@! TO.P,J1,B8,SBU2*
G04 #@! TO.N,unconnected-(J1-SBU2-PadB8)*
X181356000Y-93423000D03*
G04 #@! TO.P,J1,B9,VBUS*
G04 #@! TO.N,VBUS*
X181356000Y-92573000D03*
G04 #@! TO.P,J1,B12,GND*
G04 #@! TO.N,GND*
X181356000Y-91723000D03*
D16*
G04 #@! TO.P,J1,S1,SHELL*
X178346000Y-90373000D03*
G04 #@! TO.P,J1,S2,SHELL*
X178346000Y-99023000D03*
D17*
G04 #@! TO.P,J1,S3,SHELL*
X181726000Y-90373000D03*
G04 #@! TO.P,J1,S4,SHELL*
X181726000Y-99023000D03*
G04 #@! TD*
D18*
G04 #@! TO.P,C1,1*
G04 #@! TO.N,GND*
X194652500Y-85979000D03*
G04 #@! TO.P,C1,2*
G04 #@! TO.N,Net-(U2-V3)*
X197777500Y-85979000D03*
G04 #@! TD*
D19*
G04 #@! TO.P,JP3,1,A*
G04 #@! TO.N,VCC*
X179055000Y-81153000D03*
D20*
G04 #@! TO.P,JP3,2,B*
G04 #@! TO.N,Net-(JP3-B)*
X180355000Y-81153000D03*
G04 #@! TD*
D11*
G04 #@! TO.P,R10,1*
G04 #@! TO.N,/EN*
X186257000Y-77724000D03*
G04 #@! TO.P,R10,2*
G04 #@! TO.N,VCC*
X189357000Y-77724000D03*
G04 #@! TD*
D21*
G04 #@! TO.P,U3,1,NC*
G04 #@! TO.N,unconnected-(U3-NC-Pad1)*
X194760850Y-107884001D03*
G04 #@! TO.P,U3,2,A*
G04 #@! TO.N,/RX*
X194760850Y-106934000D03*
G04 #@! TO.P,U3,3,GND*
G04 #@! TO.N,GND*
X194760850Y-105983999D03*
G04 #@! TO.P,U3,4,Y*
G04 #@! TO.N,Net-(Q2-G)*
X191827150Y-105983999D03*
G04 #@! TO.P,U3,5,VCC*
G04 #@! TO.N,VCC*
X191827150Y-107884001D03*
G04 #@! TD*
D22*
G04 #@! TO.P,R4,1*
G04 #@! TO.N,Net-(D2-A)*
X189230000Y-106146000D03*
G04 #@! TO.P,R4,2*
G04 #@! TO.N,VCC*
X189230000Y-109246000D03*
G04 #@! TD*
D23*
G04 #@! TO.P,FID2,*
G04 #@! TO.N,*
X183515000Y-76581000D03*
G04 #@! TD*
G04 #@! TO.P,FID4,*
G04 #@! TO.N,*
X200533000Y-85725000D03*
G04 #@! TD*
D24*
G04 #@! TO.P,Q4,1,G*
G04 #@! TO.N,/RTS*
X187010000Y-87043500D03*
G04 #@! TO.P,Q4,2,S*
G04 #@! TO.N,/DTR*
X188910000Y-87043500D03*
G04 #@! TO.P,Q4,3,D*
G04 #@! TO.N,/IO0*
X187960000Y-85168500D03*
G04 #@! TD*
D25*
G04 #@! TO.P,C3,1*
G04 #@! TO.N,GND*
X191897000Y-86271500D03*
G04 #@! TO.P,C3,2*
G04 #@! TO.N,/EN*
X191897000Y-83146500D03*
G04 #@! TD*
D11*
G04 #@! TO.P,R6,1*
G04 #@! TO.N,VCC*
X200888000Y-83312000D03*
G04 #@! TO.P,R6,2*
G04 #@! TO.N,/EN*
X203988000Y-83312000D03*
G04 #@! TD*
D23*
G04 #@! TO.P,FID1,*
G04 #@! TO.N,*
X180721000Y-77343000D03*
G04 #@! TD*
D12*
G04 #@! TO.P,J4,1,Pin_1*
G04 #@! TO.N,GND*
X220472000Y-112776000D03*
G04 #@! TO.P,J4,2,Pin_2*
G04 #@! TO.N,/IO23*
X217932000Y-112776000D03*
G04 #@! TO.P,J4,3,Pin_3*
G04 #@! TO.N,/IO22*
X215392000Y-112776000D03*
G04 #@! TO.P,J4,4,Pin_4*
G04 #@! TO.N,/IO21*
X212852000Y-112776000D03*
G04 #@! TO.P,J4,5,Pin_5*
G04 #@! TO.N,/IO19*
X210312000Y-112776000D03*
G04 #@! TO.P,J4,6,Pin_6*
G04 #@! TO.N,/IO18*
X207772000Y-112776000D03*
G04 #@! TO.P,J4,7,Pin_7*
G04 #@! TO.N,/IO5*
X205232000Y-112776000D03*
G04 #@! TO.P,J4,8,Pin_8*
G04 #@! TO.N,/IO17*
X202692000Y-112776000D03*
G04 #@! TO.P,J4,9,Pin_9*
G04 #@! TO.N,/IO16*
X200152000Y-112776000D03*
G04 #@! TO.P,J4,10,Pin_10*
G04 #@! TO.N,/IO4*
X197612000Y-112776000D03*
G04 #@! TO.P,J4,11,Pin_11*
G04 #@! TO.N,/IO13*
X195072000Y-112776000D03*
G04 #@! TO.P,J4,12,Pin_12*
G04 #@! TO.N,/IO15*
X192532000Y-112776000D03*
G04 #@! TO.P,J4,13,Pin_13*
G04 #@! TO.N,VCC*
X189992000Y-112776000D03*
G04 #@! TO.P,J4,14,Pin_14*
G04 #@! TO.N,VBUS*
X187452000Y-112776000D03*
G04 #@! TO.P,J4,15,Pin_15*
G04 #@! TO.N,GND*
X184912000Y-112776000D03*
G04 #@! TD*
D23*
G04 #@! TO.P,FID3,*
G04 #@! TO.N,*
X194183000Y-81661000D03*
G04 #@! TD*
D26*
G04 #@! TO.P,C6,1*
G04 #@! TO.N,VCC*
X215557500Y-83058000D03*
G04 #@! TO.P,C6,2*
G04 #@! TO.N,GND*
X212432500Y-83058000D03*
G04 #@! TD*
D11*
G04 #@! TO.P,R1,1*
G04 #@! TO.N,Net-(J1-CC2)*
X186283000Y-99060000D03*
G04 #@! TO.P,R1,2*
G04 #@! TO.N,GND*
X189383000Y-99060000D03*
G04 #@! TD*
D27*
G04 #@! TO.P,R7,1*
G04 #@! TO.N,VCC*
X215799000Y-107950000D03*
G04 #@! TO.P,R7,2*
G04 #@! TO.N,/IO21*
X212699000Y-107950000D03*
G04 #@! TD*
D28*
G04 #@! TO.P,Q3,1,G*
G04 #@! TO.N,/DTR*
X189570400Y-89740500D03*
G04 #@! TO.P,Q3,2,S*
G04 #@! TO.N,/RTS*
X187670400Y-89740500D03*
G04 #@! TO.P,Q3,3,D*
G04 #@! TO.N,/EN*
X188620400Y-91615500D03*
G04 #@! TD*
D25*
G04 #@! TO.P,C2,1*
G04 #@! TO.N,/EN*
X184531000Y-88049500D03*
G04 #@! TO.P,C2,2*
G04 #@! TO.N,GND*
X184531000Y-84924500D03*
G04 #@! TD*
D11*
G04 #@! TO.P,R2,1*
G04 #@! TO.N,Net-(J1-CC1)*
X186029000Y-94742000D03*
G04 #@! TO.P,R2,2*
G04 #@! TO.N,GND*
X189129000Y-94742000D03*
G04 #@! TD*
D29*
G04 #@! TO.P,D3,1,K*
G04 #@! TO.N,GND*
X181827500Y-87757000D03*
G04 #@! TO.P,D3,2,A*
G04 #@! TO.N,Net-(D3-A)*
X178852500Y-87757000D03*
G04 #@! TD*
D11*
G04 #@! TO.P,R8,1*
G04 #@! TO.N,VCC*
X217652000Y-107950000D03*
G04 #@! TO.P,R8,2*
G04 #@! TO.N,/IO22*
X220752000Y-107950000D03*
G04 #@! TD*
D30*
G04 #@! TO.P,Q2,1,G*
G04 #@! TO.N,Net-(Q2-G)*
X186484500Y-108900000D03*
G04 #@! TO.P,Q2,2,S*
G04 #@! TO.N,GND*
X186484500Y-107000000D03*
G04 #@! TO.P,Q2,3,D*
G04 #@! TO.N,Net-(D2-K)*
X184609500Y-107950000D03*
G04 #@! TD*
D31*
G04 #@! TO.P,U4,1,GND*
G04 #@! TO.N,GND*
X220599000Y-86903000D03*
G04 #@! TO.P,U4,2,VDD*
G04 #@! TO.N,VCC*
X219329000Y-86903000D03*
G04 #@! TO.P,U4,3,EN*
G04 #@! TO.N,/EN*
X218059000Y-86903000D03*
G04 #@! TO.P,U4,4,SENSOR_VP*
G04 #@! TO.N,/IO36*
X216789000Y-86903000D03*
G04 #@! TO.P,U4,5,SENSOR_VN*
G04 #@! TO.N,/IO39*
X215519000Y-86903000D03*
G04 #@! TO.P,U4,6,IO34*
G04 #@! TO.N,/IO34*
X214249000Y-86903000D03*
G04 #@! TO.P,U4,7,IO35*
G04 #@! TO.N,/IO35*
X212979000Y-86903000D03*
G04 #@! TO.P,U4,8,IO32*
G04 #@! TO.N,/IO32*
X211709000Y-86903000D03*
G04 #@! TO.P,U4,9,IO33*
G04 #@! TO.N,/IO33*
X210439000Y-86903000D03*
G04 #@! TO.P,U4,10,IO25*
G04 #@! TO.N,/IO25*
X209169000Y-86903000D03*
G04 #@! TO.P,U4,11,IO26*
G04 #@! TO.N,/IO26*
X207899000Y-86903000D03*
G04 #@! TO.P,U4,12,IO27*
G04 #@! TO.N,/IO27*
X206629000Y-86903000D03*
G04 #@! TO.P,U4,13,IO14*
G04 #@! TO.N,/IO14*
X205359000Y-86903000D03*
G04 #@! TO.P,U4,14,IO12*
G04 #@! TO.N,unconnected-(U4-IO12-Pad14)*
X204089000Y-86903000D03*
D32*
G04 #@! TO.P,U4,15,GND*
G04 #@! TO.N,GND*
X202839000Y-89943000D03*
G04 #@! TO.P,U4,16,IO13*
G04 #@! TO.N,/IO13*
X202839000Y-91213000D03*
G04 #@! TO.P,U4,17,SHD/SD2*
G04 #@! TO.N,unconnected-(U4-SHD{slash}SD2-Pad17)*
X202839000Y-92483000D03*
G04 #@! TO.P,U4,18,SWP/SD3*
G04 #@! TO.N,unconnected-(U4-SWP{slash}SD3-Pad18)*
X202839000Y-93753000D03*
G04 #@! TO.P,U4,19,SCS/CMD*
G04 #@! TO.N,unconnected-(U4-SCS{slash}CMD-Pad19)*
X202839000Y-95023000D03*
G04 #@! TO.P,U4,20,SCK/CLK*
G04 #@! TO.N,unconnected-(U4-SCK{slash}CLK-Pad20)*
X202839000Y-96293000D03*
G04 #@! TO.P,U4,21,SDO/SD0*
G04 #@! TO.N,unconnected-(U4-SDO{slash}SD0-Pad21)*
X202839000Y-97563000D03*
G04 #@! TO.P,U4,22,SDI/SD1*
G04 #@! TO.N,unconnected-(U4-SDI{slash}SD1-Pad22)*
X202839000Y-98833000D03*
G04 #@! TO.P,U4,23,IO15*
G04 #@! TO.N,/IO15*
X202839000Y-100103000D03*
G04 #@! TO.P,U4,24,IO2*
G04 #@! TO.N,unconnected-(U4-IO2-Pad24)*
X202839000Y-101373000D03*
D31*
G04 #@! TO.P,U4,25,IO0*
G04 #@! TO.N,Net-(U4-IO0)*
X204089000Y-104403000D03*
G04 #@! TO.P,U4,26,IO4*
G04 #@! TO.N,/IO4*
X205359000Y-104403000D03*
G04 #@! TO.P,U4,27,IO16*
G04 #@! TO.N,/IO16*
X206629000Y-104403000D03*
G04 #@! TO.P,U4,28,IO17*
G04 #@! TO.N,/IO17*
X207899000Y-104403000D03*
G04 #@! TO.P,U4,29,IO5*
G04 #@! TO.N,/IO5*
X209169000Y-104403000D03*
G04 #@! TO.P,U4,30,IO18*
G04 #@! TO.N,/IO18*
X210439000Y-104403000D03*
G04 #@! TO.P,U4,31,IO19*
G04 #@! TO.N,/IO19*
X211709000Y-104403000D03*
G04 #@! TO.P,U4,32,NC*
G04 #@! TO.N,unconnected-(U4-NC-Pad32)*
X212979000Y-104403000D03*
G04 #@! TO.P,U4,33,IO21*
G04 #@! TO.N,/IO21*
X214249000Y-104403000D03*
G04 #@! TO.P,U4,34,RXD0/IO3*
G04 #@! TO.N,/RX*
X215519000Y-104403000D03*
G04 #@! TO.P,U4,35,TXD0/IO1*
G04 #@! TO.N,/TX*
X216789000Y-104403000D03*
G04 #@! TO.P,U4,36,IO22*
G04 #@! TO.N,/IO22*
X218059000Y-104403000D03*
G04 #@! TO.P,U4,37,IO23*
G04 #@! TO.N,/IO23*
X219329000Y-104403000D03*
G04 #@! TO.P,U4,38,GND*
G04 #@! TO.N,GND*
X220599000Y-104403000D03*
D33*
G04 #@! TO.P,U4,39,GND*
X214784000Y-93448000D03*
D34*
X214021500Y-93448000D03*
D33*
X213259000Y-93448000D03*
D34*
X212496500Y-93448000D03*
D33*
X211734000Y-93448000D03*
D34*
X214784000Y-94210500D03*
X213259000Y-94210500D03*
X211734000Y-94210500D03*
D33*
X214784000Y-94973000D03*
D34*
X214021500Y-94973000D03*
D33*
X213259000Y-94973000D03*
D35*
X213259000Y-94973000D03*
D34*
X212496500Y-94973000D03*
D33*
X211734000Y-94973000D03*
D34*
X214784000Y-95735500D03*
X213259000Y-95735500D03*
X211734000Y-95735500D03*
D33*
X214784000Y-96498000D03*
D34*
X214021500Y-96498000D03*
D33*
X213259000Y-96498000D03*
D34*
X212496500Y-96498000D03*
D33*
X211734000Y-96498000D03*
G04 #@! TD*
D36*
G04 #@! TO.P,JP1,1,A*
G04 #@! TO.N,VBUS*
X181625000Y-110617000D03*
D37*
G04 #@! TO.P,JP1,2,B*
X180325000Y-110617000D03*
G04 #@! TD*
D21*
G04 #@! TO.P,U1,1,NC*
G04 #@! TO.N,unconnected-(U1-NC-Pad1)*
X199713850Y-103947001D03*
G04 #@! TO.P,U1,2,A*
G04 #@! TO.N,/TX*
X199713850Y-102997000D03*
G04 #@! TO.P,U1,3,GND*
G04 #@! TO.N,GND*
X199713850Y-102046999D03*
G04 #@! TO.P,U1,4,Y*
G04 #@! TO.N,Net-(Q1-G)*
X196780150Y-102046999D03*
G04 #@! TO.P,U1,5,VCC*
G04 #@! TO.N,VCC*
X196780150Y-103947001D03*
G04 #@! TD*
D11*
G04 #@! TO.P,R5,1*
G04 #@! TO.N,Net-(D3-A)*
X178790000Y-84074000D03*
G04 #@! TO.P,R5,2*
G04 #@! TO.N,Net-(JP3-B)*
X181890000Y-84074000D03*
G04 #@! TD*
D30*
G04 #@! TO.P,Q1,1,G*
G04 #@! TO.N,Net-(Q1-G)*
X186738500Y-104683600D03*
G04 #@! TO.P,Q1,2,S*
G04 #@! TO.N,GND*
X186738500Y-102783600D03*
G04 #@! TO.P,Q1,3,D*
G04 #@! TO.N,Net-(D1-K)*
X184863500Y-103733600D03*
G04 #@! TD*
D18*
G04 #@! TO.P,C5,1*
G04 #@! TO.N,VCC*
X217639500Y-83058000D03*
G04 #@! TO.P,C5,2*
G04 #@! TO.N,GND*
X220764500Y-83058000D03*
G04 #@! TD*
G04 #@! TO.P,C4,1*
G04 #@! TO.N,/EN*
X206463500Y-83312000D03*
G04 #@! TO.P,C4,2*
G04 #@! TO.N,GND*
X209588500Y-83312000D03*
G04 #@! TD*
D29*
G04 #@! TO.P,D2,1,K*
G04 #@! TO.N,Net-(D2-K)*
X181954500Y-106553000D03*
G04 #@! TO.P,D2,2,A*
G04 #@! TO.N,Net-(D2-A)*
X178979500Y-106553000D03*
G04 #@! TD*
G04 #@! TO.P,D1,1,K*
G04 #@! TO.N,Net-(D1-K)*
X181827500Y-102870000D03*
G04 #@! TO.P,D1,2,A*
G04 #@! TO.N,Net-(D1-A)*
X178852500Y-102870000D03*
G04 #@! TD*
D38*
G04 #@! TO.N,GND*
X187960000Y-101473000D03*
X195072000Y-84201000D03*
X193665400Y-106299000D03*
X195199000Y-87503000D03*
X190119000Y-94996000D03*
X184912000Y-99695000D03*
X184531000Y-92075000D03*
X212725000Y-81788000D03*
X180594000Y-97790000D03*
X209550000Y-81407000D03*
X197866000Y-98933000D03*
X205105000Y-90932000D03*
X185801000Y-105791000D03*
X179832000Y-91313000D03*
X190500000Y-99949000D03*
G04 #@! TO.N,VCC*
X216789000Y-109347000D03*
X194183000Y-98688600D03*
X193230500Y-104203500D03*
X193040000Y-109093000D03*
X209677000Y-94742000D03*
G04 #@! TO.N,Net-(D1-A)*
X178852500Y-104394000D03*
X190119000Y-103759000D03*
G04 #@! TO.N,Net-(D2-A)*
X187706000Y-106172000D03*
X178979500Y-108204000D03*
G04 #@! TO.N,VBUS*
X180340000Y-101346000D03*
X199771000Y-99187000D03*
G04 #@! TO.N,Net-(J1-DN1)*
X185166000Y-97536000D03*
X187706000Y-96139000D03*
G04 #@! TO.N,/IO0*
X196342000Y-105410000D03*
X208534000Y-107188000D03*
X191008000Y-90805000D03*
X198882000Y-107315000D03*
G04 #@! TO.N,/RX*
X215686000Y-100624000D03*
X196342000Y-107061000D03*
G04 #@! TO.N,/TX*
X215265000Y-98171000D03*
X198374000Y-102997000D03*
G04 #@! TO.N,/IO25*
X202692000Y-80772000D03*
X209296000Y-88392000D03*
G04 #@! TO.N,/IO26*
X200152000Y-80772000D03*
X207899000Y-88519000D03*
G04 #@! TO.N,/IO27*
X206756000Y-88392000D03*
X197612000Y-80772000D03*
G04 #@! TO.N,/IO23*
X220345000Y-106172000D03*
G04 #@! TO.N,/EN*
X186309000Y-78994000D03*
X218186000Y-85217000D03*
X192405000Y-81534000D03*
X187452000Y-91440000D03*
X184531000Y-89535000D03*
X205232000Y-84074000D03*
G04 #@! TD*
D39*
G04 #@! TO.N,Net-(U2-V3)*
X200152000Y-87376000D02*
X200152000Y-93345000D01*
X198755000Y-85979000D02*
X200152000Y-87376000D01*
X197777500Y-85979000D02*
X198755000Y-85979000D01*
X200152000Y-93345000D02*
X199771000Y-93726000D01*
X199771000Y-93726000D02*
X198309000Y-93726000D01*
G04 #@! TO.N,GND*
X180711000Y-97673000D02*
X180594000Y-97790000D01*
X184179000Y-91723000D02*
X184531000Y-92075000D01*
X193665400Y-106299000D02*
X193802000Y-106299000D01*
X184785000Y-99695000D02*
X184912000Y-99695000D01*
X194652500Y-86956500D02*
X195199000Y-87503000D01*
X181356000Y-97673000D02*
X180711000Y-97673000D01*
X209588500Y-83312000D02*
X209588500Y-81445500D01*
X182706000Y-91723000D02*
X184179000Y-91723000D01*
X204116000Y-89943000D02*
X203006000Y-89943000D01*
X186738500Y-102783600D02*
X186738500Y-102694500D01*
X198309000Y-97536000D02*
X197866000Y-97979000D01*
X209588500Y-81445500D02*
X209550000Y-81407000D01*
X194117001Y-105983999D02*
X194760850Y-105983999D01*
X189611000Y-99060000D02*
X189383000Y-99060000D01*
X181356000Y-97673000D02*
X182706000Y-97673000D01*
X186484500Y-106474500D02*
X185801000Y-105791000D01*
X205105000Y-90932000D02*
X204116000Y-89943000D01*
X181356000Y-91723000D02*
X180242000Y-91723000D01*
X190500000Y-99949000D02*
X189611000Y-99060000D01*
X194652500Y-84620500D02*
X195072000Y-84201000D01*
X180242000Y-91723000D02*
X179832000Y-91313000D01*
X194652500Y-85979000D02*
X194652500Y-84620500D01*
X184728000Y-99695000D02*
X182706000Y-97673000D01*
X186484500Y-107000000D02*
X186484500Y-106474500D01*
X189865000Y-94742000D02*
X190119000Y-94996000D01*
X184912000Y-99695000D02*
X184728000Y-99695000D01*
X212725000Y-81788000D02*
X212725000Y-82119000D01*
X194652500Y-85979000D02*
X194652500Y-86956500D01*
X212725000Y-82119000D02*
X212432500Y-82411500D01*
X212432500Y-82411500D02*
X212432500Y-83058000D01*
X186738500Y-102694500D02*
X187960000Y-101473000D01*
X189129000Y-94742000D02*
X189865000Y-94742000D01*
X181356000Y-91723000D02*
X182706000Y-91723000D01*
X197866000Y-97979000D02*
X197866000Y-98933000D01*
X193802000Y-106299000D02*
X194117001Y-105983999D01*
G04 #@! TO.N,VCC*
X195199000Y-97663000D02*
X195199000Y-97536000D01*
X216789000Y-107950000D02*
X217170000Y-107950000D01*
X217170000Y-107950000D02*
X217652000Y-107950000D01*
X216789000Y-109347000D02*
X216789000Y-107950000D01*
X193040000Y-109093000D02*
X192659000Y-109474000D01*
X215557500Y-83058000D02*
X217639500Y-83058000D01*
X194183000Y-98679000D02*
X195199000Y-97663000D01*
X192024000Y-110109000D02*
X191008000Y-110109000D01*
X190338150Y-109246000D02*
X190940075Y-108644075D01*
X185039000Y-79502000D02*
X186944000Y-81407000D01*
X193230500Y-104203500D02*
X193230500Y-103975500D01*
X193040000Y-109093000D02*
X192913000Y-108966000D01*
X219496000Y-87957800D02*
X219496000Y-84914500D01*
X190940075Y-108644075D02*
X191700149Y-107884001D01*
X179055000Y-81153000D02*
X179055000Y-80025000D01*
X179055000Y-80025000D02*
X179578000Y-79502000D01*
X193230500Y-103975500D02*
X194336000Y-102870000D01*
X191770000Y-109474000D02*
X190940075Y-108644075D01*
X179578000Y-79502000D02*
X185039000Y-79502000D01*
X189992000Y-111125000D02*
X189992000Y-112776000D01*
X217537800Y-89916000D02*
X219496000Y-87957800D01*
X191008000Y-110109000D02*
X189992000Y-111125000D01*
X186944000Y-81407000D02*
X190246000Y-84709000D01*
X193359000Y-97536000D02*
X195199000Y-97536000D01*
X196215000Y-84709000D02*
X196215000Y-90805000D01*
X189357000Y-78994000D02*
X189357000Y-77724000D01*
X191700149Y-107884001D02*
X191827150Y-107884001D01*
X194691000Y-102870000D02*
X194336000Y-102870000D01*
X196215000Y-90805000D02*
X195199000Y-91821000D01*
X209677000Y-94742000D02*
X209677000Y-90932000D01*
X192913000Y-108966000D02*
X192913000Y-104521000D01*
X200888000Y-83312000D02*
X200507000Y-82931000D01*
X194183000Y-98688600D02*
X194183000Y-98679000D01*
X179055000Y-81153000D02*
X178999000Y-81209000D01*
X189230000Y-109246000D02*
X190338150Y-109246000D01*
X219496000Y-84914500D02*
X217639500Y-83058000D01*
X200507000Y-82931000D02*
X197993000Y-82931000D01*
X196780150Y-103947001D02*
X195768001Y-103947001D01*
X215799000Y-107950000D02*
X217170000Y-107950000D01*
X186944000Y-81407000D02*
X189357000Y-78994000D01*
X192913000Y-104521000D02*
X193230500Y-104203500D01*
X192659000Y-109474000D02*
X191770000Y-109474000D01*
X193040000Y-84709000D02*
X194818000Y-82931000D01*
X197993000Y-82931000D02*
X196215000Y-84709000D01*
X209677000Y-90932000D02*
X210693000Y-89916000D01*
X194818000Y-82931000D02*
X197993000Y-82931000D01*
X195768001Y-103947001D02*
X194691000Y-102870000D01*
X190246000Y-84709000D02*
X193040000Y-84709000D01*
X195199000Y-91821000D02*
X195199000Y-97536000D01*
X210693000Y-89916000D02*
X217537800Y-89916000D01*
X193040000Y-109093000D02*
X192024000Y-110109000D01*
G04 #@! TO.N,Net-(D1-K)*
X184251600Y-103733600D02*
X183388000Y-102870000D01*
X184863500Y-103733600D02*
X184251600Y-103733600D01*
X183388000Y-102870000D02*
X181827500Y-102870000D01*
G04 #@! TO.N,Net-(D1-A)*
X190119000Y-103759000D02*
X190347000Y-103759000D01*
X190347000Y-103759000D02*
X191236000Y-102870000D01*
X178852500Y-104394000D02*
X178852500Y-102870000D01*
G04 #@! TO.N,Net-(D2-K)*
X184531000Y-107950000D02*
X183134000Y-106553000D01*
X183134000Y-106553000D02*
X181954500Y-106553000D01*
X184609500Y-107950000D02*
X184531000Y-107950000D01*
G04 #@! TO.N,Net-(D2-A)*
X189230000Y-106146000D02*
X187732000Y-106146000D01*
X187732000Y-106146000D02*
X187706000Y-106172000D01*
X178979500Y-108204000D02*
X178979500Y-106553000D01*
G04 #@! TO.N,VBUS*
X182706000Y-96823000D02*
X181356000Y-96823000D01*
X181356000Y-92573000D02*
X182706000Y-92573000D01*
X180467000Y-110475000D02*
X180467000Y-101473000D01*
X186309000Y-109982000D02*
X187452000Y-111125000D01*
X189357000Y-100838000D02*
X198120000Y-100838000D01*
X189103000Y-100584000D02*
X189357000Y-100838000D01*
X181625000Y-110617000D02*
X182260000Y-109982000D01*
X187452000Y-111125000D02*
X187452000Y-112776000D01*
X186182000Y-101219000D02*
X186817000Y-100584000D01*
X180340000Y-101346000D02*
X180467000Y-101219000D01*
X180325000Y-110617000D02*
X181625000Y-110617000D01*
X180340000Y-101155500D02*
X180340000Y-101346000D01*
X180467000Y-101473000D02*
X180340000Y-101346000D01*
X180325000Y-110617000D02*
X180467000Y-110475000D01*
X186817000Y-100584000D02*
X189103000Y-100584000D01*
X182260000Y-109982000D02*
X186309000Y-109982000D01*
X180467000Y-101219000D02*
X186182000Y-101219000D01*
X198120000Y-100838000D02*
X199771000Y-99187000D01*
G04 #@! TO.N,Net-(J1-CC1)*
X186029000Y-94742000D02*
X185928000Y-94742000D01*
X185928000Y-94742000D02*
X184609000Y-93423000D01*
X184609000Y-93423000D02*
X182706000Y-93423000D01*
G04 #@! TO.N,Net-(J1-DP1)*
X181610000Y-95123000D02*
X181356000Y-95123000D01*
X196596000Y-99187000D02*
X195580000Y-100203000D01*
X189738000Y-97028000D02*
X185864500Y-97028000D01*
X198309000Y-92456000D02*
X196977000Y-92456000D01*
X196596000Y-92837000D02*
X196596000Y-99187000D01*
X184771480Y-95934980D02*
X184771480Y-95109480D01*
X183935000Y-94273000D02*
X182706000Y-94273000D01*
X195580000Y-100203000D02*
X192913000Y-100203000D01*
X184771480Y-95109480D02*
X183935000Y-94273000D01*
X192913000Y-100203000D02*
X189738000Y-97028000D01*
X196977000Y-92456000D02*
X196596000Y-92837000D01*
X182460000Y-94273000D02*
X181610000Y-95123000D01*
X182706000Y-94273000D02*
X182460000Y-94273000D01*
X185864500Y-97028000D02*
X184771480Y-95934980D01*
G04 #@! TO.N,Net-(J1-DN1)*
X185166000Y-97536000D02*
X184023000Y-96393000D01*
X193167000Y-99441000D02*
X194945000Y-99441000D01*
X183261000Y-95123000D02*
X182706000Y-95123000D01*
X195961000Y-92202000D02*
X196977000Y-91186000D01*
X189865000Y-96139000D02*
X193167000Y-99441000D01*
X187706000Y-96139000D02*
X189865000Y-96139000D01*
X184023000Y-95885000D02*
X183261000Y-95123000D01*
X196977000Y-91186000D02*
X198309000Y-91186000D01*
X184023000Y-96393000D02*
X184023000Y-95885000D01*
X194945000Y-99441000D02*
X195961000Y-98425000D01*
X195961000Y-98425000D02*
X195961000Y-92202000D01*
G04 #@! TO.N,Net-(J1-CC2)*
X179832000Y-98425000D02*
X179451000Y-98044000D01*
X180633000Y-95973000D02*
X181356000Y-95973000D01*
X179451000Y-98044000D02*
X179451000Y-97155000D01*
X186283000Y-99848000D02*
X185547000Y-100584000D01*
X179832000Y-99822000D02*
X179832000Y-98425000D01*
X179451000Y-97155000D02*
X180633000Y-95973000D01*
X185547000Y-100584000D02*
X180594000Y-100584000D01*
X186283000Y-99060000D02*
X186283000Y-99848000D01*
X180594000Y-100584000D02*
X179832000Y-99822000D01*
G04 #@! TO.N,/IO0*
X208534000Y-107188000D02*
X207772000Y-107950000D01*
X190246000Y-86233000D02*
X189181500Y-85168500D01*
X190246000Y-88011000D02*
X190246000Y-86233000D01*
X196342000Y-105410000D02*
X198247000Y-107315000D01*
X207772000Y-107950000D02*
X207290000Y-107950000D01*
X191008000Y-88773000D02*
X190246000Y-88011000D01*
X189181500Y-85168500D02*
X187960000Y-85168500D01*
X191008000Y-90805000D02*
X191008000Y-88773000D01*
X198247000Y-107315000D02*
X198882000Y-107315000D01*
G04 #@! TO.N,/RX*
X201041000Y-96266000D02*
X201422000Y-95885000D01*
X206502000Y-90995500D02*
X206502000Y-97028000D01*
X214503000Y-99441000D02*
X215686000Y-100624000D01*
X201422000Y-89408000D02*
X202057000Y-88773000D01*
X208915000Y-99441000D02*
X214503000Y-99441000D01*
X196342000Y-107061000D02*
X196215000Y-106934000D01*
X196215000Y-106934000D02*
X194760850Y-106934000D01*
X201422000Y-95885000D02*
X201422000Y-89408000D01*
X206502000Y-97028000D02*
X208915000Y-99441000D01*
X198309000Y-96266000D02*
X201041000Y-96266000D01*
X215686000Y-100624000D02*
X215686000Y-104403000D01*
X204279500Y-88773000D02*
X206502000Y-90995500D01*
X202057000Y-88773000D02*
X204279500Y-88773000D01*
G04 #@! TO.N,/TX*
X201676000Y-88265000D02*
X204724000Y-88265000D01*
X215265000Y-98171000D02*
X216956000Y-99862000D01*
X207264000Y-90805000D02*
X207264000Y-96520000D01*
X198309000Y-94996000D02*
X200406000Y-94996000D01*
X204724000Y-88265000D02*
X207264000Y-90805000D01*
X199713850Y-102997000D02*
X198374000Y-102997000D01*
X200787000Y-94615000D02*
X200787000Y-89154000D01*
X208915000Y-98171000D02*
X215265000Y-98171000D01*
X200406000Y-94996000D02*
X200787000Y-94615000D01*
X216956000Y-99862000D02*
X216956000Y-104403000D01*
X207264000Y-96520000D02*
X208915000Y-98171000D01*
X200787000Y-89154000D02*
X201676000Y-88265000D01*
G04 #@! TO.N,/DTR*
X189570400Y-89740500D02*
X189570400Y-91120000D01*
X188910000Y-88199000D02*
X189570400Y-88859400D01*
X189570400Y-88859400D02*
X189570400Y-89740500D01*
X192176400Y-93726000D02*
X193359000Y-93726000D01*
X189570400Y-91120000D02*
X192176400Y-93726000D01*
X188910000Y-87043500D02*
X188910000Y-88199000D01*
G04 #@! TO.N,/RTS*
X193359000Y-94996000D02*
X192278000Y-94996000D01*
X187010000Y-88204000D02*
X187010000Y-87043500D01*
X190373000Y-93091000D02*
X187198000Y-93091000D01*
X192278000Y-94996000D02*
X190373000Y-93091000D01*
X187670400Y-88864400D02*
X187010000Y-88204000D01*
X187198000Y-93091000D02*
X186436000Y-92329000D01*
X186436000Y-90974900D02*
X187670400Y-89740500D01*
X186436000Y-92329000D02*
X186436000Y-90974900D01*
X187670400Y-89740500D02*
X187670400Y-88864400D01*
G04 #@! TO.N,Net-(U4-IO0)*
X204256000Y-107884000D02*
X204190000Y-107950000D01*
X204256000Y-104403000D02*
X204256000Y-107884000D01*
G04 #@! TO.N,/IO36*
X216956000Y-86146000D02*
X215773000Y-84963000D01*
X214249000Y-82184396D02*
X214899396Y-81534000D01*
X214899396Y-81534000D02*
X217424000Y-81534000D01*
X217932000Y-81026000D02*
X217932000Y-79121000D01*
X216956000Y-86903000D02*
X216956000Y-86146000D01*
X217424000Y-81534000D02*
X217932000Y-81026000D01*
X215773000Y-84963000D02*
X215089896Y-84963000D01*
X214249000Y-84122104D02*
X214249000Y-82184396D01*
X215089896Y-84963000D02*
X214249000Y-84122104D01*
G04 #@! TO.N,/IO39*
X213741000Y-84328000D02*
X213741000Y-81978500D01*
X215686000Y-86273000D02*
X213741000Y-84328000D01*
X215686000Y-86903000D02*
X215686000Y-86273000D01*
X213741000Y-81978500D02*
X215265000Y-80454500D01*
X215265000Y-80454500D02*
X215265000Y-79248000D01*
X215265000Y-79248000D02*
X215392000Y-79121000D01*
G04 #@! TO.N,/IO34*
X211197800Y-81664200D02*
X212852000Y-80010000D01*
X214416000Y-86903000D02*
X214416000Y-86273000D01*
X212852000Y-80010000D02*
X212852000Y-79121000D01*
X213106000Y-84963000D02*
X212344000Y-84963000D01*
X214416000Y-86273000D02*
X213106000Y-84963000D01*
X212344000Y-84963000D02*
X211197800Y-83816800D01*
X211197800Y-83816800D02*
X211197800Y-81664200D01*
G04 #@! TO.N,/IO35*
X210693000Y-79502000D02*
X210312000Y-79121000D01*
X212217000Y-85598000D02*
X210693000Y-84074000D01*
X210693000Y-84074000D02*
X210693000Y-79502000D01*
X213146000Y-86903000D02*
X213146000Y-86019000D01*
X213146000Y-86019000D02*
X212725000Y-85598000D01*
X212725000Y-85598000D02*
X212217000Y-85598000D01*
G04 #@! TO.N,/IO32*
X211876000Y-86903000D02*
X211876000Y-86146000D01*
X208788000Y-84836000D02*
X208280000Y-84328000D01*
X208280000Y-79629000D02*
X207772000Y-79121000D01*
X211876000Y-86146000D02*
X210566000Y-84836000D01*
X210566000Y-84836000D02*
X208788000Y-84836000D01*
X208280000Y-84328000D02*
X208280000Y-79629000D01*
G04 #@! TO.N,/IO33*
X207645000Y-84709000D02*
X207645000Y-81915000D01*
X205232000Y-79502000D02*
X205232000Y-79121000D01*
X210606000Y-86019000D02*
X209931000Y-85344000D01*
X210606000Y-86903000D02*
X210606000Y-86019000D01*
X207645000Y-81915000D02*
X205232000Y-79502000D01*
X209931000Y-85344000D02*
X208280000Y-85344000D01*
X208280000Y-85344000D02*
X207645000Y-84709000D01*
G04 #@! TO.N,/IO25*
X202692000Y-80772000D02*
X202692000Y-79121000D01*
X209336000Y-86903000D02*
X209336000Y-88352000D01*
X209336000Y-88352000D02*
X209296000Y-88392000D01*
G04 #@! TO.N,/IO26*
X208066000Y-88352000D02*
X207899000Y-88519000D01*
X208066000Y-86903000D02*
X208066000Y-88352000D01*
X200152000Y-80772000D02*
X200152000Y-79121000D01*
G04 #@! TO.N,/IO27*
X206796000Y-88352000D02*
X206756000Y-88392000D01*
X197612000Y-80772000D02*
X197612000Y-79121000D01*
X206796000Y-86903000D02*
X206796000Y-88352000D01*
G04 #@! TO.N,/IO14*
X195072000Y-80518000D02*
X196342000Y-81788000D01*
X204978000Y-85217000D02*
X205526000Y-85765000D01*
X203073000Y-85217000D02*
X204978000Y-85217000D01*
X202565000Y-84709000D02*
X203073000Y-85217000D01*
X196342000Y-81788000D02*
X202184000Y-81788000D01*
X205526000Y-85765000D02*
X205526000Y-86903000D01*
X202565000Y-82169000D02*
X202565000Y-84709000D01*
X202184000Y-81788000D02*
X202565000Y-82169000D01*
X195072000Y-79121000D02*
X195072000Y-80518000D01*
G04 #@! TO.N,/IO13*
X195072000Y-112776000D02*
X195072000Y-110363000D01*
X195072000Y-110363000D02*
X195707000Y-109728000D01*
X202184000Y-106426000D02*
X202184000Y-102997000D01*
X202184000Y-102997000D02*
X202819000Y-102362000D01*
X204060800Y-91213000D02*
X203006000Y-91213000D01*
X205105000Y-101727000D02*
X205105000Y-92257200D01*
X195707000Y-109728000D02*
X198882000Y-109728000D01*
X202819000Y-102362000D02*
X204470000Y-102362000D01*
X205105000Y-92257200D02*
X204060800Y-91213000D01*
X204470000Y-102362000D02*
X205105000Y-101727000D01*
X198882000Y-109728000D02*
X202184000Y-106426000D01*
G04 #@! TO.N,/IO15*
X201422000Y-106172000D02*
X201422000Y-100838000D01*
X202157000Y-100103000D02*
X203006000Y-100103000D01*
X194691000Y-109093000D02*
X198501000Y-109093000D01*
X192532000Y-111252000D02*
X194691000Y-109093000D01*
X192532000Y-112776000D02*
X192532000Y-111252000D01*
X198501000Y-109093000D02*
X201422000Y-106172000D01*
X201422000Y-100838000D02*
X202157000Y-100103000D01*
G04 #@! TO.N,/IO4*
X197993000Y-110490000D02*
X199136000Y-110490000D01*
X202946000Y-106680000D02*
X202946000Y-103473250D01*
X197612000Y-112776000D02*
X197612000Y-110871000D01*
X197612000Y-110871000D02*
X197993000Y-110490000D01*
X203422250Y-102997000D02*
X205232000Y-102997000D01*
X199136000Y-110490000D02*
X202946000Y-106680000D01*
X202946000Y-103473250D02*
X203422250Y-102997000D01*
X205526000Y-103291000D02*
X205526000Y-104403000D01*
X205232000Y-102997000D02*
X205526000Y-103291000D01*
G04 #@! TO.N,/IO16*
X205486000Y-108839000D02*
X205486000Y-106553000D01*
X206796000Y-105243000D02*
X206796000Y-104403000D01*
X200152000Y-112776000D02*
X200152000Y-110617000D01*
X200152000Y-110617000D02*
X201295000Y-109474000D01*
X204851000Y-109474000D02*
X205486000Y-108839000D01*
X205486000Y-106553000D02*
X206796000Y-105243000D01*
X201295000Y-109474000D02*
X204851000Y-109474000D01*
G04 #@! TO.N,/IO17*
X205232000Y-110109000D02*
X206121000Y-109220000D01*
X203073000Y-110109000D02*
X205232000Y-110109000D01*
X202692000Y-110490000D02*
X203073000Y-110109000D01*
X206756000Y-106172000D02*
X207391000Y-106172000D01*
X206121000Y-109220000D02*
X206121000Y-106807000D01*
X206121000Y-106807000D02*
X206756000Y-106172000D01*
X208066000Y-105497000D02*
X208066000Y-104403000D01*
X207391000Y-106172000D02*
X208066000Y-105497000D01*
X202692000Y-112776000D02*
X202692000Y-110490000D01*
G04 #@! TO.N,/IO5*
X209336000Y-105831000D02*
X209336000Y-104403000D01*
X209677000Y-108077000D02*
X209677000Y-106172000D01*
X208407000Y-109347000D02*
X209677000Y-108077000D01*
X205232000Y-111506000D02*
X207391000Y-109347000D01*
X207391000Y-109347000D02*
X208407000Y-109347000D01*
X205232000Y-112776000D02*
X205232000Y-111506000D01*
X209677000Y-106172000D02*
X209336000Y-105831000D01*
G04 #@! TO.N,/IO18*
X210606000Y-108291000D02*
X207772000Y-111125000D01*
X207772000Y-111125000D02*
X207772000Y-112776000D01*
X210606000Y-104403000D02*
X210606000Y-108291000D01*
G04 #@! TO.N,/IO19*
X210312000Y-112776000D02*
X210312000Y-109982000D01*
X211582000Y-108712000D02*
X211582000Y-106426000D01*
X210312000Y-109982000D02*
X211582000Y-108712000D01*
X211582000Y-106426000D02*
X211876000Y-106132000D01*
X211876000Y-106132000D02*
X211876000Y-104403000D01*
G04 #@! TO.N,/IO21*
X214416000Y-108926000D02*
X212852000Y-110490000D01*
X212852000Y-110490000D02*
X212852000Y-112776000D01*
X214416000Y-104403000D02*
X214416000Y-108926000D01*
X212699000Y-107950000D02*
X214416000Y-107950000D01*
G04 #@! TO.N,/IO22*
X218226000Y-105450000D02*
X218226000Y-104403000D01*
X219075000Y-109093000D02*
X217932000Y-110236000D01*
X219075000Y-106299000D02*
X218226000Y-105450000D01*
X220752000Y-107950000D02*
X219710000Y-107950000D01*
X215392000Y-110871000D02*
X215392000Y-112776000D01*
X219075000Y-108077000D02*
X219075000Y-106299000D01*
X217932000Y-110236000D02*
X216027000Y-110236000D01*
X219075000Y-108077000D02*
X219075000Y-109093000D01*
X219710000Y-107950000D02*
X219202000Y-107950000D01*
X216027000Y-110236000D02*
X215392000Y-110871000D01*
G04 #@! TO.N,/IO23*
X220345000Y-106172000D02*
X219496000Y-105323000D01*
X219496000Y-105323000D02*
X219496000Y-104403000D01*
G04 #@! TO.N,Net-(D3-A)*
X178852500Y-87757000D02*
X178852500Y-84136500D01*
X178852500Y-84136500D02*
X178790000Y-84074000D01*
G04 #@! TO.N,Net-(JP3-B)*
X181890000Y-84074000D02*
X181890000Y-82688000D01*
X181890000Y-82688000D02*
X180355000Y-81153000D01*
X181890000Y-84556000D02*
X181890000Y-84074000D01*
G04 #@! TO.N,Net-(Q1-G)*
X188432400Y-104683600D02*
X188976000Y-104140000D01*
X196661999Y-102046999D02*
X196780150Y-102046999D01*
X188976000Y-102235000D02*
X189738000Y-101473000D01*
X188976000Y-104140000D02*
X188976000Y-102235000D01*
X189738000Y-101473000D02*
X196088000Y-101473000D01*
X186738500Y-104683600D02*
X188432400Y-104683600D01*
X196088000Y-101473000D02*
X196661999Y-102046999D01*
G04 #@! TO.N,Net-(Q2-G)*
X187264000Y-108900000D02*
X186484500Y-108900000D01*
X188468000Y-107696000D02*
X187264000Y-108900000D01*
X190115149Y-107696000D02*
X188468000Y-107696000D01*
X191827150Y-105983999D02*
X190115149Y-107696000D01*
G04 #@! TO.N,/EN*
X191897000Y-81915000D02*
X191897000Y-83146500D01*
X186309000Y-77776000D02*
X186257000Y-77724000D01*
X205232000Y-83312000D02*
X203988000Y-83312000D01*
X187452000Y-91440000D02*
X188444900Y-91440000D01*
X184531000Y-88049500D02*
X184531000Y-89535000D01*
X205232000Y-83312000D02*
X206463500Y-83312000D01*
X218186000Y-85217000D02*
X218186000Y-86863000D01*
X191897000Y-81534000D02*
X191706500Y-81724500D01*
X191706500Y-81724500D02*
X191897000Y-81915000D01*
X205232000Y-84074000D02*
X205232000Y-83312000D01*
X190438000Y-81280000D02*
X191262000Y-81280000D01*
X188444900Y-91440000D02*
X188620400Y-91615500D01*
X191262000Y-81280000D02*
X191706500Y-81724500D01*
X218186000Y-86863000D02*
X218226000Y-86903000D01*
X186309000Y-78994000D02*
X186309000Y-77776000D01*
X192405000Y-81534000D02*
X191897000Y-81534000D01*
G04 #@! TD*
G04 #@! TA.AperFunction,Conductor*
G04 #@! TO.N,GND*
G36*
X220404060Y-74839020D02*
G01*
X220538061Y-74841295D01*
X220553594Y-74842538D01*
X220819923Y-74880830D01*
X220837209Y-74884590D01*
X221094357Y-74960096D01*
X221110929Y-74966277D01*
X221354717Y-75077612D01*
X221370238Y-75086087D01*
X221595701Y-75230984D01*
X221609856Y-75241580D01*
X221754505Y-75366919D01*
X221812403Y-75417088D01*
X221824913Y-75429598D01*
X222000417Y-75632140D01*
X222011019Y-75646303D01*
X222129315Y-75830375D01*
X222149000Y-75897415D01*
X222149000Y-82188499D01*
X222129315Y-82255538D01*
X222076511Y-82301293D01*
X222007353Y-82311237D01*
X221943797Y-82282212D01*
X221907294Y-82227503D01*
X221861358Y-82088880D01*
X221861356Y-82088875D01*
X221769315Y-81939654D01*
X221645345Y-81815684D01*
X221496124Y-81723643D01*
X221496119Y-81723641D01*
X221329697Y-81668494D01*
X221329690Y-81668493D01*
X221226986Y-81658000D01*
X221014500Y-81658000D01*
X221014500Y-84457999D01*
X221226972Y-84457999D01*
X221226986Y-84457998D01*
X221329697Y-84447505D01*
X221496119Y-84392358D01*
X221496124Y-84392356D01*
X221645345Y-84300315D01*
X221769315Y-84176345D01*
X221861356Y-84027124D01*
X221861358Y-84027119D01*
X221907294Y-83888494D01*
X221947066Y-83831049D01*
X222011582Y-83804226D01*
X222080358Y-83816541D01*
X222131558Y-83864084D01*
X222149000Y-83927498D01*
X222149000Y-107253999D01*
X222129315Y-107321038D01*
X222076511Y-107366793D01*
X222007353Y-107376737D01*
X221943797Y-107347712D01*
X221906023Y-107288934D01*
X221901642Y-107266600D01*
X221891999Y-107172203D01*
X221891998Y-107172200D01*
X221872441Y-107113181D01*
X221836814Y-107005666D01*
X221744712Y-106856344D01*
X221620656Y-106732288D01*
X221522099Y-106671498D01*
X221471336Y-106640187D01*
X221471331Y-106640185D01*
X221304795Y-106585000D01*
X221301677Y-106584333D01*
X221299940Y-106583392D01*
X221298371Y-106582872D01*
X221298463Y-106582591D01*
X221240246Y-106551046D01*
X221206563Y-106489831D01*
X221209713Y-106424764D01*
X221230674Y-106360256D01*
X221250460Y-106172000D01*
X221230674Y-105983744D01*
X221172179Y-105803716D01*
X221168033Y-105796535D01*
X221151564Y-105728637D01*
X221174417Y-105662611D01*
X221229340Y-105619421D01*
X221232091Y-105618358D01*
X221291084Y-105596355D01*
X221291093Y-105596350D01*
X221406187Y-105510190D01*
X221406190Y-105510187D01*
X221492350Y-105395093D01*
X221492354Y-105395086D01*
X221542596Y-105260379D01*
X221542598Y-105260372D01*
X221548999Y-105200844D01*
X221549000Y-105200827D01*
X221549000Y-104653000D01*
X220473000Y-104653000D01*
X220405961Y-104633315D01*
X220360206Y-104580511D01*
X220349000Y-104529000D01*
X220349000Y-103153000D01*
X220849000Y-103153000D01*
X220849000Y-104153000D01*
X221549000Y-104153000D01*
X221549000Y-103605172D01*
X221548999Y-103605155D01*
X221542598Y-103545627D01*
X221542596Y-103545620D01*
X221492354Y-103410913D01*
X221492350Y-103410906D01*
X221406190Y-103295812D01*
X221406187Y-103295809D01*
X221291093Y-103209649D01*
X221291086Y-103209645D01*
X221156379Y-103159403D01*
X221156372Y-103159401D01*
X221096844Y-103153000D01*
X220849000Y-103153000D01*
X220349000Y-103153000D01*
X220101155Y-103153000D01*
X220041627Y-103159401D01*
X220041619Y-103159403D01*
X220008047Y-103171925D01*
X219938355Y-103176909D01*
X219921381Y-103171925D01*
X219886482Y-103158908D01*
X219886483Y-103158908D01*
X219826883Y-103152501D01*
X219826881Y-103152500D01*
X219826873Y-103152500D01*
X219826864Y-103152500D01*
X218831129Y-103152500D01*
X218831123Y-103152501D01*
X218771518Y-103158908D01*
X218737331Y-103171659D01*
X218667639Y-103176642D01*
X218650669Y-103171659D01*
X218625570Y-103162298D01*
X218616483Y-103158909D01*
X218616482Y-103158908D01*
X218556883Y-103152501D01*
X218556881Y-103152500D01*
X218556873Y-103152500D01*
X218556865Y-103152500D01*
X217732900Y-103152500D01*
X217665861Y-103132815D01*
X217620106Y-103080011D01*
X217608900Y-103028500D01*
X217608900Y-99797692D01*
X217583810Y-99671561D01*
X217583809Y-99671560D01*
X217583809Y-99671556D01*
X217534592Y-99552736D01*
X217529774Y-99545526D01*
X217529771Y-99545516D01*
X217529769Y-99545518D01*
X217463138Y-99445797D01*
X217463135Y-99445794D01*
X216199409Y-98182069D01*
X216165924Y-98120746D01*
X216163769Y-98107348D01*
X216161721Y-98087865D01*
X216150674Y-97982744D01*
X216092179Y-97802716D01*
X215997533Y-97638784D01*
X215871144Y-97498415D01*
X215870873Y-97498114D01*
X215870872Y-97498113D01*
X215870871Y-97498112D01*
X215838448Y-97474555D01*
X215795784Y-97419228D01*
X215789805Y-97349615D01*
X215799357Y-97323436D01*
X215799253Y-97323398D01*
X215852597Y-97180376D01*
X215852598Y-97180372D01*
X215858999Y-97120844D01*
X215859000Y-97120827D01*
X215859000Y-95223000D01*
X215034000Y-95223000D01*
X215034000Y-95631947D01*
X215049872Y-95647819D01*
X215083357Y-95709142D01*
X215078373Y-95778834D01*
X215049872Y-95823181D01*
X215034000Y-95839052D01*
X215034000Y-96624000D01*
X215014315Y-96691039D01*
X214961511Y-96736794D01*
X214910000Y-96748000D01*
X214125052Y-96748000D01*
X214109181Y-96763872D01*
X214047858Y-96797357D01*
X213978166Y-96792373D01*
X213933819Y-96763872D01*
X213917947Y-96748000D01*
X212600052Y-96748000D01*
X212584181Y-96763872D01*
X212522858Y-96797357D01*
X212453166Y-96792373D01*
X212408819Y-96763872D01*
X212392947Y-96748000D01*
X211608000Y-96748000D01*
X211540961Y-96728315D01*
X211495206Y-96675511D01*
X211484000Y-96624000D01*
X211484000Y-96537782D01*
X212296500Y-96537782D01*
X212326948Y-96611291D01*
X212383209Y-96667552D01*
X212456718Y-96698000D01*
X212536282Y-96698000D01*
X212609791Y-96667552D01*
X212666052Y-96611291D01*
X212696500Y-96537782D01*
X213821500Y-96537782D01*
X213851948Y-96611291D01*
X213908209Y-96667552D01*
X213981718Y-96698000D01*
X214061282Y-96698000D01*
X214134791Y-96667552D01*
X214191052Y-96611291D01*
X214221500Y-96537782D01*
X214221500Y-96458218D01*
X214191052Y-96384709D01*
X214134791Y-96328448D01*
X214061282Y-96298000D01*
X213981718Y-96298000D01*
X213908209Y-96328448D01*
X213851948Y-96384709D01*
X213821500Y-96458218D01*
X213821500Y-96537782D01*
X212696500Y-96537782D01*
X212696500Y-96458218D01*
X212666052Y-96384709D01*
X212609791Y-96328448D01*
X212536282Y-96298000D01*
X212456718Y-96298000D01*
X212383209Y-96328448D01*
X212326948Y-96384709D01*
X212296500Y-96458218D01*
X212296500Y-96537782D01*
X211484000Y-96537782D01*
X211484000Y-95839053D01*
X211468128Y-95823181D01*
X211441973Y-95775282D01*
X211534000Y-95775282D01*
X211564448Y-95848791D01*
X211620709Y-95905052D01*
X211694218Y-95935500D01*
X211773782Y-95935500D01*
X211847291Y-95905052D01*
X211903552Y-95848791D01*
X211934000Y-95775282D01*
X211934000Y-95735499D01*
X212087553Y-95735499D01*
X212496500Y-96144446D01*
X212865664Y-95775282D01*
X213059000Y-95775282D01*
X213089448Y-95848791D01*
X213145709Y-95905052D01*
X213219218Y-95935500D01*
X213298782Y-95935500D01*
X213372291Y-95905052D01*
X213428552Y-95848791D01*
X213459000Y-95775282D01*
X213459000Y-95735499D01*
X213612553Y-95735499D01*
X214021500Y-96144446D01*
X214390664Y-95775282D01*
X214584000Y-95775282D01*
X214614448Y-95848791D01*
X214670709Y-95905052D01*
X214744218Y-95935500D01*
X214823782Y-95935500D01*
X214897291Y-95905052D01*
X214953552Y-95848791D01*
X214984000Y-95775282D01*
X214984000Y-95695718D01*
X214953552Y-95622209D01*
X214897291Y-95565948D01*
X214823782Y-95535500D01*
X214744218Y-95535500D01*
X214670709Y-95565948D01*
X214614448Y-95622209D01*
X214584000Y-95695718D01*
X214584000Y-95775282D01*
X214390664Y-95775282D01*
X214430446Y-95735500D01*
X214076892Y-95381946D01*
X214021500Y-95326553D01*
X213966108Y-95381946D01*
X213966107Y-95381947D01*
X213612553Y-95735499D01*
X213459000Y-95735499D01*
X213459000Y-95695718D01*
X213428552Y-95622209D01*
X213372291Y-95565948D01*
X213298782Y-95535500D01*
X213219218Y-95535500D01*
X213145709Y-95565948D01*
X213089448Y-95622209D01*
X213059000Y-95695718D01*
X213059000Y-95775282D01*
X212865664Y-95775282D01*
X212905446Y-95735500D01*
X212551892Y-95381946D01*
X212496500Y-95326553D01*
X212441108Y-95381946D01*
X212441107Y-95381947D01*
X212087553Y-95735499D01*
X211934000Y-95735499D01*
X211934000Y-95695718D01*
X211903552Y-95622209D01*
X211847291Y-95565948D01*
X211773782Y-95535500D01*
X211694218Y-95535500D01*
X211620709Y-95565948D01*
X211564448Y-95622209D01*
X211534000Y-95695718D01*
X211534000Y-95775282D01*
X211441973Y-95775282D01*
X211434643Y-95761858D01*
X211439627Y-95692166D01*
X211468128Y-95647819D01*
X211483999Y-95631947D01*
X211484000Y-95631946D01*
X211484000Y-95012782D01*
X212296500Y-95012782D01*
X212326948Y-95086291D01*
X212383209Y-95142552D01*
X212456718Y-95173000D01*
X212536282Y-95173000D01*
X212609791Y-95142552D01*
X212666052Y-95086291D01*
X212696500Y-95012782D01*
X213821500Y-95012782D01*
X213851948Y-95086291D01*
X213908209Y-95142552D01*
X213981718Y-95173000D01*
X214061282Y-95173000D01*
X214134791Y-95142552D01*
X214191052Y-95086291D01*
X214221500Y-95012782D01*
X214221500Y-94933218D01*
X214191052Y-94859709D01*
X214134791Y-94803448D01*
X214061282Y-94773000D01*
X213981718Y-94773000D01*
X213908209Y-94803448D01*
X213851948Y-94859709D01*
X213821500Y-94933218D01*
X213821500Y-95012782D01*
X212696500Y-95012782D01*
X212696500Y-94933218D01*
X212666052Y-94859709D01*
X212609791Y-94803448D01*
X212536282Y-94773000D01*
X212456718Y-94773000D01*
X212383209Y-94803448D01*
X212326948Y-94859709D01*
X212296500Y-94933218D01*
X212296500Y-95012782D01*
X211484000Y-95012782D01*
X211484000Y-94314053D01*
X211468128Y-94298181D01*
X211441973Y-94250282D01*
X211534000Y-94250282D01*
X211564448Y-94323791D01*
X211620709Y-94380052D01*
X211694218Y-94410500D01*
X211773782Y-94410500D01*
X211847291Y-94380052D01*
X211903552Y-94323791D01*
X211934000Y-94250282D01*
X211934000Y-94210499D01*
X212087553Y-94210499D01*
X212127927Y-94250872D01*
X212127928Y-94250874D01*
X212496500Y-94619446D01*
X212865664Y-94250282D01*
X213059000Y-94250282D01*
X213089448Y-94323791D01*
X213145709Y-94380052D01*
X213219218Y-94410500D01*
X213298782Y-94410500D01*
X213372291Y-94380052D01*
X213428552Y-94323791D01*
X213459000Y-94250282D01*
X213459000Y-94210499D01*
X213612553Y-94210499D01*
X213652927Y-94250872D01*
X213652928Y-94250874D01*
X214021500Y-94619446D01*
X214390664Y-94250282D01*
X214584000Y-94250282D01*
X214614448Y-94323791D01*
X214670709Y-94380052D01*
X214744218Y-94410500D01*
X214823782Y-94410500D01*
X214897291Y-94380052D01*
X214953552Y-94323791D01*
X214984000Y-94250282D01*
X214984000Y-94170718D01*
X214953552Y-94097209D01*
X214897291Y-94040948D01*
X214823782Y-94010500D01*
X214744218Y-94010500D01*
X214670709Y-94040948D01*
X214614448Y-94097209D01*
X214584000Y-94170718D01*
X214584000Y-94250282D01*
X214390664Y-94250282D01*
X214430446Y-94210500D01*
X214067945Y-93847999D01*
X214021500Y-93801553D01*
X213975055Y-93847999D01*
X213975054Y-93848000D01*
X213612553Y-94210499D01*
X213459000Y-94210499D01*
X213459000Y-94170718D01*
X213428552Y-94097209D01*
X213372291Y-94040948D01*
X213298782Y-94010500D01*
X213219218Y-94010500D01*
X213145709Y-94040948D01*
X213089448Y-94097209D01*
X213059000Y-94170718D01*
X213059000Y-94250282D01*
X212865664Y-94250282D01*
X212905446Y-94210500D01*
X212542945Y-93847999D01*
X212496500Y-93801553D01*
X212450055Y-93847999D01*
X212450054Y-93848000D01*
X212087553Y-94210499D01*
X211934000Y-94210499D01*
X211934000Y-94170718D01*
X211903552Y-94097209D01*
X211847291Y-94040948D01*
X211773782Y-94010500D01*
X211694218Y-94010500D01*
X211620709Y-94040948D01*
X211564448Y-94097209D01*
X211534000Y-94170718D01*
X211534000Y-94250282D01*
X211441973Y-94250282D01*
X211434643Y-94236858D01*
X211439627Y-94167166D01*
X211468128Y-94122819D01*
X211483999Y-94106947D01*
X211484000Y-94106946D01*
X211484000Y-93487782D01*
X212296500Y-93487782D01*
X212326948Y-93561291D01*
X212383209Y-93617552D01*
X212456718Y-93648000D01*
X212536282Y-93648000D01*
X212609791Y-93617552D01*
X212666052Y-93561291D01*
X212696500Y-93487782D01*
X213821500Y-93487782D01*
X213851948Y-93561291D01*
X213908209Y-93617552D01*
X213981718Y-93648000D01*
X214061282Y-93648000D01*
X214134791Y-93617552D01*
X214191052Y-93561291D01*
X214221500Y-93487782D01*
X214221500Y-93408218D01*
X214191052Y-93334709D01*
X214134791Y-93278448D01*
X214061282Y-93248000D01*
X213981718Y-93248000D01*
X213908209Y-93278448D01*
X213851948Y-93334709D01*
X213821500Y-93408218D01*
X213821500Y-93487782D01*
X212696500Y-93487782D01*
X212696500Y-93408218D01*
X212666052Y-93334709D01*
X212609791Y-93278448D01*
X212536282Y-93248000D01*
X212456718Y-93248000D01*
X212383209Y-93278448D01*
X212326948Y-93334709D01*
X212296500Y-93408218D01*
X212296500Y-93487782D01*
X211484000Y-93487782D01*
X211484000Y-93322000D01*
X211503685Y-93254961D01*
X211556489Y-93209206D01*
X211608000Y-93198000D01*
X212392947Y-93198000D01*
X212392947Y-93197999D01*
X212408819Y-93182128D01*
X212470142Y-93148643D01*
X212539834Y-93153627D01*
X212584181Y-93182128D01*
X212600053Y-93198000D01*
X213009000Y-93198000D01*
X213009000Y-92373000D01*
X213509000Y-92373000D01*
X213509000Y-93198000D01*
X213917947Y-93198000D01*
X213917947Y-93197999D01*
X213933819Y-93182128D01*
X213995142Y-93148643D01*
X214064834Y-93153627D01*
X214109181Y-93182128D01*
X214125053Y-93198000D01*
X214910000Y-93198000D01*
X214977039Y-93217685D01*
X215022794Y-93270489D01*
X215034000Y-93322000D01*
X215034000Y-94106947D01*
X215049872Y-94122819D01*
X215083357Y-94184142D01*
X215078373Y-94253834D01*
X215049872Y-94298181D01*
X215034000Y-94314052D01*
X215034000Y-94723000D01*
X215859000Y-94723000D01*
X215859000Y-92825172D01*
X215858999Y-92825155D01*
X215852598Y-92765627D01*
X215852596Y-92765620D01*
X215802354Y-92630913D01*
X215802350Y-92630906D01*
X215716190Y-92515812D01*
X215716187Y-92515809D01*
X215601093Y-92429649D01*
X215601086Y-92429645D01*
X215466379Y-92379403D01*
X215466372Y-92379401D01*
X215406844Y-92373000D01*
X213509000Y-92373000D01*
X213009000Y-92373000D01*
X211111155Y-92373000D01*
X211051627Y-92379401D01*
X211051620Y-92379403D01*
X210916913Y-92429645D01*
X210916906Y-92429649D01*
X210801812Y-92515809D01*
X210801809Y-92515812D01*
X210715649Y-92630906D01*
X210715645Y-92630913D01*
X210665403Y-92765620D01*
X210665401Y-92765627D01*
X210659000Y-92825155D01*
X210659000Y-94179099D01*
X210639315Y-94246138D01*
X210586511Y-94291893D01*
X210517353Y-94301837D01*
X210453797Y-94272812D01*
X210427613Y-94241099D01*
X210409534Y-94209785D01*
X210409529Y-94209778D01*
X210361750Y-94156714D01*
X210331520Y-94093722D01*
X210329900Y-94073742D01*
X210329900Y-91253803D01*
X210349585Y-91186764D01*
X210366219Y-91166122D01*
X210927122Y-90605219D01*
X210988445Y-90571734D01*
X211014803Y-90568900D01*
X217602107Y-90568900D01*
X217695934Y-90550236D01*
X217728244Y-90543809D01*
X217847064Y-90494592D01*
X217856391Y-90488360D01*
X217954000Y-90423141D01*
X220003141Y-88374000D01*
X220074592Y-88267064D01*
X220085059Y-88241793D01*
X220090132Y-88229548D01*
X220133973Y-88175144D01*
X220200267Y-88153079D01*
X220204693Y-88153000D01*
X220349000Y-88153000D01*
X220349000Y-87153000D01*
X220849000Y-87153000D01*
X220849000Y-88153000D01*
X221096828Y-88153000D01*
X221096844Y-88152999D01*
X221156372Y-88146598D01*
X221156379Y-88146596D01*
X221291086Y-88096354D01*
X221291093Y-88096350D01*
X221406187Y-88010190D01*
X221406190Y-88010187D01*
X221492350Y-87895093D01*
X221492354Y-87895086D01*
X221542596Y-87760379D01*
X221542598Y-87760372D01*
X221548999Y-87700844D01*
X221549000Y-87700827D01*
X221549000Y-87153000D01*
X220849000Y-87153000D01*
X220349000Y-87153000D01*
X220349000Y-85653000D01*
X220849000Y-85653000D01*
X220849000Y-86653000D01*
X221549000Y-86653000D01*
X221549000Y-86105172D01*
X221548999Y-86105155D01*
X221542598Y-86045627D01*
X221542596Y-86045620D01*
X221492354Y-85910913D01*
X221492350Y-85910906D01*
X221406190Y-85795812D01*
X221406187Y-85795809D01*
X221291093Y-85709649D01*
X221291086Y-85709645D01*
X221156379Y-85659403D01*
X221156372Y-85659401D01*
X221096844Y-85653000D01*
X220849000Y-85653000D01*
X220349000Y-85653000D01*
X220272900Y-85653000D01*
X220205861Y-85633315D01*
X220160106Y-85580511D01*
X220148900Y-85529000D01*
X220148900Y-84850192D01*
X220123810Y-84724061D01*
X220123809Y-84724060D01*
X220123809Y-84724056D01*
X220080358Y-84619156D01*
X220072889Y-84549686D01*
X220104164Y-84487207D01*
X220164253Y-84451555D01*
X220207523Y-84448345D01*
X220302021Y-84457999D01*
X220514499Y-84457999D01*
X220514500Y-84457998D01*
X220514500Y-83308000D01*
X219602001Y-83308000D01*
X219602001Y-83757971D01*
X219602002Y-83757994D01*
X219605170Y-83789011D01*
X219592399Y-83857704D01*
X219544517Y-83908587D01*
X219476727Y-83925506D01*
X219410551Y-83903089D01*
X219394131Y-83889291D01*
X218838818Y-83333977D01*
X218805333Y-83272654D01*
X218802499Y-83246296D01*
X218802499Y-82808000D01*
X219602000Y-82808000D01*
X220514500Y-82808000D01*
X220514500Y-81658000D01*
X220302029Y-81658000D01*
X220302012Y-81658001D01*
X220199302Y-81668494D01*
X220032880Y-81723641D01*
X220032875Y-81723643D01*
X219883654Y-81815684D01*
X219759684Y-81939654D01*
X219667643Y-82088875D01*
X219667641Y-82088880D01*
X219612494Y-82255302D01*
X219612493Y-82255309D01*
X219602000Y-82358013D01*
X219602000Y-82808000D01*
X218802499Y-82808000D01*
X218802499Y-82357998D01*
X218802498Y-82357981D01*
X218791999Y-82255203D01*
X218791998Y-82255200D01*
X218763716Y-82169851D01*
X218736814Y-82088666D01*
X218644712Y-81939344D01*
X218520656Y-81815288D01*
X218372957Y-81724187D01*
X218326233Y-81672239D01*
X218315010Y-81603276D01*
X218342854Y-81539194D01*
X218350362Y-81530977D01*
X218439140Y-81442200D01*
X218510592Y-81335264D01*
X218523454Y-81304214D01*
X218559807Y-81216448D01*
X218559809Y-81216444D01*
X218559810Y-81216439D01*
X218561212Y-81209396D01*
X218584899Y-81090309D01*
X218584900Y-81090306D01*
X218584900Y-80221599D01*
X218604585Y-80154560D01*
X218636012Y-80121283D01*
X218791792Y-80008104D01*
X218942104Y-79857792D01*
X218942104Y-79857791D01*
X218942108Y-79857788D01*
X218942109Y-79857786D01*
X219055313Y-79701972D01*
X219067051Y-79685816D01*
X219071793Y-79676508D01*
X219119763Y-79625711D01*
X219187583Y-79608911D01*
X219253719Y-79631445D01*
X219292763Y-79676500D01*
X219297377Y-79685555D01*
X219422272Y-79857459D01*
X219422276Y-79857464D01*
X219572535Y-80007723D01*
X219572540Y-80007727D01*
X219744442Y-80132620D01*
X219933782Y-80229095D01*
X220135871Y-80294757D01*
X220202000Y-80305231D01*
X220202000Y-78411012D01*
X220259007Y-78443925D01*
X220386174Y-78478000D01*
X220517826Y-78478000D01*
X220644993Y-78443925D01*
X220702000Y-78411012D01*
X220702000Y-80305230D01*
X220768126Y-80294757D01*
X220768129Y-80294757D01*
X220970217Y-80229095D01*
X221159557Y-80132620D01*
X221331459Y-80007727D01*
X221331464Y-80007723D01*
X221481723Y-79857464D01*
X221481727Y-79857459D01*
X221606620Y-79685557D01*
X221703095Y-79496217D01*
X221768757Y-79294130D01*
X221768757Y-79294127D01*
X221802000Y-79084246D01*
X221802000Y-78228000D01*
X220885012Y-78228000D01*
X220917925Y-78170993D01*
X220952000Y-78043826D01*
X220952000Y-77912174D01*
X220917925Y-77785007D01*
X220885012Y-77728000D01*
X221802000Y-77728000D01*
X221802000Y-76871753D01*
X221768757Y-76661872D01*
X221768757Y-76661869D01*
X221703095Y-76459782D01*
X221606620Y-76270442D01*
X221481727Y-76098540D01*
X221481723Y-76098535D01*
X221331464Y-75948276D01*
X221331459Y-75948272D01*
X221159557Y-75823379D01*
X220970215Y-75726903D01*
X220768124Y-75661241D01*
X220702000Y-75650768D01*
X220702000Y-77544988D01*
X220644993Y-77512075D01*
X220517826Y-77478000D01*
X220386174Y-77478000D01*
X220259007Y-77512075D01*
X220202000Y-77544988D01*
X220202000Y-75650768D01*
X220201999Y-75650768D01*
X220135875Y-75661241D01*
X219933784Y-75726903D01*
X219744442Y-75823379D01*
X219572540Y-75948272D01*
X219572535Y-75948276D01*
X219422276Y-76098535D01*
X219422272Y-76098540D01*
X219297378Y-76270443D01*
X219292762Y-76279502D01*
X219244784Y-76330295D01*
X219176963Y-76347087D01*
X219110829Y-76324546D01*
X219071794Y-76279493D01*
X219067051Y-76270184D01*
X219067049Y-76270181D01*
X219067048Y-76270179D01*
X218942109Y-76098213D01*
X218791786Y-75947890D01*
X218619820Y-75822951D01*
X218430414Y-75726444D01*
X218430413Y-75726443D01*
X218430412Y-75726443D01*
X218228243Y-75660754D01*
X218228241Y-75660753D01*
X218228240Y-75660753D01*
X218066957Y-75635208D01*
X218018287Y-75627500D01*
X217805713Y-75627500D01*
X217757042Y-75635208D01*
X217595760Y-75660753D01*
X217393585Y-75726444D01*
X217204179Y-75822951D01*
X217032213Y-75947890D01*
X216881890Y-76098213D01*
X216756949Y-76270182D01*
X216752484Y-76278946D01*
X216704509Y-76329742D01*
X216636688Y-76346536D01*
X216570553Y-76323998D01*
X216531516Y-76278946D01*
X216527050Y-76270182D01*
X216402109Y-76098213D01*
X216251786Y-75947890D01*
X216079820Y-75822951D01*
X215890414Y-75726444D01*
X215890413Y-75726443D01*
X215890412Y-75726443D01*
X215688243Y-75660754D01*
X215688241Y-75660753D01*
X215688240Y-75660753D01*
X215526957Y-75635208D01*
X215478287Y-75627500D01*
X215265713Y-75627500D01*
X215217042Y-75635208D01*
X215055760Y-75660753D01*
X214853585Y-75726444D01*
X214664179Y-75822951D01*
X214492213Y-75947890D01*
X214341890Y-76098213D01*
X214216949Y-76270182D01*
X214212484Y-76278946D01*
X214164509Y-76329742D01*
X214096688Y-76346536D01*
X214030553Y-76323998D01*
X213991516Y-76278946D01*
X213987050Y-76270182D01*
X213862109Y-76098213D01*
X213711786Y-75947890D01*
X213539820Y-75822951D01*
X213350414Y-75726444D01*
X213350413Y-75726443D01*
X213350412Y-75726443D01*
X213148243Y-75660754D01*
X213148241Y-75660753D01*
X213148240Y-75660753D01*
X212986957Y-75635208D01*
X212938287Y-75627500D01*
X212725713Y-75627500D01*
X212677042Y-75635208D01*
X212515760Y-75660753D01*
X212313585Y-75726444D01*
X212124179Y-75822951D01*
X211952213Y-75947890D01*
X211801890Y-76098213D01*
X211676949Y-76270182D01*
X211672484Y-76278946D01*
X211624509Y-76329742D01*
X211556688Y-76346536D01*
X211490553Y-76323998D01*
X211451516Y-76278946D01*
X211447050Y-76270182D01*
X211322109Y-76098213D01*
X211171786Y-75947890D01*
X210999820Y-75822951D01*
X210810414Y-75726444D01*
X210810413Y-75726443D01*
X210810412Y-75726443D01*
X210608243Y-75660754D01*
X210608241Y-75660753D01*
X210608240Y-75660753D01*
X210446957Y-75635208D01*
X210398287Y-75627500D01*
X210185713Y-75627500D01*
X210137042Y-75635208D01*
X209975760Y-75660753D01*
X209773585Y-75726444D01*
X209584179Y-75822951D01*
X209412213Y-75947890D01*
X209261890Y-76098213D01*
X209136949Y-76270182D01*
X209132484Y-76278946D01*
X209084509Y-76329742D01*
X209016688Y-76346536D01*
X208950553Y-76323998D01*
X208911516Y-76278946D01*
X208907050Y-76270182D01*
X208782109Y-76098213D01*
X208631786Y-75947890D01*
X208459820Y-75822951D01*
X208270414Y-75726444D01*
X208270413Y-75726443D01*
X208270412Y-75726443D01*
X208068243Y-75660754D01*
X208068241Y-75660753D01*
X208068240Y-75660753D01*
X207906957Y-75635208D01*
X207858287Y-75627500D01*
X207645713Y-75627500D01*
X207597042Y-75635208D01*
X207435760Y-75660753D01*
X207233585Y-75726444D01*
X207044179Y-75822951D01*
X206872213Y-75947890D01*
X206721890Y-76098213D01*
X206596949Y-76270182D01*
X206592484Y-76278946D01*
X206544509Y-76329742D01*
X206476688Y-76346536D01*
X206410553Y-76323998D01*
X206371516Y-76278946D01*
X206367050Y-76270182D01*
X206242109Y-76098213D01*
X206091786Y-75947890D01*
X205919820Y-75822951D01*
X205730414Y-75726444D01*
X205730413Y-75726443D01*
X205730412Y-75726443D01*
X205528243Y-75660754D01*
X205528241Y-75660753D01*
X205528240Y-75660753D01*
X205366957Y-75635208D01*
X205318287Y-75627500D01*
X205105713Y-75627500D01*
X205057042Y-75635208D01*
X204895760Y-75660753D01*
X204693585Y-75726444D01*
X204504179Y-75822951D01*
X204332213Y-75947890D01*
X204181890Y-76098213D01*
X204056949Y-76270182D01*
X204052484Y-76278946D01*
X204004509Y-76329742D01*
X203936688Y-76346536D01*
X203870553Y-76323998D01*
X203831516Y-76278946D01*
X203827050Y-76270182D01*
X203702109Y-76098213D01*
X203551786Y-75947890D01*
X203379820Y-75822951D01*
X203190414Y-75726444D01*
X203190413Y-75726443D01*
X203190412Y-75726443D01*
X202988243Y-75660754D01*
X202988241Y-75660753D01*
X202988240Y-75660753D01*
X202826957Y-75635208D01*
X202778287Y-75627500D01*
X202565713Y-75627500D01*
X202517042Y-75635208D01*
X202355760Y-75660753D01*
X202153585Y-75726444D01*
X201964179Y-75822951D01*
X201792213Y-75947890D01*
X201641890Y-76098213D01*
X201516949Y-76270182D01*
X201512484Y-76278946D01*
X201464509Y-76329742D01*
X201396688Y-76346536D01*
X201330553Y-76323998D01*
X201291516Y-76278946D01*
X201287050Y-76270182D01*
X201162109Y-76098213D01*
X201011786Y-75947890D01*
X200839820Y-75822951D01*
X200650414Y-75726444D01*
X200650413Y-75726443D01*
X200650412Y-75726443D01*
X200448243Y-75660754D01*
X200448241Y-75660753D01*
X200448240Y-75660753D01*
X200286957Y-75635208D01*
X200238287Y-75627500D01*
X200025713Y-75627500D01*
X199977042Y-75635208D01*
X199815760Y-75660753D01*
X199613585Y-75726444D01*
X199424179Y-75822951D01*
X199252213Y-75947890D01*
X199101890Y-76098213D01*
X198976949Y-76270182D01*
X198972484Y-76278946D01*
X198924509Y-76329742D01*
X198856688Y-76346536D01*
X198790553Y-76323998D01*
X198751516Y-76278946D01*
X198747050Y-76270182D01*
X198622109Y-76098213D01*
X198471786Y-75947890D01*
X198299820Y-75822951D01*
X198110414Y-75726444D01*
X198110413Y-75726443D01*
X198110412Y-75726443D01*
X197908243Y-75660754D01*
X197908241Y-75660753D01*
X197908240Y-75660753D01*
X197746957Y-75635208D01*
X197698287Y-75627500D01*
X197485713Y-75627500D01*
X197437042Y-75635208D01*
X197275760Y-75660753D01*
X197073585Y-75726444D01*
X196884179Y-75822951D01*
X196712213Y-75947890D01*
X196561890Y-76098213D01*
X196436949Y-76270182D01*
X196432484Y-76278946D01*
X196384509Y-76329742D01*
X196316688Y-76346536D01*
X196250553Y-76323998D01*
X196211516Y-76278946D01*
X196207050Y-76270182D01*
X196082109Y-76098213D01*
X195931786Y-75947890D01*
X195759820Y-75822951D01*
X195570414Y-75726444D01*
X195570413Y-75726443D01*
X195570412Y-75726443D01*
X195368243Y-75660754D01*
X195368241Y-75660753D01*
X195368240Y-75660753D01*
X195206957Y-75635208D01*
X195158287Y-75627500D01*
X194945713Y-75627500D01*
X194897042Y-75635208D01*
X194735760Y-75660753D01*
X194533585Y-75726444D01*
X194344179Y-75822951D01*
X194172213Y-75947890D01*
X194021890Y-76098213D01*
X193896949Y-76270182D01*
X193892202Y-76279499D01*
X193844227Y-76330293D01*
X193776405Y-76347087D01*
X193710271Y-76324548D01*
X193671234Y-76279495D01*
X193666622Y-76270444D01*
X193541727Y-76098540D01*
X193541723Y-76098535D01*
X193391464Y-75948276D01*
X193391459Y-75948272D01*
X193219557Y-75823379D01*
X193030215Y-75726903D01*
X192828124Y-75661241D01*
X192762000Y-75650768D01*
X192762000Y-77544988D01*
X192704993Y-77512075D01*
X192577826Y-77478000D01*
X192446174Y-77478000D01*
X192319007Y-77512075D01*
X192262000Y-77544988D01*
X192262000Y-75650768D01*
X192261999Y-75650768D01*
X192195875Y-75661241D01*
X191993784Y-75726903D01*
X191804442Y-75823379D01*
X191632540Y-75948272D01*
X191632535Y-75948276D01*
X191482276Y-76098535D01*
X191482272Y-76098540D01*
X191357379Y-76270442D01*
X191260904Y-76459782D01*
X191195242Y-76661869D01*
X191195242Y-76661872D01*
X191162000Y-76871753D01*
X191162000Y-77728000D01*
X192078988Y-77728000D01*
X192046075Y-77785007D01*
X192012000Y-77912174D01*
X192012000Y-78043826D01*
X192046075Y-78170993D01*
X192078988Y-78228000D01*
X191162000Y-78228000D01*
X191162000Y-79084246D01*
X191195242Y-79294127D01*
X191195242Y-79294130D01*
X191260904Y-79496217D01*
X191357379Y-79685557D01*
X191482272Y-79857459D01*
X191482276Y-79857464D01*
X191632535Y-80007723D01*
X191632540Y-80007727D01*
X191804442Y-80132620D01*
X191993782Y-80229095D01*
X192195871Y-80294757D01*
X192262000Y-80305231D01*
X192262000Y-78411012D01*
X192319007Y-78443925D01*
X192446174Y-78478000D01*
X192577826Y-78478000D01*
X192704993Y-78443925D01*
X192762000Y-78411012D01*
X192762000Y-80305230D01*
X192828126Y-80294757D01*
X192828129Y-80294757D01*
X193030217Y-80229095D01*
X193219557Y-80132620D01*
X193391459Y-80007727D01*
X193391464Y-80007723D01*
X193541723Y-79857464D01*
X193541727Y-79857459D01*
X193666620Y-79685558D01*
X193671232Y-79676507D01*
X193719205Y-79625709D01*
X193787025Y-79608912D01*
X193853161Y-79631447D01*
X193892204Y-79676504D01*
X193896949Y-79685817D01*
X194021890Y-79857786D01*
X194021896Y-79857792D01*
X194172208Y-80008104D01*
X194344184Y-80133051D01*
X194351393Y-80136724D01*
X194402189Y-80184695D01*
X194419100Y-80247209D01*
X194419100Y-80542099D01*
X194399415Y-80609138D01*
X194346611Y-80654893D01*
X194282947Y-80665502D01*
X194183001Y-80655659D01*
X194183000Y-80655659D01*
X193986870Y-80674975D01*
X193798266Y-80732188D01*
X193624467Y-80825086D01*
X193624460Y-80825090D01*
X193472116Y-80950116D01*
X193371855Y-81072285D01*
X193314109Y-81111619D01*
X193244264Y-81113490D01*
X193184496Y-81077302D01*
X193168616Y-81055622D01*
X193137533Y-81001784D01*
X193010871Y-80861112D01*
X193010870Y-80861111D01*
X192857734Y-80749851D01*
X192857729Y-80749848D01*
X192684807Y-80672857D01*
X192684802Y-80672855D01*
X192539001Y-80641865D01*
X192499646Y-80633500D01*
X192310354Y-80633500D01*
X192277897Y-80640398D01*
X192125197Y-80672855D01*
X192125192Y-80672857D01*
X191952271Y-80749848D01*
X191865882Y-80812613D01*
X191800075Y-80836092D01*
X191732021Y-80820266D01*
X191705318Y-80799977D01*
X191678200Y-80772859D01*
X191600035Y-80720631D01*
X191555231Y-80667021D01*
X191552744Y-80660862D01*
X191506798Y-80537673D01*
X191506793Y-80537664D01*
X191420547Y-80422455D01*
X191420544Y-80422452D01*
X191305335Y-80336206D01*
X191305328Y-80336202D01*
X191170482Y-80285908D01*
X191170483Y-80285908D01*
X191110883Y-80279501D01*
X191110881Y-80279500D01*
X191110873Y-80279500D01*
X191110864Y-80279500D01*
X189765129Y-80279500D01*
X189765123Y-80279501D01*
X189705516Y-80285908D01*
X189570671Y-80336202D01*
X189570664Y-80336206D01*
X189455455Y-80422452D01*
X189455452Y-80422455D01*
X189369206Y-80537664D01*
X189369202Y-80537671D01*
X189318908Y-80672517D01*
X189312501Y-80732116D01*
X189312500Y-80732135D01*
X189312500Y-81827870D01*
X189312501Y-81827871D01*
X189318908Y-81887483D01*
X189369202Y-82022328D01*
X189369206Y-82022335D01*
X189455452Y-82137544D01*
X189455455Y-82137547D01*
X189570664Y-82223793D01*
X189570671Y-82223797D01*
X189705517Y-82274091D01*
X189705516Y-82274091D01*
X189712444Y-82274835D01*
X189765127Y-82280500D01*
X190434924Y-82280499D01*
X190501963Y-82300183D01*
X190547718Y-82352987D01*
X190557662Y-82422146D01*
X190552630Y-82443502D01*
X190507001Y-82581200D01*
X190507000Y-82581204D01*
X190496500Y-82683983D01*
X190496500Y-83609001D01*
X190496501Y-83609019D01*
X190507000Y-83711796D01*
X190507003Y-83711806D01*
X190508384Y-83715974D01*
X190510785Y-83785802D01*
X190475053Y-83845843D01*
X190412532Y-83877035D01*
X190343073Y-83869474D01*
X190302997Y-83842657D01*
X189180721Y-82720381D01*
X187955021Y-81494680D01*
X187921536Y-81433357D01*
X187926520Y-81363665D01*
X187955021Y-81319318D01*
X188868097Y-80406243D01*
X189864140Y-79410200D01*
X189935592Y-79303264D01*
X189984809Y-79184444D01*
X189989100Y-79162872D01*
X189996343Y-79126458D01*
X190028727Y-79064548D01*
X190070458Y-79038294D01*
X190069791Y-79036864D01*
X190076326Y-79033816D01*
X190076334Y-79033814D01*
X190225656Y-78941712D01*
X190349712Y-78817656D01*
X190441814Y-78668334D01*
X190496999Y-78501797D01*
X190507500Y-78399009D01*
X190507499Y-77048992D01*
X190496999Y-76946203D01*
X190441814Y-76779666D01*
X190349712Y-76630344D01*
X190225656Y-76506288D01*
X190132888Y-76449069D01*
X190076336Y-76414187D01*
X190076331Y-76414185D01*
X190074862Y-76413698D01*
X189909797Y-76359001D01*
X189909795Y-76359000D01*
X189807010Y-76348500D01*
X188906998Y-76348500D01*
X188906980Y-76348501D01*
X188804203Y-76359000D01*
X188804200Y-76359001D01*
X188637668Y-76414185D01*
X188637663Y-76414187D01*
X188488342Y-76506289D01*
X188364289Y-76630342D01*
X188272187Y-76779663D01*
X188272185Y-76779668D01*
X188270595Y-76784467D01*
X188217001Y-76946203D01*
X188217001Y-76946204D01*
X188217000Y-76946204D01*
X188206500Y-77048983D01*
X188206500Y-78399001D01*
X188206501Y-78399018D01*
X188217000Y-78501796D01*
X188217001Y-78501799D01*
X188272185Y-78668331D01*
X188272186Y-78668334D01*
X188356825Y-78805557D01*
X188364289Y-78817657D01*
X188399464Y-78852832D01*
X188432949Y-78914155D01*
X188427965Y-78983847D01*
X188399464Y-79028194D01*
X187031680Y-80395977D01*
X186970357Y-80429462D01*
X186900665Y-80424478D01*
X186856318Y-80395977D01*
X186650546Y-80190206D01*
X186524883Y-80064542D01*
X186491399Y-80003221D01*
X186496383Y-79933530D01*
X186538254Y-79877596D01*
X186582713Y-79857421D01*
X186582626Y-79857151D01*
X186585031Y-79856369D01*
X186586789Y-79855572D01*
X186588803Y-79855144D01*
X186761730Y-79778151D01*
X186914871Y-79666888D01*
X187041533Y-79526216D01*
X187136179Y-79362284D01*
X187194674Y-79182256D01*
X187214460Y-78994000D01*
X187207223Y-78925146D01*
X187219792Y-78856418D01*
X187242863Y-78824504D01*
X187249712Y-78817656D01*
X187341814Y-78668334D01*
X187396999Y-78501797D01*
X187407500Y-78399009D01*
X187407499Y-77048992D01*
X187396999Y-76946203D01*
X187341814Y-76779666D01*
X187249712Y-76630344D01*
X187125656Y-76506288D01*
X187032888Y-76449069D01*
X186976336Y-76414187D01*
X186976331Y-76414185D01*
X186974862Y-76413698D01*
X186809797Y-76359001D01*
X186809795Y-76359000D01*
X186707010Y-76348500D01*
X185806998Y-76348500D01*
X185806980Y-76348501D01*
X185704203Y-76359000D01*
X185704200Y-76359001D01*
X185537668Y-76414185D01*
X185537663Y-76414187D01*
X185388342Y-76506289D01*
X185264289Y-76630342D01*
X185172187Y-76779663D01*
X185172185Y-76779668D01*
X185170595Y-76784467D01*
X185117001Y-76946203D01*
X185117001Y-76946204D01*
X185117000Y-76946204D01*
X185106500Y-77048983D01*
X185106500Y-78399001D01*
X185106501Y-78399018D01*
X185117000Y-78501796D01*
X185117001Y-78501799D01*
X185172186Y-78668334D01*
X185174220Y-78672695D01*
X185184712Y-78741773D01*
X185156192Y-78805557D01*
X185097715Y-78843796D01*
X185061838Y-78849100D01*
X179513693Y-78849100D01*
X179387561Y-78874189D01*
X179387555Y-78874191D01*
X179268736Y-78923407D01*
X179161798Y-78994860D01*
X179161795Y-78994863D01*
X178547863Y-79608794D01*
X178547862Y-79608795D01*
X178476407Y-79715737D01*
X178427191Y-79834555D01*
X178427189Y-79834561D01*
X178402100Y-79960692D01*
X178402100Y-80081649D01*
X178382415Y-80148688D01*
X178359303Y-80175361D01*
X178342169Y-80190207D01*
X178342166Y-80190210D01*
X178248018Y-80298864D01*
X178248015Y-80298867D01*
X178191857Y-80386253D01*
X178173665Y-80414562D01*
X178170231Y-80419905D01*
X178170223Y-80419918D01*
X178113263Y-80544643D01*
X178111015Y-80548939D01*
X178069966Y-80688738D01*
X178069963Y-80688748D01*
X178049503Y-80831059D01*
X178049503Y-80887399D01*
X178049500Y-80887409D01*
X178049500Y-81418573D01*
X178049503Y-81418601D01*
X178049503Y-81474941D01*
X178065638Y-81587162D01*
X178068703Y-81608478D01*
X178068703Y-81608481D01*
X178069964Y-81617255D01*
X178110503Y-81755313D01*
X178170223Y-81886081D01*
X178170227Y-81886087D01*
X178170230Y-81886094D01*
X178228770Y-81977185D01*
X178248015Y-82007132D01*
X178248018Y-82007136D01*
X178324713Y-82095647D01*
X178342168Y-82115791D01*
X178342171Y-82115794D01*
X178450909Y-82210015D01*
X178511386Y-82248881D01*
X178571857Y-82287744D01*
X178571863Y-82287747D01*
X178702741Y-82347517D01*
X178840696Y-82388024D01*
X178983111Y-82408500D01*
X178983114Y-82408500D01*
X179555000Y-82408500D01*
X179626940Y-82403355D01*
X179664259Y-82392396D01*
X179716841Y-82388636D01*
X179855000Y-82408500D01*
X179855003Y-82408500D01*
X180426886Y-82408500D01*
X180426889Y-82408500D01*
X180569304Y-82388024D01*
X180573972Y-82386652D01*
X180643842Y-82386643D01*
X180696604Y-82417944D01*
X180990464Y-82711804D01*
X181023949Y-82773127D01*
X181018965Y-82842819D01*
X180990465Y-82887165D01*
X180897289Y-82980342D01*
X180805187Y-83129663D01*
X180805186Y-83129666D01*
X180750001Y-83296203D01*
X180750001Y-83296204D01*
X180750000Y-83296204D01*
X180739500Y-83398983D01*
X180739500Y-84749001D01*
X180739501Y-84749018D01*
X180750000Y-84851796D01*
X180750001Y-84851799D01*
X180802313Y-85009663D01*
X180805186Y-85018334D01*
X180897288Y-85167656D01*
X181021344Y-85291712D01*
X181170666Y-85383814D01*
X181337203Y-85438999D01*
X181439991Y-85449500D01*
X182340008Y-85449499D01*
X182340016Y-85449498D01*
X182340019Y-85449498D01*
X182397736Y-85443602D01*
X182442797Y-85438999D01*
X182609334Y-85383814D01*
X182758656Y-85291712D01*
X182882712Y-85167656D01*
X182901462Y-85137257D01*
X182953406Y-85090533D01*
X183022368Y-85079309D01*
X183086451Y-85107151D01*
X183125309Y-85165218D01*
X183131000Y-85202352D01*
X183131000Y-85386970D01*
X183131001Y-85386987D01*
X183141494Y-85489697D01*
X183196641Y-85656119D01*
X183196643Y-85656124D01*
X183288684Y-85805345D01*
X183412654Y-85929315D01*
X183561875Y-86021356D01*
X183561880Y-86021358D01*
X183728302Y-86076505D01*
X183728309Y-86076506D01*
X183831019Y-86086999D01*
X184280999Y-86086999D01*
X184281000Y-86086998D01*
X184281000Y-85174500D01*
X184781000Y-85174500D01*
X184781000Y-86086999D01*
X185230972Y-86086999D01*
X185230986Y-86086998D01*
X185333697Y-86076505D01*
X185500119Y-86021358D01*
X185500124Y-86021356D01*
X185649345Y-85929315D01*
X185773315Y-85805345D01*
X185865356Y-85656124D01*
X185865358Y-85656119D01*
X185920505Y-85489697D01*
X185920506Y-85489690D01*
X185930999Y-85386986D01*
X185931000Y-85386973D01*
X185931000Y-85174500D01*
X184781000Y-85174500D01*
X184281000Y-85174500D01*
X184281000Y-83762000D01*
X184781000Y-83762000D01*
X184781000Y-84674500D01*
X185930999Y-84674500D01*
X185930999Y-84462028D01*
X185930998Y-84462013D01*
X185920505Y-84359302D01*
X185865358Y-84192880D01*
X185865356Y-84192875D01*
X185773315Y-84043654D01*
X185649345Y-83919684D01*
X185500124Y-83827643D01*
X185500119Y-83827641D01*
X185333697Y-83772494D01*
X185333690Y-83772493D01*
X185230986Y-83762000D01*
X184781000Y-83762000D01*
X184281000Y-83762000D01*
X183831028Y-83762000D01*
X183831012Y-83762001D01*
X183728302Y-83772494D01*
X183561880Y-83827641D01*
X183561875Y-83827643D01*
X183412654Y-83919684D01*
X183288682Y-84043656D01*
X183270037Y-84073885D01*
X183218088Y-84120609D01*
X183149125Y-84131830D01*
X183085044Y-84103986D01*
X183046188Y-84045917D01*
X183040499Y-84008787D01*
X183040499Y-83398998D01*
X183040498Y-83398981D01*
X183029999Y-83296203D01*
X183029998Y-83296200D01*
X183010594Y-83237643D01*
X182974814Y-83129666D01*
X182882712Y-82980344D01*
X182758656Y-82856288D01*
X182609334Y-82764186D01*
X182609332Y-82764185D01*
X182603187Y-82760395D01*
X182604685Y-82757966D01*
X182562031Y-82720381D01*
X182542900Y-82654210D01*
X182542900Y-82623692D01*
X182517810Y-82497561D01*
X182517809Y-82497560D01*
X182517809Y-82497556D01*
X182468592Y-82378736D01*
X182458897Y-82364227D01*
X182438020Y-82297551D01*
X182438000Y-82295337D01*
X182438000Y-81530000D01*
X182938000Y-81530000D01*
X182938000Y-82280000D01*
X183360828Y-82280000D01*
X183360844Y-82279999D01*
X183420372Y-82273598D01*
X183420379Y-82273596D01*
X183555086Y-82223354D01*
X183555093Y-82223350D01*
X183670187Y-82137190D01*
X183670190Y-82137187D01*
X183756350Y-82022093D01*
X183756354Y-82022086D01*
X183806596Y-81887379D01*
X183806598Y-81887372D01*
X183812999Y-81827844D01*
X183813000Y-81827827D01*
X183813000Y-81530000D01*
X182938000Y-81530000D01*
X182438000Y-81530000D01*
X182438000Y-81154000D01*
X182457685Y-81086961D01*
X182510489Y-81041206D01*
X182562000Y-81030000D01*
X183813000Y-81030000D01*
X183813000Y-80732172D01*
X183812999Y-80732155D01*
X183806598Y-80672627D01*
X183806596Y-80672620D01*
X183756354Y-80537913D01*
X183756350Y-80537906D01*
X183670190Y-80422812D01*
X183670187Y-80422809D01*
X183610552Y-80378166D01*
X183568681Y-80322232D01*
X183563697Y-80252541D01*
X183597183Y-80191218D01*
X183658506Y-80157734D01*
X183684863Y-80154900D01*
X184717197Y-80154900D01*
X184784236Y-80174585D01*
X184804878Y-80191219D01*
X186432518Y-81818858D01*
X186432539Y-81818881D01*
X188342539Y-83728880D01*
X188376024Y-83790203D01*
X188371040Y-83859895D01*
X188329168Y-83915828D01*
X188263704Y-83940245D01*
X188220262Y-83935637D01*
X188212570Y-83933402D01*
X188212567Y-83933401D01*
X188175701Y-83930500D01*
X188175694Y-83930500D01*
X187744306Y-83930500D01*
X187744298Y-83930500D01*
X187707432Y-83933401D01*
X187707426Y-83933402D01*
X187549606Y-83979254D01*
X187549603Y-83979255D01*
X187408137Y-84062917D01*
X187408129Y-84062923D01*
X187291923Y-84179129D01*
X187291917Y-84179137D01*
X187208255Y-84320603D01*
X187208254Y-84320606D01*
X187162402Y-84478426D01*
X187162401Y-84478432D01*
X187159500Y-84515298D01*
X187159500Y-85681500D01*
X187139815Y-85748539D01*
X187087011Y-85794294D01*
X187035500Y-85805500D01*
X186794298Y-85805500D01*
X186757432Y-85808401D01*
X186757426Y-85808402D01*
X186599606Y-85854254D01*
X186599603Y-85854255D01*
X186458137Y-85937917D01*
X186458129Y-85937923D01*
X186341923Y-86054129D01*
X186341917Y-86054137D01*
X186258255Y-86195603D01*
X186258254Y-86195606D01*
X186212402Y-86353426D01*
X186212401Y-86353432D01*
X186209500Y-86390298D01*
X186209500Y-87696701D01*
X186212401Y-87733567D01*
X186212402Y-87733573D01*
X186258254Y-87891393D01*
X186258255Y-87891396D01*
X186258256Y-87891398D01*
X186315213Y-87987707D01*
X186339832Y-88029336D01*
X186357100Y-88092457D01*
X186357100Y-88268305D01*
X186357100Y-88268307D01*
X186357099Y-88268307D01*
X186382189Y-88394438D01*
X186382191Y-88394444D01*
X186431408Y-88513264D01*
X186502859Y-88620200D01*
X186836779Y-88954119D01*
X186870263Y-89015441D01*
X186872715Y-89051525D01*
X186869900Y-89087293D01*
X186869900Y-89566296D01*
X186850215Y-89633335D01*
X186833581Y-89653977D01*
X185928863Y-90558694D01*
X185928862Y-90558695D01*
X185911159Y-90585190D01*
X185864169Y-90655517D01*
X185864167Y-90655520D01*
X185857411Y-90665629D01*
X185857407Y-90665636D01*
X185808191Y-90784455D01*
X185808189Y-90784461D01*
X185783100Y-90910592D01*
X185783100Y-90910595D01*
X185783100Y-92393305D01*
X185783100Y-92393307D01*
X185783099Y-92393307D01*
X185805119Y-92504004D01*
X185808190Y-92519440D01*
X185808192Y-92519447D01*
X185857407Y-92638262D01*
X185928862Y-92745204D01*
X185928863Y-92745205D01*
X186338478Y-93154819D01*
X186371963Y-93216142D01*
X186366979Y-93285833D01*
X186325108Y-93341767D01*
X186259643Y-93366184D01*
X186250797Y-93366500D01*
X185578998Y-93366500D01*
X185578978Y-93366502D01*
X185544017Y-93370073D01*
X185475324Y-93357303D01*
X185443736Y-93334396D01*
X185025205Y-92915863D01*
X185025204Y-92915862D01*
X185017353Y-92910616D01*
X184918264Y-92844408D01*
X184871824Y-92825172D01*
X184799444Y-92795191D01*
X184799438Y-92795189D01*
X184673307Y-92770100D01*
X184673305Y-92770100D01*
X183653047Y-92770100D01*
X183586008Y-92750415D01*
X183540253Y-92697611D01*
X183529726Y-92633139D01*
X183530020Y-92630339D01*
X183536047Y-92573000D01*
X183517908Y-92400424D01*
X183464286Y-92235389D01*
X183449337Y-92209498D01*
X183432865Y-92141599D01*
X183449339Y-92085497D01*
X183463826Y-92060404D01*
X183517414Y-91895476D01*
X183517415Y-91895473D01*
X183535543Y-91723000D01*
X183517415Y-91550526D01*
X183517414Y-91550523D01*
X183463826Y-91385595D01*
X183439349Y-91343202D01*
X183040187Y-91742364D01*
X182978864Y-91775849D01*
X182926726Y-91775974D01*
X182902654Y-91770857D01*
X182906000Y-91762782D01*
X182906000Y-91683218D01*
X182875552Y-91609709D01*
X182819291Y-91553448D01*
X182745782Y-91523000D01*
X182666218Y-91523000D01*
X182592709Y-91553448D01*
X182536448Y-91609709D01*
X182513196Y-91665843D01*
X182504571Y-91605853D01*
X182533596Y-91542297D01*
X182539628Y-91535819D01*
X183055311Y-91020135D01*
X183116634Y-90986650D01*
X183177201Y-90990981D01*
X183201519Y-90990981D01*
X183213913Y-90978588D01*
X183317875Y-90823000D01*
X183317880Y-90822991D01*
X183389492Y-90650103D01*
X183389493Y-90650100D01*
X183394884Y-90623000D01*
X182642988Y-90623000D01*
X182660205Y-90613060D01*
X182716060Y-90557205D01*
X182755556Y-90488796D01*
X182776000Y-90412496D01*
X182776000Y-90333504D01*
X182755556Y-90257204D01*
X182716060Y-90188795D01*
X182660205Y-90132940D01*
X182642988Y-90123000D01*
X183394884Y-90123000D01*
X183394884Y-90122999D01*
X183389493Y-90095899D01*
X183389492Y-90095896D01*
X183317880Y-89923008D01*
X183317875Y-89922999D01*
X183213913Y-89767410D01*
X183213910Y-89767406D01*
X183081593Y-89635089D01*
X183081589Y-89635086D01*
X182926000Y-89531124D01*
X182925991Y-89531119D01*
X182753105Y-89459508D01*
X182753097Y-89459506D01*
X182569570Y-89423000D01*
X181976000Y-89423000D01*
X181976000Y-90073000D01*
X181476000Y-90073000D01*
X181476000Y-89423000D01*
X180882430Y-89423000D01*
X180698902Y-89459506D01*
X180698894Y-89459508D01*
X180526008Y-89531119D01*
X180525999Y-89531124D01*
X180370410Y-89635086D01*
X180370406Y-89635089D01*
X180238089Y-89767406D01*
X180238086Y-89767410D01*
X180134124Y-89922999D01*
X180134119Y-89923008D01*
X180062507Y-90095896D01*
X180062506Y-90095899D01*
X180057115Y-90122999D01*
X180057116Y-90123000D01*
X180809012Y-90123000D01*
X180791795Y-90132940D01*
X180735940Y-90188795D01*
X180696444Y-90257204D01*
X180676000Y-90333504D01*
X180676000Y-90412496D01*
X180696444Y-90488796D01*
X180735940Y-90557205D01*
X180791795Y-90613060D01*
X180809012Y-90623000D01*
X180057116Y-90623000D01*
X180062506Y-90650100D01*
X180062507Y-90650103D01*
X180134119Y-90822991D01*
X180134124Y-90823000D01*
X180238086Y-90978589D01*
X180238089Y-90978593D01*
X180370406Y-91110910D01*
X180370410Y-91110913D01*
X180525999Y-91214875D01*
X180526012Y-91214882D01*
X180533508Y-91217987D01*
X180587912Y-91261828D01*
X180609977Y-91328122D01*
X180600039Y-91379367D01*
X180600182Y-91379414D01*
X180599805Y-91380571D01*
X180599340Y-91382974D01*
X180598174Y-91385591D01*
X180544585Y-91550523D01*
X180544584Y-91550526D01*
X180526456Y-91723000D01*
X180544584Y-91895473D01*
X180544585Y-91895476D01*
X180598174Y-92060407D01*
X180598176Y-92060411D01*
X180612661Y-92085501D01*
X180629132Y-92153402D01*
X180612662Y-92209497D01*
X180597713Y-92235390D01*
X180550922Y-92379403D01*
X180544092Y-92400424D01*
X180525953Y-92573000D01*
X180544092Y-92745576D01*
X180544093Y-92745579D01*
X180597713Y-92910610D01*
X180597716Y-92910616D01*
X180612372Y-92936002D01*
X180628843Y-93003902D01*
X180612372Y-93059998D01*
X180597716Y-93085383D01*
X180597713Y-93085389D01*
X180544093Y-93250420D01*
X180544092Y-93250424D01*
X180525953Y-93423000D01*
X180544092Y-93595576D01*
X180544093Y-93595579D01*
X180597713Y-93760610D01*
X180597716Y-93760616D01*
X180612372Y-93786002D01*
X180628843Y-93853902D01*
X180612372Y-93909998D01*
X180597716Y-93935383D01*
X180597713Y-93935389D01*
X180544093Y-94100420D01*
X180544092Y-94100424D01*
X180525953Y-94273000D01*
X180544092Y-94445576D01*
X180544093Y-94445579D01*
X180597713Y-94610610D01*
X180597716Y-94610616D01*
X180612372Y-94636002D01*
X180628843Y-94703902D01*
X180612372Y-94759998D01*
X180597716Y-94785383D01*
X180597713Y-94785389D01*
X180549682Y-94933218D01*
X180544092Y-94950424D01*
X180525953Y-95123000D01*
X180531208Y-95173000D01*
X180535300Y-95211924D01*
X180522731Y-95280654D01*
X180474999Y-95331678D01*
X180447984Y-95343544D01*
X180442557Y-95345190D01*
X180323737Y-95394407D01*
X180216797Y-95465861D01*
X180216796Y-95465862D01*
X178943863Y-96738794D01*
X178943862Y-96738795D01*
X178877874Y-96837556D01*
X178877873Y-96837557D01*
X178872405Y-96845739D01*
X178823192Y-96964551D01*
X178823189Y-96964561D01*
X178798100Y-97090692D01*
X178798100Y-97949000D01*
X178778415Y-98016039D01*
X178725611Y-98061794D01*
X178674100Y-98073000D01*
X178596000Y-98073000D01*
X178596000Y-98723000D01*
X178096000Y-98723000D01*
X178096000Y-98073000D01*
X177852430Y-98073000D01*
X177668902Y-98109506D01*
X177668894Y-98109508D01*
X177496008Y-98181119D01*
X177495999Y-98181124D01*
X177340410Y-98285086D01*
X177340406Y-98285089D01*
X177208089Y-98417406D01*
X177208086Y-98417410D01*
X177104124Y-98572999D01*
X177104119Y-98573008D01*
X177032507Y-98745896D01*
X177032506Y-98745899D01*
X177027115Y-98772999D01*
X177027116Y-98773000D01*
X177779012Y-98773000D01*
X177761795Y-98782940D01*
X177705940Y-98838795D01*
X177666444Y-98907204D01*
X177646000Y-98983504D01*
X177646000Y-99062496D01*
X177666444Y-99138796D01*
X177705940Y-99207205D01*
X177761795Y-99263060D01*
X177779012Y-99273000D01*
X177027116Y-99273000D01*
X177032506Y-99300100D01*
X177032507Y-99300103D01*
X177104119Y-99472991D01*
X177104124Y-99473000D01*
X177208086Y-99628589D01*
X177208089Y-99628593D01*
X177340406Y-99760910D01*
X177340410Y-99760913D01*
X177495999Y-99864875D01*
X177496008Y-99864880D01*
X177668894Y-99936491D01*
X177668902Y-99936493D01*
X177852428Y-99972999D01*
X177852431Y-99973000D01*
X178096000Y-99973000D01*
X178096000Y-99323000D01*
X178596000Y-99323000D01*
X178596000Y-99973000D01*
X178839569Y-99973000D01*
X178839571Y-99972999D01*
X179023097Y-99936493D01*
X179023101Y-99936492D01*
X179037107Y-99930691D01*
X179106576Y-99923220D01*
X179169056Y-99954493D01*
X179201734Y-100006867D01*
X179201860Y-100006816D01*
X179202170Y-100007566D01*
X179203222Y-100009251D01*
X179204189Y-100012439D01*
X179204190Y-100012443D01*
X179204191Y-100012444D01*
X179253408Y-100131264D01*
X179324859Y-100238200D01*
X179324862Y-100238204D01*
X179324863Y-100238205D01*
X179663071Y-100576412D01*
X179696556Y-100637735D01*
X179691572Y-100707426D01*
X179667541Y-100747064D01*
X179607466Y-100813785D01*
X179512821Y-100977715D01*
X179512818Y-100977722D01*
X179454823Y-101156214D01*
X179454326Y-101157744D01*
X179436377Y-101328518D01*
X179434540Y-101346000D01*
X179435753Y-101357539D01*
X179423183Y-101426269D01*
X179375451Y-101477292D01*
X179312432Y-101494500D01*
X178339984Y-101494500D01*
X178237204Y-101505000D01*
X178237203Y-101505001D01*
X178070664Y-101560186D01*
X178070662Y-101560187D01*
X177921348Y-101652286D01*
X177921344Y-101652289D01*
X177797289Y-101776344D01*
X177797286Y-101776348D01*
X177705187Y-101925662D01*
X177705186Y-101925664D01*
X177650001Y-102092203D01*
X177650000Y-102092204D01*
X177639500Y-102194984D01*
X177639500Y-103545015D01*
X177650000Y-103647795D01*
X177650001Y-103647796D01*
X177705186Y-103814335D01*
X177705187Y-103814337D01*
X177797286Y-103963651D01*
X177797289Y-103963655D01*
X177921345Y-104087711D01*
X177921347Y-104087712D01*
X177921372Y-104087732D01*
X177921386Y-104087752D01*
X177926452Y-104092818D01*
X177925586Y-104093683D01*
X177961751Y-104144752D01*
X177965049Y-104199022D01*
X177967506Y-104199281D01*
X177966827Y-104205740D01*
X177966826Y-104205744D01*
X177947040Y-104394000D01*
X177966826Y-104582256D01*
X177966827Y-104582259D01*
X178025318Y-104762277D01*
X178025321Y-104762284D01*
X178119967Y-104926216D01*
X178182351Y-104995500D01*
X178231818Y-105050439D01*
X178262048Y-105113430D01*
X178253423Y-105182766D01*
X178208681Y-105236431D01*
X178203714Y-105239233D01*
X178203813Y-105239394D01*
X178048348Y-105335286D01*
X178048344Y-105335289D01*
X177924289Y-105459344D01*
X177924286Y-105459348D01*
X177832187Y-105608662D01*
X177832186Y-105608664D01*
X177777001Y-105775203D01*
X177777000Y-105775204D01*
X177766500Y-105877984D01*
X177766500Y-107228015D01*
X177777000Y-107330795D01*
X177777001Y-107330797D01*
X177782010Y-107345913D01*
X177832186Y-107497335D01*
X177832187Y-107497337D01*
X177924286Y-107646651D01*
X177924289Y-107646655D01*
X178048344Y-107770710D01*
X178048348Y-107770713D01*
X178069605Y-107783825D01*
X178116330Y-107835773D01*
X178127551Y-107904735D01*
X178122439Y-107927681D01*
X178093827Y-108015740D01*
X178093826Y-108015744D01*
X178074040Y-108204000D01*
X178093826Y-108392256D01*
X178093827Y-108392259D01*
X178152318Y-108572277D01*
X178152321Y-108572284D01*
X178246967Y-108736216D01*
X178340007Y-108839547D01*
X178373629Y-108876888D01*
X178526765Y-108988148D01*
X178526770Y-108988151D01*
X178699692Y-109065142D01*
X178699697Y-109065144D01*
X178884854Y-109104500D01*
X178884855Y-109104500D01*
X179074144Y-109104500D01*
X179074146Y-109104500D01*
X179259303Y-109065144D01*
X179432230Y-108988151D01*
X179585371Y-108876888D01*
X179597950Y-108862917D01*
X179657435Y-108826269D01*
X179727292Y-108827598D01*
X179785341Y-108866484D01*
X179813151Y-108930580D01*
X179814100Y-108945889D01*
X179814100Y-109432385D01*
X179794415Y-109499424D01*
X179757138Y-109536702D01*
X179726522Y-109556377D01*
X179725079Y-109557198D01*
X179720901Y-109559988D01*
X179612169Y-109654207D01*
X179612166Y-109654210D01*
X179518018Y-109762864D01*
X179518015Y-109762867D01*
X179440231Y-109883905D01*
X179440223Y-109883918D01*
X179383263Y-110008643D01*
X179381015Y-110012939D01*
X179339966Y-110152738D01*
X179339963Y-110152748D01*
X179319503Y-110295059D01*
X179319503Y-110351399D01*
X179319500Y-110351409D01*
X179319500Y-110882573D01*
X179319503Y-110882601D01*
X179319503Y-110938939D01*
X179338703Y-111072478D01*
X179338703Y-111072481D01*
X179339964Y-111081255D01*
X179380503Y-111219313D01*
X179440223Y-111350081D01*
X179440227Y-111350087D01*
X179440230Y-111350094D01*
X179500749Y-111444264D01*
X179518015Y-111471132D01*
X179518018Y-111471136D01*
X179612152Y-111579773D01*
X179612168Y-111579791D01*
X179612171Y-111579794D01*
X179720909Y-111674015D01*
X179781386Y-111712881D01*
X179841857Y-111751744D01*
X179841863Y-111751747D01*
X179972741Y-111811517D01*
X180110696Y-111852024D01*
X180253111Y-111872500D01*
X180253114Y-111872500D01*
X180825000Y-111872500D01*
X180896940Y-111867355D01*
X180934259Y-111856396D01*
X180986841Y-111852636D01*
X181125000Y-111872500D01*
X181125003Y-111872500D01*
X181696886Y-111872500D01*
X181696889Y-111872500D01*
X181839304Y-111852024D01*
X181977259Y-111811517D01*
X182108137Y-111751747D01*
X182223477Y-111677622D01*
X182224915Y-111676804D01*
X182229098Y-111674011D01*
X182278017Y-111631620D01*
X182337832Y-111579791D01*
X182431986Y-111471130D01*
X182509770Y-111350094D01*
X182566742Y-111225342D01*
X182568986Y-111221053D01*
X182569498Y-111219308D01*
X182569499Y-111219308D01*
X182610035Y-111081256D01*
X182611878Y-111068442D01*
X182623621Y-110986762D01*
X182630497Y-110938941D01*
X182630497Y-110882601D01*
X182630500Y-110882590D01*
X182630500Y-110758900D01*
X182650185Y-110691861D01*
X182702989Y-110646106D01*
X182754500Y-110634900D01*
X183844550Y-110634900D01*
X183911589Y-110654585D01*
X183957344Y-110707389D01*
X183967288Y-110776547D01*
X183938263Y-110840103D01*
X183932231Y-110846581D01*
X183882276Y-110896535D01*
X183882272Y-110896540D01*
X183757379Y-111068442D01*
X183660904Y-111257782D01*
X183595242Y-111459869D01*
X183595242Y-111459872D01*
X183562000Y-111669753D01*
X183562000Y-112526000D01*
X184478988Y-112526000D01*
X184446075Y-112583007D01*
X184412000Y-112710174D01*
X184412000Y-112841826D01*
X184446075Y-112968993D01*
X184478988Y-113026000D01*
X183562000Y-113026000D01*
X183562000Y-113882246D01*
X183595242Y-114092127D01*
X183595242Y-114092130D01*
X183660904Y-114294217D01*
X183757379Y-114483557D01*
X183882272Y-114655459D01*
X183882276Y-114655464D01*
X184032535Y-114805723D01*
X184032540Y-114805727D01*
X184204442Y-114930620D01*
X184393782Y-115027095D01*
X184595871Y-115092757D01*
X184662000Y-115103231D01*
X184662000Y-113209012D01*
X184719007Y-113241925D01*
X184846174Y-113276000D01*
X184977826Y-113276000D01*
X185104993Y-113241925D01*
X185162000Y-113209012D01*
X185162000Y-115103230D01*
X185228126Y-115092757D01*
X185228129Y-115092757D01*
X185430217Y-115027095D01*
X185619557Y-114930620D01*
X185791459Y-114805727D01*
X185791464Y-114805723D01*
X185941723Y-114655464D01*
X185941727Y-114655459D01*
X186066620Y-114483558D01*
X186071232Y-114474507D01*
X186119205Y-114423709D01*
X186187025Y-114406912D01*
X186253161Y-114429447D01*
X186292204Y-114474504D01*
X186296949Y-114483817D01*
X186421890Y-114655786D01*
X186572213Y-114806109D01*
X186744179Y-114931048D01*
X186744181Y-114931049D01*
X186744184Y-114931051D01*
X186933588Y-115027557D01*
X187135757Y-115093246D01*
X187345713Y-115126500D01*
X187345714Y-115126500D01*
X187558286Y-115126500D01*
X187558287Y-115126500D01*
X187768243Y-115093246D01*
X187970412Y-115027557D01*
X188159816Y-114931051D01*
X188181789Y-114915086D01*
X188331786Y-114806109D01*
X188331788Y-114806106D01*
X188331792Y-114806104D01*
X188482104Y-114655792D01*
X188482106Y-114655788D01*
X188482109Y-114655786D01*
X188607048Y-114483820D01*
X188607047Y-114483820D01*
X188607051Y-114483816D01*
X188611514Y-114475054D01*
X188659488Y-114424259D01*
X188727308Y-114407463D01*
X188793444Y-114429999D01*
X188832484Y-114475054D01*
X188836591Y-114483115D01*
X188836951Y-114483820D01*
X188961890Y-114655786D01*
X189112213Y-114806109D01*
X189284179Y-114931048D01*
X189284181Y-114931049D01*
X189284184Y-114931051D01*
X189473588Y-115027557D01*
X189675757Y-115093246D01*
X189885713Y-115126500D01*
X189885714Y-115126500D01*
X190098286Y-115126500D01*
X190098287Y-115126500D01*
X190308243Y-115093246D01*
X190510412Y-115027557D01*
X190699816Y-114931051D01*
X190721789Y-114915086D01*
X190871786Y-114806109D01*
X190871788Y-114806106D01*
X190871792Y-114806104D01*
X191022104Y-114655792D01*
X191022106Y-114655788D01*
X191022109Y-114655786D01*
X191147048Y-114483820D01*
X191147047Y-114483820D01*
X191147051Y-114483816D01*
X191151514Y-114475054D01*
X191199488Y-114424259D01*
X191267308Y-114407463D01*
X191333444Y-114429999D01*
X191372484Y-114475054D01*
X191376591Y-114483115D01*
X191376951Y-114483820D01*
X191501890Y-114655786D01*
X191652213Y-114806109D01*
X191824179Y-114931048D01*
X191824181Y-114931049D01*
X191824184Y-114931051D01*
X192013588Y-115027557D01*
X192215757Y-115093246D01*
X192425713Y-115126500D01*
X192425714Y-115126500D01*
X192638286Y-115126500D01*
X192638287Y-115126500D01*
X192848243Y-115093246D01*
X193050412Y-115027557D01*
X193239816Y-114931051D01*
X193261789Y-114915086D01*
X193411786Y-114806109D01*
X193411788Y-114806106D01*
X193411792Y-114806104D01*
X193562104Y-114655792D01*
X193562106Y-114655788D01*
X193562109Y-114655786D01*
X193687048Y-114483820D01*
X193687047Y-114483820D01*
X193687051Y-114483816D01*
X193691514Y-114475054D01*
X193739488Y-114424259D01*
X193807308Y-114407463D01*
X193873444Y-114429999D01*
X193912484Y-114475054D01*
X193916591Y-114483115D01*
X193916951Y-114483820D01*
X194041890Y-114655786D01*
X194192213Y-114806109D01*
X194364179Y-114931048D01*
X194364181Y-114931049D01*
X194364184Y-114931051D01*
X194553588Y-115027557D01*
X194755757Y-115093246D01*
X194965713Y-115126500D01*
X194965714Y-115126500D01*
X195178286Y-115126500D01*
X195178287Y-115126500D01*
X195388243Y-115093246D01*
X195590412Y-115027557D01*
X195779816Y-114931051D01*
X195801789Y-114915086D01*
X195951786Y-114806109D01*
X195951788Y-114806106D01*
X195951792Y-114806104D01*
X196102104Y-114655792D01*
X196102106Y-114655788D01*
X196102109Y-114655786D01*
X196227048Y-114483820D01*
X196227047Y-114483820D01*
X196227051Y-114483816D01*
X196231514Y-114475054D01*
X196279488Y-114424259D01*
X196347308Y-114407463D01*
X196413444Y-114429999D01*
X196452484Y-114475054D01*
X196456591Y-114483115D01*
X196456951Y-114483820D01*
X196581890Y-114655786D01*
X196732213Y-114806109D01*
X196904179Y-114931048D01*
X196904181Y-114931049D01*
X196904184Y-114931051D01*
X197093588Y-115027557D01*
X197295757Y-115093246D01*
X197505713Y-115126500D01*
X197505714Y-115126500D01*
X197718286Y-115126500D01*
X197718287Y-115126500D01*
X197928243Y-115093246D01*
X198130412Y-115027557D01*
X198319816Y-114931051D01*
X198341789Y-114915086D01*
X198491786Y-114806109D01*
X198491788Y-114806106D01*
X198491792Y-114806104D01*
X198642104Y-114655792D01*
X198642106Y-114655788D01*
X198642109Y-114655786D01*
X198767048Y-114483820D01*
X198767047Y-114483820D01*
X198767051Y-114483816D01*
X198771514Y-114475054D01*
X198819488Y-114424259D01*
X198887308Y-114407463D01*
X198953444Y-114429999D01*
X198992484Y-114475054D01*
X198996591Y-114483115D01*
X198996951Y-114483820D01*
X199121890Y-114655786D01*
X199272213Y-114806109D01*
X199444179Y-114931048D01*
X199444181Y-114931049D01*
X199444184Y-114931051D01*
X199633588Y-115027557D01*
X199835757Y-115093246D01*
X200045713Y-115126500D01*
X200045714Y-115126500D01*
X200258286Y-115126500D01*
X200258287Y-115126500D01*
X200468243Y-115093246D01*
X200670412Y-115027557D01*
X200859816Y-114931051D01*
X200881789Y-114915086D01*
X201031786Y-114806109D01*
X201031788Y-114806106D01*
X201031792Y-114806104D01*
X201182104Y-114655792D01*
X201182106Y-114655788D01*
X201182109Y-114655786D01*
X201307048Y-114483820D01*
X201307047Y-114483820D01*
X201307051Y-114483816D01*
X201311514Y-114475054D01*
X201359488Y-114424259D01*
X201427308Y-114407463D01*
X201493444Y-114429999D01*
X201532484Y-114475054D01*
X201536591Y-114483115D01*
X201536951Y-114483820D01*
X201661890Y-114655786D01*
X201812213Y-114806109D01*
X201984179Y-114931048D01*
X201984181Y-114931049D01*
X201984184Y-114931051D01*
X202173588Y-115027557D01*
X202375757Y-115093246D01*
X202585713Y-115126500D01*
X202585714Y-115126500D01*
X202798286Y-115126500D01*
X202798287Y-115126500D01*
X203008243Y-115093246D01*
X203210412Y-115027557D01*
X203399816Y-114931051D01*
X203421789Y-114915086D01*
X203571786Y-114806109D01*
X203571788Y-114806106D01*
X203571792Y-114806104D01*
X203722104Y-114655792D01*
X203722106Y-114655788D01*
X203722109Y-114655786D01*
X203847048Y-114483820D01*
X203847047Y-114483820D01*
X203847051Y-114483816D01*
X203851514Y-114475054D01*
X203899488Y-114424259D01*
X203967308Y-114407463D01*
X204033444Y-114429999D01*
X204072484Y-114475054D01*
X204076591Y-114483115D01*
X204076951Y-114483820D01*
X204201890Y-114655786D01*
X204352213Y-114806109D01*
X204524179Y-114931048D01*
X204524181Y-114931049D01*
X204524184Y-114931051D01*
X204713588Y-115027557D01*
X204915757Y-115093246D01*
X205125713Y-115126500D01*
X205125714Y-115126500D01*
X205338286Y-115126500D01*
X205338287Y-115126500D01*
X205548243Y-115093246D01*
X205750412Y-115027557D01*
X205939816Y-114931051D01*
X205961789Y-114915086D01*
X206111786Y-114806109D01*
X206111788Y-114806106D01*
X206111792Y-114806104D01*
X206262104Y-114655792D01*
X206262106Y-114655788D01*
X206262109Y-114655786D01*
X206387048Y-114483820D01*
X206387047Y-114483820D01*
X206387051Y-114483816D01*
X206391514Y-114475054D01*
X206439488Y-114424259D01*
X206507308Y-114407463D01*
X206573444Y-114429999D01*
X206612484Y-114475054D01*
X206616591Y-114483115D01*
X206616951Y-114483820D01*
X206741890Y-114655786D01*
X206892213Y-114806109D01*
X207064179Y-114931048D01*
X207064181Y-114931049D01*
X207064184Y-114931051D01*
X207253588Y-115027557D01*
X207455757Y-115093246D01*
X207665713Y-115126500D01*
X207665714Y-115126500D01*
X207878286Y-115126500D01*
X207878287Y-115126500D01*
X208088243Y-115093246D01*
X208290412Y-115027557D01*
X208479816Y-114931051D01*
X208501789Y-114915086D01*
X208651786Y-114806109D01*
X208651788Y-114806106D01*
X208651792Y-114806104D01*
X208802104Y-114655792D01*
X208802106Y-114655788D01*
X208802109Y-114655786D01*
X208927048Y-114483820D01*
X208927047Y-114483820D01*
X208927051Y-114483816D01*
X208931514Y-114475054D01*
X208979488Y-114424259D01*
X209047308Y-114407463D01*
X209113444Y-114429999D01*
X209152484Y-114475054D01*
X209156591Y-114483115D01*
X209156951Y-114483820D01*
X209281890Y-114655786D01*
X209432213Y-114806109D01*
X209604179Y-114931048D01*
X209604181Y-114931049D01*
X209604184Y-114931051D01*
X209793588Y-115027557D01*
X209995757Y-115093246D01*
X210205713Y-115126500D01*
X210205714Y-115126500D01*
X210418286Y-115126500D01*
X210418287Y-115126500D01*
X210628243Y-115093246D01*
X210830412Y-115027557D01*
X211019816Y-114931051D01*
X211041789Y-114915086D01*
X211191786Y-114806109D01*
X211191788Y-114806106D01*
X211191792Y-114806104D01*
X211342104Y-114655792D01*
X211342106Y-114655788D01*
X211342109Y-114655786D01*
X211467048Y-114483820D01*
X211467047Y-114483820D01*
X211467051Y-114483816D01*
X211471514Y-114475054D01*
X211519488Y-114424259D01*
X211587308Y-114407463D01*
X211653444Y-114429999D01*
X211692484Y-114475054D01*
X211696591Y-114483115D01*
X211696951Y-114483820D01*
X211821890Y-114655786D01*
X211972213Y-114806109D01*
X212144179Y-114931048D01*
X212144181Y-114931049D01*
X212144184Y-114931051D01*
X212333588Y-115027557D01*
X212535757Y-115093246D01*
X212745713Y-115126500D01*
X212745714Y-115126500D01*
X212958286Y-115126500D01*
X212958287Y-115126500D01*
X213168243Y-115093246D01*
X213370412Y-115027557D01*
X213559816Y-114931051D01*
X213581789Y-114915086D01*
X213731786Y-114806109D01*
X213731788Y-114806106D01*
X213731792Y-114806104D01*
X213882104Y-114655792D01*
X213882106Y-114655788D01*
X213882109Y-114655786D01*
X214007048Y-114483820D01*
X214007047Y-114483820D01*
X214007051Y-114483816D01*
X214011514Y-114475054D01*
X214059488Y-114424259D01*
X214127308Y-114407463D01*
X214193444Y-114429999D01*
X214232484Y-114475054D01*
X214236591Y-114483115D01*
X214236951Y-114483820D01*
X214361890Y-114655786D01*
X214512213Y-114806109D01*
X214684179Y-114931048D01*
X214684181Y-114931049D01*
X214684184Y-114931051D01*
X214873588Y-115027557D01*
X215075757Y-115093246D01*
X215285713Y-115126500D01*
X215285714Y-115126500D01*
X215498286Y-115126500D01*
X215498287Y-115126500D01*
X215708243Y-115093246D01*
X215910412Y-115027557D01*
X216099816Y-114931051D01*
X216121789Y-114915086D01*
X216271786Y-114806109D01*
X216271788Y-114806106D01*
X216271792Y-114806104D01*
X216422104Y-114655792D01*
X216422106Y-114655788D01*
X216422109Y-114655786D01*
X216547048Y-114483820D01*
X216547047Y-114483820D01*
X216547051Y-114483816D01*
X216551514Y-114475054D01*
X216599488Y-114424259D01*
X216667308Y-114407463D01*
X216733444Y-114429999D01*
X216772484Y-114475054D01*
X216776591Y-114483115D01*
X216776951Y-114483820D01*
X216901890Y-114655786D01*
X217052213Y-114806109D01*
X217224179Y-114931048D01*
X217224181Y-114931049D01*
X217224184Y-114931051D01*
X217413588Y-115027557D01*
X217615757Y-115093246D01*
X217825713Y-115126500D01*
X217825714Y-115126500D01*
X218038286Y-115126500D01*
X218038287Y-115126500D01*
X218248243Y-115093246D01*
X218450412Y-115027557D01*
X218639816Y-114931051D01*
X218661789Y-114915086D01*
X218811786Y-114806109D01*
X218811788Y-114806106D01*
X218811792Y-114806104D01*
X218962104Y-114655792D01*
X218962106Y-114655788D01*
X218962109Y-114655786D01*
X219087048Y-114483820D01*
X219087051Y-114483816D01*
X219091793Y-114474508D01*
X219139763Y-114423711D01*
X219207583Y-114406911D01*
X219273719Y-114429445D01*
X219312763Y-114474500D01*
X219317377Y-114483555D01*
X219442272Y-114655459D01*
X219442276Y-114655464D01*
X219592535Y-114805723D01*
X219592540Y-114805727D01*
X219764442Y-114930620D01*
X219953782Y-115027095D01*
X220155871Y-115092757D01*
X220222000Y-115103231D01*
X220222000Y-113209012D01*
X220279007Y-113241925D01*
X220406174Y-113276000D01*
X220537826Y-113276000D01*
X220664993Y-113241925D01*
X220722000Y-113209012D01*
X220722000Y-115103230D01*
X220788126Y-115092757D01*
X220788129Y-115092757D01*
X220990217Y-115027095D01*
X221179557Y-114930620D01*
X221351459Y-114805727D01*
X221351464Y-114805723D01*
X221501723Y-114655464D01*
X221501727Y-114655459D01*
X221626620Y-114483557D01*
X221723095Y-114294217D01*
X221788757Y-114092130D01*
X221788757Y-114092127D01*
X221822000Y-113882246D01*
X221822000Y-113026000D01*
X220905012Y-113026000D01*
X220937925Y-112968993D01*
X220972000Y-112841826D01*
X220972000Y-112710174D01*
X220937925Y-112583007D01*
X220905012Y-112526000D01*
X221822000Y-112526000D01*
X221822000Y-111669753D01*
X221788757Y-111459872D01*
X221788757Y-111459869D01*
X221723095Y-111257782D01*
X221626620Y-111068442D01*
X221501727Y-110896540D01*
X221501723Y-110896535D01*
X221351464Y-110746276D01*
X221351459Y-110746272D01*
X221179557Y-110621379D01*
X220990215Y-110524903D01*
X220788124Y-110459241D01*
X220722000Y-110448768D01*
X220722000Y-112342988D01*
X220664993Y-112310075D01*
X220537826Y-112276000D01*
X220406174Y-112276000D01*
X220279007Y-112310075D01*
X220222000Y-112342988D01*
X220222000Y-110448768D01*
X220221999Y-110448768D01*
X220155875Y-110459241D01*
X219953784Y-110524903D01*
X219764442Y-110621379D01*
X219592540Y-110746272D01*
X219592535Y-110746276D01*
X219442276Y-110896535D01*
X219442272Y-110896540D01*
X219317378Y-111068443D01*
X219312762Y-111077502D01*
X219264784Y-111128295D01*
X219196963Y-111145087D01*
X219130829Y-111122546D01*
X219091794Y-111077493D01*
X219087051Y-111068184D01*
X219087049Y-111068181D01*
X219087048Y-111068179D01*
X218962109Y-110896213D01*
X218811790Y-110745894D01*
X218811785Y-110745890D01*
X218659144Y-110634990D01*
X218616478Y-110579660D01*
X218610499Y-110510047D01*
X218643105Y-110448252D01*
X218644278Y-110447061D01*
X219582140Y-109509200D01*
X219653592Y-109402264D01*
X219702809Y-109283444D01*
X219707509Y-109259814D01*
X219708226Y-109256212D01*
X219740610Y-109194301D01*
X219801326Y-109159727D01*
X219871096Y-109163466D01*
X219894939Y-109174864D01*
X220032659Y-109259810D01*
X220032660Y-109259810D01*
X220032666Y-109259814D01*
X220199203Y-109314999D01*
X220301991Y-109325500D01*
X221202008Y-109325499D01*
X221202016Y-109325498D01*
X221202019Y-109325498D01*
X221258302Y-109319748D01*
X221304797Y-109314999D01*
X221471334Y-109259814D01*
X221620656Y-109167712D01*
X221744712Y-109043656D01*
X221836814Y-108894334D01*
X221891999Y-108727797D01*
X221901642Y-108633408D01*
X221928038Y-108568717D01*
X221985219Y-108528565D01*
X222055030Y-108525702D01*
X222115307Y-108561036D01*
X222146912Y-108623349D01*
X222149000Y-108646011D01*
X222149000Y-114780366D01*
X222129315Y-114847405D01*
X222129315Y-114847406D01*
X222010925Y-115031623D01*
X222000323Y-115045786D01*
X221824828Y-115248319D01*
X221812318Y-115260829D01*
X221609789Y-115436322D01*
X221595625Y-115446925D01*
X221370178Y-115591810D01*
X221354650Y-115600288D01*
X221110890Y-115711609D01*
X221094314Y-115717792D01*
X220837185Y-115793292D01*
X220819897Y-115797053D01*
X220553536Y-115835350D01*
X220538101Y-115836592D01*
X220407818Y-115838916D01*
X220404120Y-115838982D01*
X220401910Y-115839002D01*
X183403586Y-115839002D01*
X183402454Y-115838997D01*
X183145236Y-115836649D01*
X183137101Y-115836307D01*
X182623598Y-115797824D01*
X182614384Y-115796786D01*
X182105743Y-115720121D01*
X182096632Y-115718397D01*
X181595143Y-115603936D01*
X181586186Y-115601536D01*
X181094647Y-115449917D01*
X181085894Y-115446854D01*
X180607079Y-115258933D01*
X180598579Y-115255225D01*
X180135126Y-115032037D01*
X180126928Y-115027704D01*
X179742444Y-114805723D01*
X179681463Y-114770515D01*
X179673615Y-114765585D01*
X179512097Y-114655464D01*
X179248596Y-114475811D01*
X179241137Y-114470306D01*
X179162334Y-114407463D01*
X179020329Y-114294217D01*
X178838980Y-114149596D01*
X178831952Y-114143548D01*
X178454873Y-113793671D01*
X178448327Y-113787125D01*
X178098455Y-113410052D01*
X178092410Y-113403028D01*
X177897964Y-113159201D01*
X177771688Y-113000856D01*
X177766187Y-112993403D01*
X177496939Y-112598489D01*
X177476408Y-112568376D01*
X177471489Y-112560545D01*
X177214296Y-112115073D01*
X177209963Y-112106875D01*
X176986775Y-111643422D01*
X176983067Y-111634922D01*
X176918786Y-111471136D01*
X176795142Y-111156096D01*
X176792083Y-111147355D01*
X176791383Y-111145087D01*
X176640460Y-110655806D01*
X176638063Y-110646858D01*
X176637891Y-110646106D01*
X176525284Y-110152738D01*
X176523602Y-110145369D01*
X176521878Y-110136258D01*
X176485797Y-109896878D01*
X176445212Y-109627615D01*
X176444175Y-109618403D01*
X176437000Y-109522663D01*
X176405690Y-109104873D01*
X176405351Y-109096790D01*
X176403005Y-108839547D01*
X176403000Y-108838417D01*
X176403000Y-90122999D01*
X177027115Y-90122999D01*
X177027116Y-90123000D01*
X177779012Y-90123000D01*
X177761795Y-90132940D01*
X177705940Y-90188795D01*
X177666444Y-90257204D01*
X177646000Y-90333504D01*
X177646000Y-90412496D01*
X177666444Y-90488796D01*
X177705940Y-90557205D01*
X177761795Y-90613060D01*
X177779012Y-90623000D01*
X177027116Y-90623000D01*
X177032506Y-90650100D01*
X177032507Y-90650103D01*
X177104119Y-90822991D01*
X177104124Y-90823000D01*
X177208086Y-90978589D01*
X177208089Y-90978593D01*
X177340406Y-91110910D01*
X177340410Y-91110913D01*
X177495999Y-91214875D01*
X177496008Y-91214880D01*
X177668894Y-91286491D01*
X177668902Y-91286493D01*
X177852428Y-91322999D01*
X177852431Y-91323000D01*
X178096000Y-91323000D01*
X178096000Y-90673000D01*
X178596000Y-90673000D01*
X178596000Y-91323000D01*
X178839569Y-91323000D01*
X178839571Y-91322999D01*
X179023097Y-91286493D01*
X179023105Y-91286491D01*
X179195991Y-91214880D01*
X179196000Y-91214875D01*
X179351589Y-91110913D01*
X179351593Y-91110910D01*
X179483910Y-90978593D01*
X179483913Y-90978589D01*
X179587875Y-90823000D01*
X179587880Y-90822991D01*
X179659492Y-90650103D01*
X179659493Y-90650100D01*
X179664884Y-90623000D01*
X178912988Y-90623000D01*
X178930205Y-90613060D01*
X178986060Y-90557205D01*
X179025556Y-90488796D01*
X179046000Y-90412496D01*
X179046000Y-90333504D01*
X179025556Y-90257204D01*
X178986060Y-90188795D01*
X178930205Y-90132940D01*
X178912988Y-90123000D01*
X179664884Y-90123000D01*
X179664884Y-90122999D01*
X179659493Y-90095899D01*
X179659492Y-90095896D01*
X179587880Y-89923008D01*
X179587875Y-89922999D01*
X179483913Y-89767410D01*
X179483910Y-89767406D01*
X179351593Y-89635089D01*
X179351589Y-89635086D01*
X179196000Y-89531124D01*
X179195991Y-89531119D01*
X179023105Y-89459508D01*
X179023097Y-89459506D01*
X178839570Y-89423000D01*
X178596000Y-89423000D01*
X178596000Y-90073000D01*
X178096000Y-90073000D01*
X178096000Y-89423000D01*
X177852430Y-89423000D01*
X177668902Y-89459506D01*
X177668894Y-89459508D01*
X177496008Y-89531119D01*
X177495999Y-89531124D01*
X177340410Y-89635086D01*
X177340406Y-89635089D01*
X177208089Y-89767406D01*
X177208086Y-89767410D01*
X177104124Y-89922999D01*
X177104119Y-89923008D01*
X177032507Y-90095896D01*
X177032506Y-90095899D01*
X177027115Y-90122999D01*
X176403000Y-90122999D01*
X176403000Y-88432015D01*
X177639500Y-88432015D01*
X177650000Y-88534795D01*
X177650001Y-88534797D01*
X177665827Y-88582556D01*
X177705186Y-88701335D01*
X177705187Y-88701337D01*
X177797286Y-88850651D01*
X177797289Y-88850655D01*
X177921344Y-88974710D01*
X177921348Y-88974713D01*
X178070662Y-89066812D01*
X178070664Y-89066813D01*
X178070666Y-89066814D01*
X178237203Y-89121999D01*
X178339992Y-89132500D01*
X178339997Y-89132500D01*
X179365003Y-89132500D01*
X179365008Y-89132500D01*
X179467797Y-89121999D01*
X179634334Y-89066814D01*
X179783655Y-88974711D01*
X179907711Y-88850655D01*
X179999814Y-88701334D01*
X180054999Y-88534797D01*
X180065500Y-88432008D01*
X180065500Y-88007000D01*
X180615000Y-88007000D01*
X180615000Y-88431985D01*
X180625493Y-88534689D01*
X180625494Y-88534696D01*
X180680641Y-88701118D01*
X180680643Y-88701123D01*
X180772684Y-88850344D01*
X180896655Y-88974315D01*
X181045876Y-89066356D01*
X181045881Y-89066358D01*
X181212303Y-89121505D01*
X181212310Y-89121506D01*
X181315014Y-89131999D01*
X181315027Y-89132000D01*
X181577500Y-89132000D01*
X181577500Y-88007000D01*
X180615000Y-88007000D01*
X180065500Y-88007000D01*
X180065500Y-87507000D01*
X180615000Y-87507000D01*
X181577500Y-87507000D01*
X181577500Y-86382000D01*
X182077500Y-86382000D01*
X182077500Y-89132000D01*
X182339973Y-89132000D01*
X182339985Y-89131999D01*
X182442689Y-89121506D01*
X182442696Y-89121505D01*
X182609118Y-89066358D01*
X182609123Y-89066356D01*
X182758344Y-88974315D01*
X182882315Y-88850344D01*
X182961770Y-88721528D01*
X183013718Y-88674804D01*
X183082681Y-88663581D01*
X183146763Y-88691425D01*
X183185014Y-88747619D01*
X183196186Y-88781334D01*
X183288288Y-88930656D01*
X183412344Y-89054712D01*
X183561666Y-89146814D01*
X183578817Y-89152497D01*
X183636262Y-89192269D01*
X183663086Y-89256785D01*
X183657745Y-89308520D01*
X183645327Y-89346739D01*
X183645326Y-89346741D01*
X183645326Y-89346744D01*
X183625540Y-89535000D01*
X183645326Y-89723256D01*
X183645327Y-89723259D01*
X183703818Y-89903277D01*
X183703821Y-89903284D01*
X183798467Y-90067216D01*
X183889724Y-90168567D01*
X183925129Y-90207888D01*
X184078265Y-90319148D01*
X184078270Y-90319151D01*
X184251192Y-90396142D01*
X184251197Y-90396144D01*
X184436354Y-90435500D01*
X184436355Y-90435500D01*
X184625644Y-90435500D01*
X184625646Y-90435500D01*
X184810803Y-90396144D01*
X184983730Y-90319151D01*
X185136871Y-90207888D01*
X185263533Y-90067216D01*
X185358179Y-89903284D01*
X185416674Y-89723256D01*
X185436460Y-89535000D01*
X185416674Y-89346744D01*
X185404253Y-89308519D01*
X185402258Y-89238681D01*
X185438338Y-89178848D01*
X185483178Y-89152498D01*
X185500334Y-89146814D01*
X185649656Y-89054712D01*
X185773712Y-88930656D01*
X185865814Y-88781334D01*
X185920999Y-88614797D01*
X185931500Y-88512009D01*
X185931499Y-87586992D01*
X185920999Y-87484203D01*
X185865814Y-87317666D01*
X185773712Y-87168344D01*
X185649656Y-87044288D01*
X185544136Y-86979203D01*
X185500336Y-86952187D01*
X185500331Y-86952185D01*
X185488067Y-86948121D01*
X185333797Y-86897001D01*
X185333795Y-86897000D01*
X185231010Y-86886500D01*
X183830998Y-86886500D01*
X183830981Y-86886501D01*
X183728203Y-86897000D01*
X183728200Y-86897001D01*
X183561668Y-86952185D01*
X183561663Y-86952187D01*
X183412342Y-87044289D01*
X183288287Y-87168344D01*
X183269538Y-87198742D01*
X183217590Y-87245466D01*
X183148627Y-87256687D01*
X183084545Y-87228843D01*
X183045690Y-87170774D01*
X183040000Y-87133644D01*
X183040000Y-87082027D01*
X183039999Y-87082014D01*
X183029506Y-86979310D01*
X183029505Y-86979303D01*
X182974358Y-86812881D01*
X182974356Y-86812876D01*
X182882315Y-86663655D01*
X182758344Y-86539684D01*
X182609123Y-86447643D01*
X182609118Y-86447641D01*
X182442696Y-86392494D01*
X182442689Y-86392493D01*
X182339985Y-86382000D01*
X182077500Y-86382000D01*
X181577500Y-86382000D01*
X181315014Y-86382000D01*
X181212310Y-86392493D01*
X181212303Y-86392494D01*
X181045881Y-86447641D01*
X181045876Y-86447643D01*
X180896655Y-86539684D01*
X180772684Y-86663655D01*
X180680643Y-86812876D01*
X180680641Y-86812881D01*
X180625494Y-86979303D01*
X180625493Y-86979310D01*
X180615000Y-87082014D01*
X180615000Y-87507000D01*
X180065500Y-87507000D01*
X180065500Y-87081992D01*
X180054999Y-86979203D01*
X179999814Y-86812666D01*
X179973231Y-86769569D01*
X179907713Y-86663348D01*
X179907710Y-86663344D01*
X179783654Y-86539288D01*
X179634339Y-86447188D01*
X179634334Y-86447186D01*
X179590395Y-86432626D01*
X179532950Y-86392853D01*
X179506128Y-86328336D01*
X179505400Y-86314920D01*
X179505400Y-85455447D01*
X179525085Y-85388408D01*
X179564302Y-85349909D01*
X179658656Y-85291712D01*
X179782712Y-85167656D01*
X179874814Y-85018334D01*
X179929999Y-84851797D01*
X179940500Y-84749009D01*
X179940499Y-83398992D01*
X179929999Y-83296203D01*
X179874814Y-83129666D01*
X179782712Y-82980344D01*
X179658656Y-82856288D01*
X179509334Y-82764186D01*
X179342797Y-82709001D01*
X179342795Y-82709000D01*
X179240010Y-82698500D01*
X178339998Y-82698500D01*
X178339980Y-82698501D01*
X178237203Y-82709000D01*
X178237200Y-82709001D01*
X178070668Y-82764185D01*
X178070663Y-82764187D01*
X177921342Y-82856289D01*
X177797289Y-82980342D01*
X177705187Y-83129663D01*
X177705186Y-83129666D01*
X177650001Y-83296203D01*
X177650001Y-83296204D01*
X177650000Y-83296204D01*
X177639500Y-83398983D01*
X177639500Y-84749001D01*
X177639501Y-84749018D01*
X177650000Y-84851796D01*
X177650001Y-84851799D01*
X177702313Y-85009663D01*
X177705186Y-85018334D01*
X177797288Y-85167656D01*
X177921344Y-85291712D01*
X178070666Y-85383814D01*
X178114605Y-85398373D01*
X178172049Y-85438145D01*
X178198872Y-85502661D01*
X178199600Y-85516079D01*
X178199600Y-86314920D01*
X178179915Y-86381959D01*
X178127111Y-86427714D01*
X178114605Y-86432626D01*
X178070665Y-86447186D01*
X178070660Y-86447188D01*
X177921345Y-86539288D01*
X177797289Y-86663344D01*
X177797286Y-86663348D01*
X177705187Y-86812662D01*
X177705186Y-86812664D01*
X177650001Y-86979203D01*
X177650000Y-86979204D01*
X177639500Y-87081984D01*
X177639500Y-88432015D01*
X176403000Y-88432015D01*
X176403000Y-81839588D01*
X176403005Y-81838457D01*
X176403407Y-81794416D01*
X176405353Y-81581211D01*
X176405692Y-81573131D01*
X176444178Y-81059574D01*
X176445209Y-81050415D01*
X176521880Y-80541736D01*
X176523603Y-80532634D01*
X176566215Y-80345938D01*
X176638066Y-80031134D01*
X176640459Y-80022204D01*
X176792090Y-79530628D01*
X176795140Y-79521914D01*
X176983079Y-79043054D01*
X176986763Y-79034607D01*
X177209971Y-78571109D01*
X177214286Y-78562947D01*
X177471496Y-78117445D01*
X177476416Y-78109616D01*
X177766188Y-77684600D01*
X177771678Y-77677159D01*
X178038161Y-77343000D01*
X179715659Y-77343000D01*
X179734975Y-77539129D01*
X179749296Y-77586340D01*
X179779103Y-77684600D01*
X179792188Y-77727733D01*
X179885086Y-77901532D01*
X179885090Y-77901539D01*
X180010116Y-78053883D01*
X180162460Y-78178909D01*
X180162467Y-78178913D01*
X180336266Y-78271811D01*
X180336269Y-78271811D01*
X180336273Y-78271814D01*
X180524868Y-78329024D01*
X180721000Y-78348341D01*
X180917132Y-78329024D01*
X181105727Y-78271814D01*
X181279538Y-78178910D01*
X181431883Y-78053883D01*
X181556910Y-77901538D01*
X181649814Y-77727727D01*
X181707024Y-77539132D01*
X181726341Y-77343000D01*
X181707024Y-77146868D01*
X181649814Y-76958273D01*
X181649811Y-76958269D01*
X181649811Y-76958266D01*
X181556913Y-76784467D01*
X181556909Y-76784460D01*
X181431883Y-76632116D01*
X181369598Y-76581000D01*
X182509659Y-76581000D01*
X182528975Y-76777129D01*
X182531201Y-76784467D01*
X182580263Y-76946203D01*
X182586188Y-76965733D01*
X182679086Y-77139532D01*
X182679090Y-77139539D01*
X182804116Y-77291883D01*
X182956460Y-77416909D01*
X182956467Y-77416913D01*
X183130266Y-77509811D01*
X183130269Y-77509811D01*
X183130273Y-77509814D01*
X183318868Y-77567024D01*
X183515000Y-77586341D01*
X183711132Y-77567024D01*
X183899727Y-77509814D01*
X184073538Y-77416910D01*
X184225883Y-77291883D01*
X184350910Y-77139538D01*
X184443814Y-76965727D01*
X184501024Y-76777132D01*
X184520341Y-76581000D01*
X184501024Y-76384868D01*
X184443814Y-76196273D01*
X184443811Y-76196269D01*
X184443811Y-76196266D01*
X184350913Y-76022467D01*
X184350909Y-76022460D01*
X184225883Y-75870116D01*
X184073539Y-75745090D01*
X184073532Y-75745086D01*
X183899733Y-75652188D01*
X183899727Y-75652186D01*
X183711132Y-75594976D01*
X183711129Y-75594975D01*
X183515000Y-75575659D01*
X183318870Y-75594975D01*
X183130266Y-75652188D01*
X182956467Y-75745086D01*
X182956460Y-75745090D01*
X182804116Y-75870116D01*
X182679090Y-76022460D01*
X182679086Y-76022467D01*
X182586188Y-76196266D01*
X182528975Y-76384870D01*
X182509659Y-76581000D01*
X181369598Y-76581000D01*
X181279539Y-76507090D01*
X181279532Y-76507086D01*
X181105733Y-76414188D01*
X181105727Y-76414186D01*
X180979997Y-76376046D01*
X180917129Y-76356975D01*
X180721000Y-76337659D01*
X180524870Y-76356975D01*
X180336266Y-76414188D01*
X180162467Y-76507086D01*
X180162460Y-76507090D01*
X180010116Y-76632116D01*
X179885090Y-76784460D01*
X179885086Y-76784467D01*
X179792188Y-76958266D01*
X179734975Y-77146870D01*
X179715659Y-77343000D01*
X178038161Y-77343000D01*
X178092412Y-77274971D01*
X178098443Y-77267963D01*
X178448340Y-76890863D01*
X178454873Y-76884332D01*
X178562502Y-76784467D01*
X178831961Y-76534445D01*
X178838955Y-76528426D01*
X179241145Y-76207689D01*
X179248599Y-76202189D01*
X179673615Y-75912417D01*
X179681444Y-75907497D01*
X180126938Y-75650291D01*
X180135116Y-75645969D01*
X180598591Y-75422771D01*
X180607066Y-75419074D01*
X181085912Y-75231141D01*
X181094626Y-75228091D01*
X181586202Y-75076460D01*
X181595132Y-75074067D01*
X182096634Y-74959603D01*
X182105734Y-74957881D01*
X182614389Y-74881214D01*
X182623593Y-74880177D01*
X183137129Y-74841692D01*
X183145210Y-74841353D01*
X183399296Y-74839035D01*
X183402455Y-74839007D01*
X183403585Y-74839002D01*
X220401955Y-74839002D01*
X220404060Y-74839020D01*
G37*
G04 #@! TD.AperFunction*
G04 #@! TA.AperFunction,Conductor*
G36*
X183192707Y-103607094D02*
G01*
X183225027Y-103630367D01*
X183405271Y-103810611D01*
X183625370Y-104030710D01*
X183656765Y-104083796D01*
X183674254Y-104143993D01*
X183674255Y-104143996D01*
X183674256Y-104143998D01*
X183704986Y-104195959D01*
X183757917Y-104285462D01*
X183757923Y-104285470D01*
X183874129Y-104401676D01*
X183874133Y-104401679D01*
X183874135Y-104401681D01*
X184015602Y-104485344D01*
X184057224Y-104497436D01*
X184173426Y-104531197D01*
X184173429Y-104531197D01*
X184173431Y-104531198D01*
X184210306Y-104534100D01*
X185376500Y-104534100D01*
X185443539Y-104553785D01*
X185489294Y-104606589D01*
X185500500Y-104658100D01*
X185500500Y-104899301D01*
X185503401Y-104936167D01*
X185503402Y-104936173D01*
X185549254Y-105093993D01*
X185549255Y-105093996D01*
X185549256Y-105093998D01*
X185579014Y-105144317D01*
X185632917Y-105235462D01*
X185632923Y-105235470D01*
X185749129Y-105351676D01*
X185749133Y-105351679D01*
X185749135Y-105351681D01*
X185890602Y-105435344D01*
X185929576Y-105446667D01*
X186048426Y-105481197D01*
X186048429Y-105481197D01*
X186048431Y-105481198D01*
X186085306Y-105484100D01*
X186848577Y-105484100D01*
X186915616Y-105503785D01*
X186961371Y-105556589D01*
X186971315Y-105625747D01*
X186955964Y-105670100D01*
X186878821Y-105803715D01*
X186878818Y-105803722D01*
X186823359Y-105974408D01*
X186820326Y-105983744D01*
X186809906Y-106082888D01*
X186809268Y-106088961D01*
X186782683Y-106153576D01*
X186769743Y-106162605D01*
X186770819Y-106163681D01*
X186734500Y-106200000D01*
X186734500Y-107800000D01*
X187140077Y-107800000D01*
X187140077Y-107800955D01*
X187204222Y-107817074D01*
X187252022Y-107868034D01*
X187264683Y-107936747D01*
X187238185Y-108001397D01*
X187229027Y-108011630D01*
X187177478Y-108063180D01*
X187116155Y-108096666D01*
X187089796Y-108099500D01*
X185971500Y-108099500D01*
X185904461Y-108079815D01*
X185858706Y-108027011D01*
X185847500Y-107975500D01*
X185847500Y-107924000D01*
X185867185Y-107856961D01*
X185919989Y-107811206D01*
X185971500Y-107800000D01*
X186234500Y-107800000D01*
X186234500Y-107250000D01*
X185578815Y-107250000D01*
X185515694Y-107232732D01*
X185457396Y-107198255D01*
X185457393Y-107198254D01*
X185299573Y-107152402D01*
X185299567Y-107152401D01*
X185262701Y-107149500D01*
X185262694Y-107149500D01*
X184705202Y-107149500D01*
X184638163Y-107129815D01*
X184617521Y-107113181D01*
X184254339Y-106749998D01*
X185249704Y-106749998D01*
X185249705Y-106750000D01*
X186234500Y-106750000D01*
X186234500Y-106200000D01*
X185831350Y-106200000D01*
X185794510Y-106202899D01*
X185794504Y-106202900D01*
X185636806Y-106248716D01*
X185636803Y-106248717D01*
X185495447Y-106332314D01*
X185495438Y-106332321D01*
X185379321Y-106448438D01*
X185379314Y-106448447D01*
X185295718Y-106589801D01*
X185249899Y-106747513D01*
X185249704Y-106749998D01*
X184254339Y-106749998D01*
X183550205Y-106045863D01*
X183550204Y-106045862D01*
X183550200Y-106045859D01*
X183443264Y-105974408D01*
X183324444Y-105925191D01*
X183324438Y-105925189D01*
X183259021Y-105912177D01*
X183197110Y-105879792D01*
X183162536Y-105819076D01*
X183159855Y-105803161D01*
X183159178Y-105796538D01*
X183156999Y-105775203D01*
X183101814Y-105608666D01*
X183094220Y-105596355D01*
X183009713Y-105459348D01*
X183009710Y-105459344D01*
X182885655Y-105335289D01*
X182885651Y-105335286D01*
X182736337Y-105243187D01*
X182736335Y-105243186D01*
X182653065Y-105215593D01*
X182569797Y-105188001D01*
X182569795Y-105188000D01*
X182467015Y-105177500D01*
X182467008Y-105177500D01*
X181441992Y-105177500D01*
X181441984Y-105177500D01*
X181339204Y-105188000D01*
X181339203Y-105188001D01*
X181282902Y-105206657D01*
X181213076Y-105209059D01*
X181153034Y-105173327D01*
X181121841Y-105110807D01*
X181119900Y-105088951D01*
X181119900Y-104362882D01*
X181139585Y-104295843D01*
X181192389Y-104250088D01*
X181256500Y-104239524D01*
X181314992Y-104245500D01*
X181314997Y-104245500D01*
X182340003Y-104245500D01*
X182340008Y-104245500D01*
X182442797Y-104234999D01*
X182609334Y-104179814D01*
X182758655Y-104087711D01*
X182882711Y-103963655D01*
X182974814Y-103814334D01*
X183019644Y-103679044D01*
X183059415Y-103621602D01*
X183123931Y-103594779D01*
X183192707Y-103607094D01*
G37*
G04 #@! TD.AperFunction*
G04 #@! TA.AperFunction,Conductor*
G36*
X195126046Y-104228386D02*
G01*
X195351797Y-104454138D01*
X195351798Y-104454139D01*
X195351801Y-104454141D01*
X195434652Y-104509500D01*
X195441132Y-104513830D01*
X195458736Y-104525593D01*
X195507953Y-104545978D01*
X195577557Y-104574810D01*
X195611562Y-104581574D01*
X195622113Y-104583673D01*
X195684024Y-104616057D01*
X195718598Y-104676773D01*
X195714859Y-104746542D01*
X195690072Y-104788262D01*
X195609466Y-104877784D01*
X195514821Y-105041715D01*
X195514818Y-105041721D01*
X195481484Y-105144317D01*
X195442047Y-105201992D01*
X195377688Y-105229191D01*
X195363553Y-105229999D01*
X195010850Y-105229999D01*
X195010850Y-106055500D01*
X194991165Y-106122539D01*
X194938361Y-106168294D01*
X194886850Y-106179500D01*
X194634850Y-106179500D01*
X194567811Y-106159815D01*
X194522056Y-106107011D01*
X194510850Y-106055500D01*
X194510850Y-105229999D01*
X194122455Y-105229999D01*
X194062927Y-105236400D01*
X194062920Y-105236402D01*
X193928213Y-105286644D01*
X193928206Y-105286648D01*
X193813112Y-105372808D01*
X193789166Y-105404796D01*
X193733231Y-105446667D01*
X193663540Y-105451650D01*
X193602217Y-105418164D01*
X193568733Y-105356840D01*
X193565900Y-105330484D01*
X193565900Y-105120416D01*
X193585585Y-105053377D01*
X193638389Y-105007622D01*
X193639464Y-105007137D01*
X193642018Y-105006000D01*
X193683230Y-104987651D01*
X193836371Y-104876388D01*
X193963033Y-104735716D01*
X194057679Y-104571784D01*
X194116174Y-104391756D01*
X194119875Y-104356539D01*
X194146458Y-104291925D01*
X194203755Y-104251939D01*
X194243196Y-104245499D01*
X194786002Y-104245499D01*
X194786008Y-104245499D01*
X194888797Y-104234999D01*
X194999363Y-104198360D01*
X195069189Y-104195959D01*
X195126046Y-104228386D01*
G37*
G04 #@! TD.AperFunction*
G04 #@! TA.AperFunction,Conductor*
G36*
X188818435Y-101256585D02*
G01*
X188864190Y-101309389D01*
X188874134Y-101378547D01*
X188845109Y-101442103D01*
X188839077Y-101448581D01*
X188468863Y-101818794D01*
X188468860Y-101818797D01*
X188398181Y-101924576D01*
X188398182Y-101924577D01*
X188397406Y-101925738D01*
X188348192Y-102044551D01*
X188348189Y-102044561D01*
X188323100Y-102170692D01*
X188323100Y-103818197D01*
X188303415Y-103885236D01*
X188286781Y-103905878D01*
X188198278Y-103994381D01*
X188136955Y-104027866D01*
X188110597Y-104030700D01*
X187787457Y-104030700D01*
X187724336Y-104013432D01*
X187640167Y-103963655D01*
X187586398Y-103931856D01*
X187586397Y-103931855D01*
X187586396Y-103931855D01*
X187586393Y-103931854D01*
X187428573Y-103886002D01*
X187428567Y-103886001D01*
X187391701Y-103883100D01*
X187391694Y-103883100D01*
X186225500Y-103883100D01*
X186158461Y-103863415D01*
X186112706Y-103810611D01*
X186101500Y-103759100D01*
X186101500Y-103707600D01*
X186121185Y-103640561D01*
X186173989Y-103594806D01*
X186225500Y-103583600D01*
X186488500Y-103583600D01*
X186488500Y-103033600D01*
X186988500Y-103033600D01*
X186988500Y-103583600D01*
X187391634Y-103583600D01*
X187391649Y-103583599D01*
X187428489Y-103580700D01*
X187428495Y-103580699D01*
X187586193Y-103534883D01*
X187586196Y-103534882D01*
X187727552Y-103451285D01*
X187727561Y-103451278D01*
X187843678Y-103335161D01*
X187843685Y-103335152D01*
X187927281Y-103193798D01*
X187973100Y-103036086D01*
X187973295Y-103033601D01*
X187973295Y-103033600D01*
X186988500Y-103033600D01*
X186488500Y-103033600D01*
X185832815Y-103033600D01*
X185769694Y-103016332D01*
X185737005Y-102997000D01*
X185711398Y-102981856D01*
X185711397Y-102981855D01*
X185711396Y-102981855D01*
X185711393Y-102981854D01*
X185553573Y-102936002D01*
X185553567Y-102936001D01*
X185516701Y-102933100D01*
X185516694Y-102933100D01*
X184425802Y-102933100D01*
X184358763Y-102913415D01*
X184338121Y-102896781D01*
X183804205Y-102362863D01*
X183804204Y-102362862D01*
X183783265Y-102348871D01*
X183697264Y-102291408D01*
X183622696Y-102260521D01*
X183578444Y-102242191D01*
X183578438Y-102242189D01*
X183452307Y-102217100D01*
X183452305Y-102217100D01*
X183154736Y-102217100D01*
X183087697Y-102197415D01*
X183041942Y-102144611D01*
X183031378Y-102105702D01*
X183029999Y-102092205D01*
X183029998Y-102092200D01*
X183011012Y-102034903D01*
X183008610Y-101965075D01*
X183044342Y-101905033D01*
X183106863Y-101873841D01*
X183128718Y-101871900D01*
X185708786Y-101871900D01*
X185775825Y-101891585D01*
X185821580Y-101944389D01*
X185831524Y-102013547D01*
X185802499Y-102077103D01*
X185771908Y-102102632D01*
X185749444Y-102115917D01*
X185749438Y-102115921D01*
X185633321Y-102232038D01*
X185633314Y-102232047D01*
X185549718Y-102373401D01*
X185503899Y-102531113D01*
X185503704Y-102533598D01*
X185503705Y-102533600D01*
X186488500Y-102533600D01*
X186488500Y-101983600D01*
X186988500Y-101983600D01*
X186988500Y-102533600D01*
X187973295Y-102533600D01*
X187973295Y-102533598D01*
X187973100Y-102531113D01*
X187927281Y-102373401D01*
X187843685Y-102232047D01*
X187843678Y-102232038D01*
X187727561Y-102115921D01*
X187727552Y-102115914D01*
X187586196Y-102032317D01*
X187586193Y-102032316D01*
X187428495Y-101986500D01*
X187428489Y-101986499D01*
X187391649Y-101983600D01*
X186988500Y-101983600D01*
X186488500Y-101983600D01*
X186484943Y-101980043D01*
X186451458Y-101918720D01*
X186456442Y-101849028D01*
X186498314Y-101793095D01*
X186503713Y-101789273D01*
X186512488Y-101783410D01*
X186512492Y-101783409D01*
X186512492Y-101783408D01*
X186523064Y-101776344D01*
X186598200Y-101726141D01*
X187051121Y-101273218D01*
X187112444Y-101239734D01*
X187138802Y-101236900D01*
X188751396Y-101236900D01*
X188818435Y-101256585D01*
G37*
G04 #@! TD.AperFunction*
G04 #@! TA.AperFunction,Conductor*
G36*
X201548096Y-96799586D02*
G01*
X201594786Y-96851565D01*
X201599112Y-96861753D01*
X201607659Y-96884671D01*
X201612641Y-96954363D01*
X201607659Y-96971331D01*
X201594908Y-97005518D01*
X201588664Y-97063598D01*
X201588501Y-97065123D01*
X201588500Y-97065135D01*
X201588500Y-98060870D01*
X201588501Y-98060876D01*
X201594908Y-98120481D01*
X201607659Y-98154669D01*
X201612642Y-98224361D01*
X201607659Y-98241331D01*
X201594908Y-98275518D01*
X201588708Y-98333188D01*
X201588501Y-98335123D01*
X201588500Y-98335135D01*
X201588500Y-99330870D01*
X201588501Y-99330876D01*
X201594908Y-99390481D01*
X201607659Y-99424669D01*
X201612642Y-99494361D01*
X201607659Y-99511331D01*
X201594908Y-99545518D01*
X201588707Y-99603200D01*
X201588501Y-99605123D01*
X201588500Y-99605135D01*
X201588500Y-99696796D01*
X201568815Y-99763835D01*
X201552181Y-99784477D01*
X200914863Y-100421794D01*
X200914860Y-100421797D01*
X200849782Y-100519193D01*
X200849783Y-100519194D01*
X200843408Y-100528735D01*
X200794191Y-100647555D01*
X200794189Y-100647561D01*
X200769100Y-100773692D01*
X200769100Y-101268570D01*
X200749415Y-101335609D01*
X200696611Y-101381364D01*
X200627453Y-101391308D01*
X200570789Y-101367837D01*
X200546488Y-101349646D01*
X200546486Y-101349644D01*
X200411779Y-101299402D01*
X200411772Y-101299400D01*
X200352244Y-101292999D01*
X199963850Y-101292999D01*
X199963850Y-102118500D01*
X199944165Y-102185539D01*
X199891361Y-102231294D01*
X199839850Y-102242500D01*
X199075429Y-102242500D01*
X199075423Y-102242501D01*
X199015815Y-102248909D01*
X198986031Y-102260017D01*
X198916339Y-102264999D01*
X198869816Y-102244152D01*
X198826734Y-102212851D01*
X198826729Y-102212848D01*
X198653807Y-102135857D01*
X198653802Y-102135855D01*
X198497495Y-102102632D01*
X198468646Y-102096500D01*
X198279354Y-102096500D01*
X198250505Y-102102632D01*
X198094197Y-102135855D01*
X198094192Y-102135857D01*
X198045633Y-102157477D01*
X197976383Y-102166761D01*
X197913107Y-102137132D01*
X197875894Y-102077997D01*
X197871199Y-102044197D01*
X197871199Y-101745128D01*
X197871198Y-101745122D01*
X197869157Y-101726137D01*
X197864791Y-101685516D01*
X197854614Y-101658232D01*
X197849631Y-101588542D01*
X197883115Y-101527219D01*
X197944438Y-101493734D01*
X197970797Y-101490900D01*
X198184307Y-101490900D01*
X198278134Y-101472236D01*
X198310444Y-101465809D01*
X198429264Y-101416592D01*
X198433457Y-101413790D01*
X198441898Y-101408151D01*
X198529832Y-101349396D01*
X198596509Y-101328518D01*
X198663889Y-101347003D01*
X198710579Y-101398982D01*
X198721755Y-101467952D01*
X198697989Y-101526809D01*
X198679947Y-101550909D01*
X198679945Y-101550912D01*
X198629703Y-101685619D01*
X198629701Y-101685626D01*
X198623300Y-101745154D01*
X198623300Y-101796999D01*
X199463850Y-101796999D01*
X199463850Y-101292999D01*
X199075455Y-101292999D01*
X199015927Y-101299400D01*
X199015920Y-101299402D01*
X198881213Y-101349644D01*
X198881208Y-101349647D01*
X198878918Y-101351362D01*
X198876238Y-101352361D01*
X198873428Y-101353896D01*
X198873207Y-101353491D01*
X198813453Y-101375776D01*
X198745180Y-101360922D01*
X198695777Y-101311515D01*
X198680927Y-101243242D01*
X198705347Y-101177778D01*
X198716930Y-101164411D01*
X199757521Y-100123819D01*
X199818844Y-100090334D01*
X199845202Y-100087500D01*
X199865644Y-100087500D01*
X199865646Y-100087500D01*
X200050803Y-100048144D01*
X200223730Y-99971151D01*
X200376871Y-99859888D01*
X200503533Y-99719216D01*
X200598179Y-99555284D01*
X200656674Y-99375256D01*
X200676460Y-99187000D01*
X200656674Y-98998744D01*
X200598179Y-98818716D01*
X200503533Y-98654784D01*
X200376871Y-98514112D01*
X200357921Y-98500344D01*
X200223734Y-98402851D01*
X200223729Y-98402848D01*
X200050807Y-98325857D01*
X200050802Y-98325855D01*
X199905001Y-98294865D01*
X199865646Y-98286500D01*
X199750482Y-98286500D01*
X199683443Y-98266815D01*
X199637688Y-98214011D01*
X199627744Y-98144853D01*
X199648905Y-98094976D01*
X199647712Y-98094271D01*
X199735281Y-97946198D01*
X199781100Y-97788486D01*
X199781295Y-97786001D01*
X199781295Y-97786000D01*
X198559000Y-97786000D01*
X198559000Y-98336000D01*
X199046993Y-98336000D01*
X199114032Y-98355685D01*
X199159787Y-98408489D01*
X199169731Y-98477647D01*
X199140706Y-98541203D01*
X199139143Y-98542972D01*
X199038466Y-98654785D01*
X198943821Y-98818715D01*
X198943818Y-98818722D01*
X198885327Y-98998739D01*
X198885327Y-98998740D01*
X198885326Y-98998744D01*
X198877679Y-99071500D01*
X198872229Y-99123350D01*
X198845644Y-99187964D01*
X198836589Y-99198068D01*
X197885878Y-100148781D01*
X197824555Y-100182266D01*
X197798197Y-100185100D01*
X196820603Y-100185100D01*
X196753564Y-100165415D01*
X196707809Y-100112611D01*
X196697865Y-100043453D01*
X196726890Y-99979897D01*
X196732922Y-99973419D01*
X197103137Y-99603204D01*
X197103141Y-99603200D01*
X197174592Y-99496264D01*
X197223809Y-99377444D01*
X197231086Y-99340860D01*
X197239194Y-99300100D01*
X197248900Y-99251307D01*
X197248900Y-98456806D01*
X197268585Y-98389767D01*
X197321389Y-98344012D01*
X197382629Y-98333188D01*
X197418352Y-98335999D01*
X197418366Y-98336000D01*
X198059000Y-98336000D01*
X198059000Y-97410000D01*
X198078685Y-97342961D01*
X198131489Y-97297206D01*
X198183000Y-97286000D01*
X199781295Y-97286000D01*
X199781295Y-97285998D01*
X199781100Y-97283513D01*
X199735281Y-97125800D01*
X199723584Y-97106022D01*
X199706400Y-97038298D01*
X199728559Y-96972035D01*
X199783025Y-96928272D01*
X199830315Y-96918900D01*
X201105307Y-96918900D01*
X201195293Y-96901000D01*
X201231444Y-96893809D01*
X201350264Y-96844592D01*
X201382579Y-96823000D01*
X201414038Y-96801979D01*
X201480715Y-96781102D01*
X201548096Y-96799586D01*
G37*
G04 #@! TD.AperFunction*
G04 #@! TA.AperFunction,Conductor*
G36*
X188444116Y-97700585D02*
G01*
X188489871Y-97753389D01*
X188499815Y-97822547D01*
X188470790Y-97886103D01*
X188464758Y-97892581D01*
X188390684Y-97966654D01*
X188298643Y-98115875D01*
X188298641Y-98115880D01*
X188243494Y-98282302D01*
X188243493Y-98282309D01*
X188233000Y-98385013D01*
X188233000Y-98810000D01*
X190545298Y-98810000D01*
X190612337Y-98829685D01*
X190632976Y-98846316D01*
X190770164Y-98983504D01*
X191760079Y-99973419D01*
X191793564Y-100034742D01*
X191788580Y-100104434D01*
X191746708Y-100160367D01*
X191681244Y-100184784D01*
X191672398Y-100185100D01*
X190577607Y-100185100D01*
X190510568Y-100165415D01*
X190464813Y-100112611D01*
X190454869Y-100043453D01*
X190465225Y-100008694D01*
X190467358Y-100004118D01*
X190522505Y-99837697D01*
X190522506Y-99837690D01*
X190532999Y-99734986D01*
X190533000Y-99734973D01*
X190533000Y-99310000D01*
X188233001Y-99310000D01*
X188233001Y-99734988D01*
X188239081Y-99794499D01*
X188226311Y-99863191D01*
X188178430Y-99914076D01*
X188115723Y-99931100D01*
X187550781Y-99931100D01*
X187483742Y-99911415D01*
X187437987Y-99858611D01*
X187427423Y-99794498D01*
X187433499Y-99735018D01*
X187433499Y-99735016D01*
X187433500Y-99735009D01*
X187433499Y-98384992D01*
X187428545Y-98336500D01*
X187422999Y-98282203D01*
X187422998Y-98282200D01*
X187400402Y-98214011D01*
X187367814Y-98115666D01*
X187275712Y-97966344D01*
X187201949Y-97892581D01*
X187168464Y-97831258D01*
X187173448Y-97761566D01*
X187215320Y-97705633D01*
X187280784Y-97681216D01*
X187289630Y-97680900D01*
X188377077Y-97680900D01*
X188444116Y-97700585D01*
G37*
G04 #@! TD.AperFunction*
G04 #@! TA.AperFunction,Conductor*
G36*
X183673223Y-96975938D02*
G01*
X183706194Y-96999535D01*
X184231589Y-97524930D01*
X184265074Y-97586253D01*
X184267228Y-97599647D01*
X184269371Y-97620026D01*
X184280326Y-97724257D01*
X184280327Y-97724260D01*
X184338818Y-97904277D01*
X184338821Y-97904284D01*
X184433467Y-98068216D01*
X184535126Y-98181119D01*
X184560129Y-98208888D01*
X184713265Y-98320148D01*
X184713270Y-98320151D01*
X184886191Y-98397142D01*
X184886193Y-98397142D01*
X184886197Y-98397144D01*
X185034285Y-98428620D01*
X185095762Y-98461811D01*
X185129539Y-98522973D01*
X185132500Y-98549909D01*
X185132500Y-99735001D01*
X185132501Y-99735016D01*
X185138578Y-99794498D01*
X185125808Y-99863191D01*
X185077928Y-99914076D01*
X185015220Y-99931100D01*
X183210766Y-99931100D01*
X183143727Y-99911415D01*
X183097972Y-99858611D01*
X183088028Y-99789453D01*
X183117053Y-99725897D01*
X183123085Y-99719419D01*
X183213910Y-99628593D01*
X183213913Y-99628589D01*
X183317875Y-99473000D01*
X183317880Y-99472991D01*
X183389492Y-99300103D01*
X183389493Y-99300100D01*
X183394884Y-99273000D01*
X182642988Y-99273000D01*
X182660205Y-99263060D01*
X182716060Y-99207205D01*
X182755556Y-99138796D01*
X182776000Y-99062496D01*
X182776000Y-98983504D01*
X182755556Y-98907204D01*
X182716060Y-98838795D01*
X182660205Y-98782940D01*
X182642988Y-98773000D01*
X183394884Y-98773000D01*
X183394884Y-98772999D01*
X183389493Y-98745899D01*
X183389492Y-98745896D01*
X183317880Y-98573008D01*
X183317875Y-98572999D01*
X183213913Y-98417410D01*
X183213910Y-98417406D01*
X183201521Y-98405017D01*
X183177283Y-98405017D01*
X183169350Y-98409349D01*
X183099658Y-98404365D01*
X183055311Y-98375864D01*
X182539628Y-97860181D01*
X182506143Y-97798858D01*
X182511127Y-97729166D01*
X182512195Y-97727738D01*
X182536448Y-97786291D01*
X182592709Y-97842552D01*
X182666218Y-97873000D01*
X182745782Y-97873000D01*
X182819291Y-97842552D01*
X182875552Y-97786291D01*
X182906000Y-97712782D01*
X182906000Y-97633218D01*
X182902655Y-97625142D01*
X182926727Y-97620026D01*
X182996394Y-97625342D01*
X183040188Y-97653635D01*
X183439350Y-98052797D01*
X183463827Y-98010402D01*
X183517414Y-97845476D01*
X183517415Y-97845473D01*
X183535543Y-97673000D01*
X183517415Y-97500526D01*
X183517414Y-97500523D01*
X183463828Y-97335599D01*
X183463826Y-97335596D01*
X183449337Y-97310499D01*
X183432866Y-97242599D01*
X183449339Y-97186498D01*
X183464286Y-97160611D01*
X183500584Y-97048894D01*
X183540018Y-96991223D01*
X183604376Y-96964024D01*
X183673223Y-96975938D01*
G37*
G04 #@! TD.AperFunction*
G04 #@! TA.AperFunction,Conductor*
G36*
X181646394Y-97625342D02*
G01*
X181690188Y-97653635D01*
X182058864Y-98022311D01*
X182092349Y-98083634D01*
X182087365Y-98153326D01*
X182058864Y-98197673D01*
X181976000Y-98280536D01*
X181976000Y-98723000D01*
X181476000Y-98723000D01*
X181476000Y-98146553D01*
X181189628Y-97860181D01*
X181156143Y-97798858D01*
X181161127Y-97729166D01*
X181162195Y-97727738D01*
X181186448Y-97786291D01*
X181242709Y-97842552D01*
X181316218Y-97873000D01*
X181395782Y-97873000D01*
X181469291Y-97842552D01*
X181525552Y-97786291D01*
X181556000Y-97712782D01*
X181556000Y-97633218D01*
X181552655Y-97625142D01*
X181576727Y-97620026D01*
X181646394Y-97625342D01*
G37*
G04 #@! TD.AperFunction*
G04 #@! TA.AperFunction,Conductor*
G36*
X180530645Y-97101206D02*
G01*
X180586579Y-97143077D01*
X180594700Y-97155389D01*
X180597712Y-97160607D01*
X180597714Y-97160611D01*
X180612662Y-97186501D01*
X180629133Y-97254402D01*
X180612663Y-97310498D01*
X180598173Y-97335596D01*
X180544585Y-97500523D01*
X180544584Y-97500526D01*
X180526456Y-97673000D01*
X180544584Y-97845473D01*
X180544585Y-97845476D01*
X180565322Y-97909297D01*
X180567317Y-97979138D01*
X180531237Y-98038971D01*
X180468536Y-98069799D01*
X180399122Y-98061834D01*
X180345032Y-98017606D01*
X180344290Y-98016508D01*
X180339139Y-98008799D01*
X180339137Y-98008797D01*
X180140219Y-97809878D01*
X180106734Y-97748555D01*
X180103900Y-97722197D01*
X180103900Y-97476801D01*
X180123585Y-97409762D01*
X180140215Y-97389124D01*
X180399633Y-97129705D01*
X180460954Y-97096222D01*
X180530645Y-97101206D01*
G37*
G04 #@! TD.AperFunction*
G04 #@! TA.AperFunction,Conductor*
G36*
X187957848Y-93763585D02*
G01*
X188003603Y-93816389D01*
X188013547Y-93885547D01*
X188008515Y-93906904D01*
X187989494Y-93964302D01*
X187989493Y-93964309D01*
X187979000Y-94067013D01*
X187979000Y-94492000D01*
X190278999Y-94492000D01*
X190278999Y-94219702D01*
X190298684Y-94152663D01*
X190351488Y-94106908D01*
X190420646Y-94096964D01*
X190484202Y-94125989D01*
X190490680Y-94132021D01*
X191861798Y-95503139D01*
X191947506Y-95560407D01*
X191947507Y-95560407D01*
X191947508Y-95560408D01*
X191964124Y-95571510D01*
X192008928Y-95625124D01*
X192017634Y-95694449D01*
X192001964Y-95737731D01*
X191932254Y-95855605D01*
X191932254Y-95855606D01*
X191886402Y-96013426D01*
X191886401Y-96013432D01*
X191883500Y-96050298D01*
X191883500Y-96481701D01*
X191886401Y-96518567D01*
X191886402Y-96518573D01*
X191932254Y-96676393D01*
X191932255Y-96676396D01*
X191932256Y-96676398D01*
X191967974Y-96736794D01*
X192015917Y-96817862D01*
X192020702Y-96824031D01*
X192018256Y-96825927D01*
X192044857Y-96874642D01*
X192039873Y-96944334D01*
X192019069Y-96976703D01*
X192020702Y-96977969D01*
X192015919Y-96984135D01*
X191955169Y-97086857D01*
X191904099Y-97134540D01*
X191835357Y-97147043D01*
X191770768Y-97120397D01*
X191760756Y-97111416D01*
X190297831Y-95648489D01*
X190264346Y-95587166D01*
X190267565Y-95526413D01*
X190267089Y-95526311D01*
X190267730Y-95523317D01*
X190267811Y-95521790D01*
X190268505Y-95519693D01*
X190268506Y-95519690D01*
X190278999Y-95416986D01*
X190279000Y-95416973D01*
X190279000Y-94992000D01*
X187979000Y-94992000D01*
X187979000Y-95123284D01*
X187959315Y-95190323D01*
X187906511Y-95236078D01*
X187837352Y-95246021D01*
X187829228Y-95244575D01*
X187800646Y-95238500D01*
X187611354Y-95238500D01*
X187590649Y-95242901D01*
X187426197Y-95277855D01*
X187426192Y-95277857D01*
X187353935Y-95310029D01*
X187284685Y-95319314D01*
X187221408Y-95289686D01*
X187184195Y-95230551D01*
X187179499Y-95196750D01*
X187179499Y-94066998D01*
X187179498Y-94066981D01*
X187168999Y-93964203D01*
X187168998Y-93964200D01*
X187150012Y-93906904D01*
X187147610Y-93837076D01*
X187183342Y-93777034D01*
X187245862Y-93745841D01*
X187267718Y-93743900D01*
X187890809Y-93743900D01*
X187957848Y-93763585D01*
G37*
G04 #@! TD.AperFunction*
G04 #@! TA.AperFunction,Conductor*
G36*
X204225914Y-89658600D02*
G01*
X204270258Y-89687099D01*
X204940975Y-90357815D01*
X205812781Y-91229621D01*
X205846266Y-91290944D01*
X205849100Y-91317302D01*
X205849100Y-91786862D01*
X205829415Y-91853901D01*
X205776611Y-91899656D01*
X205707453Y-91909600D01*
X205643897Y-91880575D01*
X205621999Y-91855754D01*
X205612141Y-91841001D01*
X205612136Y-91840995D01*
X204477005Y-90705863D01*
X204477004Y-90705862D01*
X204427822Y-90673000D01*
X204370064Y-90634408D01*
X204341885Y-90622736D01*
X204299596Y-90605219D01*
X204251244Y-90585191D01*
X204251242Y-90585190D01*
X204251241Y-90585190D01*
X204245669Y-90584082D01*
X204245664Y-90584081D01*
X204223140Y-90579600D01*
X204188420Y-90572694D01*
X204126510Y-90540308D01*
X204091936Y-90479592D01*
X204089732Y-90444201D01*
X204088822Y-90444153D01*
X204089000Y-90440827D01*
X204089000Y-90193000D01*
X202713000Y-90193000D01*
X202645961Y-90173315D01*
X202600206Y-90120511D01*
X202589000Y-90069000D01*
X202589000Y-89817000D01*
X202608685Y-89749961D01*
X202661489Y-89704206D01*
X202713000Y-89693000D01*
X204089000Y-89693000D01*
X204094899Y-89687101D01*
X204156222Y-89653616D01*
X204225914Y-89658600D01*
G37*
G04 #@! TD.AperFunction*
G04 #@! TA.AperFunction,Conductor*
G36*
X181976000Y-91115462D02*
G01*
X182058864Y-91198326D01*
X182092349Y-91259649D01*
X182087365Y-91329341D01*
X182058864Y-91373688D01*
X181690187Y-91742364D01*
X181628864Y-91775849D01*
X181576726Y-91775974D01*
X181552654Y-91770857D01*
X181556000Y-91762782D01*
X181556000Y-91683218D01*
X181525552Y-91609709D01*
X181469291Y-91553448D01*
X181395782Y-91523000D01*
X181316218Y-91523000D01*
X181242709Y-91553448D01*
X181186448Y-91609709D01*
X181163196Y-91665843D01*
X181154571Y-91605853D01*
X181183596Y-91542297D01*
X181189628Y-91535819D01*
X181475999Y-91249447D01*
X181476000Y-91249446D01*
X181476000Y-90673000D01*
X181976000Y-90673000D01*
X181976000Y-91115462D01*
G37*
G04 #@! TD.AperFunction*
G04 #@! TA.AperFunction,Conductor*
G36*
X196184436Y-83603585D02*
G01*
X196230191Y-83656389D01*
X196240135Y-83725547D01*
X196211110Y-83789103D01*
X196205078Y-83795581D01*
X195707863Y-84292794D01*
X195707857Y-84292801D01*
X195647413Y-84383262D01*
X195647414Y-84383263D01*
X195636408Y-84399734D01*
X195587191Y-84518555D01*
X195587189Y-84518560D01*
X195577476Y-84567392D01*
X195545090Y-84629303D01*
X195484374Y-84663876D01*
X195414604Y-84660135D01*
X195390763Y-84648738D01*
X195384128Y-84644645D01*
X195384119Y-84644641D01*
X195217697Y-84589494D01*
X195217690Y-84589493D01*
X195114986Y-84579000D01*
X194902500Y-84579000D01*
X194902500Y-87378999D01*
X195114972Y-87378999D01*
X195114986Y-87378998D01*
X195217697Y-87368505D01*
X195384121Y-87313357D01*
X195385695Y-87312624D01*
X195386877Y-87312444D01*
X195390977Y-87311086D01*
X195391209Y-87311786D01*
X195454772Y-87302132D01*
X195518556Y-87330651D01*
X195556796Y-87389128D01*
X195562100Y-87425006D01*
X195562100Y-90483197D01*
X195542415Y-90550236D01*
X195525781Y-90570878D01*
X195045988Y-91050670D01*
X194984665Y-91084155D01*
X194914973Y-91079171D01*
X194859040Y-91037299D01*
X194834689Y-90972715D01*
X194834500Y-90970313D01*
X194834500Y-90970306D01*
X194831598Y-90933431D01*
X194824963Y-90910595D01*
X194785745Y-90775606D01*
X194785744Y-90775603D01*
X194785744Y-90775602D01*
X194702081Y-90634135D01*
X194702078Y-90634132D01*
X194697298Y-90627969D01*
X194699750Y-90626066D01*
X194673155Y-90577421D01*
X194678104Y-90507726D01*
X194698940Y-90475304D01*
X194697298Y-90474031D01*
X194702075Y-90467870D01*
X194702081Y-90467865D01*
X194785744Y-90326398D01*
X194825722Y-90188795D01*
X194831597Y-90168573D01*
X194831598Y-90168567D01*
X194834499Y-90131701D01*
X194834500Y-90131694D01*
X194834500Y-89700306D01*
X194831598Y-89663431D01*
X194831131Y-89661825D01*
X194785745Y-89505606D01*
X194785744Y-89505603D01*
X194785744Y-89505602D01*
X194702081Y-89364135D01*
X194702078Y-89364132D01*
X194697298Y-89357969D01*
X194699750Y-89356066D01*
X194673155Y-89307421D01*
X194678104Y-89237726D01*
X194698940Y-89205304D01*
X194697298Y-89204031D01*
X194702075Y-89197870D01*
X194702081Y-89197865D01*
X194785744Y-89056398D01*
X194819505Y-88940191D01*
X194831597Y-88898573D01*
X194831598Y-88898567D01*
X194834500Y-88861694D01*
X194834500Y-88430306D01*
X194831598Y-88393431D01*
X194831182Y-88392000D01*
X194794883Y-88267060D01*
X194785744Y-88235602D01*
X194702081Y-88094135D01*
X194702079Y-88094133D01*
X194702076Y-88094129D01*
X194585870Y-87977923D01*
X194585862Y-87977917D01*
X194476764Y-87913397D01*
X194444398Y-87894256D01*
X194444397Y-87894255D01*
X194444396Y-87894255D01*
X194444393Y-87894254D01*
X194286573Y-87848402D01*
X194286567Y-87848401D01*
X194249701Y-87845500D01*
X194249694Y-87845500D01*
X192468306Y-87845500D01*
X192468298Y-87845500D01*
X192431432Y-87848401D01*
X192431426Y-87848402D01*
X192273606Y-87894254D01*
X192273603Y-87894255D01*
X192132137Y-87977917D01*
X192132129Y-87977923D01*
X192015923Y-88094129D01*
X192015917Y-88094137D01*
X191932255Y-88235603D01*
X191932254Y-88235606D01*
X191886402Y-88393426D01*
X191886401Y-88393432D01*
X191883500Y-88430298D01*
X191883500Y-88568788D01*
X191863815Y-88635827D01*
X191811011Y-88681582D01*
X191741853Y-88691526D01*
X191678297Y-88662501D01*
X191640523Y-88603723D01*
X191637883Y-88592981D01*
X191635810Y-88582560D01*
X191635809Y-88582558D01*
X191635809Y-88582556D01*
X191586592Y-88463736D01*
X191581627Y-88456305D01*
X191515141Y-88356801D01*
X191515139Y-88356798D01*
X190935219Y-87776878D01*
X190901734Y-87715555D01*
X190898900Y-87689197D01*
X190898900Y-87530475D01*
X190918585Y-87463436D01*
X190971389Y-87417681D01*
X191040547Y-87407737D01*
X191061905Y-87412769D01*
X191094305Y-87423505D01*
X191094309Y-87423506D01*
X191197019Y-87433999D01*
X191646999Y-87433999D01*
X191647000Y-87433998D01*
X191647000Y-86145500D01*
X191666685Y-86078461D01*
X191719489Y-86032706D01*
X191771000Y-86021500D01*
X192023000Y-86021500D01*
X192090039Y-86041185D01*
X192135794Y-86093989D01*
X192147000Y-86145500D01*
X192147000Y-87433999D01*
X192596972Y-87433999D01*
X192596986Y-87433998D01*
X192699697Y-87423505D01*
X192866119Y-87368358D01*
X192866124Y-87368356D01*
X193015345Y-87276315D01*
X193139315Y-87152345D01*
X193231356Y-87003124D01*
X193231358Y-87003119D01*
X193284906Y-86841522D01*
X193324678Y-86784077D01*
X193389194Y-86757254D01*
X193457970Y-86769569D01*
X193509170Y-86817112D01*
X193520318Y-86841521D01*
X193555642Y-86948121D01*
X193555643Y-86948124D01*
X193647684Y-87097345D01*
X193771654Y-87221315D01*
X193920875Y-87313356D01*
X193920880Y-87313358D01*
X194087302Y-87368505D01*
X194087309Y-87368506D01*
X194190019Y-87378999D01*
X194402499Y-87378999D01*
X194402500Y-87378998D01*
X194402500Y-84579000D01*
X194392701Y-84579000D01*
X194325662Y-84559315D01*
X194279907Y-84506511D01*
X194269963Y-84437353D01*
X194298988Y-84373797D01*
X194304999Y-84367340D01*
X195052121Y-83620218D01*
X195113444Y-83586734D01*
X195139802Y-83583900D01*
X196117397Y-83583900D01*
X196184436Y-83603585D01*
G37*
G04 #@! TD.AperFunction*
G04 #@! TA.AperFunction,Conductor*
G36*
X209138103Y-79692887D02*
G01*
X209157218Y-79713715D01*
X209261890Y-79857786D01*
X209412213Y-80008109D01*
X209584179Y-80133048D01*
X209584181Y-80133049D01*
X209584184Y-80133051D01*
X209773588Y-80229557D01*
X209954419Y-80288312D01*
X210012094Y-80327749D01*
X210039292Y-80392108D01*
X210040100Y-80406243D01*
X210040100Y-81788000D01*
X210020415Y-81855039D01*
X209967611Y-81900794D01*
X209916100Y-81912000D01*
X209838500Y-81912000D01*
X209838500Y-83438000D01*
X209818815Y-83505039D01*
X209766011Y-83550794D01*
X209714500Y-83562000D01*
X209462500Y-83562000D01*
X209395461Y-83542315D01*
X209349706Y-83489511D01*
X209338500Y-83438000D01*
X209338500Y-81912000D01*
X209126029Y-81912000D01*
X209126007Y-81912002D01*
X209069500Y-81917774D01*
X209000808Y-81905004D01*
X208949924Y-81857122D01*
X208932900Y-81794416D01*
X208932900Y-79786600D01*
X208952585Y-79719561D01*
X209005389Y-79673806D01*
X209074547Y-79663862D01*
X209138103Y-79692887D01*
G37*
G04 #@! TD.AperFunction*
G04 #@! TA.AperFunction,Conductor*
G36*
X214173444Y-79631999D02*
G01*
X214212486Y-79677056D01*
X214216951Y-79685820D01*
X214341890Y-79857786D01*
X214492209Y-80008105D01*
X214492214Y-80008109D01*
X214546102Y-80047261D01*
X214588768Y-80102590D01*
X214594747Y-80172204D01*
X214562142Y-80233999D01*
X214560898Y-80235260D01*
X213233863Y-81562294D01*
X213233860Y-81562297D01*
X213185419Y-81634795D01*
X213131806Y-81679600D01*
X213062481Y-81688307D01*
X213043314Y-81683610D01*
X212997700Y-81668495D01*
X212997690Y-81668493D01*
X212894986Y-81658000D01*
X212682500Y-81658000D01*
X212682500Y-83184000D01*
X212662815Y-83251039D01*
X212610011Y-83296794D01*
X212558500Y-83308000D01*
X212306500Y-83308000D01*
X212239461Y-83288315D01*
X212193706Y-83235511D01*
X212182500Y-83184000D01*
X212182500Y-81654201D01*
X212202185Y-81587162D01*
X212218814Y-81566525D01*
X213359140Y-80426200D01*
X213430592Y-80319264D01*
X213479809Y-80200444D01*
X213479809Y-80200440D01*
X213481632Y-80196041D01*
X213525472Y-80141637D01*
X213539253Y-80133395D01*
X213539808Y-80133055D01*
X213539807Y-80133055D01*
X213539816Y-80133051D01*
X213711792Y-80008104D01*
X213862104Y-79857792D01*
X213862104Y-79857791D01*
X213862108Y-79857788D01*
X213862109Y-79857786D01*
X213987048Y-79685820D01*
X213987047Y-79685820D01*
X213987051Y-79685816D01*
X213991514Y-79677054D01*
X214039488Y-79626259D01*
X214107308Y-79609463D01*
X214173444Y-79631999D01*
G37*
G04 #@! TD.AperFunction*
G04 #@! TD*
M02*
