G04 #@! TF.GenerationSoftware,KiCad,Pcbnew,8.0.1-rc1*
G04 #@! TF.CreationDate,2024-03-16T10:29:41-04:00*
G04 #@! TF.ProjectId,keystone-esp,6b657973-746f-46e6-952d-6573702e6b69,rev?*
G04 #@! TF.SameCoordinates,Original*
G04 #@! TF.FileFunction,Legend,Bot*
G04 #@! TF.FilePolarity,Positive*
%FSLAX46Y46*%
G04 Gerber Fmt 4.6, Leading zero omitted, Abs format (unit mm)*
G04 Created by KiCad (PCBNEW 8.0.1-rc1) date 2024-03-16 10:29:41*
%MOMM*%
%LPD*%
G01*
G04 APERTURE LIST*
%ADD10C,0.162500*%
%ADD11C,0.200000*%
%ADD12C,0.600000*%
%ADD13C,0.180000*%
%ADD14C,0.150000*%
%ADD15C,0.120000*%
%ADD16C,0.010000*%
G04 APERTURE END LIST*
D10*
X191569521Y-108671692D02*
X191612378Y-108714550D01*
X191612378Y-108714550D02*
X191740950Y-108757407D01*
X191740950Y-108757407D02*
X191826664Y-108757407D01*
X191826664Y-108757407D02*
X191955235Y-108714550D01*
X191955235Y-108714550D02*
X192040950Y-108628835D01*
X192040950Y-108628835D02*
X192083807Y-108543121D01*
X192083807Y-108543121D02*
X192126664Y-108371692D01*
X192126664Y-108371692D02*
X192126664Y-108243121D01*
X192126664Y-108243121D02*
X192083807Y-108071692D01*
X192083807Y-108071692D02*
X192040950Y-107985978D01*
X192040950Y-107985978D02*
X191955235Y-107900264D01*
X191955235Y-107900264D02*
X191826664Y-107857407D01*
X191826664Y-107857407D02*
X191740950Y-107857407D01*
X191740950Y-107857407D02*
X191612378Y-107900264D01*
X191612378Y-107900264D02*
X191569521Y-107943121D01*
X191183807Y-108285978D02*
X190883807Y-108285978D01*
X190755235Y-108757407D02*
X191183807Y-108757407D01*
X191183807Y-108757407D02*
X191183807Y-107857407D01*
X191183807Y-107857407D02*
X190755235Y-107857407D01*
X189855235Y-108757407D02*
X190155235Y-108328835D01*
X190369521Y-108757407D02*
X190369521Y-107857407D01*
X190369521Y-107857407D02*
X190026664Y-107857407D01*
X190026664Y-107857407D02*
X189940949Y-107900264D01*
X189940949Y-107900264D02*
X189898092Y-107943121D01*
X189898092Y-107943121D02*
X189855235Y-108028835D01*
X189855235Y-108028835D02*
X189855235Y-108157407D01*
X189855235Y-108157407D02*
X189898092Y-108243121D01*
X189898092Y-108243121D02*
X189940949Y-108285978D01*
X189940949Y-108285978D02*
X190026664Y-108328835D01*
X190026664Y-108328835D02*
X190369521Y-108328835D01*
X189469521Y-108757407D02*
X189469521Y-107857407D01*
X189469521Y-107857407D02*
X188955235Y-108757407D01*
X188955235Y-108757407D02*
X188955235Y-107857407D01*
X188526664Y-108414550D02*
X187840950Y-108414550D01*
X187240949Y-107857407D02*
X187069521Y-107857407D01*
X187069521Y-107857407D02*
X186983806Y-107900264D01*
X186983806Y-107900264D02*
X186898092Y-107985978D01*
X186898092Y-107985978D02*
X186855235Y-108157407D01*
X186855235Y-108157407D02*
X186855235Y-108457407D01*
X186855235Y-108457407D02*
X186898092Y-108628835D01*
X186898092Y-108628835D02*
X186983806Y-108714550D01*
X186983806Y-108714550D02*
X187069521Y-108757407D01*
X187069521Y-108757407D02*
X187240949Y-108757407D01*
X187240949Y-108757407D02*
X187326664Y-108714550D01*
X187326664Y-108714550D02*
X187412378Y-108628835D01*
X187412378Y-108628835D02*
X187455235Y-108457407D01*
X187455235Y-108457407D02*
X187455235Y-108157407D01*
X187455235Y-108157407D02*
X187412378Y-107985978D01*
X187412378Y-107985978D02*
X187326664Y-107900264D01*
X187326664Y-107900264D02*
X187240949Y-107857407D01*
X186469521Y-108757407D02*
X186469521Y-107857407D01*
X186469521Y-108285978D02*
X185955235Y-108285978D01*
X185955235Y-108757407D02*
X185955235Y-107857407D01*
X185098092Y-108757407D02*
X185526664Y-108757407D01*
X185526664Y-108757407D02*
X185526664Y-107857407D01*
X184798093Y-108414550D02*
X184112379Y-108414550D01*
X183683807Y-108757407D02*
X183683807Y-107857407D01*
X183683807Y-107857407D02*
X183340950Y-107857407D01*
X183340950Y-107857407D02*
X183255235Y-107900264D01*
X183255235Y-107900264D02*
X183212378Y-107943121D01*
X183212378Y-107943121D02*
X183169521Y-108028835D01*
X183169521Y-108028835D02*
X183169521Y-108157407D01*
X183169521Y-108157407D02*
X183212378Y-108243121D01*
X183212378Y-108243121D02*
X183255235Y-108285978D01*
X183255235Y-108285978D02*
X183340950Y-108328835D01*
X183340950Y-108328835D02*
X183683807Y-108328835D01*
D11*
X216562183Y-93863219D02*
X216228850Y-94863219D01*
X216228850Y-94863219D02*
X215895517Y-93863219D01*
X215720898Y-100070219D02*
X216054231Y-99594028D01*
X216292326Y-100070219D02*
X216292326Y-99070219D01*
X216292326Y-99070219D02*
X215911374Y-99070219D01*
X215911374Y-99070219D02*
X215816136Y-99117838D01*
X215816136Y-99117838D02*
X215768517Y-99165457D01*
X215768517Y-99165457D02*
X215720898Y-99260695D01*
X215720898Y-99260695D02*
X215720898Y-99403552D01*
X215720898Y-99403552D02*
X215768517Y-99498790D01*
X215768517Y-99498790D02*
X215816136Y-99546409D01*
X215816136Y-99546409D02*
X215911374Y-99594028D01*
X215911374Y-99594028D02*
X216292326Y-99594028D01*
X215387564Y-99070219D02*
X214720898Y-100070219D01*
X214720898Y-99070219D02*
X215387564Y-100070219D01*
X216292326Y-102483219D02*
X216292326Y-101483219D01*
X215625660Y-101483219D02*
X215435184Y-101483219D01*
X215435184Y-101483219D02*
X215339946Y-101530838D01*
X215339946Y-101530838D02*
X215244708Y-101626076D01*
X215244708Y-101626076D02*
X215197089Y-101816552D01*
X215197089Y-101816552D02*
X215197089Y-102149885D01*
X215197089Y-102149885D02*
X215244708Y-102340361D01*
X215244708Y-102340361D02*
X215339946Y-102435600D01*
X215339946Y-102435600D02*
X215435184Y-102483219D01*
X215435184Y-102483219D02*
X215625660Y-102483219D01*
X215625660Y-102483219D02*
X215720898Y-102435600D01*
X215720898Y-102435600D02*
X215816136Y-102340361D01*
X215816136Y-102340361D02*
X215863755Y-102149885D01*
X215863755Y-102149885D02*
X215863755Y-101816552D01*
X215863755Y-101816552D02*
X215816136Y-101626076D01*
X215816136Y-101626076D02*
X215720898Y-101530838D01*
X215720898Y-101530838D02*
X215625660Y-101483219D01*
X214578041Y-101483219D02*
X214482803Y-101483219D01*
X214482803Y-101483219D02*
X214387565Y-101530838D01*
X214387565Y-101530838D02*
X214339946Y-101578457D01*
X214339946Y-101578457D02*
X214292327Y-101673695D01*
X214292327Y-101673695D02*
X214244708Y-101864171D01*
X214244708Y-101864171D02*
X214244708Y-102102266D01*
X214244708Y-102102266D02*
X214292327Y-102292742D01*
X214292327Y-102292742D02*
X214339946Y-102387980D01*
X214339946Y-102387980D02*
X214387565Y-102435600D01*
X214387565Y-102435600D02*
X214482803Y-102483219D01*
X214482803Y-102483219D02*
X214578041Y-102483219D01*
X214578041Y-102483219D02*
X214673279Y-102435600D01*
X214673279Y-102435600D02*
X214720898Y-102387980D01*
X214720898Y-102387980D02*
X214768517Y-102292742D01*
X214768517Y-102292742D02*
X214816136Y-102102266D01*
X214816136Y-102102266D02*
X214816136Y-101864171D01*
X214816136Y-101864171D02*
X214768517Y-101673695D01*
X214768517Y-101673695D02*
X214720898Y-101578457D01*
X214720898Y-101578457D02*
X214673279Y-101530838D01*
X214673279Y-101530838D02*
X214578041Y-101483219D01*
X216419326Y-91799409D02*
X216085993Y-91799409D01*
X215943136Y-92323219D02*
X216419326Y-92323219D01*
X216419326Y-92323219D02*
X216419326Y-91323219D01*
X216419326Y-91323219D02*
X215943136Y-91323219D01*
X215514564Y-92323219D02*
X215514564Y-91323219D01*
X215514564Y-91323219D02*
X214943136Y-92323219D01*
X214943136Y-92323219D02*
X214943136Y-91323219D01*
D12*
X210980978Y-85453657D02*
X210980978Y-82453657D01*
X209266692Y-85453657D02*
X210552406Y-83739371D01*
X209266692Y-82453657D02*
X210980978Y-84167942D01*
X206838121Y-85310800D02*
X207123835Y-85453657D01*
X207123835Y-85453657D02*
X207695264Y-85453657D01*
X207695264Y-85453657D02*
X207980978Y-85310800D01*
X207980978Y-85310800D02*
X208123835Y-85025085D01*
X208123835Y-85025085D02*
X208123835Y-83882228D01*
X208123835Y-83882228D02*
X207980978Y-83596514D01*
X207980978Y-83596514D02*
X207695264Y-83453657D01*
X207695264Y-83453657D02*
X207123835Y-83453657D01*
X207123835Y-83453657D02*
X206838121Y-83596514D01*
X206838121Y-83596514D02*
X206695264Y-83882228D01*
X206695264Y-83882228D02*
X206695264Y-84167942D01*
X206695264Y-84167942D02*
X208123835Y-84453657D01*
X205695263Y-83453657D02*
X204980977Y-85453657D01*
X204266692Y-83453657D02*
X204980977Y-85453657D01*
X204980977Y-85453657D02*
X205266692Y-86167942D01*
X205266692Y-86167942D02*
X205409549Y-86310800D01*
X205409549Y-86310800D02*
X205695263Y-86453657D01*
X203266692Y-85310800D02*
X202980978Y-85453657D01*
X202980978Y-85453657D02*
X202409549Y-85453657D01*
X202409549Y-85453657D02*
X202123835Y-85310800D01*
X202123835Y-85310800D02*
X201980978Y-85025085D01*
X201980978Y-85025085D02*
X201980978Y-84882228D01*
X201980978Y-84882228D02*
X202123835Y-84596514D01*
X202123835Y-84596514D02*
X202409549Y-84453657D01*
X202409549Y-84453657D02*
X202838121Y-84453657D01*
X202838121Y-84453657D02*
X203123835Y-84310800D01*
X203123835Y-84310800D02*
X203266692Y-84025085D01*
X203266692Y-84025085D02*
X203266692Y-83882228D01*
X203266692Y-83882228D02*
X203123835Y-83596514D01*
X203123835Y-83596514D02*
X202838121Y-83453657D01*
X202838121Y-83453657D02*
X202409549Y-83453657D01*
X202409549Y-83453657D02*
X202123835Y-83596514D01*
X201123835Y-83453657D02*
X199980978Y-83453657D01*
X200695264Y-82453657D02*
X200695264Y-85025085D01*
X200695264Y-85025085D02*
X200552407Y-85310800D01*
X200552407Y-85310800D02*
X200266692Y-85453657D01*
X200266692Y-85453657D02*
X199980978Y-85453657D01*
X198552406Y-85453657D02*
X198838121Y-85310800D01*
X198838121Y-85310800D02*
X198980978Y-85167942D01*
X198980978Y-85167942D02*
X199123835Y-84882228D01*
X199123835Y-84882228D02*
X199123835Y-84025085D01*
X199123835Y-84025085D02*
X198980978Y-83739371D01*
X198980978Y-83739371D02*
X198838121Y-83596514D01*
X198838121Y-83596514D02*
X198552406Y-83453657D01*
X198552406Y-83453657D02*
X198123835Y-83453657D01*
X198123835Y-83453657D02*
X197838121Y-83596514D01*
X197838121Y-83596514D02*
X197695264Y-83739371D01*
X197695264Y-83739371D02*
X197552406Y-84025085D01*
X197552406Y-84025085D02*
X197552406Y-84882228D01*
X197552406Y-84882228D02*
X197695264Y-85167942D01*
X197695264Y-85167942D02*
X197838121Y-85310800D01*
X197838121Y-85310800D02*
X198123835Y-85453657D01*
X198123835Y-85453657D02*
X198552406Y-85453657D01*
X196266692Y-83453657D02*
X196266692Y-85453657D01*
X196266692Y-83739371D02*
X196123835Y-83596514D01*
X196123835Y-83596514D02*
X195838120Y-83453657D01*
X195838120Y-83453657D02*
X195409549Y-83453657D01*
X195409549Y-83453657D02*
X195123835Y-83596514D01*
X195123835Y-83596514D02*
X194980978Y-83882228D01*
X194980978Y-83882228D02*
X194980978Y-85453657D01*
X192409549Y-85310800D02*
X192695263Y-85453657D01*
X192695263Y-85453657D02*
X193266692Y-85453657D01*
X193266692Y-85453657D02*
X193552406Y-85310800D01*
X193552406Y-85310800D02*
X193695263Y-85025085D01*
X193695263Y-85025085D02*
X193695263Y-83882228D01*
X193695263Y-83882228D02*
X193552406Y-83596514D01*
X193552406Y-83596514D02*
X193266692Y-83453657D01*
X193266692Y-83453657D02*
X192695263Y-83453657D01*
X192695263Y-83453657D02*
X192409549Y-83596514D01*
X192409549Y-83596514D02*
X192266692Y-83882228D01*
X192266692Y-83882228D02*
X192266692Y-84167942D01*
X192266692Y-84167942D02*
X193695263Y-84453657D01*
D11*
X216435183Y-96403219D02*
X215863755Y-96403219D01*
X216149469Y-97403219D02*
X216149469Y-96403219D01*
X215625659Y-96403219D02*
X214958993Y-97403219D01*
X214958993Y-96403219D02*
X215625659Y-97403219D01*
D13*
X211098483Y-87398259D02*
X211098483Y-86398259D01*
X211098483Y-86779211D02*
X211003245Y-86731592D01*
X211003245Y-86731592D02*
X210812769Y-86731592D01*
X210812769Y-86731592D02*
X210717531Y-86779211D01*
X210717531Y-86779211D02*
X210669912Y-86826830D01*
X210669912Y-86826830D02*
X210622293Y-86922068D01*
X210622293Y-86922068D02*
X210622293Y-87207782D01*
X210622293Y-87207782D02*
X210669912Y-87303020D01*
X210669912Y-87303020D02*
X210717531Y-87350640D01*
X210717531Y-87350640D02*
X210812769Y-87398259D01*
X210812769Y-87398259D02*
X211003245Y-87398259D01*
X211003245Y-87398259D02*
X211098483Y-87350640D01*
X210288959Y-86731592D02*
X210050864Y-87398259D01*
X209812769Y-86731592D02*
X210050864Y-87398259D01*
X210050864Y-87398259D02*
X210146102Y-87636354D01*
X210146102Y-87636354D02*
X210193721Y-87683973D01*
X210193721Y-87683973D02*
X210288959Y-87731592D01*
X208098483Y-87398259D02*
X208431816Y-86922068D01*
X208669911Y-87398259D02*
X208669911Y-86398259D01*
X208669911Y-86398259D02*
X208288959Y-86398259D01*
X208288959Y-86398259D02*
X208193721Y-86445878D01*
X208193721Y-86445878D02*
X208146102Y-86493497D01*
X208146102Y-86493497D02*
X208098483Y-86588735D01*
X208098483Y-86588735D02*
X208098483Y-86731592D01*
X208098483Y-86731592D02*
X208146102Y-86826830D01*
X208146102Y-86826830D02*
X208193721Y-86874449D01*
X208193721Y-86874449D02*
X208288959Y-86922068D01*
X208288959Y-86922068D02*
X208669911Y-86922068D01*
X207527054Y-87398259D02*
X207622292Y-87350640D01*
X207622292Y-87350640D02*
X207669911Y-87303020D01*
X207669911Y-87303020D02*
X207717530Y-87207782D01*
X207717530Y-87207782D02*
X207717530Y-86922068D01*
X207717530Y-86922068D02*
X207669911Y-86826830D01*
X207669911Y-86826830D02*
X207622292Y-86779211D01*
X207622292Y-86779211D02*
X207527054Y-86731592D01*
X207527054Y-86731592D02*
X207384197Y-86731592D01*
X207384197Y-86731592D02*
X207288959Y-86779211D01*
X207288959Y-86779211D02*
X207241340Y-86826830D01*
X207241340Y-86826830D02*
X207193721Y-86922068D01*
X207193721Y-86922068D02*
X207193721Y-87207782D01*
X207193721Y-87207782D02*
X207241340Y-87303020D01*
X207241340Y-87303020D02*
X207288959Y-87350640D01*
X207288959Y-87350640D02*
X207384197Y-87398259D01*
X207384197Y-87398259D02*
X207527054Y-87398259D01*
X206765149Y-87398259D02*
X206765149Y-86398259D01*
X206765149Y-86779211D02*
X206669911Y-86731592D01*
X206669911Y-86731592D02*
X206479435Y-86731592D01*
X206479435Y-86731592D02*
X206384197Y-86779211D01*
X206384197Y-86779211D02*
X206336578Y-86826830D01*
X206336578Y-86826830D02*
X206288959Y-86922068D01*
X206288959Y-86922068D02*
X206288959Y-87207782D01*
X206288959Y-87207782D02*
X206336578Y-87303020D01*
X206336578Y-87303020D02*
X206384197Y-87350640D01*
X206384197Y-87350640D02*
X206479435Y-87398259D01*
X206479435Y-87398259D02*
X206669911Y-87398259D01*
X206669911Y-87398259D02*
X206765149Y-87350640D01*
X205717530Y-87398259D02*
X205812768Y-87350640D01*
X205812768Y-87350640D02*
X205860387Y-87303020D01*
X205860387Y-87303020D02*
X205908006Y-87207782D01*
X205908006Y-87207782D02*
X205908006Y-86922068D01*
X205908006Y-86922068D02*
X205860387Y-86826830D01*
X205860387Y-86826830D02*
X205812768Y-86779211D01*
X205812768Y-86779211D02*
X205717530Y-86731592D01*
X205717530Y-86731592D02*
X205574673Y-86731592D01*
X205574673Y-86731592D02*
X205479435Y-86779211D01*
X205479435Y-86779211D02*
X205431816Y-86826830D01*
X205431816Y-86826830D02*
X205384197Y-86922068D01*
X205384197Y-86922068D02*
X205384197Y-87207782D01*
X205384197Y-87207782D02*
X205431816Y-87303020D01*
X205431816Y-87303020D02*
X205479435Y-87350640D01*
X205479435Y-87350640D02*
X205574673Y-87398259D01*
X205574673Y-87398259D02*
X205717530Y-87398259D01*
X205098482Y-86731592D02*
X204717530Y-86731592D01*
X204955625Y-86398259D02*
X204955625Y-87255401D01*
X204955625Y-87255401D02*
X204908006Y-87350640D01*
X204908006Y-87350640D02*
X204812768Y-87398259D01*
X204812768Y-87398259D02*
X204717530Y-87398259D01*
X204479434Y-86398259D02*
X203812768Y-86398259D01*
X203812768Y-86398259D02*
X204479434Y-87398259D01*
X204479434Y-87398259D02*
X203812768Y-87398259D01*
X203527053Y-86731592D02*
X203336577Y-87398259D01*
X203336577Y-87398259D02*
X203146101Y-86922068D01*
X203146101Y-86922068D02*
X202955625Y-87398259D01*
X202955625Y-87398259D02*
X202765149Y-86731592D01*
X202384196Y-87398259D02*
X202384196Y-86731592D01*
X202384196Y-86922068D02*
X202336577Y-86826830D01*
X202336577Y-86826830D02*
X202288958Y-86779211D01*
X202288958Y-86779211D02*
X202193720Y-86731592D01*
X202193720Y-86731592D02*
X202098482Y-86731592D01*
X201765148Y-87398259D02*
X201765148Y-86731592D01*
X201765148Y-86922068D02*
X201717529Y-86826830D01*
X201717529Y-86826830D02*
X201669910Y-86779211D01*
X201669910Y-86779211D02*
X201574672Y-86731592D01*
X201574672Y-86731592D02*
X201479434Y-86731592D01*
X201003243Y-87398259D02*
X201098481Y-87350640D01*
X201098481Y-87350640D02*
X201146100Y-87255401D01*
X201146100Y-87255401D02*
X201146100Y-86398259D01*
X200622290Y-87303020D02*
X200574671Y-87350640D01*
X200574671Y-87350640D02*
X200622290Y-87398259D01*
X200622290Y-87398259D02*
X200669909Y-87350640D01*
X200669909Y-87350640D02*
X200622290Y-87303020D01*
X200622290Y-87303020D02*
X200622290Y-87398259D01*
X200241338Y-87398259D02*
X199717529Y-86731592D01*
X200241338Y-86731592D02*
X199717529Y-87398259D01*
X199431814Y-86731592D02*
X199193719Y-87398259D01*
X198955624Y-86731592D02*
X199193719Y-87398259D01*
X199193719Y-87398259D02*
X199288957Y-87636354D01*
X199288957Y-87636354D02*
X199336576Y-87683973D01*
X199336576Y-87683973D02*
X199431814Y-87731592D01*
X198669909Y-86731592D02*
X198146100Y-86731592D01*
X198146100Y-86731592D02*
X198669909Y-87398259D01*
X198669909Y-87398259D02*
X198146100Y-87398259D01*
X210527055Y-89008203D02*
X210860388Y-88532012D01*
X211098483Y-89008203D02*
X211098483Y-88008203D01*
X211098483Y-88008203D02*
X210717531Y-88008203D01*
X210717531Y-88008203D02*
X210622293Y-88055822D01*
X210622293Y-88055822D02*
X210574674Y-88103441D01*
X210574674Y-88103441D02*
X210527055Y-88198679D01*
X210527055Y-88198679D02*
X210527055Y-88341536D01*
X210527055Y-88341536D02*
X210574674Y-88436774D01*
X210574674Y-88436774D02*
X210622293Y-88484393D01*
X210622293Y-88484393D02*
X210717531Y-88532012D01*
X210717531Y-88532012D02*
X211098483Y-88532012D01*
X209955626Y-89008203D02*
X210050864Y-88960584D01*
X210050864Y-88960584D02*
X210098483Y-88912964D01*
X210098483Y-88912964D02*
X210146102Y-88817726D01*
X210146102Y-88817726D02*
X210146102Y-88532012D01*
X210146102Y-88532012D02*
X210098483Y-88436774D01*
X210098483Y-88436774D02*
X210050864Y-88389155D01*
X210050864Y-88389155D02*
X209955626Y-88341536D01*
X209955626Y-88341536D02*
X209812769Y-88341536D01*
X209812769Y-88341536D02*
X209717531Y-88389155D01*
X209717531Y-88389155D02*
X209669912Y-88436774D01*
X209669912Y-88436774D02*
X209622293Y-88532012D01*
X209622293Y-88532012D02*
X209622293Y-88817726D01*
X209622293Y-88817726D02*
X209669912Y-88912964D01*
X209669912Y-88912964D02*
X209717531Y-88960584D01*
X209717531Y-88960584D02*
X209812769Y-89008203D01*
X209812769Y-89008203D02*
X209955626Y-89008203D01*
X209193721Y-89008203D02*
X209193721Y-88008203D01*
X209193721Y-88389155D02*
X209098483Y-88341536D01*
X209098483Y-88341536D02*
X208908007Y-88341536D01*
X208908007Y-88341536D02*
X208812769Y-88389155D01*
X208812769Y-88389155D02*
X208765150Y-88436774D01*
X208765150Y-88436774D02*
X208717531Y-88532012D01*
X208717531Y-88532012D02*
X208717531Y-88817726D01*
X208717531Y-88817726D02*
X208765150Y-88912964D01*
X208765150Y-88912964D02*
X208812769Y-88960584D01*
X208812769Y-88960584D02*
X208908007Y-89008203D01*
X208908007Y-89008203D02*
X209098483Y-89008203D01*
X209098483Y-89008203D02*
X209193721Y-88960584D01*
X208146102Y-89008203D02*
X208241340Y-88960584D01*
X208241340Y-88960584D02*
X208288959Y-88912964D01*
X208288959Y-88912964D02*
X208336578Y-88817726D01*
X208336578Y-88817726D02*
X208336578Y-88532012D01*
X208336578Y-88532012D02*
X208288959Y-88436774D01*
X208288959Y-88436774D02*
X208241340Y-88389155D01*
X208241340Y-88389155D02*
X208146102Y-88341536D01*
X208146102Y-88341536D02*
X208003245Y-88341536D01*
X208003245Y-88341536D02*
X207908007Y-88389155D01*
X207908007Y-88389155D02*
X207860388Y-88436774D01*
X207860388Y-88436774D02*
X207812769Y-88532012D01*
X207812769Y-88532012D02*
X207812769Y-88817726D01*
X207812769Y-88817726D02*
X207860388Y-88912964D01*
X207860388Y-88912964D02*
X207908007Y-88960584D01*
X207908007Y-88960584D02*
X208003245Y-89008203D01*
X208003245Y-89008203D02*
X208146102Y-89008203D01*
X207527054Y-88341536D02*
X207146102Y-88341536D01*
X207384197Y-88008203D02*
X207384197Y-88865345D01*
X207384197Y-88865345D02*
X207336578Y-88960584D01*
X207336578Y-88960584D02*
X207241340Y-89008203D01*
X207241340Y-89008203D02*
X207146102Y-89008203D01*
X206812768Y-89008203D02*
X206812768Y-88008203D01*
X206812768Y-88008203D02*
X206479435Y-88722488D01*
X206479435Y-88722488D02*
X206146102Y-88008203D01*
X206146102Y-88008203D02*
X206146102Y-89008203D01*
X205669911Y-89008203D02*
X205669911Y-88341536D01*
X205669911Y-88008203D02*
X205717530Y-88055822D01*
X205717530Y-88055822D02*
X205669911Y-88103441D01*
X205669911Y-88103441D02*
X205622292Y-88055822D01*
X205622292Y-88055822D02*
X205669911Y-88008203D01*
X205669911Y-88008203D02*
X205669911Y-88103441D01*
X205241340Y-88960584D02*
X205146102Y-89008203D01*
X205146102Y-89008203D02*
X204955626Y-89008203D01*
X204955626Y-89008203D02*
X204860388Y-88960584D01*
X204860388Y-88960584D02*
X204812769Y-88865345D01*
X204812769Y-88865345D02*
X204812769Y-88817726D01*
X204812769Y-88817726D02*
X204860388Y-88722488D01*
X204860388Y-88722488D02*
X204955626Y-88674869D01*
X204955626Y-88674869D02*
X205098483Y-88674869D01*
X205098483Y-88674869D02*
X205193721Y-88627250D01*
X205193721Y-88627250D02*
X205241340Y-88532012D01*
X205241340Y-88532012D02*
X205241340Y-88484393D01*
X205241340Y-88484393D02*
X205193721Y-88389155D01*
X205193721Y-88389155D02*
X205098483Y-88341536D01*
X205098483Y-88341536D02*
X204955626Y-88341536D01*
X204955626Y-88341536D02*
X204860388Y-88389155D01*
X204431816Y-88960584D02*
X204336578Y-89008203D01*
X204336578Y-89008203D02*
X204146102Y-89008203D01*
X204146102Y-89008203D02*
X204050864Y-88960584D01*
X204050864Y-88960584D02*
X204003245Y-88865345D01*
X204003245Y-88865345D02*
X204003245Y-88817726D01*
X204003245Y-88817726D02*
X204050864Y-88722488D01*
X204050864Y-88722488D02*
X204146102Y-88674869D01*
X204146102Y-88674869D02*
X204288959Y-88674869D01*
X204288959Y-88674869D02*
X204384197Y-88627250D01*
X204384197Y-88627250D02*
X204431816Y-88532012D01*
X204431816Y-88532012D02*
X204431816Y-88484393D01*
X204431816Y-88484393D02*
X204384197Y-88389155D01*
X204384197Y-88389155D02*
X204288959Y-88341536D01*
X204288959Y-88341536D02*
X204146102Y-88341536D01*
X204146102Y-88341536D02*
X204050864Y-88389155D01*
X203574673Y-89008203D02*
X203574673Y-88341536D01*
X203574673Y-88008203D02*
X203622292Y-88055822D01*
X203622292Y-88055822D02*
X203574673Y-88103441D01*
X203574673Y-88103441D02*
X203527054Y-88055822D01*
X203527054Y-88055822D02*
X203574673Y-88008203D01*
X203574673Y-88008203D02*
X203574673Y-88103441D01*
X202955626Y-89008203D02*
X203050864Y-88960584D01*
X203050864Y-88960584D02*
X203098483Y-88912964D01*
X203098483Y-88912964D02*
X203146102Y-88817726D01*
X203146102Y-88817726D02*
X203146102Y-88532012D01*
X203146102Y-88532012D02*
X203098483Y-88436774D01*
X203098483Y-88436774D02*
X203050864Y-88389155D01*
X203050864Y-88389155D02*
X202955626Y-88341536D01*
X202955626Y-88341536D02*
X202812769Y-88341536D01*
X202812769Y-88341536D02*
X202717531Y-88389155D01*
X202717531Y-88389155D02*
X202669912Y-88436774D01*
X202669912Y-88436774D02*
X202622293Y-88532012D01*
X202622293Y-88532012D02*
X202622293Y-88817726D01*
X202622293Y-88817726D02*
X202669912Y-88912964D01*
X202669912Y-88912964D02*
X202717531Y-88960584D01*
X202717531Y-88960584D02*
X202812769Y-89008203D01*
X202812769Y-89008203D02*
X202955626Y-89008203D01*
X202193721Y-88341536D02*
X202193721Y-89008203D01*
X202193721Y-88436774D02*
X202146102Y-88389155D01*
X202146102Y-88389155D02*
X202050864Y-88341536D01*
X202050864Y-88341536D02*
X201908007Y-88341536D01*
X201908007Y-88341536D02*
X201812769Y-88389155D01*
X201812769Y-88389155D02*
X201765150Y-88484393D01*
X201765150Y-88484393D02*
X201765150Y-89008203D01*
X201336578Y-88960584D02*
X201241340Y-89008203D01*
X201241340Y-89008203D02*
X201050864Y-89008203D01*
X201050864Y-89008203D02*
X200955626Y-88960584D01*
X200955626Y-88960584D02*
X200908007Y-88865345D01*
X200908007Y-88865345D02*
X200908007Y-88817726D01*
X200908007Y-88817726D02*
X200955626Y-88722488D01*
X200955626Y-88722488D02*
X201050864Y-88674869D01*
X201050864Y-88674869D02*
X201193721Y-88674869D01*
X201193721Y-88674869D02*
X201288959Y-88627250D01*
X201288959Y-88627250D02*
X201336578Y-88532012D01*
X201336578Y-88532012D02*
X201336578Y-88484393D01*
X201336578Y-88484393D02*
X201288959Y-88389155D01*
X201288959Y-88389155D02*
X201193721Y-88341536D01*
X201193721Y-88341536D02*
X201050864Y-88341536D01*
X201050864Y-88341536D02*
X200955626Y-88389155D01*
X200479435Y-88912964D02*
X200431816Y-88960584D01*
X200431816Y-88960584D02*
X200479435Y-89008203D01*
X200479435Y-89008203D02*
X200527054Y-88960584D01*
X200527054Y-88960584D02*
X200479435Y-88912964D01*
X200479435Y-88912964D02*
X200479435Y-89008203D01*
X199860388Y-89008203D02*
X199955626Y-88960584D01*
X199955626Y-88960584D02*
X200003245Y-88912964D01*
X200003245Y-88912964D02*
X200050864Y-88817726D01*
X200050864Y-88817726D02*
X200050864Y-88532012D01*
X200050864Y-88532012D02*
X200003245Y-88436774D01*
X200003245Y-88436774D02*
X199955626Y-88389155D01*
X199955626Y-88389155D02*
X199860388Y-88341536D01*
X199860388Y-88341536D02*
X199717531Y-88341536D01*
X199717531Y-88341536D02*
X199622293Y-88389155D01*
X199622293Y-88389155D02*
X199574674Y-88436774D01*
X199574674Y-88436774D02*
X199527055Y-88532012D01*
X199527055Y-88532012D02*
X199527055Y-88817726D01*
X199527055Y-88817726D02*
X199574674Y-88912964D01*
X199574674Y-88912964D02*
X199622293Y-88960584D01*
X199622293Y-88960584D02*
X199717531Y-89008203D01*
X199717531Y-89008203D02*
X199860388Y-89008203D01*
X199098483Y-89008203D02*
X199098483Y-88341536D01*
X199098483Y-88532012D02*
X199050864Y-88436774D01*
X199050864Y-88436774D02*
X199003245Y-88389155D01*
X199003245Y-88389155D02*
X198908007Y-88341536D01*
X198908007Y-88341536D02*
X198812769Y-88341536D01*
X198050864Y-88341536D02*
X198050864Y-89151060D01*
X198050864Y-89151060D02*
X198098483Y-89246298D01*
X198098483Y-89246298D02*
X198146102Y-89293917D01*
X198146102Y-89293917D02*
X198241340Y-89341536D01*
X198241340Y-89341536D02*
X198384197Y-89341536D01*
X198384197Y-89341536D02*
X198479435Y-89293917D01*
X198050864Y-88960584D02*
X198146102Y-89008203D01*
X198146102Y-89008203D02*
X198336578Y-89008203D01*
X198336578Y-89008203D02*
X198431816Y-88960584D01*
X198431816Y-88960584D02*
X198479435Y-88912964D01*
X198479435Y-88912964D02*
X198527054Y-88817726D01*
X198527054Y-88817726D02*
X198527054Y-88532012D01*
X198527054Y-88532012D02*
X198479435Y-88436774D01*
X198479435Y-88436774D02*
X198431816Y-88389155D01*
X198431816Y-88389155D02*
X198336578Y-88341536D01*
X198336578Y-88341536D02*
X198146102Y-88341536D01*
X198146102Y-88341536D02*
X198050864Y-88389155D01*
X210908007Y-89618147D02*
X210812769Y-89618147D01*
X210812769Y-89618147D02*
X210717531Y-89665766D01*
X210717531Y-89665766D02*
X210669912Y-89713385D01*
X210669912Y-89713385D02*
X210622293Y-89808623D01*
X210622293Y-89808623D02*
X210574674Y-89999099D01*
X210574674Y-89999099D02*
X210574674Y-90237194D01*
X210574674Y-90237194D02*
X210622293Y-90427670D01*
X210622293Y-90427670D02*
X210669912Y-90522908D01*
X210669912Y-90522908D02*
X210717531Y-90570528D01*
X210717531Y-90570528D02*
X210812769Y-90618147D01*
X210812769Y-90618147D02*
X210908007Y-90618147D01*
X210908007Y-90618147D02*
X211003245Y-90570528D01*
X211003245Y-90570528D02*
X211050864Y-90522908D01*
X211050864Y-90522908D02*
X211098483Y-90427670D01*
X211098483Y-90427670D02*
X211146102Y-90237194D01*
X211146102Y-90237194D02*
X211146102Y-89999099D01*
X211146102Y-89999099D02*
X211098483Y-89808623D01*
X211098483Y-89808623D02*
X211050864Y-89713385D01*
X211050864Y-89713385D02*
X211003245Y-89665766D01*
X211003245Y-89665766D02*
X210908007Y-89618147D01*
X210241340Y-89618147D02*
X209622293Y-89618147D01*
X209622293Y-89618147D02*
X209955626Y-89999099D01*
X209955626Y-89999099D02*
X209812769Y-89999099D01*
X209812769Y-89999099D02*
X209717531Y-90046718D01*
X209717531Y-90046718D02*
X209669912Y-90094337D01*
X209669912Y-90094337D02*
X209622293Y-90189575D01*
X209622293Y-90189575D02*
X209622293Y-90427670D01*
X209622293Y-90427670D02*
X209669912Y-90522908D01*
X209669912Y-90522908D02*
X209717531Y-90570528D01*
X209717531Y-90570528D02*
X209812769Y-90618147D01*
X209812769Y-90618147D02*
X210098483Y-90618147D01*
X210098483Y-90618147D02*
X210193721Y-90570528D01*
X210193721Y-90570528D02*
X210241340Y-90522908D01*
X209193721Y-90237194D02*
X208431817Y-90237194D01*
X207765150Y-89618147D02*
X207669912Y-89618147D01*
X207669912Y-89618147D02*
X207574674Y-89665766D01*
X207574674Y-89665766D02*
X207527055Y-89713385D01*
X207527055Y-89713385D02*
X207479436Y-89808623D01*
X207479436Y-89808623D02*
X207431817Y-89999099D01*
X207431817Y-89999099D02*
X207431817Y-90237194D01*
X207431817Y-90237194D02*
X207479436Y-90427670D01*
X207479436Y-90427670D02*
X207527055Y-90522908D01*
X207527055Y-90522908D02*
X207574674Y-90570528D01*
X207574674Y-90570528D02*
X207669912Y-90618147D01*
X207669912Y-90618147D02*
X207765150Y-90618147D01*
X207765150Y-90618147D02*
X207860388Y-90570528D01*
X207860388Y-90570528D02*
X207908007Y-90522908D01*
X207908007Y-90522908D02*
X207955626Y-90427670D01*
X207955626Y-90427670D02*
X208003245Y-90237194D01*
X208003245Y-90237194D02*
X208003245Y-89999099D01*
X208003245Y-89999099D02*
X207955626Y-89808623D01*
X207955626Y-89808623D02*
X207908007Y-89713385D01*
X207908007Y-89713385D02*
X207860388Y-89665766D01*
X207860388Y-89665766D02*
X207765150Y-89618147D01*
X206955626Y-90618147D02*
X206765150Y-90618147D01*
X206765150Y-90618147D02*
X206669912Y-90570528D01*
X206669912Y-90570528D02*
X206622293Y-90522908D01*
X206622293Y-90522908D02*
X206527055Y-90380051D01*
X206527055Y-90380051D02*
X206479436Y-90189575D01*
X206479436Y-90189575D02*
X206479436Y-89808623D01*
X206479436Y-89808623D02*
X206527055Y-89713385D01*
X206527055Y-89713385D02*
X206574674Y-89665766D01*
X206574674Y-89665766D02*
X206669912Y-89618147D01*
X206669912Y-89618147D02*
X206860388Y-89618147D01*
X206860388Y-89618147D02*
X206955626Y-89665766D01*
X206955626Y-89665766D02*
X207003245Y-89713385D01*
X207003245Y-89713385D02*
X207050864Y-89808623D01*
X207050864Y-89808623D02*
X207050864Y-90046718D01*
X207050864Y-90046718D02*
X207003245Y-90141956D01*
X207003245Y-90141956D02*
X206955626Y-90189575D01*
X206955626Y-90189575D02*
X206860388Y-90237194D01*
X206860388Y-90237194D02*
X206669912Y-90237194D01*
X206669912Y-90237194D02*
X206574674Y-90189575D01*
X206574674Y-90189575D02*
X206527055Y-90141956D01*
X206527055Y-90141956D02*
X206479436Y-90046718D01*
X206050864Y-90237194D02*
X205288960Y-90237194D01*
X204860388Y-89713385D02*
X204812769Y-89665766D01*
X204812769Y-89665766D02*
X204717531Y-89618147D01*
X204717531Y-89618147D02*
X204479436Y-89618147D01*
X204479436Y-89618147D02*
X204384198Y-89665766D01*
X204384198Y-89665766D02*
X204336579Y-89713385D01*
X204336579Y-89713385D02*
X204288960Y-89808623D01*
X204288960Y-89808623D02*
X204288960Y-89903861D01*
X204288960Y-89903861D02*
X204336579Y-90046718D01*
X204336579Y-90046718D02*
X204908007Y-90618147D01*
X204908007Y-90618147D02*
X204288960Y-90618147D01*
X203431817Y-89951480D02*
X203431817Y-90618147D01*
X203669912Y-89570528D02*
X203908007Y-90284813D01*
X203908007Y-90284813D02*
X203288960Y-90284813D01*
X211193721Y-91561424D02*
X210955626Y-92228091D01*
X210955626Y-92228091D02*
X210717531Y-91561424D01*
X209812769Y-92228091D02*
X210384197Y-92228091D01*
X210098483Y-92228091D02*
X210098483Y-91228091D01*
X210098483Y-91228091D02*
X210193721Y-91370948D01*
X210193721Y-91370948D02*
X210288959Y-91466186D01*
X210288959Y-91466186D02*
X210384197Y-91513805D01*
X209384197Y-92132852D02*
X209336578Y-92180472D01*
X209336578Y-92180472D02*
X209384197Y-92228091D01*
X209384197Y-92228091D02*
X209431816Y-92180472D01*
X209431816Y-92180472D02*
X209384197Y-92132852D01*
X209384197Y-92132852D02*
X209384197Y-92228091D01*
X208384198Y-92228091D02*
X208955626Y-92228091D01*
X208669912Y-92228091D02*
X208669912Y-91228091D01*
X208669912Y-91228091D02*
X208765150Y-91370948D01*
X208765150Y-91370948D02*
X208860388Y-91466186D01*
X208860388Y-91466186D02*
X208955626Y-91513805D01*
D11*
X215895517Y-88830838D02*
X215990755Y-88783219D01*
X215990755Y-88783219D02*
X216133612Y-88783219D01*
X216133612Y-88783219D02*
X216276469Y-88830838D01*
X216276469Y-88830838D02*
X216371707Y-88926076D01*
X216371707Y-88926076D02*
X216419326Y-89021314D01*
X216419326Y-89021314D02*
X216466945Y-89211790D01*
X216466945Y-89211790D02*
X216466945Y-89354647D01*
X216466945Y-89354647D02*
X216419326Y-89545123D01*
X216419326Y-89545123D02*
X216371707Y-89640361D01*
X216371707Y-89640361D02*
X216276469Y-89735600D01*
X216276469Y-89735600D02*
X216133612Y-89783219D01*
X216133612Y-89783219D02*
X216038374Y-89783219D01*
X216038374Y-89783219D02*
X215895517Y-89735600D01*
X215895517Y-89735600D02*
X215847898Y-89687980D01*
X215847898Y-89687980D02*
X215847898Y-89354647D01*
X215847898Y-89354647D02*
X216038374Y-89354647D01*
X215419326Y-89116552D02*
X215419326Y-89783219D01*
X215419326Y-89211790D02*
X215371707Y-89164171D01*
X215371707Y-89164171D02*
X215276469Y-89116552D01*
X215276469Y-89116552D02*
X215133612Y-89116552D01*
X215133612Y-89116552D02*
X215038374Y-89164171D01*
X215038374Y-89164171D02*
X214990755Y-89259409D01*
X214990755Y-89259409D02*
X214990755Y-89783219D01*
X214085993Y-89783219D02*
X214085993Y-88783219D01*
X214085993Y-89735600D02*
X214181231Y-89783219D01*
X214181231Y-89783219D02*
X214371707Y-89783219D01*
X214371707Y-89783219D02*
X214466945Y-89735600D01*
X214466945Y-89735600D02*
X214514564Y-89687980D01*
X214514564Y-89687980D02*
X214562183Y-89592742D01*
X214562183Y-89592742D02*
X214562183Y-89307028D01*
X214562183Y-89307028D02*
X214514564Y-89211790D01*
X214514564Y-89211790D02*
X214466945Y-89164171D01*
X214466945Y-89164171D02*
X214371707Y-89116552D01*
X214371707Y-89116552D02*
X214181231Y-89116552D01*
X214181231Y-89116552D02*
X214085993Y-89164171D01*
D14*
X219408333Y-103765819D02*
X219408333Y-104480104D01*
X219408333Y-104480104D02*
X219455952Y-104622961D01*
X219455952Y-104622961D02*
X219551190Y-104718200D01*
X219551190Y-104718200D02*
X219694047Y-104765819D01*
X219694047Y-104765819D02*
X219789285Y-104765819D01*
X218979761Y-103861057D02*
X218932142Y-103813438D01*
X218932142Y-103813438D02*
X218836904Y-103765819D01*
X218836904Y-103765819D02*
X218598809Y-103765819D01*
X218598809Y-103765819D02*
X218503571Y-103813438D01*
X218503571Y-103813438D02*
X218455952Y-103861057D01*
X218455952Y-103861057D02*
X218408333Y-103956295D01*
X218408333Y-103956295D02*
X218408333Y-104051533D01*
X218408333Y-104051533D02*
X218455952Y-104194390D01*
X218455952Y-104194390D02*
X219027380Y-104765819D01*
X219027380Y-104765819D02*
X218408333Y-104765819D01*
X198314819Y-94416666D02*
X199029104Y-94416666D01*
X199029104Y-94416666D02*
X199171961Y-94369047D01*
X199171961Y-94369047D02*
X199267200Y-94273809D01*
X199267200Y-94273809D02*
X199314819Y-94130952D01*
X199314819Y-94130952D02*
X199314819Y-94035714D01*
X199314819Y-94892857D02*
X198314819Y-94892857D01*
X198314819Y-94892857D02*
X198314819Y-95273809D01*
X198314819Y-95273809D02*
X198362438Y-95369047D01*
X198362438Y-95369047D02*
X198410057Y-95416666D01*
X198410057Y-95416666D02*
X198505295Y-95464285D01*
X198505295Y-95464285D02*
X198648152Y-95464285D01*
X198648152Y-95464285D02*
X198743390Y-95416666D01*
X198743390Y-95416666D02*
X198791009Y-95369047D01*
X198791009Y-95369047D02*
X198838628Y-95273809D01*
X198838628Y-95273809D02*
X198838628Y-94892857D01*
X198410057Y-95845238D02*
X198362438Y-95892857D01*
X198362438Y-95892857D02*
X198314819Y-95988095D01*
X198314819Y-95988095D02*
X198314819Y-96226190D01*
X198314819Y-96226190D02*
X198362438Y-96321428D01*
X198362438Y-96321428D02*
X198410057Y-96369047D01*
X198410057Y-96369047D02*
X198505295Y-96416666D01*
X198505295Y-96416666D02*
X198600533Y-96416666D01*
X198600533Y-96416666D02*
X198743390Y-96369047D01*
X198743390Y-96369047D02*
X199314819Y-95797619D01*
X199314819Y-95797619D02*
X199314819Y-96416666D01*
D15*
G04 #@! TO.C,J2*
X217043000Y-87951000D02*
X221107000Y-87951000D01*
X217043000Y-103251000D02*
X217043000Y-87951000D01*
X217043000Y-103251000D02*
X221107000Y-103251000D01*
X221107000Y-103251000D02*
X221107000Y-87951000D01*
G04 #@! TO.C,JP2*
X199660000Y-95950000D02*
X199660000Y-94550000D01*
X200360000Y-93850000D02*
X200960000Y-93850000D01*
X200960000Y-96650000D02*
X200360000Y-96650000D01*
X201660000Y-94550000D02*
X201660000Y-95950000D01*
X199660000Y-94550000D02*
G75*
G02*
X200360000Y-93850000I699999J1D01*
G01*
X200360000Y-96650000D02*
G75*
G02*
X199660000Y-95950000I0J700000D01*
G01*
X200960000Y-93850000D02*
G75*
G02*
X201660000Y-94550000I1J-699999D01*
G01*
X201660000Y-95950000D02*
G75*
G02*
X200960000Y-96650000I-700000J0D01*
G01*
D16*
G04 #@! TO.C,REF\u002A\u002A*
X185061829Y-106726097D02*
X185121753Y-106748355D01*
X185146673Y-106765080D01*
X185171910Y-106789043D01*
X185189912Y-106819526D01*
X185201858Y-106861023D01*
X185208930Y-106918032D01*
X185212308Y-106995047D01*
X185213171Y-107096565D01*
X185213002Y-107149027D01*
X185212153Y-107220715D01*
X185210711Y-107277925D01*
X185208814Y-107315809D01*
X185206597Y-107329514D01*
X185192172Y-107324981D01*
X185163054Y-107312670D01*
X185162181Y-107312272D01*
X185147060Y-107304356D01*
X185136891Y-107293495D01*
X185130691Y-107274471D01*
X185127478Y-107242069D01*
X185126270Y-107191071D01*
X185126086Y-107116261D01*
X185125714Y-107068804D01*
X185121750Y-106979615D01*
X185112673Y-106914287D01*
X185097524Y-106869393D01*
X185075345Y-106841507D01*
X185045175Y-106827203D01*
X185040990Y-106826206D01*
X184984480Y-106825427D01*
X184940410Y-106850744D01*
X184909972Y-106901502D01*
X184904544Y-106916175D01*
X184892171Y-106948649D01*
X184885905Y-106963572D01*
X184873036Y-106961516D01*
X184844933Y-106950357D01*
X184818721Y-106931927D01*
X184806771Y-106897098D01*
X184810336Y-106872151D01*
X184832235Y-106821547D01*
X184867644Y-106774128D01*
X184909052Y-106741334D01*
X184926400Y-106733752D01*
X184992089Y-106721076D01*
X185061829Y-106726097D01*
G36*
X185061829Y-106726097D02*
G01*
X185121753Y-106748355D01*
X185146673Y-106765080D01*
X185171910Y-106789043D01*
X185189912Y-106819526D01*
X185201858Y-106861023D01*
X185208930Y-106918032D01*
X185212308Y-106995047D01*
X185213171Y-107096565D01*
X185213002Y-107149027D01*
X185212153Y-107220715D01*
X185210711Y-107277925D01*
X185208814Y-107315809D01*
X185206597Y-107329514D01*
X185192172Y-107324981D01*
X185163054Y-107312670D01*
X185162181Y-107312272D01*
X185147060Y-107304356D01*
X185136891Y-107293495D01*
X185130691Y-107274471D01*
X185127478Y-107242069D01*
X185126270Y-107191071D01*
X185126086Y-107116261D01*
X185125714Y-107068804D01*
X185121750Y-106979615D01*
X185112673Y-106914287D01*
X185097524Y-106869393D01*
X185075345Y-106841507D01*
X185045175Y-106827203D01*
X185040990Y-106826206D01*
X184984480Y-106825427D01*
X184940410Y-106850744D01*
X184909972Y-106901502D01*
X184904544Y-106916175D01*
X184892171Y-106948649D01*
X184885905Y-106963572D01*
X184873036Y-106961516D01*
X184844933Y-106950357D01*
X184818721Y-106931927D01*
X184806771Y-106897098D01*
X184810336Y-106872151D01*
X184832235Y-106821547D01*
X184867644Y-106774128D01*
X184909052Y-106741334D01*
X184926400Y-106733752D01*
X184992089Y-106721076D01*
X185061829Y-106726097D01*
G37*
X189010020Y-106692822D02*
X189077810Y-106724680D01*
X189133366Y-106779770D01*
X189144881Y-106797016D01*
X189154432Y-106816562D01*
X189161206Y-106841198D01*
X189165819Y-106875711D01*
X189168888Y-106924889D01*
X189171029Y-106993519D01*
X189172859Y-107086389D01*
X189177404Y-107344007D01*
X189139225Y-107329491D01*
X189104268Y-107316156D01*
X189078097Y-107303323D01*
X189061013Y-107286780D01*
X189051086Y-107261465D01*
X189046386Y-107222316D01*
X189044982Y-107164268D01*
X189044943Y-107082261D01*
X189044744Y-107016895D01*
X189043559Y-106954173D01*
X189040729Y-106911334D01*
X189035609Y-106883220D01*
X189027553Y-106864675D01*
X189015914Y-106850543D01*
X188987303Y-106830600D01*
X188939239Y-106823083D01*
X188891688Y-106842079D01*
X188888550Y-106844511D01*
X188878769Y-106855748D01*
X188871553Y-106873770D01*
X188866299Y-106903026D01*
X188862402Y-106947962D01*
X188859256Y-107013028D01*
X188856257Y-107102670D01*
X188849000Y-107342697D01*
X188787314Y-107315044D01*
X188725629Y-107287391D01*
X188725629Y-107068246D01*
X188725884Y-107008711D01*
X188728086Y-106925892D01*
X188733661Y-106864227D01*
X188743941Y-106818748D01*
X188760258Y-106784484D01*
X188783943Y-106756466D01*
X188816328Y-106729723D01*
X188862907Y-106702780D01*
X188936287Y-106685191D01*
X189010020Y-106692822D01*
G36*
X189010020Y-106692822D02*
G01*
X189077810Y-106724680D01*
X189133366Y-106779770D01*
X189144881Y-106797016D01*
X189154432Y-106816562D01*
X189161206Y-106841198D01*
X189165819Y-106875711D01*
X189168888Y-106924889D01*
X189171029Y-106993519D01*
X189172859Y-107086389D01*
X189177404Y-107344007D01*
X189139225Y-107329491D01*
X189104268Y-107316156D01*
X189078097Y-107303323D01*
X189061013Y-107286780D01*
X189051086Y-107261465D01*
X189046386Y-107222316D01*
X189044982Y-107164268D01*
X189044943Y-107082261D01*
X189044744Y-107016895D01*
X189043559Y-106954173D01*
X189040729Y-106911334D01*
X189035609Y-106883220D01*
X189027553Y-106864675D01*
X189015914Y-106850543D01*
X188987303Y-106830600D01*
X188939239Y-106823083D01*
X188891688Y-106842079D01*
X188888550Y-106844511D01*
X188878769Y-106855748D01*
X188871553Y-106873770D01*
X188866299Y-106903026D01*
X188862402Y-106947962D01*
X188859256Y-107013028D01*
X188856257Y-107102670D01*
X188849000Y-107342697D01*
X188787314Y-107315044D01*
X188725629Y-107287391D01*
X188725629Y-107068246D01*
X188725884Y-107008711D01*
X188728086Y-106925892D01*
X188733661Y-106864227D01*
X188743941Y-106818748D01*
X188760258Y-106784484D01*
X188783943Y-106756466D01*
X188816328Y-106729723D01*
X188862907Y-106702780D01*
X188936287Y-106685191D01*
X189010020Y-106692822D01*
G37*
X187186691Y-106741467D02*
X187191273Y-106744003D01*
X187228704Y-106773057D01*
X187262170Y-106810410D01*
X187268007Y-106818852D01*
X187279165Y-106838553D01*
X187287136Y-106861935D01*
X187292618Y-106894067D01*
X187296307Y-106940019D01*
X187298899Y-107004859D01*
X187301092Y-107093657D01*
X187301402Y-107108669D01*
X187302400Y-107205999D01*
X187300994Y-107274934D01*
X187297164Y-107315948D01*
X187290889Y-107329514D01*
X187271898Y-107325452D01*
X187239638Y-107313144D01*
X187232041Y-107309545D01*
X187220176Y-107301398D01*
X187211994Y-107288004D01*
X187206643Y-107264608D01*
X187203269Y-107226455D01*
X187201019Y-107168790D01*
X187199040Y-107086857D01*
X187198498Y-107062907D01*
X187196403Y-106987266D01*
X187193683Y-106934328D01*
X187189515Y-106899075D01*
X187183079Y-106876487D01*
X187173550Y-106861544D01*
X187160106Y-106849227D01*
X187120305Y-106827634D01*
X187071341Y-106823476D01*
X187027529Y-106839999D01*
X186996008Y-106874210D01*
X186983914Y-106923114D01*
X186983578Y-106936407D01*
X186976972Y-106960472D01*
X186957470Y-106964144D01*
X186919283Y-106949813D01*
X186910438Y-106945217D01*
X186886534Y-106918186D01*
X186886061Y-106877994D01*
X186908836Y-106822409D01*
X186929727Y-106792117D01*
X186983142Y-106749084D01*
X187049074Y-106724755D01*
X187119574Y-106721443D01*
X187186691Y-106741467D01*
G36*
X187186691Y-106741467D02*
G01*
X187191273Y-106744003D01*
X187228704Y-106773057D01*
X187262170Y-106810410D01*
X187268007Y-106818852D01*
X187279165Y-106838553D01*
X187287136Y-106861935D01*
X187292618Y-106894067D01*
X187296307Y-106940019D01*
X187298899Y-107004859D01*
X187301092Y-107093657D01*
X187301402Y-107108669D01*
X187302400Y-107205999D01*
X187300994Y-107274934D01*
X187297164Y-107315948D01*
X187290889Y-107329514D01*
X187271898Y-107325452D01*
X187239638Y-107313144D01*
X187232041Y-107309545D01*
X187220176Y-107301398D01*
X187211994Y-107288004D01*
X187206643Y-107264608D01*
X187203269Y-107226455D01*
X187201019Y-107168790D01*
X187199040Y-107086857D01*
X187198498Y-107062907D01*
X187196403Y-106987266D01*
X187193683Y-106934328D01*
X187189515Y-106899075D01*
X187183079Y-106876487D01*
X187173550Y-106861544D01*
X187160106Y-106849227D01*
X187120305Y-106827634D01*
X187071341Y-106823476D01*
X187027529Y-106839999D01*
X186996008Y-106874210D01*
X186983914Y-106923114D01*
X186983578Y-106936407D01*
X186976972Y-106960472D01*
X186957470Y-106964144D01*
X186919283Y-106949813D01*
X186910438Y-106945217D01*
X186886534Y-106918186D01*
X186886061Y-106877994D01*
X186908836Y-106822409D01*
X186929727Y-106792117D01*
X186983142Y-106749084D01*
X187049074Y-106724755D01*
X187119574Y-106721443D01*
X187186691Y-106741467D01*
G37*
X186232941Y-106724282D02*
X186264774Y-106736758D01*
X186301743Y-106753602D01*
X186301743Y-107240196D01*
X186255812Y-107286127D01*
X186245320Y-107296427D01*
X186216255Y-107319320D01*
X186186943Y-107326735D01*
X186143326Y-107323321D01*
X186125568Y-107321114D01*
X186079767Y-107316445D01*
X186047743Y-107314585D01*
X186038244Y-107314869D01*
X185999274Y-107317948D01*
X185952160Y-107323321D01*
X185937085Y-107325168D01*
X185899110Y-107325893D01*
X185871325Y-107314429D01*
X185839674Y-107286127D01*
X185793743Y-107240196D01*
X185793743Y-106980055D01*
X185794101Y-106903180D01*
X185795216Y-106829886D01*
X185796952Y-106771850D01*
X185799167Y-106733663D01*
X185801721Y-106719914D01*
X185802256Y-106719951D01*
X185820808Y-106726793D01*
X185852153Y-106741868D01*
X185894608Y-106763822D01*
X185898604Y-106992240D01*
X185902600Y-107220657D01*
X185989686Y-107220657D01*
X185993657Y-106970286D01*
X185994916Y-106902227D01*
X185996718Y-106829482D01*
X185998671Y-106771730D01*
X186000612Y-106733648D01*
X186002377Y-106719914D01*
X186002885Y-106719962D01*
X186020482Y-106725015D01*
X186052834Y-106735849D01*
X186098543Y-106751783D01*
X186098765Y-106971706D01*
X186098988Y-107009909D01*
X186100531Y-107084146D01*
X186103292Y-107146145D01*
X186106977Y-107190308D01*
X186111292Y-107211041D01*
X186126732Y-107222131D01*
X186158241Y-107225556D01*
X186192886Y-107220657D01*
X186196857Y-106970286D01*
X186198278Y-106906663D01*
X186201225Y-106831356D01*
X186205079Y-106772286D01*
X186209542Y-106733718D01*
X186214317Y-106719914D01*
X186232941Y-106724282D01*
G36*
X186232941Y-106724282D02*
G01*
X186264774Y-106736758D01*
X186301743Y-106753602D01*
X186301743Y-107240196D01*
X186255812Y-107286127D01*
X186245320Y-107296427D01*
X186216255Y-107319320D01*
X186186943Y-107326735D01*
X186143326Y-107323321D01*
X186125568Y-107321114D01*
X186079767Y-107316445D01*
X186047743Y-107314585D01*
X186038244Y-107314869D01*
X185999274Y-107317948D01*
X185952160Y-107323321D01*
X185937085Y-107325168D01*
X185899110Y-107325893D01*
X185871325Y-107314429D01*
X185839674Y-107286127D01*
X185793743Y-107240196D01*
X185793743Y-106980055D01*
X185794101Y-106903180D01*
X185795216Y-106829886D01*
X185796952Y-106771850D01*
X185799167Y-106733663D01*
X185801721Y-106719914D01*
X185802256Y-106719951D01*
X185820808Y-106726793D01*
X185852153Y-106741868D01*
X185894608Y-106763822D01*
X185898604Y-106992240D01*
X185902600Y-107220657D01*
X185989686Y-107220657D01*
X185993657Y-106970286D01*
X185994916Y-106902227D01*
X185996718Y-106829482D01*
X185998671Y-106771730D01*
X186000612Y-106733648D01*
X186002377Y-106719914D01*
X186002885Y-106719962D01*
X186020482Y-106725015D01*
X186052834Y-106735849D01*
X186098543Y-106751783D01*
X186098765Y-106971706D01*
X186098988Y-107009909D01*
X186100531Y-107084146D01*
X186103292Y-107146145D01*
X186106977Y-107190308D01*
X186111292Y-107211041D01*
X186126732Y-107222131D01*
X186158241Y-107225556D01*
X186192886Y-107220657D01*
X186196857Y-106970286D01*
X186198278Y-106906663D01*
X186201225Y-106831356D01*
X186205079Y-106772286D01*
X186209542Y-106733718D01*
X186214317Y-106719914D01*
X186232941Y-106724282D01*
G37*
X188257543Y-106524444D02*
X188304714Y-106544342D01*
X188304714Y-106941509D01*
X188304519Y-107044498D01*
X188303998Y-107137141D01*
X188303199Y-107215700D01*
X188302172Y-107276439D01*
X188300963Y-107315623D01*
X188299623Y-107329514D01*
X188299099Y-107329468D01*
X188281287Y-107324420D01*
X188248823Y-107313580D01*
X188203114Y-107297646D01*
X188203114Y-107093173D01*
X188202824Y-107012832D01*
X188201474Y-106954562D01*
X188198369Y-106914909D01*
X188192812Y-106888618D01*
X188184107Y-106870436D01*
X188171556Y-106855107D01*
X188162999Y-106846955D01*
X188116728Y-106824375D01*
X188065728Y-106826375D01*
X188018993Y-106853073D01*
X188012189Y-106859698D01*
X188001293Y-106873456D01*
X187993836Y-106891642D01*
X187989169Y-106919177D01*
X187986642Y-106960981D01*
X187985602Y-107021973D01*
X187985400Y-107107073D01*
X187985303Y-107150234D01*
X187984674Y-107221224D01*
X187983556Y-107278076D01*
X187982063Y-107315828D01*
X187980309Y-107329514D01*
X187979785Y-107329468D01*
X187961973Y-107324420D01*
X187929509Y-107313580D01*
X187883800Y-107297646D01*
X187883823Y-107092237D01*
X187883857Y-107073951D01*
X187885778Y-106978626D01*
X187891678Y-106906543D01*
X187903001Y-106852813D01*
X187921187Y-106812549D01*
X187947679Y-106780861D01*
X187983918Y-106752861D01*
X188019263Y-106735333D01*
X188075773Y-106721785D01*
X188131356Y-106721015D01*
X188174086Y-106734195D01*
X188177298Y-106736015D01*
X188187205Y-106735820D01*
X188193975Y-106720572D01*
X188198861Y-106685613D01*
X188203114Y-106626289D01*
X188210371Y-106504547D01*
X188257543Y-106524444D01*
G36*
X188257543Y-106524444D02*
G01*
X188304714Y-106544342D01*
X188304714Y-106941509D01*
X188304519Y-107044498D01*
X188303998Y-107137141D01*
X188303199Y-107215700D01*
X188302172Y-107276439D01*
X188300963Y-107315623D01*
X188299623Y-107329514D01*
X188299099Y-107329468D01*
X188281287Y-107324420D01*
X188248823Y-107313580D01*
X188203114Y-107297646D01*
X188203114Y-107093173D01*
X188202824Y-107012832D01*
X188201474Y-106954562D01*
X188198369Y-106914909D01*
X188192812Y-106888618D01*
X188184107Y-106870436D01*
X188171556Y-106855107D01*
X188162999Y-106846955D01*
X188116728Y-106824375D01*
X188065728Y-106826375D01*
X188018993Y-106853073D01*
X188012189Y-106859698D01*
X188001293Y-106873456D01*
X187993836Y-106891642D01*
X187989169Y-106919177D01*
X187986642Y-106960981D01*
X187985602Y-107021973D01*
X187985400Y-107107073D01*
X187985303Y-107150234D01*
X187984674Y-107221224D01*
X187983556Y-107278076D01*
X187982063Y-107315828D01*
X187980309Y-107329514D01*
X187979785Y-107329468D01*
X187961973Y-107324420D01*
X187929509Y-107313580D01*
X187883800Y-107297646D01*
X187883823Y-107092237D01*
X187883857Y-107073951D01*
X187885778Y-106978626D01*
X187891678Y-106906543D01*
X187903001Y-106852813D01*
X187921187Y-106812549D01*
X187947679Y-106780861D01*
X187983918Y-106752861D01*
X188019263Y-106735333D01*
X188075773Y-106721785D01*
X188131356Y-106721015D01*
X188174086Y-106734195D01*
X188177298Y-106736015D01*
X188187205Y-106735820D01*
X188193975Y-106720572D01*
X188198861Y-106685613D01*
X188203114Y-106626289D01*
X188210371Y-106504547D01*
X188257543Y-106524444D01*
G37*
X190844714Y-107010200D02*
X190844701Y-107025935D01*
X190843914Y-107096119D01*
X190841210Y-107145022D01*
X190835606Y-107179178D01*
X190826119Y-107205124D01*
X190811768Y-107229397D01*
X190808237Y-107234433D01*
X190770878Y-107274143D01*
X190728311Y-107304092D01*
X190706452Y-107313810D01*
X190627908Y-107330020D01*
X190550231Y-107319535D01*
X190478645Y-107283707D01*
X190418374Y-107223887D01*
X190413286Y-107215873D01*
X190396730Y-107169342D01*
X190385573Y-107104552D01*
X190380160Y-107029727D01*
X190380768Y-106960513D01*
X190527248Y-106960513D01*
X190528402Y-107056399D01*
X190528866Y-107062569D01*
X190535629Y-107115478D01*
X190547671Y-107149029D01*
X190568005Y-107172016D01*
X190602097Y-107193548D01*
X190635814Y-107194680D01*
X190670543Y-107169857D01*
X190676584Y-107163325D01*
X190688417Y-107143779D01*
X190695404Y-107115386D01*
X190698727Y-107071430D01*
X190699571Y-107005192D01*
X190698125Y-106943150D01*
X190690907Y-106884042D01*
X190676006Y-106846686D01*
X190651636Y-106827152D01*
X190616008Y-106821514D01*
X190602440Y-106822635D01*
X190564430Y-106843194D01*
X190539312Y-106889299D01*
X190527248Y-106960513D01*
X190380768Y-106960513D01*
X190380833Y-106953096D01*
X190387937Y-106882882D01*
X190401815Y-106827312D01*
X190419649Y-106790301D01*
X190469855Y-106732733D01*
X190537885Y-106696962D01*
X190621158Y-106684665D01*
X190643398Y-106685331D01*
X190708891Y-106698947D01*
X190762687Y-106733249D01*
X190812057Y-106792338D01*
X190814995Y-106796722D01*
X190828287Y-106820299D01*
X190836932Y-106846949D01*
X190841904Y-106883159D01*
X190844174Y-106935413D01*
X190844678Y-107005192D01*
X190844714Y-107010200D01*
G36*
X190844714Y-107010200D02*
G01*
X190844701Y-107025935D01*
X190843914Y-107096119D01*
X190841210Y-107145022D01*
X190835606Y-107179178D01*
X190826119Y-107205124D01*
X190811768Y-107229397D01*
X190808237Y-107234433D01*
X190770878Y-107274143D01*
X190728311Y-107304092D01*
X190706452Y-107313810D01*
X190627908Y-107330020D01*
X190550231Y-107319535D01*
X190478645Y-107283707D01*
X190418374Y-107223887D01*
X190413286Y-107215873D01*
X190396730Y-107169342D01*
X190385573Y-107104552D01*
X190380160Y-107029727D01*
X190380768Y-106960513D01*
X190527248Y-106960513D01*
X190528402Y-107056399D01*
X190528866Y-107062569D01*
X190535629Y-107115478D01*
X190547671Y-107149029D01*
X190568005Y-107172016D01*
X190602097Y-107193548D01*
X190635814Y-107194680D01*
X190670543Y-107169857D01*
X190676584Y-107163325D01*
X190688417Y-107143779D01*
X190695404Y-107115386D01*
X190698727Y-107071430D01*
X190699571Y-107005192D01*
X190698125Y-106943150D01*
X190690907Y-106884042D01*
X190676006Y-106846686D01*
X190651636Y-106827152D01*
X190616008Y-106821514D01*
X190602440Y-106822635D01*
X190564430Y-106843194D01*
X190539312Y-106889299D01*
X190527248Y-106960513D01*
X190380768Y-106960513D01*
X190380833Y-106953096D01*
X190387937Y-106882882D01*
X190401815Y-106827312D01*
X190419649Y-106790301D01*
X190469855Y-106732733D01*
X190537885Y-106696962D01*
X190621158Y-106684665D01*
X190643398Y-106685331D01*
X190708891Y-106698947D01*
X190762687Y-106733249D01*
X190812057Y-106792338D01*
X190814995Y-106796722D01*
X190828287Y-106820299D01*
X190836932Y-106846949D01*
X190841904Y-106883159D01*
X190844174Y-106935413D01*
X190844678Y-107005192D01*
X190844714Y-107010200D01*
G37*
X184719590Y-107027622D02*
X184719307Y-107066305D01*
X184715762Y-107142521D01*
X184706483Y-107198294D01*
X184689375Y-107239613D01*
X184662344Y-107272467D01*
X184623292Y-107302846D01*
X184598445Y-107316660D01*
X184558615Y-107325965D01*
X184502665Y-107325230D01*
X184471385Y-107322283D01*
X184433653Y-107313283D01*
X184403494Y-107293720D01*
X184368408Y-107257267D01*
X184363720Y-107251943D01*
X184332177Y-107210969D01*
X184317128Y-107175283D01*
X184313286Y-107132966D01*
X184313286Y-107070779D01*
X184356742Y-107087182D01*
X184388424Y-107106356D01*
X184415962Y-107151347D01*
X184421711Y-107165752D01*
X184453855Y-107206546D01*
X184497611Y-107227081D01*
X184545254Y-107225235D01*
X184589057Y-107198886D01*
X184604111Y-107182455D01*
X184617763Y-107157667D01*
X184613493Y-107135144D01*
X184588916Y-107111964D01*
X184541651Y-107085202D01*
X184469314Y-107051934D01*
X184320543Y-106986816D01*
X184316595Y-106922308D01*
X184318079Y-106881220D01*
X184415010Y-106881220D01*
X184422368Y-106906657D01*
X184455848Y-106933814D01*
X184516614Y-106964714D01*
X184526669Y-106969190D01*
X184574751Y-106990017D01*
X184610726Y-107004665D01*
X184627444Y-107010200D01*
X184629977Y-107006126D01*
X184630993Y-106981247D01*
X184627369Y-106941257D01*
X184618242Y-106902152D01*
X184589773Y-106852884D01*
X184548678Y-106825122D01*
X184499590Y-106821364D01*
X184447144Y-106844109D01*
X184432609Y-106855481D01*
X184415010Y-106881220D01*
X184318079Y-106881220D01*
X184318338Y-106874064D01*
X184340281Y-106813096D01*
X184367979Y-106779497D01*
X184425405Y-106741966D01*
X184493527Y-106723006D01*
X184563947Y-106724507D01*
X184628267Y-106748355D01*
X184642426Y-106757513D01*
X184674904Y-106785849D01*
X184697116Y-106821695D01*
X184710804Y-106870384D01*
X184717715Y-106937249D01*
X184718628Y-106981247D01*
X184719590Y-107027622D01*
G36*
X184719590Y-107027622D02*
G01*
X184719307Y-107066305D01*
X184715762Y-107142521D01*
X184706483Y-107198294D01*
X184689375Y-107239613D01*
X184662344Y-107272467D01*
X184623292Y-107302846D01*
X184598445Y-107316660D01*
X184558615Y-107325965D01*
X184502665Y-107325230D01*
X184471385Y-107322283D01*
X184433653Y-107313283D01*
X184403494Y-107293720D01*
X184368408Y-107257267D01*
X184363720Y-107251943D01*
X184332177Y-107210969D01*
X184317128Y-107175283D01*
X184313286Y-107132966D01*
X184313286Y-107070779D01*
X184356742Y-107087182D01*
X184388424Y-107106356D01*
X184415962Y-107151347D01*
X184421711Y-107165752D01*
X184453855Y-107206546D01*
X184497611Y-107227081D01*
X184545254Y-107225235D01*
X184589057Y-107198886D01*
X184604111Y-107182455D01*
X184617763Y-107157667D01*
X184613493Y-107135144D01*
X184588916Y-107111964D01*
X184541651Y-107085202D01*
X184469314Y-107051934D01*
X184320543Y-106986816D01*
X184316595Y-106922308D01*
X184318079Y-106881220D01*
X184415010Y-106881220D01*
X184422368Y-106906657D01*
X184455848Y-106933814D01*
X184516614Y-106964714D01*
X184526669Y-106969190D01*
X184574751Y-106990017D01*
X184610726Y-107004665D01*
X184627444Y-107010200D01*
X184629977Y-107006126D01*
X184630993Y-106981247D01*
X184627369Y-106941257D01*
X184618242Y-106902152D01*
X184589773Y-106852884D01*
X184548678Y-106825122D01*
X184499590Y-106821364D01*
X184447144Y-106844109D01*
X184432609Y-106855481D01*
X184415010Y-106881220D01*
X184318079Y-106881220D01*
X184318338Y-106874064D01*
X184340281Y-106813096D01*
X184367979Y-106779497D01*
X184425405Y-106741966D01*
X184493527Y-106723006D01*
X184563947Y-106724507D01*
X184628267Y-106748355D01*
X184642426Y-106757513D01*
X184674904Y-106785849D01*
X184697116Y-106821695D01*
X184710804Y-106870384D01*
X184717715Y-106937249D01*
X184718628Y-106981247D01*
X184719590Y-107027622D01*
G37*
X186809698Y-107024714D02*
X186808537Y-107081313D01*
X186800345Y-107158462D01*
X186782519Y-107216276D01*
X186752975Y-107260422D01*
X186709625Y-107296568D01*
X186668332Y-107317463D01*
X186598987Y-107329090D01*
X186529736Y-107316377D01*
X186467145Y-107280945D01*
X186417779Y-107224418D01*
X186411818Y-107213995D01*
X186403945Y-107195733D01*
X186398106Y-107172429D01*
X186393999Y-107140085D01*
X186391325Y-107094704D01*
X186389781Y-107032287D01*
X186389734Y-107026748D01*
X186490429Y-107026748D01*
X186490772Y-107079577D01*
X186492942Y-107127362D01*
X186498307Y-107158209D01*
X186508217Y-107178935D01*
X186524021Y-107196356D01*
X186527724Y-107199705D01*
X186575299Y-107224419D01*
X186625635Y-107221890D01*
X186672517Y-107192288D01*
X186686477Y-107176953D01*
X186698160Y-107156622D01*
X186704686Y-107128514D01*
X186707524Y-107085550D01*
X186708143Y-107020647D01*
X186707837Y-106971122D01*
X186705722Y-106922782D01*
X186700390Y-106891587D01*
X186690460Y-106870647D01*
X186674550Y-106853073D01*
X186665204Y-106845159D01*
X186616776Y-106823843D01*
X186566040Y-106827198D01*
X186521987Y-106855107D01*
X186512504Y-106866173D01*
X186500939Y-106887009D01*
X186494252Y-106916106D01*
X186491173Y-106960381D01*
X186490429Y-107026748D01*
X186389734Y-107026748D01*
X186389067Y-106948837D01*
X186388883Y-106840358D01*
X186388829Y-106503601D01*
X186436000Y-106523362D01*
X186448472Y-106528770D01*
X186468324Y-106540985D01*
X186479687Y-106559482D01*
X186485933Y-106591829D01*
X186490429Y-106645593D01*
X186494535Y-106693866D01*
X186499963Y-106725557D01*
X186507739Y-106737383D01*
X186519457Y-106734212D01*
X186549318Y-106723067D01*
X186602684Y-106720304D01*
X186660093Y-106730625D01*
X186709625Y-106752861D01*
X186736876Y-106773443D01*
X186771865Y-106813600D01*
X186794274Y-106865086D01*
X186806190Y-106933568D01*
X186809542Y-107020647D01*
X186809698Y-107024714D01*
G36*
X186809698Y-107024714D02*
G01*
X186808537Y-107081313D01*
X186800345Y-107158462D01*
X186782519Y-107216276D01*
X186752975Y-107260422D01*
X186709625Y-107296568D01*
X186668332Y-107317463D01*
X186598987Y-107329090D01*
X186529736Y-107316377D01*
X186467145Y-107280945D01*
X186417779Y-107224418D01*
X186411818Y-107213995D01*
X186403945Y-107195733D01*
X186398106Y-107172429D01*
X186393999Y-107140085D01*
X186391325Y-107094704D01*
X186389781Y-107032287D01*
X186389734Y-107026748D01*
X186490429Y-107026748D01*
X186490772Y-107079577D01*
X186492942Y-107127362D01*
X186498307Y-107158209D01*
X186508217Y-107178935D01*
X186524021Y-107196356D01*
X186527724Y-107199705D01*
X186575299Y-107224419D01*
X186625635Y-107221890D01*
X186672517Y-107192288D01*
X186686477Y-107176953D01*
X186698160Y-107156622D01*
X186704686Y-107128514D01*
X186707524Y-107085550D01*
X186708143Y-107020647D01*
X186707837Y-106971122D01*
X186705722Y-106922782D01*
X186700390Y-106891587D01*
X186690460Y-106870647D01*
X186674550Y-106853073D01*
X186665204Y-106845159D01*
X186616776Y-106823843D01*
X186566040Y-106827198D01*
X186521987Y-106855107D01*
X186512504Y-106866173D01*
X186500939Y-106887009D01*
X186494252Y-106916106D01*
X186491173Y-106960381D01*
X186490429Y-107026748D01*
X186389734Y-107026748D01*
X186389067Y-106948837D01*
X186388883Y-106840358D01*
X186388829Y-106503601D01*
X186436000Y-106523362D01*
X186448472Y-106528770D01*
X186468324Y-106540985D01*
X186479687Y-106559482D01*
X186485933Y-106591829D01*
X186490429Y-106645593D01*
X186494535Y-106693866D01*
X186499963Y-106725557D01*
X186507739Y-106737383D01*
X186519457Y-106734212D01*
X186549318Y-106723067D01*
X186602684Y-106720304D01*
X186660093Y-106730625D01*
X186709625Y-106752861D01*
X186736876Y-106773443D01*
X186771865Y-106813600D01*
X186794274Y-106865086D01*
X186806190Y-106933568D01*
X186809542Y-107020647D01*
X186809698Y-107024714D01*
G37*
X189741299Y-106969055D02*
X189736684Y-107079078D01*
X189734078Y-107102387D01*
X189714660Y-107185352D01*
X189679573Y-107248448D01*
X189626212Y-107296808D01*
X189623196Y-107298804D01*
X189555362Y-107327185D01*
X189484535Y-107329711D01*
X189416289Y-107308097D01*
X189356196Y-107264062D01*
X189309829Y-107199322D01*
X189309050Y-107197761D01*
X189293643Y-107157558D01*
X189282357Y-107111866D01*
X189276370Y-107068972D01*
X189276861Y-107037160D01*
X189285007Y-107024714D01*
X189292244Y-107025471D01*
X189326851Y-107039235D01*
X189366078Y-107064546D01*
X189399448Y-107093845D01*
X189416483Y-107119572D01*
X189434192Y-107154471D01*
X189470485Y-107186212D01*
X189512630Y-107198886D01*
X189528077Y-107195221D01*
X189558569Y-107176774D01*
X189585128Y-107151166D01*
X189596486Y-107127934D01*
X189596482Y-107127848D01*
X189583596Y-107117179D01*
X189549241Y-107097933D01*
X189498593Y-107072813D01*
X189436829Y-107044524D01*
X189436489Y-107044374D01*
X189369388Y-107014498D01*
X189324411Y-106992973D01*
X189297145Y-106976437D01*
X189283178Y-106961531D01*
X189278097Y-106944893D01*
X189277490Y-106923162D01*
X189281712Y-106882013D01*
X189425000Y-106882013D01*
X189439791Y-106894949D01*
X189476644Y-106914333D01*
X189477725Y-106914881D01*
X189521205Y-106935587D01*
X189560102Y-106952105D01*
X189584778Y-106959093D01*
X189594676Y-106949753D01*
X189596486Y-106917748D01*
X189588966Y-106877915D01*
X189562897Y-106841717D01*
X189525154Y-106822950D01*
X189483077Y-106824845D01*
X189444005Y-106850632D01*
X189428647Y-106868451D01*
X189425000Y-106882013D01*
X189281712Y-106882013D01*
X189282833Y-106871086D01*
X189309251Y-106800335D01*
X189353473Y-106744735D01*
X189410697Y-106706239D01*
X189476120Y-106686797D01*
X189544937Y-106688359D01*
X189612347Y-106712878D01*
X189673544Y-106762302D01*
X189707450Y-106811212D01*
X189731806Y-106881027D01*
X189735767Y-106917748D01*
X189741299Y-106969055D01*
G36*
X189741299Y-106969055D02*
G01*
X189736684Y-107079078D01*
X189734078Y-107102387D01*
X189714660Y-107185352D01*
X189679573Y-107248448D01*
X189626212Y-107296808D01*
X189623196Y-107298804D01*
X189555362Y-107327185D01*
X189484535Y-107329711D01*
X189416289Y-107308097D01*
X189356196Y-107264062D01*
X189309829Y-107199322D01*
X189309050Y-107197761D01*
X189293643Y-107157558D01*
X189282357Y-107111866D01*
X189276370Y-107068972D01*
X189276861Y-107037160D01*
X189285007Y-107024714D01*
X189292244Y-107025471D01*
X189326851Y-107039235D01*
X189366078Y-107064546D01*
X189399448Y-107093845D01*
X189416483Y-107119572D01*
X189434192Y-107154471D01*
X189470485Y-107186212D01*
X189512630Y-107198886D01*
X189528077Y-107195221D01*
X189558569Y-107176774D01*
X189585128Y-107151166D01*
X189596486Y-107127934D01*
X189596482Y-107127848D01*
X189583596Y-107117179D01*
X189549241Y-107097933D01*
X189498593Y-107072813D01*
X189436829Y-107044524D01*
X189436489Y-107044374D01*
X189369388Y-107014498D01*
X189324411Y-106992973D01*
X189297145Y-106976437D01*
X189283178Y-106961531D01*
X189278097Y-106944893D01*
X189277490Y-106923162D01*
X189281712Y-106882013D01*
X189425000Y-106882013D01*
X189439791Y-106894949D01*
X189476644Y-106914333D01*
X189477725Y-106914881D01*
X189521205Y-106935587D01*
X189560102Y-106952105D01*
X189584778Y-106959093D01*
X189594676Y-106949753D01*
X189596486Y-106917748D01*
X189588966Y-106877915D01*
X189562897Y-106841717D01*
X189525154Y-106822950D01*
X189483077Y-106824845D01*
X189444005Y-106850632D01*
X189428647Y-106868451D01*
X189425000Y-106882013D01*
X189281712Y-106882013D01*
X189282833Y-106871086D01*
X189309251Y-106800335D01*
X189353473Y-106744735D01*
X189410697Y-106706239D01*
X189476120Y-106686797D01*
X189544937Y-106688359D01*
X189612347Y-106712878D01*
X189673544Y-106762302D01*
X189707450Y-106811212D01*
X189731806Y-106881027D01*
X189735767Y-106917748D01*
X189741299Y-106969055D01*
G37*
X187668483Y-106735569D02*
X187718376Y-106764661D01*
X187740325Y-106787327D01*
X187782504Y-106855082D01*
X187796714Y-106928950D01*
X187796714Y-106979770D01*
X187749999Y-106960128D01*
X187717692Y-106940308D01*
X187692231Y-106899160D01*
X187689616Y-106890675D01*
X187661478Y-106847451D01*
X187619067Y-106824103D01*
X187570370Y-106823100D01*
X187523373Y-106846914D01*
X187516357Y-106853056D01*
X187492893Y-106879745D01*
X187489019Y-106903014D01*
X187506768Y-106925862D01*
X187548179Y-106951287D01*
X187615286Y-106982288D01*
X187619824Y-106984252D01*
X187694322Y-107018990D01*
X187745203Y-107049763D01*
X187776525Y-107080488D01*
X187792343Y-107115082D01*
X187796714Y-107157462D01*
X187790986Y-107204446D01*
X187762062Y-107264585D01*
X187711178Y-107307788D01*
X187674374Y-107320759D01*
X187622434Y-107327856D01*
X187571999Y-107326340D01*
X187535983Y-107315632D01*
X187532158Y-107312966D01*
X187521998Y-107294337D01*
X187529048Y-107261505D01*
X187541297Y-107235735D01*
X187560939Y-107225006D01*
X187598191Y-107225539D01*
X187649908Y-107222462D01*
X187683701Y-107201212D01*
X187695114Y-107161877D01*
X187695104Y-107160747D01*
X187688187Y-107137913D01*
X187664659Y-107116963D01*
X187618914Y-107092815D01*
X187556704Y-107063741D01*
X187515499Y-107047925D01*
X187491712Y-107048944D01*
X187480597Y-107069837D01*
X187477408Y-107113641D01*
X187477400Y-107183393D01*
X187477044Y-107226452D01*
X187475413Y-107279626D01*
X187472761Y-107316022D01*
X187469422Y-107329514D01*
X187468530Y-107329423D01*
X187449237Y-107322110D01*
X187417284Y-107306678D01*
X187373124Y-107283842D01*
X187378371Y-107078078D01*
X187378736Y-107064432D01*
X187382904Y-106968651D01*
X187390268Y-106896462D01*
X187402330Y-106843058D01*
X187420593Y-106803633D01*
X187446560Y-106773380D01*
X187481733Y-106747493D01*
X187482384Y-106747087D01*
X187539256Y-106725968D01*
X187605033Y-106722400D01*
X187668483Y-106735569D01*
G36*
X187668483Y-106735569D02*
G01*
X187718376Y-106764661D01*
X187740325Y-106787327D01*
X187782504Y-106855082D01*
X187796714Y-106928950D01*
X187796714Y-106979770D01*
X187749999Y-106960128D01*
X187717692Y-106940308D01*
X187692231Y-106899160D01*
X187689616Y-106890675D01*
X187661478Y-106847451D01*
X187619067Y-106824103D01*
X187570370Y-106823100D01*
X187523373Y-106846914D01*
X187516357Y-106853056D01*
X187492893Y-106879745D01*
X187489019Y-106903014D01*
X187506768Y-106925862D01*
X187548179Y-106951287D01*
X187615286Y-106982288D01*
X187619824Y-106984252D01*
X187694322Y-107018990D01*
X187745203Y-107049763D01*
X187776525Y-107080488D01*
X187792343Y-107115082D01*
X187796714Y-107157462D01*
X187790986Y-107204446D01*
X187762062Y-107264585D01*
X187711178Y-107307788D01*
X187674374Y-107320759D01*
X187622434Y-107327856D01*
X187571999Y-107326340D01*
X187535983Y-107315632D01*
X187532158Y-107312966D01*
X187521998Y-107294337D01*
X187529048Y-107261505D01*
X187541297Y-107235735D01*
X187560939Y-107225006D01*
X187598191Y-107225539D01*
X187649908Y-107222462D01*
X187683701Y-107201212D01*
X187695114Y-107161877D01*
X187695104Y-107160747D01*
X187688187Y-107137913D01*
X187664659Y-107116963D01*
X187618914Y-107092815D01*
X187556704Y-107063741D01*
X187515499Y-107047925D01*
X187491712Y-107048944D01*
X187480597Y-107069837D01*
X187477408Y-107113641D01*
X187477400Y-107183393D01*
X187477044Y-107226452D01*
X187475413Y-107279626D01*
X187472761Y-107316022D01*
X187469422Y-107329514D01*
X187468530Y-107329423D01*
X187449237Y-107322110D01*
X187417284Y-107306678D01*
X187373124Y-107283842D01*
X187378371Y-107078078D01*
X187378736Y-107064432D01*
X187382904Y-106968651D01*
X187390268Y-106896462D01*
X187402330Y-106843058D01*
X187420593Y-106803633D01*
X187446560Y-106773380D01*
X187481733Y-106747493D01*
X187482384Y-106747087D01*
X187539256Y-106725968D01*
X187605033Y-106722400D01*
X187668483Y-106735569D01*
G37*
X185546495Y-106721220D02*
X185577599Y-106729121D01*
X185606559Y-106748817D01*
X185643831Y-106785484D01*
X185667801Y-106811378D01*
X185692770Y-106844997D01*
X185704031Y-106876506D01*
X185706657Y-106916485D01*
X185706657Y-106981917D01*
X185662035Y-106958842D01*
X185626673Y-106930724D01*
X185602451Y-106892848D01*
X185598291Y-106882551D01*
X185566594Y-106842637D01*
X185522554Y-106822624D01*
X185474531Y-106824572D01*
X185430886Y-106850543D01*
X185412420Y-106871635D01*
X185401663Y-106898619D01*
X185413178Y-106922634D01*
X185448981Y-106946791D01*
X185511090Y-106974199D01*
X185520515Y-106977985D01*
X185577058Y-107002759D01*
X185625580Y-107027189D01*
X185656451Y-107046486D01*
X185687371Y-107080953D01*
X185707927Y-107135957D01*
X185705744Y-107194983D01*
X185681424Y-107250845D01*
X185635568Y-107296355D01*
X185598438Y-107315727D01*
X185526711Y-107329292D01*
X185486852Y-107327462D01*
X185449953Y-107317568D01*
X185435797Y-107296806D01*
X185441091Y-107262613D01*
X185442631Y-107258092D01*
X185454842Y-107234116D01*
X185475174Y-107225042D01*
X185513908Y-107225649D01*
X185541257Y-107226474D01*
X185573257Y-107219392D01*
X185595182Y-107198219D01*
X185607670Y-107172152D01*
X185609062Y-107144845D01*
X185608998Y-107144685D01*
X185592807Y-107129930D01*
X185558155Y-107108457D01*
X185513321Y-107084458D01*
X185466582Y-107062125D01*
X185426217Y-107045652D01*
X185400504Y-107039229D01*
X185396679Y-107045518D01*
X185391864Y-107075115D01*
X185388566Y-107123447D01*
X185387343Y-107184372D01*
X185387058Y-107226542D01*
X185385718Y-107279653D01*
X185383528Y-107316025D01*
X185380769Y-107329514D01*
X185366344Y-107324981D01*
X185337226Y-107312670D01*
X185300257Y-107295826D01*
X185300257Y-107079721D01*
X185300493Y-107024327D01*
X185302729Y-106940207D01*
X185308423Y-106877800D01*
X185318903Y-106832358D01*
X185335497Y-106799133D01*
X185359531Y-106773378D01*
X185392333Y-106750344D01*
X185434124Y-106731335D01*
X185511287Y-106719914D01*
X185546495Y-106721220D01*
G36*
X185546495Y-106721220D02*
G01*
X185577599Y-106729121D01*
X185606559Y-106748817D01*
X185643831Y-106785484D01*
X185667801Y-106811378D01*
X185692770Y-106844997D01*
X185704031Y-106876506D01*
X185706657Y-106916485D01*
X185706657Y-106981917D01*
X185662035Y-106958842D01*
X185626673Y-106930724D01*
X185602451Y-106892848D01*
X185598291Y-106882551D01*
X185566594Y-106842637D01*
X185522554Y-106822624D01*
X185474531Y-106824572D01*
X185430886Y-106850543D01*
X185412420Y-106871635D01*
X185401663Y-106898619D01*
X185413178Y-106922634D01*
X185448981Y-106946791D01*
X185511090Y-106974199D01*
X185520515Y-106977985D01*
X185577058Y-107002759D01*
X185625580Y-107027189D01*
X185656451Y-107046486D01*
X185687371Y-107080953D01*
X185707927Y-107135957D01*
X185705744Y-107194983D01*
X185681424Y-107250845D01*
X185635568Y-107296355D01*
X185598438Y-107315727D01*
X185526711Y-107329292D01*
X185486852Y-107327462D01*
X185449953Y-107317568D01*
X185435797Y-107296806D01*
X185441091Y-107262613D01*
X185442631Y-107258092D01*
X185454842Y-107234116D01*
X185475174Y-107225042D01*
X185513908Y-107225649D01*
X185541257Y-107226474D01*
X185573257Y-107219392D01*
X185595182Y-107198219D01*
X185607670Y-107172152D01*
X185609062Y-107144845D01*
X185608998Y-107144685D01*
X185592807Y-107129930D01*
X185558155Y-107108457D01*
X185513321Y-107084458D01*
X185466582Y-107062125D01*
X185426217Y-107045652D01*
X185400504Y-107039229D01*
X185396679Y-107045518D01*
X185391864Y-107075115D01*
X185388566Y-107123447D01*
X185387343Y-107184372D01*
X185387058Y-107226542D01*
X185385718Y-107279653D01*
X185383528Y-107316025D01*
X185380769Y-107329514D01*
X185366344Y-107324981D01*
X185337226Y-107312670D01*
X185300257Y-107295826D01*
X185300257Y-107079721D01*
X185300493Y-107024327D01*
X185302729Y-106940207D01*
X185308423Y-106877800D01*
X185318903Y-106832358D01*
X185335497Y-106799133D01*
X185359531Y-106773378D01*
X185392333Y-106750344D01*
X185434124Y-106731335D01*
X185511287Y-106719914D01*
X185546495Y-106721220D01*
G37*
X190288815Y-107076524D02*
X190290252Y-107188000D01*
X190290651Y-107220339D01*
X190291929Y-107328455D01*
X190292185Y-107411186D01*
X190290634Y-107471426D01*
X190286490Y-107512073D01*
X190278964Y-107536023D01*
X190267271Y-107546171D01*
X190250624Y-107545414D01*
X190228236Y-107536648D01*
X190199321Y-107522769D01*
X190193142Y-107519808D01*
X190167413Y-107505311D01*
X190153976Y-107488065D01*
X190148834Y-107459308D01*
X190147990Y-107410283D01*
X190147952Y-107322257D01*
X190057276Y-107322257D01*
X190001498Y-107319815D01*
X189957640Y-107309908D01*
X189921218Y-107289886D01*
X189918503Y-107287929D01*
X189881546Y-107254869D01*
X189855826Y-107214931D01*
X189839606Y-107162657D01*
X189831148Y-107092588D01*
X189829083Y-107013430D01*
X189973857Y-107013430D01*
X189973882Y-107026697D01*
X189975261Y-107086584D01*
X189979687Y-107125732D01*
X189988461Y-107151153D01*
X190002886Y-107169857D01*
X190003784Y-107170750D01*
X190039237Y-107194952D01*
X190073596Y-107192567D01*
X190112403Y-107163260D01*
X190121895Y-107153244D01*
X190135876Y-107132708D01*
X190143760Y-107105997D01*
X190147245Y-107065499D01*
X190148029Y-107003603D01*
X190147350Y-106966130D01*
X190139983Y-106897980D01*
X190123168Y-106853330D01*
X190095234Y-106828926D01*
X190054509Y-106821514D01*
X190037350Y-106823094D01*
X190007660Y-106838766D01*
X189988031Y-106873691D01*
X189977188Y-106930901D01*
X189973857Y-107013430D01*
X189829083Y-107013430D01*
X189828714Y-106999267D01*
X189829253Y-106931169D01*
X189831707Y-106879587D01*
X189837158Y-106843816D01*
X189846686Y-106817015D01*
X189861371Y-106792338D01*
X189874852Y-106773480D01*
X189923799Y-106722568D01*
X189979256Y-106694918D01*
X190048928Y-106686165D01*
X190128664Y-106694890D01*
X190197595Y-106726185D01*
X190252113Y-106781381D01*
X190256223Y-106787224D01*
X190265808Y-106802753D01*
X190273151Y-106820498D01*
X190278612Y-106844290D01*
X190282550Y-106877958D01*
X190285323Y-106925333D01*
X190287292Y-106990245D01*
X190287528Y-107003603D01*
X190288815Y-107076524D01*
G36*
X190288815Y-107076524D02*
G01*
X190290252Y-107188000D01*
X190290651Y-107220339D01*
X190291929Y-107328455D01*
X190292185Y-107411186D01*
X190290634Y-107471426D01*
X190286490Y-107512073D01*
X190278964Y-107536023D01*
X190267271Y-107546171D01*
X190250624Y-107545414D01*
X190228236Y-107536648D01*
X190199321Y-107522769D01*
X190193142Y-107519808D01*
X190167413Y-107505311D01*
X190153976Y-107488065D01*
X190148834Y-107459308D01*
X190147990Y-107410283D01*
X190147952Y-107322257D01*
X190057276Y-107322257D01*
X190001498Y-107319815D01*
X189957640Y-107309908D01*
X189921218Y-107289886D01*
X189918503Y-107287929D01*
X189881546Y-107254869D01*
X189855826Y-107214931D01*
X189839606Y-107162657D01*
X189831148Y-107092588D01*
X189829083Y-107013430D01*
X189973857Y-107013430D01*
X189973882Y-107026697D01*
X189975261Y-107086584D01*
X189979687Y-107125732D01*
X189988461Y-107151153D01*
X190002886Y-107169857D01*
X190003784Y-107170750D01*
X190039237Y-107194952D01*
X190073596Y-107192567D01*
X190112403Y-107163260D01*
X190121895Y-107153244D01*
X190135876Y-107132708D01*
X190143760Y-107105997D01*
X190147245Y-107065499D01*
X190148029Y-107003603D01*
X190147350Y-106966130D01*
X190139983Y-106897980D01*
X190123168Y-106853330D01*
X190095234Y-106828926D01*
X190054509Y-106821514D01*
X190037350Y-106823094D01*
X190007660Y-106838766D01*
X189988031Y-106873691D01*
X189977188Y-106930901D01*
X189973857Y-107013430D01*
X189829083Y-107013430D01*
X189828714Y-106999267D01*
X189829253Y-106931169D01*
X189831707Y-106879587D01*
X189837158Y-106843816D01*
X189846686Y-106817015D01*
X189861371Y-106792338D01*
X189874852Y-106773480D01*
X189923799Y-106722568D01*
X189979256Y-106694918D01*
X190048928Y-106686165D01*
X190128664Y-106694890D01*
X190197595Y-106726185D01*
X190252113Y-106781381D01*
X190256223Y-106787224D01*
X190265808Y-106802753D01*
X190273151Y-106820498D01*
X190278612Y-106844290D01*
X190282550Y-106877958D01*
X190285323Y-106925333D01*
X190287292Y-106990245D01*
X190287528Y-107003603D01*
X190288815Y-107076524D01*
G37*
X187692933Y-102017371D02*
X187768856Y-102017865D01*
X187823491Y-102019135D01*
X187860500Y-102021547D01*
X187883547Y-102025467D01*
X187896296Y-102031262D01*
X187902411Y-102039299D01*
X187905556Y-102049943D01*
X187905646Y-102050325D01*
X187910814Y-102075347D01*
X187920209Y-102123681D01*
X187932867Y-102190260D01*
X187947825Y-102270014D01*
X187964119Y-102357875D01*
X187965448Y-102365064D01*
X187981691Y-102450340D01*
X187996805Y-102525242D01*
X188009808Y-102585219D01*
X188019715Y-102625717D01*
X188025544Y-102642184D01*
X188025575Y-102642210D01*
X188043943Y-102651320D01*
X188081640Y-102666457D01*
X188130543Y-102684358D01*
X188133297Y-102685330D01*
X188195817Y-102708959D01*
X188268543Y-102738595D01*
X188336294Y-102768062D01*
X188447703Y-102818626D01*
X188694399Y-102650160D01*
X188711775Y-102638311D01*
X188786202Y-102587947D01*
X188852614Y-102543612D01*
X188907039Y-102507916D01*
X188945506Y-102483471D01*
X188964042Y-102472889D01*
X188976743Y-102475315D01*
X189005579Y-102494110D01*
X189050143Y-102531330D01*
X189111670Y-102588020D01*
X189191398Y-102665227D01*
X189198532Y-102672255D01*
X189261796Y-102735222D01*
X189317990Y-102792268D01*
X189363677Y-102839817D01*
X189395414Y-102874297D01*
X189409764Y-102892131D01*
X189409810Y-102892217D01*
X189411633Y-102905795D01*
X189404910Y-102927820D01*
X189387946Y-102961304D01*
X189359044Y-103009261D01*
X189316508Y-103074704D01*
X189258644Y-103160645D01*
X189248783Y-103175151D01*
X189198913Y-103248635D01*
X189154905Y-103313687D01*
X189119380Y-103366417D01*
X189094959Y-103402936D01*
X189084264Y-103419356D01*
X189083458Y-103422834D01*
X189088518Y-103448785D01*
X189103677Y-103491159D01*
X189126463Y-103542728D01*
X189157429Y-103610170D01*
X189192004Y-103690195D01*
X189221366Y-103762629D01*
X189228645Y-103781377D01*
X189247710Y-103829246D01*
X189261715Y-103862596D01*
X189268041Y-103875114D01*
X189275025Y-103876050D01*
X189306413Y-103881461D01*
X189357787Y-103890806D01*
X189423802Y-103903069D01*
X189499113Y-103917232D01*
X189578375Y-103932280D01*
X189656243Y-103947195D01*
X189727370Y-103960961D01*
X189786412Y-103972562D01*
X189828022Y-103980980D01*
X189846857Y-103985199D01*
X189849980Y-103986389D01*
X189857591Y-103992805D01*
X189863254Y-104006465D01*
X189867251Y-104030999D01*
X189869866Y-104070038D01*
X189871384Y-104127213D01*
X189872086Y-104206154D01*
X189872257Y-104310492D01*
X189872257Y-104627799D01*
X189796057Y-104642839D01*
X189786840Y-104644642D01*
X189737891Y-104653980D01*
X189670205Y-104666669D01*
X189591478Y-104681273D01*
X189509400Y-104696355D01*
X189477078Y-104702422D01*
X189404855Y-104717181D01*
X189344666Y-104731137D01*
X189302040Y-104742952D01*
X189282510Y-104751287D01*
X189273660Y-104764905D01*
X189257548Y-104800938D01*
X189241065Y-104847572D01*
X189235263Y-104865034D01*
X189213906Y-104922358D01*
X189186359Y-104990201D01*
X189157107Y-105057355D01*
X189141463Y-105092430D01*
X189119174Y-105144822D01*
X189103857Y-105184058D01*
X189098162Y-105203563D01*
X189098478Y-105205036D01*
X189109281Y-105225729D01*
X189133638Y-105265665D01*
X189169081Y-105320972D01*
X189213136Y-105387781D01*
X189263332Y-105462220D01*
X189428501Y-105704623D01*
X189211503Y-105921983D01*
X189190516Y-105942899D01*
X189126342Y-106005505D01*
X189068990Y-106059495D01*
X189021820Y-106101826D01*
X188988192Y-106129457D01*
X188971467Y-106139343D01*
X188953303Y-106131821D01*
X188915265Y-106110227D01*
X188861726Y-106077151D01*
X188796884Y-106035191D01*
X188724940Y-105986943D01*
X188654275Y-105939291D01*
X188590526Y-105897328D01*
X188538513Y-105864165D01*
X188502279Y-105842378D01*
X188485867Y-105834543D01*
X188484905Y-105834614D01*
X188463103Y-105842338D01*
X188424440Y-105860323D01*
X188376612Y-105885013D01*
X188376110Y-105885284D01*
X188312587Y-105917099D01*
X188269060Y-105932642D01*
X188242052Y-105932685D01*
X188228090Y-105918000D01*
X188222180Y-105903544D01*
X188206229Y-105864831D01*
X188181660Y-105805316D01*
X188149779Y-105728165D01*
X188111893Y-105636541D01*
X188069310Y-105533607D01*
X188023337Y-105422526D01*
X187981667Y-105321472D01*
X187939268Y-105217780D01*
X187901756Y-105125119D01*
X187870388Y-105046642D01*
X187846425Y-104985500D01*
X187831123Y-104944843D01*
X187825743Y-104927825D01*
X187836018Y-104912219D01*
X187864563Y-104886162D01*
X187904971Y-104855887D01*
X188001979Y-104776684D01*
X188088793Y-104675475D01*
X188152322Y-104564116D01*
X188192177Y-104445893D01*
X188207965Y-104324095D01*
X188199296Y-104202010D01*
X188165778Y-104082925D01*
X188107021Y-103970129D01*
X188022632Y-103866911D01*
X187978631Y-103826713D01*
X187873211Y-103755638D01*
X187760410Y-103709301D01*
X187643525Y-103686599D01*
X187525853Y-103686428D01*
X187410690Y-103707687D01*
X187301335Y-103749270D01*
X187201083Y-103810076D01*
X187113233Y-103889001D01*
X187041080Y-103984941D01*
X186987922Y-104096795D01*
X186957057Y-104223457D01*
X186951392Y-104284507D01*
X186959185Y-104416776D01*
X186994284Y-104542266D01*
X187055649Y-104658759D01*
X187142243Y-104764039D01*
X187253029Y-104855887D01*
X187291931Y-104884930D01*
X187321104Y-104911272D01*
X187332257Y-104927800D01*
X187327810Y-104942209D01*
X187313378Y-104980815D01*
X187290173Y-105040201D01*
X187259452Y-105117215D01*
X187222474Y-105208703D01*
X187180496Y-105311516D01*
X187134778Y-105422502D01*
X187093178Y-105523072D01*
X187050222Y-105626947D01*
X187011829Y-105719819D01*
X186979305Y-105798525D01*
X186953958Y-105859899D01*
X186937095Y-105900779D01*
X186930025Y-105918000D01*
X186929943Y-105918204D01*
X186915798Y-105932745D01*
X186888659Y-105932579D01*
X186845023Y-105916927D01*
X186781388Y-105885013D01*
X186776379Y-105882326D01*
X186729125Y-105858150D01*
X186691811Y-105841037D01*
X186672133Y-105834543D01*
X186656005Y-105842218D01*
X186619959Y-105863871D01*
X186568092Y-105896928D01*
X186504445Y-105938810D01*
X186433060Y-105986943D01*
X186362724Y-106034131D01*
X186297670Y-106076267D01*
X186243820Y-106109578D01*
X186205374Y-106131469D01*
X186186534Y-106139343D01*
X186183325Y-106138343D01*
X186160954Y-106122584D01*
X186122733Y-106090033D01*
X186072021Y-106043733D01*
X186012181Y-105986726D01*
X185946571Y-105922058D01*
X185729648Y-105704772D01*
X185898601Y-105456253D01*
X186067553Y-105207733D01*
X186016183Y-105096595D01*
X186016031Y-105096266D01*
X185985183Y-105025418D01*
X185953661Y-104946523D01*
X185928266Y-104876600D01*
X185924423Y-104865322D01*
X185905047Y-104812967D01*
X185887574Y-104772283D01*
X185875388Y-104751287D01*
X185870426Y-104748322D01*
X185840634Y-104738375D01*
X185790047Y-104725505D01*
X185724194Y-104711053D01*
X185648600Y-104696355D01*
X185625957Y-104692210D01*
X185544038Y-104677116D01*
X185467600Y-104662899D01*
X185404337Y-104650995D01*
X185361943Y-104642839D01*
X185285743Y-104627799D01*
X185285743Y-104310492D01*
X185285760Y-104271476D01*
X185286082Y-104176292D01*
X185287033Y-104105255D01*
X185288896Y-104054734D01*
X185291955Y-104021098D01*
X185296494Y-104000718D01*
X185302795Y-103989962D01*
X185311143Y-103985199D01*
X185319224Y-103983270D01*
X185352172Y-103976445D01*
X185404736Y-103966022D01*
X185471569Y-103953018D01*
X185547328Y-103938449D01*
X185626665Y-103923333D01*
X185704237Y-103908685D01*
X185774698Y-103895523D01*
X185832702Y-103884863D01*
X185872904Y-103877721D01*
X185889959Y-103875114D01*
X185891112Y-103873541D01*
X185900385Y-103853119D01*
X185916432Y-103814045D01*
X185936635Y-103762629D01*
X185964672Y-103693353D01*
X185999186Y-103613290D01*
X186031538Y-103542728D01*
X186038952Y-103526889D01*
X186059755Y-103477293D01*
X186072219Y-103439038D01*
X186073863Y-103419356D01*
X186073015Y-103417962D01*
X186059548Y-103397420D01*
X186032850Y-103357516D01*
X185995539Y-103302140D01*
X185950234Y-103235177D01*
X185899552Y-103160517D01*
X185842445Y-103075692D01*
X185799607Y-103009800D01*
X185770460Y-102961478D01*
X185753317Y-102927733D01*
X185746495Y-102905572D01*
X185748306Y-102892002D01*
X185748915Y-102890984D01*
X185765297Y-102871210D01*
X185798695Y-102835175D01*
X185845671Y-102786451D01*
X185902786Y-102728612D01*
X185966603Y-102665227D01*
X186032802Y-102600905D01*
X186097648Y-102540447D01*
X186145299Y-102499655D01*
X186176990Y-102477484D01*
X186193958Y-102472889D01*
X186196175Y-102473921D01*
X186219524Y-102487837D01*
X186261912Y-102515030D01*
X186319369Y-102552889D01*
X186387923Y-102598803D01*
X186463601Y-102650160D01*
X186710298Y-102818626D01*
X186821706Y-102768062D01*
X186824943Y-102766597D01*
X186893343Y-102736965D01*
X186965907Y-102707493D01*
X187027457Y-102684358D01*
X187027729Y-102684262D01*
X187076595Y-102666367D01*
X187114212Y-102651253D01*
X187132457Y-102642184D01*
X187132752Y-102641855D01*
X187138946Y-102623282D01*
X187149139Y-102581045D01*
X187162348Y-102519696D01*
X187177590Y-102443789D01*
X187193881Y-102357875D01*
X187194449Y-102354796D01*
X187210713Y-102267128D01*
X187225608Y-102187741D01*
X187238171Y-102121701D01*
X187247438Y-102074079D01*
X187252444Y-102049943D01*
X187252764Y-102048605D01*
X187256060Y-102038273D01*
X187262738Y-102030506D01*
X187276462Y-102024940D01*
X187300895Y-102021207D01*
X187339702Y-102018942D01*
X187396546Y-102017778D01*
X187475090Y-102017348D01*
X187579000Y-102017286D01*
X187592056Y-102017286D01*
X187692933Y-102017371D01*
G36*
X187692933Y-102017371D02*
G01*
X187768856Y-102017865D01*
X187823491Y-102019135D01*
X187860500Y-102021547D01*
X187883547Y-102025467D01*
X187896296Y-102031262D01*
X187902411Y-102039299D01*
X187905556Y-102049943D01*
X187905646Y-102050325D01*
X187910814Y-102075347D01*
X187920209Y-102123681D01*
X187932867Y-102190260D01*
X187947825Y-102270014D01*
X187964119Y-102357875D01*
X187965448Y-102365064D01*
X187981691Y-102450340D01*
X187996805Y-102525242D01*
X188009808Y-102585219D01*
X188019715Y-102625717D01*
X188025544Y-102642184D01*
X188025575Y-102642210D01*
X188043943Y-102651320D01*
X188081640Y-102666457D01*
X188130543Y-102684358D01*
X188133297Y-102685330D01*
X188195817Y-102708959D01*
X188268543Y-102738595D01*
X188336294Y-102768062D01*
X188447703Y-102818626D01*
X188694399Y-102650160D01*
X188711775Y-102638311D01*
X188786202Y-102587947D01*
X188852614Y-102543612D01*
X188907039Y-102507916D01*
X188945506Y-102483471D01*
X188964042Y-102472889D01*
X188976743Y-102475315D01*
X189005579Y-102494110D01*
X189050143Y-102531330D01*
X189111670Y-102588020D01*
X189191398Y-102665227D01*
X189198532Y-102672255D01*
X189261796Y-102735222D01*
X189317990Y-102792268D01*
X189363677Y-102839817D01*
X189395414Y-102874297D01*
X189409764Y-102892131D01*
X189409810Y-102892217D01*
X189411633Y-102905795D01*
X189404910Y-102927820D01*
X189387946Y-102961304D01*
X189359044Y-103009261D01*
X189316508Y-103074704D01*
X189258644Y-103160645D01*
X189248783Y-103175151D01*
X189198913Y-103248635D01*
X189154905Y-103313687D01*
X189119380Y-103366417D01*
X189094959Y-103402936D01*
X189084264Y-103419356D01*
X189083458Y-103422834D01*
X189088518Y-103448785D01*
X189103677Y-103491159D01*
X189126463Y-103542728D01*
X189157429Y-103610170D01*
X189192004Y-103690195D01*
X189221366Y-103762629D01*
X189228645Y-103781377D01*
X189247710Y-103829246D01*
X189261715Y-103862596D01*
X189268041Y-103875114D01*
X189275025Y-103876050D01*
X189306413Y-103881461D01*
X189357787Y-103890806D01*
X189423802Y-103903069D01*
X189499113Y-103917232D01*
X189578375Y-103932280D01*
X189656243Y-103947195D01*
X189727370Y-103960961D01*
X189786412Y-103972562D01*
X189828022Y-103980980D01*
X189846857Y-103985199D01*
X189849980Y-103986389D01*
X189857591Y-103992805D01*
X189863254Y-104006465D01*
X189867251Y-104030999D01*
X189869866Y-104070038D01*
X189871384Y-104127213D01*
X189872086Y-104206154D01*
X189872257Y-104310492D01*
X189872257Y-104627799D01*
X189796057Y-104642839D01*
X189786840Y-104644642D01*
X189737891Y-104653980D01*
X189670205Y-104666669D01*
X189591478Y-104681273D01*
X189509400Y-104696355D01*
X189477078Y-104702422D01*
X189404855Y-104717181D01*
X189344666Y-104731137D01*
X189302040Y-104742952D01*
X189282510Y-104751287D01*
X189273660Y-104764905D01*
X189257548Y-104800938D01*
X189241065Y-104847572D01*
X189235263Y-104865034D01*
X189213906Y-104922358D01*
X189186359Y-104990201D01*
X189157107Y-105057355D01*
X189141463Y-105092430D01*
X189119174Y-105144822D01*
X189103857Y-105184058D01*
X189098162Y-105203563D01*
X189098478Y-105205036D01*
X189109281Y-105225729D01*
X189133638Y-105265665D01*
X189169081Y-105320972D01*
X189213136Y-105387781D01*
X189263332Y-105462220D01*
X189428501Y-105704623D01*
X189211503Y-105921983D01*
X189190516Y-105942899D01*
X189126342Y-106005505D01*
X189068990Y-106059495D01*
X189021820Y-106101826D01*
X188988192Y-106129457D01*
X188971467Y-106139343D01*
X188953303Y-106131821D01*
X188915265Y-106110227D01*
X188861726Y-106077151D01*
X188796884Y-106035191D01*
X188724940Y-105986943D01*
X188654275Y-105939291D01*
X188590526Y-105897328D01*
X188538513Y-105864165D01*
X188502279Y-105842378D01*
X188485867Y-105834543D01*
X188484905Y-105834614D01*
X188463103Y-105842338D01*
X188424440Y-105860323D01*
X188376612Y-105885013D01*
X188376110Y-105885284D01*
X188312587Y-105917099D01*
X188269060Y-105932642D01*
X188242052Y-105932685D01*
X188228090Y-105918000D01*
X188222180Y-105903544D01*
X188206229Y-105864831D01*
X188181660Y-105805316D01*
X188149779Y-105728165D01*
X188111893Y-105636541D01*
X188069310Y-105533607D01*
X188023337Y-105422526D01*
X187981667Y-105321472D01*
X187939268Y-105217780D01*
X187901756Y-105125119D01*
X187870388Y-105046642D01*
X187846425Y-104985500D01*
X187831123Y-104944843D01*
X187825743Y-104927825D01*
X187836018Y-104912219D01*
X187864563Y-104886162D01*
X187904971Y-104855887D01*
X188001979Y-104776684D01*
X188088793Y-104675475D01*
X188152322Y-104564116D01*
X188192177Y-104445893D01*
X188207965Y-104324095D01*
X188199296Y-104202010D01*
X188165778Y-104082925D01*
X188107021Y-103970129D01*
X188022632Y-103866911D01*
X187978631Y-103826713D01*
X187873211Y-103755638D01*
X187760410Y-103709301D01*
X187643525Y-103686599D01*
X187525853Y-103686428D01*
X187410690Y-103707687D01*
X187301335Y-103749270D01*
X187201083Y-103810076D01*
X187113233Y-103889001D01*
X187041080Y-103984941D01*
X186987922Y-104096795D01*
X186957057Y-104223457D01*
X186951392Y-104284507D01*
X186959185Y-104416776D01*
X186994284Y-104542266D01*
X187055649Y-104658759D01*
X187142243Y-104764039D01*
X187253029Y-104855887D01*
X187291931Y-104884930D01*
X187321104Y-104911272D01*
X187332257Y-104927800D01*
X187327810Y-104942209D01*
X187313378Y-104980815D01*
X187290173Y-105040201D01*
X187259452Y-105117215D01*
X187222474Y-105208703D01*
X187180496Y-105311516D01*
X187134778Y-105422502D01*
X187093178Y-105523072D01*
X187050222Y-105626947D01*
X187011829Y-105719819D01*
X186979305Y-105798525D01*
X186953958Y-105859899D01*
X186937095Y-105900779D01*
X186930025Y-105918000D01*
X186929943Y-105918204D01*
X186915798Y-105932745D01*
X186888659Y-105932579D01*
X186845023Y-105916927D01*
X186781388Y-105885013D01*
X186776379Y-105882326D01*
X186729125Y-105858150D01*
X186691811Y-105841037D01*
X186672133Y-105834543D01*
X186656005Y-105842218D01*
X186619959Y-105863871D01*
X186568092Y-105896928D01*
X186504445Y-105938810D01*
X186433060Y-105986943D01*
X186362724Y-106034131D01*
X186297670Y-106076267D01*
X186243820Y-106109578D01*
X186205374Y-106131469D01*
X186186534Y-106139343D01*
X186183325Y-106138343D01*
X186160954Y-106122584D01*
X186122733Y-106090033D01*
X186072021Y-106043733D01*
X186012181Y-105986726D01*
X185946571Y-105922058D01*
X185729648Y-105704772D01*
X185898601Y-105456253D01*
X186067553Y-105207733D01*
X186016183Y-105096595D01*
X186016031Y-105096266D01*
X185985183Y-105025418D01*
X185953661Y-104946523D01*
X185928266Y-104876600D01*
X185924423Y-104865322D01*
X185905047Y-104812967D01*
X185887574Y-104772283D01*
X185875388Y-104751287D01*
X185870426Y-104748322D01*
X185840634Y-104738375D01*
X185790047Y-104725505D01*
X185724194Y-104711053D01*
X185648600Y-104696355D01*
X185625957Y-104692210D01*
X185544038Y-104677116D01*
X185467600Y-104662899D01*
X185404337Y-104650995D01*
X185361943Y-104642839D01*
X185285743Y-104627799D01*
X185285743Y-104310492D01*
X185285760Y-104271476D01*
X185286082Y-104176292D01*
X185287033Y-104105255D01*
X185288896Y-104054734D01*
X185291955Y-104021098D01*
X185296494Y-104000718D01*
X185302795Y-103989962D01*
X185311143Y-103985199D01*
X185319224Y-103983270D01*
X185352172Y-103976445D01*
X185404736Y-103966022D01*
X185471569Y-103953018D01*
X185547328Y-103938449D01*
X185626665Y-103923333D01*
X185704237Y-103908685D01*
X185774698Y-103895523D01*
X185832702Y-103884863D01*
X185872904Y-103877721D01*
X185889959Y-103875114D01*
X185891112Y-103873541D01*
X185900385Y-103853119D01*
X185916432Y-103814045D01*
X185936635Y-103762629D01*
X185964672Y-103693353D01*
X185999186Y-103613290D01*
X186031538Y-103542728D01*
X186038952Y-103526889D01*
X186059755Y-103477293D01*
X186072219Y-103439038D01*
X186073863Y-103419356D01*
X186073015Y-103417962D01*
X186059548Y-103397420D01*
X186032850Y-103357516D01*
X185995539Y-103302140D01*
X185950234Y-103235177D01*
X185899552Y-103160517D01*
X185842445Y-103075692D01*
X185799607Y-103009800D01*
X185770460Y-102961478D01*
X185753317Y-102927733D01*
X185746495Y-102905572D01*
X185748306Y-102892002D01*
X185748915Y-102890984D01*
X185765297Y-102871210D01*
X185798695Y-102835175D01*
X185845671Y-102786451D01*
X185902786Y-102728612D01*
X185966603Y-102665227D01*
X186032802Y-102600905D01*
X186097648Y-102540447D01*
X186145299Y-102499655D01*
X186176990Y-102477484D01*
X186193958Y-102472889D01*
X186196175Y-102473921D01*
X186219524Y-102487837D01*
X186261912Y-102515030D01*
X186319369Y-102552889D01*
X186387923Y-102598803D01*
X186463601Y-102650160D01*
X186710298Y-102818626D01*
X186821706Y-102768062D01*
X186824943Y-102766597D01*
X186893343Y-102736965D01*
X186965907Y-102707493D01*
X187027457Y-102684358D01*
X187027729Y-102684262D01*
X187076595Y-102666367D01*
X187114212Y-102651253D01*
X187132457Y-102642184D01*
X187132752Y-102641855D01*
X187138946Y-102623282D01*
X187149139Y-102581045D01*
X187162348Y-102519696D01*
X187177590Y-102443789D01*
X187193881Y-102357875D01*
X187194449Y-102354796D01*
X187210713Y-102267128D01*
X187225608Y-102187741D01*
X187238171Y-102121701D01*
X187247438Y-102074079D01*
X187252444Y-102049943D01*
X187252764Y-102048605D01*
X187256060Y-102038273D01*
X187262738Y-102030506D01*
X187276462Y-102024940D01*
X187300895Y-102021207D01*
X187339702Y-102018942D01*
X187396546Y-102017778D01*
X187475090Y-102017348D01*
X187579000Y-102017286D01*
X187592056Y-102017286D01*
X187692933Y-102017371D01*
G37*
G04 #@! TD*
M02*
