G04 #@! TF.GenerationSoftware,KiCad,Pcbnew,7.0.5-0*
G04 #@! TF.CreationDate,2024-02-05T02:45:17-05:00*
G04 #@! TF.ProjectId,keystone-esp,6b657973-746f-46e6-952d-6573702e6b69,rev?*
G04 #@! TF.SameCoordinates,Original*
G04 #@! TF.FileFunction,Legend,Top*
G04 #@! TF.FilePolarity,Positive*
%FSLAX46Y46*%
G04 Gerber Fmt 4.6, Leading zero omitted, Abs format (unit mm)*
G04 Created by KiCad (PCBNEW 7.0.5-0) date 2024-02-05 02:45:17*
%MOMM*%
%LPD*%
G01*
G04 APERTURE LIST*
%ADD10C,0.150000*%
%ADD11C,0.120000*%
%ADD12C,0.200000*%
G04 APERTURE END LIST*
D10*
G04 #@! TO.C,U2*
X200622819Y-87502904D02*
X201432342Y-87502904D01*
X201432342Y-87502904D02*
X201527580Y-87455285D01*
X201527580Y-87455285D02*
X201575200Y-87407666D01*
X201575200Y-87407666D02*
X201622819Y-87312428D01*
X201622819Y-87312428D02*
X201622819Y-87121952D01*
X201622819Y-87121952D02*
X201575200Y-87026714D01*
X201575200Y-87026714D02*
X201527580Y-86979095D01*
X201527580Y-86979095D02*
X201432342Y-86931476D01*
X201432342Y-86931476D02*
X200622819Y-86931476D01*
X200718057Y-86502904D02*
X200670438Y-86455285D01*
X200670438Y-86455285D02*
X200622819Y-86360047D01*
X200622819Y-86360047D02*
X200622819Y-86121952D01*
X200622819Y-86121952D02*
X200670438Y-86026714D01*
X200670438Y-86026714D02*
X200718057Y-85979095D01*
X200718057Y-85979095D02*
X200813295Y-85931476D01*
X200813295Y-85931476D02*
X200908533Y-85931476D01*
X200908533Y-85931476D02*
X201051390Y-85979095D01*
X201051390Y-85979095D02*
X201622819Y-86550523D01*
X201622819Y-86550523D02*
X201622819Y-85931476D01*
G04 #@! TO.C,D3*
X199082819Y-105894094D02*
X198082819Y-105894094D01*
X198082819Y-105894094D02*
X198082819Y-105655999D01*
X198082819Y-105655999D02*
X198130438Y-105513142D01*
X198130438Y-105513142D02*
X198225676Y-105417904D01*
X198225676Y-105417904D02*
X198320914Y-105370285D01*
X198320914Y-105370285D02*
X198511390Y-105322666D01*
X198511390Y-105322666D02*
X198654247Y-105322666D01*
X198654247Y-105322666D02*
X198844723Y-105370285D01*
X198844723Y-105370285D02*
X198939961Y-105417904D01*
X198939961Y-105417904D02*
X199035200Y-105513142D01*
X199035200Y-105513142D02*
X199082819Y-105655999D01*
X199082819Y-105655999D02*
X199082819Y-105894094D01*
X198082819Y-104989332D02*
X198082819Y-104370285D01*
X198082819Y-104370285D02*
X198463771Y-104703618D01*
X198463771Y-104703618D02*
X198463771Y-104560761D01*
X198463771Y-104560761D02*
X198511390Y-104465523D01*
X198511390Y-104465523D02*
X198559009Y-104417904D01*
X198559009Y-104417904D02*
X198654247Y-104370285D01*
X198654247Y-104370285D02*
X198892342Y-104370285D01*
X198892342Y-104370285D02*
X198987580Y-104417904D01*
X198987580Y-104417904D02*
X199035200Y-104465523D01*
X199035200Y-104465523D02*
X199082819Y-104560761D01*
X199082819Y-104560761D02*
X199082819Y-104846475D01*
X199082819Y-104846475D02*
X199035200Y-104941713D01*
X199035200Y-104941713D02*
X198987580Y-104989332D01*
G04 #@! TO.C,J7*
X183308666Y-109055819D02*
X183308666Y-109770104D01*
X183308666Y-109770104D02*
X183261047Y-109912961D01*
X183261047Y-109912961D02*
X183165809Y-110008200D01*
X183165809Y-110008200D02*
X183022952Y-110055819D01*
X183022952Y-110055819D02*
X182927714Y-110055819D01*
X183689619Y-109055819D02*
X184356285Y-109055819D01*
X184356285Y-109055819D02*
X183927714Y-110055819D01*
G04 #@! TO.C,R9*
X219670333Y-110182819D02*
X219337000Y-109706628D01*
X219098905Y-110182819D02*
X219098905Y-109182819D01*
X219098905Y-109182819D02*
X219479857Y-109182819D01*
X219479857Y-109182819D02*
X219575095Y-109230438D01*
X219575095Y-109230438D02*
X219622714Y-109278057D01*
X219622714Y-109278057D02*
X219670333Y-109373295D01*
X219670333Y-109373295D02*
X219670333Y-109516152D01*
X219670333Y-109516152D02*
X219622714Y-109611390D01*
X219622714Y-109611390D02*
X219575095Y-109659009D01*
X219575095Y-109659009D02*
X219479857Y-109706628D01*
X219479857Y-109706628D02*
X219098905Y-109706628D01*
X220146524Y-110182819D02*
X220337000Y-110182819D01*
X220337000Y-110182819D02*
X220432238Y-110135200D01*
X220432238Y-110135200D02*
X220479857Y-110087580D01*
X220479857Y-110087580D02*
X220575095Y-109944723D01*
X220575095Y-109944723D02*
X220622714Y-109754247D01*
X220622714Y-109754247D02*
X220622714Y-109373295D01*
X220622714Y-109373295D02*
X220575095Y-109278057D01*
X220575095Y-109278057D02*
X220527476Y-109230438D01*
X220527476Y-109230438D02*
X220432238Y-109182819D01*
X220432238Y-109182819D02*
X220241762Y-109182819D01*
X220241762Y-109182819D02*
X220146524Y-109230438D01*
X220146524Y-109230438D02*
X220098905Y-109278057D01*
X220098905Y-109278057D02*
X220051286Y-109373295D01*
X220051286Y-109373295D02*
X220051286Y-109611390D01*
X220051286Y-109611390D02*
X220098905Y-109706628D01*
X220098905Y-109706628D02*
X220146524Y-109754247D01*
X220146524Y-109754247D02*
X220241762Y-109801866D01*
X220241762Y-109801866D02*
X220432238Y-109801866D01*
X220432238Y-109801866D02*
X220527476Y-109754247D01*
X220527476Y-109754247D02*
X220575095Y-109706628D01*
X220575095Y-109706628D02*
X220622714Y-109611390D01*
G04 #@! TO.C,R8*
X214463333Y-110224819D02*
X214130000Y-109748628D01*
X213891905Y-110224819D02*
X213891905Y-109224819D01*
X213891905Y-109224819D02*
X214272857Y-109224819D01*
X214272857Y-109224819D02*
X214368095Y-109272438D01*
X214368095Y-109272438D02*
X214415714Y-109320057D01*
X214415714Y-109320057D02*
X214463333Y-109415295D01*
X214463333Y-109415295D02*
X214463333Y-109558152D01*
X214463333Y-109558152D02*
X214415714Y-109653390D01*
X214415714Y-109653390D02*
X214368095Y-109701009D01*
X214368095Y-109701009D02*
X214272857Y-109748628D01*
X214272857Y-109748628D02*
X213891905Y-109748628D01*
X215034762Y-109653390D02*
X214939524Y-109605771D01*
X214939524Y-109605771D02*
X214891905Y-109558152D01*
X214891905Y-109558152D02*
X214844286Y-109462914D01*
X214844286Y-109462914D02*
X214844286Y-109415295D01*
X214844286Y-109415295D02*
X214891905Y-109320057D01*
X214891905Y-109320057D02*
X214939524Y-109272438D01*
X214939524Y-109272438D02*
X215034762Y-109224819D01*
X215034762Y-109224819D02*
X215225238Y-109224819D01*
X215225238Y-109224819D02*
X215320476Y-109272438D01*
X215320476Y-109272438D02*
X215368095Y-109320057D01*
X215368095Y-109320057D02*
X215415714Y-109415295D01*
X215415714Y-109415295D02*
X215415714Y-109462914D01*
X215415714Y-109462914D02*
X215368095Y-109558152D01*
X215368095Y-109558152D02*
X215320476Y-109605771D01*
X215320476Y-109605771D02*
X215225238Y-109653390D01*
X215225238Y-109653390D02*
X215034762Y-109653390D01*
X215034762Y-109653390D02*
X214939524Y-109701009D01*
X214939524Y-109701009D02*
X214891905Y-109748628D01*
X214891905Y-109748628D02*
X214844286Y-109843866D01*
X214844286Y-109843866D02*
X214844286Y-110034342D01*
X214844286Y-110034342D02*
X214891905Y-110129580D01*
X214891905Y-110129580D02*
X214939524Y-110177200D01*
X214939524Y-110177200D02*
X215034762Y-110224819D01*
X215034762Y-110224819D02*
X215225238Y-110224819D01*
X215225238Y-110224819D02*
X215320476Y-110177200D01*
X215320476Y-110177200D02*
X215368095Y-110129580D01*
X215368095Y-110129580D02*
X215415714Y-110034342D01*
X215415714Y-110034342D02*
X215415714Y-109843866D01*
X215415714Y-109843866D02*
X215368095Y-109748628D01*
X215368095Y-109748628D02*
X215320476Y-109701009D01*
X215320476Y-109701009D02*
X215225238Y-109653390D01*
G04 #@! TO.C,SW1*
X185356667Y-79020200D02*
X185499524Y-79067819D01*
X185499524Y-79067819D02*
X185737619Y-79067819D01*
X185737619Y-79067819D02*
X185832857Y-79020200D01*
X185832857Y-79020200D02*
X185880476Y-78972580D01*
X185880476Y-78972580D02*
X185928095Y-78877342D01*
X185928095Y-78877342D02*
X185928095Y-78782104D01*
X185928095Y-78782104D02*
X185880476Y-78686866D01*
X185880476Y-78686866D02*
X185832857Y-78639247D01*
X185832857Y-78639247D02*
X185737619Y-78591628D01*
X185737619Y-78591628D02*
X185547143Y-78544009D01*
X185547143Y-78544009D02*
X185451905Y-78496390D01*
X185451905Y-78496390D02*
X185404286Y-78448771D01*
X185404286Y-78448771D02*
X185356667Y-78353533D01*
X185356667Y-78353533D02*
X185356667Y-78258295D01*
X185356667Y-78258295D02*
X185404286Y-78163057D01*
X185404286Y-78163057D02*
X185451905Y-78115438D01*
X185451905Y-78115438D02*
X185547143Y-78067819D01*
X185547143Y-78067819D02*
X185785238Y-78067819D01*
X185785238Y-78067819D02*
X185928095Y-78115438D01*
X186261429Y-78067819D02*
X186499524Y-79067819D01*
X186499524Y-79067819D02*
X186690000Y-78353533D01*
X186690000Y-78353533D02*
X186880476Y-79067819D01*
X186880476Y-79067819D02*
X187118572Y-78067819D01*
X188023333Y-79067819D02*
X187451905Y-79067819D01*
X187737619Y-79067819D02*
X187737619Y-78067819D01*
X187737619Y-78067819D02*
X187642381Y-78210676D01*
X187642381Y-78210676D02*
X187547143Y-78305914D01*
X187547143Y-78305914D02*
X187451905Y-78353533D01*
G04 #@! TO.C,U1*
X195072095Y-97175819D02*
X195072095Y-97985342D01*
X195072095Y-97985342D02*
X195119714Y-98080580D01*
X195119714Y-98080580D02*
X195167333Y-98128200D01*
X195167333Y-98128200D02*
X195262571Y-98175819D01*
X195262571Y-98175819D02*
X195453047Y-98175819D01*
X195453047Y-98175819D02*
X195548285Y-98128200D01*
X195548285Y-98128200D02*
X195595904Y-98080580D01*
X195595904Y-98080580D02*
X195643523Y-97985342D01*
X195643523Y-97985342D02*
X195643523Y-97175819D01*
X196643523Y-98175819D02*
X196072095Y-98175819D01*
X196357809Y-98175819D02*
X196357809Y-97175819D01*
X196357809Y-97175819D02*
X196262571Y-97318676D01*
X196262571Y-97318676D02*
X196167333Y-97413914D01*
X196167333Y-97413914D02*
X196072095Y-97461533D01*
G04 #@! TO.C,R7*
X192619333Y-106203819D02*
X192286000Y-105727628D01*
X192047905Y-106203819D02*
X192047905Y-105203819D01*
X192047905Y-105203819D02*
X192428857Y-105203819D01*
X192428857Y-105203819D02*
X192524095Y-105251438D01*
X192524095Y-105251438D02*
X192571714Y-105299057D01*
X192571714Y-105299057D02*
X192619333Y-105394295D01*
X192619333Y-105394295D02*
X192619333Y-105537152D01*
X192619333Y-105537152D02*
X192571714Y-105632390D01*
X192571714Y-105632390D02*
X192524095Y-105680009D01*
X192524095Y-105680009D02*
X192428857Y-105727628D01*
X192428857Y-105727628D02*
X192047905Y-105727628D01*
X192952667Y-105203819D02*
X193619333Y-105203819D01*
X193619333Y-105203819D02*
X193190762Y-106203819D01*
G04 #@! TO.C,R6*
X192619333Y-102393819D02*
X192286000Y-101917628D01*
X192047905Y-102393819D02*
X192047905Y-101393819D01*
X192047905Y-101393819D02*
X192428857Y-101393819D01*
X192428857Y-101393819D02*
X192524095Y-101441438D01*
X192524095Y-101441438D02*
X192571714Y-101489057D01*
X192571714Y-101489057D02*
X192619333Y-101584295D01*
X192619333Y-101584295D02*
X192619333Y-101727152D01*
X192619333Y-101727152D02*
X192571714Y-101822390D01*
X192571714Y-101822390D02*
X192524095Y-101870009D01*
X192524095Y-101870009D02*
X192428857Y-101917628D01*
X192428857Y-101917628D02*
X192047905Y-101917628D01*
X193476476Y-101393819D02*
X193286000Y-101393819D01*
X193286000Y-101393819D02*
X193190762Y-101441438D01*
X193190762Y-101441438D02*
X193143143Y-101489057D01*
X193143143Y-101489057D02*
X193047905Y-101631914D01*
X193047905Y-101631914D02*
X193000286Y-101822390D01*
X193000286Y-101822390D02*
X193000286Y-102203342D01*
X193000286Y-102203342D02*
X193047905Y-102298580D01*
X193047905Y-102298580D02*
X193095524Y-102346200D01*
X193095524Y-102346200D02*
X193190762Y-102393819D01*
X193190762Y-102393819D02*
X193381238Y-102393819D01*
X193381238Y-102393819D02*
X193476476Y-102346200D01*
X193476476Y-102346200D02*
X193524095Y-102298580D01*
X193524095Y-102298580D02*
X193571714Y-102203342D01*
X193571714Y-102203342D02*
X193571714Y-101965247D01*
X193571714Y-101965247D02*
X193524095Y-101870009D01*
X193524095Y-101870009D02*
X193476476Y-101822390D01*
X193476476Y-101822390D02*
X193381238Y-101774771D01*
X193381238Y-101774771D02*
X193190762Y-101774771D01*
X193190762Y-101774771D02*
X193095524Y-101822390D01*
X193095524Y-101822390D02*
X193047905Y-101870009D01*
X193047905Y-101870009D02*
X193000286Y-101965247D01*
G04 #@! TO.C,R5*
X183089619Y-86780666D02*
X182613428Y-87113999D01*
X183089619Y-87352094D02*
X182089619Y-87352094D01*
X182089619Y-87352094D02*
X182089619Y-86971142D01*
X182089619Y-86971142D02*
X182137238Y-86875904D01*
X182137238Y-86875904D02*
X182184857Y-86828285D01*
X182184857Y-86828285D02*
X182280095Y-86780666D01*
X182280095Y-86780666D02*
X182422952Y-86780666D01*
X182422952Y-86780666D02*
X182518190Y-86828285D01*
X182518190Y-86828285D02*
X182565809Y-86875904D01*
X182565809Y-86875904D02*
X182613428Y-86971142D01*
X182613428Y-86971142D02*
X182613428Y-87352094D01*
X182089619Y-85875904D02*
X182089619Y-86352094D01*
X182089619Y-86352094D02*
X182565809Y-86399713D01*
X182565809Y-86399713D02*
X182518190Y-86352094D01*
X182518190Y-86352094D02*
X182470571Y-86256856D01*
X182470571Y-86256856D02*
X182470571Y-86018761D01*
X182470571Y-86018761D02*
X182518190Y-85923523D01*
X182518190Y-85923523D02*
X182565809Y-85875904D01*
X182565809Y-85875904D02*
X182661047Y-85828285D01*
X182661047Y-85828285D02*
X182899142Y-85828285D01*
X182899142Y-85828285D02*
X182994380Y-85875904D01*
X182994380Y-85875904D02*
X183042000Y-85923523D01*
X183042000Y-85923523D02*
X183089619Y-86018761D01*
X183089619Y-86018761D02*
X183089619Y-86256856D01*
X183089619Y-86256856D02*
X183042000Y-86352094D01*
X183042000Y-86352094D02*
X182994380Y-86399713D01*
G04 #@! TO.C,R4*
X187412333Y-93376819D02*
X187079000Y-92900628D01*
X186840905Y-93376819D02*
X186840905Y-92376819D01*
X186840905Y-92376819D02*
X187221857Y-92376819D01*
X187221857Y-92376819D02*
X187317095Y-92424438D01*
X187317095Y-92424438D02*
X187364714Y-92472057D01*
X187364714Y-92472057D02*
X187412333Y-92567295D01*
X187412333Y-92567295D02*
X187412333Y-92710152D01*
X187412333Y-92710152D02*
X187364714Y-92805390D01*
X187364714Y-92805390D02*
X187317095Y-92853009D01*
X187317095Y-92853009D02*
X187221857Y-92900628D01*
X187221857Y-92900628D02*
X186840905Y-92900628D01*
X188269476Y-92710152D02*
X188269476Y-93376819D01*
X188031381Y-92329200D02*
X187793286Y-93043485D01*
X187793286Y-93043485D02*
X188412333Y-93043485D01*
G04 #@! TO.C,R3*
X187412333Y-97694819D02*
X187079000Y-97218628D01*
X186840905Y-97694819D02*
X186840905Y-96694819D01*
X186840905Y-96694819D02*
X187221857Y-96694819D01*
X187221857Y-96694819D02*
X187317095Y-96742438D01*
X187317095Y-96742438D02*
X187364714Y-96790057D01*
X187364714Y-96790057D02*
X187412333Y-96885295D01*
X187412333Y-96885295D02*
X187412333Y-97028152D01*
X187412333Y-97028152D02*
X187364714Y-97123390D01*
X187364714Y-97123390D02*
X187317095Y-97171009D01*
X187317095Y-97171009D02*
X187221857Y-97218628D01*
X187221857Y-97218628D02*
X186840905Y-97218628D01*
X187745667Y-96694819D02*
X188364714Y-96694819D01*
X188364714Y-96694819D02*
X188031381Y-97075771D01*
X188031381Y-97075771D02*
X188174238Y-97075771D01*
X188174238Y-97075771D02*
X188269476Y-97123390D01*
X188269476Y-97123390D02*
X188317095Y-97171009D01*
X188317095Y-97171009D02*
X188364714Y-97266247D01*
X188364714Y-97266247D02*
X188364714Y-97504342D01*
X188364714Y-97504342D02*
X188317095Y-97599580D01*
X188317095Y-97599580D02*
X188269476Y-97647200D01*
X188269476Y-97647200D02*
X188174238Y-97694819D01*
X188174238Y-97694819D02*
X187888524Y-97694819D01*
X187888524Y-97694819D02*
X187793286Y-97647200D01*
X187793286Y-97647200D02*
X187745667Y-97599580D01*
G04 #@! TO.C,R2*
X205573333Y-110182819D02*
X205240000Y-109706628D01*
X205001905Y-110182819D02*
X205001905Y-109182819D01*
X205001905Y-109182819D02*
X205382857Y-109182819D01*
X205382857Y-109182819D02*
X205478095Y-109230438D01*
X205478095Y-109230438D02*
X205525714Y-109278057D01*
X205525714Y-109278057D02*
X205573333Y-109373295D01*
X205573333Y-109373295D02*
X205573333Y-109516152D01*
X205573333Y-109516152D02*
X205525714Y-109611390D01*
X205525714Y-109611390D02*
X205478095Y-109659009D01*
X205478095Y-109659009D02*
X205382857Y-109706628D01*
X205382857Y-109706628D02*
X205001905Y-109706628D01*
X205954286Y-109278057D02*
X206001905Y-109230438D01*
X206001905Y-109230438D02*
X206097143Y-109182819D01*
X206097143Y-109182819D02*
X206335238Y-109182819D01*
X206335238Y-109182819D02*
X206430476Y-109230438D01*
X206430476Y-109230438D02*
X206478095Y-109278057D01*
X206478095Y-109278057D02*
X206525714Y-109373295D01*
X206525714Y-109373295D02*
X206525714Y-109468533D01*
X206525714Y-109468533D02*
X206478095Y-109611390D01*
X206478095Y-109611390D02*
X205906667Y-110182819D01*
X205906667Y-110182819D02*
X206525714Y-110182819D01*
G04 #@! TO.C,R1*
X202271333Y-81946819D02*
X201938000Y-81470628D01*
X201699905Y-81946819D02*
X201699905Y-80946819D01*
X201699905Y-80946819D02*
X202080857Y-80946819D01*
X202080857Y-80946819D02*
X202176095Y-80994438D01*
X202176095Y-80994438D02*
X202223714Y-81042057D01*
X202223714Y-81042057D02*
X202271333Y-81137295D01*
X202271333Y-81137295D02*
X202271333Y-81280152D01*
X202271333Y-81280152D02*
X202223714Y-81375390D01*
X202223714Y-81375390D02*
X202176095Y-81423009D01*
X202176095Y-81423009D02*
X202080857Y-81470628D01*
X202080857Y-81470628D02*
X201699905Y-81470628D01*
X203223714Y-81946819D02*
X202652286Y-81946819D01*
X202938000Y-81946819D02*
X202938000Y-80946819D01*
X202938000Y-80946819D02*
X202842762Y-81089676D01*
X202842762Y-81089676D02*
X202747524Y-81184914D01*
X202747524Y-81184914D02*
X202652286Y-81232533D01*
G04 #@! TO.C,Q4*
X189515761Y-109516057D02*
X189420523Y-109468438D01*
X189420523Y-109468438D02*
X189325285Y-109373200D01*
X189325285Y-109373200D02*
X189182428Y-109230342D01*
X189182428Y-109230342D02*
X189087190Y-109182723D01*
X189087190Y-109182723D02*
X188991952Y-109182723D01*
X189039571Y-109420819D02*
X188944333Y-109373200D01*
X188944333Y-109373200D02*
X188849095Y-109277961D01*
X188849095Y-109277961D02*
X188801476Y-109087485D01*
X188801476Y-109087485D02*
X188801476Y-108754152D01*
X188801476Y-108754152D02*
X188849095Y-108563676D01*
X188849095Y-108563676D02*
X188944333Y-108468438D01*
X188944333Y-108468438D02*
X189039571Y-108420819D01*
X189039571Y-108420819D02*
X189230047Y-108420819D01*
X189230047Y-108420819D02*
X189325285Y-108468438D01*
X189325285Y-108468438D02*
X189420523Y-108563676D01*
X189420523Y-108563676D02*
X189468142Y-108754152D01*
X189468142Y-108754152D02*
X189468142Y-109087485D01*
X189468142Y-109087485D02*
X189420523Y-109277961D01*
X189420523Y-109277961D02*
X189325285Y-109373200D01*
X189325285Y-109373200D02*
X189230047Y-109420819D01*
X189230047Y-109420819D02*
X189039571Y-109420819D01*
X190325285Y-108754152D02*
X190325285Y-109420819D01*
X190087190Y-108373200D02*
X189849095Y-109087485D01*
X189849095Y-109087485D02*
X190468142Y-109087485D01*
G04 #@! TO.C,Q3*
X189515761Y-105325057D02*
X189420523Y-105277438D01*
X189420523Y-105277438D02*
X189325285Y-105182200D01*
X189325285Y-105182200D02*
X189182428Y-105039342D01*
X189182428Y-105039342D02*
X189087190Y-104991723D01*
X189087190Y-104991723D02*
X188991952Y-104991723D01*
X189039571Y-105229819D02*
X188944333Y-105182200D01*
X188944333Y-105182200D02*
X188849095Y-105086961D01*
X188849095Y-105086961D02*
X188801476Y-104896485D01*
X188801476Y-104896485D02*
X188801476Y-104563152D01*
X188801476Y-104563152D02*
X188849095Y-104372676D01*
X188849095Y-104372676D02*
X188944333Y-104277438D01*
X188944333Y-104277438D02*
X189039571Y-104229819D01*
X189039571Y-104229819D02*
X189230047Y-104229819D01*
X189230047Y-104229819D02*
X189325285Y-104277438D01*
X189325285Y-104277438D02*
X189420523Y-104372676D01*
X189420523Y-104372676D02*
X189468142Y-104563152D01*
X189468142Y-104563152D02*
X189468142Y-104896485D01*
X189468142Y-104896485D02*
X189420523Y-105086961D01*
X189420523Y-105086961D02*
X189325285Y-105182200D01*
X189325285Y-105182200D02*
X189230047Y-105229819D01*
X189230047Y-105229819D02*
X189039571Y-105229819D01*
X189801476Y-104229819D02*
X190420523Y-104229819D01*
X190420523Y-104229819D02*
X190087190Y-104610771D01*
X190087190Y-104610771D02*
X190230047Y-104610771D01*
X190230047Y-104610771D02*
X190325285Y-104658390D01*
X190325285Y-104658390D02*
X190372904Y-104706009D01*
X190372904Y-104706009D02*
X190420523Y-104801247D01*
X190420523Y-104801247D02*
X190420523Y-105039342D01*
X190420523Y-105039342D02*
X190372904Y-105134580D01*
X190372904Y-105134580D02*
X190325285Y-105182200D01*
X190325285Y-105182200D02*
X190230047Y-105229819D01*
X190230047Y-105229819D02*
X189944333Y-105229819D01*
X189944333Y-105229819D02*
X189849095Y-105182200D01*
X189849095Y-105182200D02*
X189801476Y-105134580D01*
G04 #@! TO.C,Q2*
X186745057Y-86328238D02*
X186697438Y-86423476D01*
X186697438Y-86423476D02*
X186602200Y-86518714D01*
X186602200Y-86518714D02*
X186459342Y-86661571D01*
X186459342Y-86661571D02*
X186411723Y-86756809D01*
X186411723Y-86756809D02*
X186411723Y-86852047D01*
X186649819Y-86804428D02*
X186602200Y-86899666D01*
X186602200Y-86899666D02*
X186506961Y-86994904D01*
X186506961Y-86994904D02*
X186316485Y-87042523D01*
X186316485Y-87042523D02*
X185983152Y-87042523D01*
X185983152Y-87042523D02*
X185792676Y-86994904D01*
X185792676Y-86994904D02*
X185697438Y-86899666D01*
X185697438Y-86899666D02*
X185649819Y-86804428D01*
X185649819Y-86804428D02*
X185649819Y-86613952D01*
X185649819Y-86613952D02*
X185697438Y-86518714D01*
X185697438Y-86518714D02*
X185792676Y-86423476D01*
X185792676Y-86423476D02*
X185983152Y-86375857D01*
X185983152Y-86375857D02*
X186316485Y-86375857D01*
X186316485Y-86375857D02*
X186506961Y-86423476D01*
X186506961Y-86423476D02*
X186602200Y-86518714D01*
X186602200Y-86518714D02*
X186649819Y-86613952D01*
X186649819Y-86613952D02*
X186649819Y-86804428D01*
X185745057Y-85994904D02*
X185697438Y-85947285D01*
X185697438Y-85947285D02*
X185649819Y-85852047D01*
X185649819Y-85852047D02*
X185649819Y-85613952D01*
X185649819Y-85613952D02*
X185697438Y-85518714D01*
X185697438Y-85518714D02*
X185745057Y-85471095D01*
X185745057Y-85471095D02*
X185840295Y-85423476D01*
X185840295Y-85423476D02*
X185935533Y-85423476D01*
X185935533Y-85423476D02*
X186078390Y-85471095D01*
X186078390Y-85471095D02*
X186649819Y-86042523D01*
X186649819Y-86042523D02*
X186649819Y-85423476D01*
G04 #@! TO.C,Q1*
X186605057Y-90773238D02*
X186557438Y-90868476D01*
X186557438Y-90868476D02*
X186462200Y-90963714D01*
X186462200Y-90963714D02*
X186319342Y-91106571D01*
X186319342Y-91106571D02*
X186271723Y-91201809D01*
X186271723Y-91201809D02*
X186271723Y-91297047D01*
X186509819Y-91249428D02*
X186462200Y-91344666D01*
X186462200Y-91344666D02*
X186366961Y-91439904D01*
X186366961Y-91439904D02*
X186176485Y-91487523D01*
X186176485Y-91487523D02*
X185843152Y-91487523D01*
X185843152Y-91487523D02*
X185652676Y-91439904D01*
X185652676Y-91439904D02*
X185557438Y-91344666D01*
X185557438Y-91344666D02*
X185509819Y-91249428D01*
X185509819Y-91249428D02*
X185509819Y-91058952D01*
X185509819Y-91058952D02*
X185557438Y-90963714D01*
X185557438Y-90963714D02*
X185652676Y-90868476D01*
X185652676Y-90868476D02*
X185843152Y-90820857D01*
X185843152Y-90820857D02*
X186176485Y-90820857D01*
X186176485Y-90820857D02*
X186366961Y-90868476D01*
X186366961Y-90868476D02*
X186462200Y-90963714D01*
X186462200Y-90963714D02*
X186509819Y-91058952D01*
X186509819Y-91058952D02*
X186509819Y-91249428D01*
X186509819Y-89868476D02*
X186509819Y-90439904D01*
X186509819Y-90154190D02*
X185509819Y-90154190D01*
X185509819Y-90154190D02*
X185652676Y-90249428D01*
X185652676Y-90249428D02*
X185747914Y-90344666D01*
X185747914Y-90344666D02*
X185795533Y-90439904D01*
G04 #@! TO.C,J4*
X192198666Y-77305819D02*
X192198666Y-78020104D01*
X192198666Y-78020104D02*
X192151047Y-78162961D01*
X192151047Y-78162961D02*
X192055809Y-78258200D01*
X192055809Y-78258200D02*
X191912952Y-78305819D01*
X191912952Y-78305819D02*
X191817714Y-78305819D01*
X193103428Y-77639152D02*
X193103428Y-78305819D01*
X192865333Y-77258200D02*
X192627238Y-77972485D01*
X192627238Y-77972485D02*
X193246285Y-77972485D01*
G04 #@! TO.C,J2*
X193976666Y-108928819D02*
X193976666Y-109643104D01*
X193976666Y-109643104D02*
X193929047Y-109785961D01*
X193929047Y-109785961D02*
X193833809Y-109881200D01*
X193833809Y-109881200D02*
X193690952Y-109928819D01*
X193690952Y-109928819D02*
X193595714Y-109928819D01*
X194405238Y-109024057D02*
X194452857Y-108976438D01*
X194452857Y-108976438D02*
X194548095Y-108928819D01*
X194548095Y-108928819D02*
X194786190Y-108928819D01*
X194786190Y-108928819D02*
X194881428Y-108976438D01*
X194881428Y-108976438D02*
X194929047Y-109024057D01*
X194929047Y-109024057D02*
X194976666Y-109119295D01*
X194976666Y-109119295D02*
X194976666Y-109214533D01*
X194976666Y-109214533D02*
X194929047Y-109357390D01*
X194929047Y-109357390D02*
X194357619Y-109928819D01*
X194357619Y-109928819D02*
X194976666Y-109928819D01*
G04 #@! TO.C,J1*
X184404819Y-97317333D02*
X185119104Y-97317333D01*
X185119104Y-97317333D02*
X185261961Y-97364952D01*
X185261961Y-97364952D02*
X185357200Y-97460190D01*
X185357200Y-97460190D02*
X185404819Y-97603047D01*
X185404819Y-97603047D02*
X185404819Y-97698285D01*
X185404819Y-96317333D02*
X185404819Y-96888761D01*
X185404819Y-96603047D02*
X184404819Y-96603047D01*
X184404819Y-96603047D02*
X184547676Y-96698285D01*
X184547676Y-96698285D02*
X184642914Y-96793523D01*
X184642914Y-96793523D02*
X184690533Y-96888761D01*
G04 #@! TO.C,D2*
X179728905Y-108827819D02*
X179728905Y-107827819D01*
X179728905Y-107827819D02*
X179967000Y-107827819D01*
X179967000Y-107827819D02*
X180109857Y-107875438D01*
X180109857Y-107875438D02*
X180205095Y-107970676D01*
X180205095Y-107970676D02*
X180252714Y-108065914D01*
X180252714Y-108065914D02*
X180300333Y-108256390D01*
X180300333Y-108256390D02*
X180300333Y-108399247D01*
X180300333Y-108399247D02*
X180252714Y-108589723D01*
X180252714Y-108589723D02*
X180205095Y-108684961D01*
X180205095Y-108684961D02*
X180109857Y-108780200D01*
X180109857Y-108780200D02*
X179967000Y-108827819D01*
X179967000Y-108827819D02*
X179728905Y-108827819D01*
X180681286Y-107923057D02*
X180728905Y-107875438D01*
X180728905Y-107875438D02*
X180824143Y-107827819D01*
X180824143Y-107827819D02*
X181062238Y-107827819D01*
X181062238Y-107827819D02*
X181157476Y-107875438D01*
X181157476Y-107875438D02*
X181205095Y-107923057D01*
X181205095Y-107923057D02*
X181252714Y-108018295D01*
X181252714Y-108018295D02*
X181252714Y-108113533D01*
X181252714Y-108113533D02*
X181205095Y-108256390D01*
X181205095Y-108256390D02*
X180633667Y-108827819D01*
X180633667Y-108827819D02*
X181252714Y-108827819D01*
G04 #@! TO.C,D1*
X179601905Y-105144819D02*
X179601905Y-104144819D01*
X179601905Y-104144819D02*
X179840000Y-104144819D01*
X179840000Y-104144819D02*
X179982857Y-104192438D01*
X179982857Y-104192438D02*
X180078095Y-104287676D01*
X180078095Y-104287676D02*
X180125714Y-104382914D01*
X180125714Y-104382914D02*
X180173333Y-104573390D01*
X180173333Y-104573390D02*
X180173333Y-104716247D01*
X180173333Y-104716247D02*
X180125714Y-104906723D01*
X180125714Y-104906723D02*
X180078095Y-105001961D01*
X180078095Y-105001961D02*
X179982857Y-105097200D01*
X179982857Y-105097200D02*
X179840000Y-105144819D01*
X179840000Y-105144819D02*
X179601905Y-105144819D01*
X181125714Y-105144819D02*
X180554286Y-105144819D01*
X180840000Y-105144819D02*
X180840000Y-104144819D01*
X180840000Y-104144819D02*
X180744762Y-104287676D01*
X180744762Y-104287676D02*
X180649524Y-104382914D01*
X180649524Y-104382914D02*
X180554286Y-104430533D01*
G04 #@! TO.C,C6*
X179205180Y-86831466D02*
X179252800Y-86879085D01*
X179252800Y-86879085D02*
X179300419Y-87021942D01*
X179300419Y-87021942D02*
X179300419Y-87117180D01*
X179300419Y-87117180D02*
X179252800Y-87260037D01*
X179252800Y-87260037D02*
X179157561Y-87355275D01*
X179157561Y-87355275D02*
X179062323Y-87402894D01*
X179062323Y-87402894D02*
X178871847Y-87450513D01*
X178871847Y-87450513D02*
X178728990Y-87450513D01*
X178728990Y-87450513D02*
X178538514Y-87402894D01*
X178538514Y-87402894D02*
X178443276Y-87355275D01*
X178443276Y-87355275D02*
X178348038Y-87260037D01*
X178348038Y-87260037D02*
X178300419Y-87117180D01*
X178300419Y-87117180D02*
X178300419Y-87021942D01*
X178300419Y-87021942D02*
X178348038Y-86879085D01*
X178348038Y-86879085D02*
X178395657Y-86831466D01*
X178300419Y-85974323D02*
X178300419Y-86164799D01*
X178300419Y-86164799D02*
X178348038Y-86260037D01*
X178348038Y-86260037D02*
X178395657Y-86307656D01*
X178395657Y-86307656D02*
X178538514Y-86402894D01*
X178538514Y-86402894D02*
X178728990Y-86450513D01*
X178728990Y-86450513D02*
X179109942Y-86450513D01*
X179109942Y-86450513D02*
X179205180Y-86402894D01*
X179205180Y-86402894D02*
X179252800Y-86355275D01*
X179252800Y-86355275D02*
X179300419Y-86260037D01*
X179300419Y-86260037D02*
X179300419Y-86069561D01*
X179300419Y-86069561D02*
X179252800Y-85974323D01*
X179252800Y-85974323D02*
X179205180Y-85926704D01*
X179205180Y-85926704D02*
X179109942Y-85879085D01*
X179109942Y-85879085D02*
X178871847Y-85879085D01*
X178871847Y-85879085D02*
X178776609Y-85926704D01*
X178776609Y-85926704D02*
X178728990Y-85974323D01*
X178728990Y-85974323D02*
X178681371Y-86069561D01*
X178681371Y-86069561D02*
X178681371Y-86260037D01*
X178681371Y-86260037D02*
X178728990Y-86355275D01*
X178728990Y-86355275D02*
X178776609Y-86402894D01*
X178776609Y-86402894D02*
X178871847Y-86450513D01*
G04 #@! TO.C,C5*
X196048333Y-82964580D02*
X196000714Y-83012200D01*
X196000714Y-83012200D02*
X195857857Y-83059819D01*
X195857857Y-83059819D02*
X195762619Y-83059819D01*
X195762619Y-83059819D02*
X195619762Y-83012200D01*
X195619762Y-83012200D02*
X195524524Y-82916961D01*
X195524524Y-82916961D02*
X195476905Y-82821723D01*
X195476905Y-82821723D02*
X195429286Y-82631247D01*
X195429286Y-82631247D02*
X195429286Y-82488390D01*
X195429286Y-82488390D02*
X195476905Y-82297914D01*
X195476905Y-82297914D02*
X195524524Y-82202676D01*
X195524524Y-82202676D02*
X195619762Y-82107438D01*
X195619762Y-82107438D02*
X195762619Y-82059819D01*
X195762619Y-82059819D02*
X195857857Y-82059819D01*
X195857857Y-82059819D02*
X196000714Y-82107438D01*
X196000714Y-82107438D02*
X196048333Y-82155057D01*
X196953095Y-82059819D02*
X196476905Y-82059819D01*
X196476905Y-82059819D02*
X196429286Y-82536009D01*
X196429286Y-82536009D02*
X196476905Y-82488390D01*
X196476905Y-82488390D02*
X196572143Y-82440771D01*
X196572143Y-82440771D02*
X196810238Y-82440771D01*
X196810238Y-82440771D02*
X196905476Y-82488390D01*
X196905476Y-82488390D02*
X196953095Y-82536009D01*
X196953095Y-82536009D02*
X197000714Y-82631247D01*
X197000714Y-82631247D02*
X197000714Y-82869342D01*
X197000714Y-82869342D02*
X196953095Y-82964580D01*
X196953095Y-82964580D02*
X196905476Y-83012200D01*
X196905476Y-83012200D02*
X196810238Y-83059819D01*
X196810238Y-83059819D02*
X196572143Y-83059819D01*
X196572143Y-83059819D02*
X196476905Y-83012200D01*
X196476905Y-83012200D02*
X196429286Y-82964580D01*
G04 #@! TO.C,C4*
X193729780Y-82691266D02*
X193777400Y-82738885D01*
X193777400Y-82738885D02*
X193825019Y-82881742D01*
X193825019Y-82881742D02*
X193825019Y-82976980D01*
X193825019Y-82976980D02*
X193777400Y-83119837D01*
X193777400Y-83119837D02*
X193682161Y-83215075D01*
X193682161Y-83215075D02*
X193586923Y-83262694D01*
X193586923Y-83262694D02*
X193396447Y-83310313D01*
X193396447Y-83310313D02*
X193253590Y-83310313D01*
X193253590Y-83310313D02*
X193063114Y-83262694D01*
X193063114Y-83262694D02*
X192967876Y-83215075D01*
X192967876Y-83215075D02*
X192872638Y-83119837D01*
X192872638Y-83119837D02*
X192825019Y-82976980D01*
X192825019Y-82976980D02*
X192825019Y-82881742D01*
X192825019Y-82881742D02*
X192872638Y-82738885D01*
X192872638Y-82738885D02*
X192920257Y-82691266D01*
X193158352Y-81834123D02*
X193825019Y-81834123D01*
X192777400Y-82072218D02*
X193491685Y-82310313D01*
X193491685Y-82310313D02*
X193491685Y-81691266D01*
G04 #@! TO.C,C3*
X214082333Y-81766580D02*
X214034714Y-81814200D01*
X214034714Y-81814200D02*
X213891857Y-81861819D01*
X213891857Y-81861819D02*
X213796619Y-81861819D01*
X213796619Y-81861819D02*
X213653762Y-81814200D01*
X213653762Y-81814200D02*
X213558524Y-81718961D01*
X213558524Y-81718961D02*
X213510905Y-81623723D01*
X213510905Y-81623723D02*
X213463286Y-81433247D01*
X213463286Y-81433247D02*
X213463286Y-81290390D01*
X213463286Y-81290390D02*
X213510905Y-81099914D01*
X213510905Y-81099914D02*
X213558524Y-81004676D01*
X213558524Y-81004676D02*
X213653762Y-80909438D01*
X213653762Y-80909438D02*
X213796619Y-80861819D01*
X213796619Y-80861819D02*
X213891857Y-80861819D01*
X213891857Y-80861819D02*
X214034714Y-80909438D01*
X214034714Y-80909438D02*
X214082333Y-80957057D01*
X214415667Y-80861819D02*
X215034714Y-80861819D01*
X215034714Y-80861819D02*
X214701381Y-81242771D01*
X214701381Y-81242771D02*
X214844238Y-81242771D01*
X214844238Y-81242771D02*
X214939476Y-81290390D01*
X214939476Y-81290390D02*
X214987095Y-81338009D01*
X214987095Y-81338009D02*
X215034714Y-81433247D01*
X215034714Y-81433247D02*
X215034714Y-81671342D01*
X215034714Y-81671342D02*
X214987095Y-81766580D01*
X214987095Y-81766580D02*
X214939476Y-81814200D01*
X214939476Y-81814200D02*
X214844238Y-81861819D01*
X214844238Y-81861819D02*
X214558524Y-81861819D01*
X214558524Y-81861819D02*
X214463286Y-81814200D01*
X214463286Y-81814200D02*
X214415667Y-81766580D01*
G04 #@! TO.C,C2*
X219416333Y-81766580D02*
X219368714Y-81814200D01*
X219368714Y-81814200D02*
X219225857Y-81861819D01*
X219225857Y-81861819D02*
X219130619Y-81861819D01*
X219130619Y-81861819D02*
X218987762Y-81814200D01*
X218987762Y-81814200D02*
X218892524Y-81718961D01*
X218892524Y-81718961D02*
X218844905Y-81623723D01*
X218844905Y-81623723D02*
X218797286Y-81433247D01*
X218797286Y-81433247D02*
X218797286Y-81290390D01*
X218797286Y-81290390D02*
X218844905Y-81099914D01*
X218844905Y-81099914D02*
X218892524Y-81004676D01*
X218892524Y-81004676D02*
X218987762Y-80909438D01*
X218987762Y-80909438D02*
X219130619Y-80861819D01*
X219130619Y-80861819D02*
X219225857Y-80861819D01*
X219225857Y-80861819D02*
X219368714Y-80909438D01*
X219368714Y-80909438D02*
X219416333Y-80957057D01*
X219797286Y-80957057D02*
X219844905Y-80909438D01*
X219844905Y-80909438D02*
X219940143Y-80861819D01*
X219940143Y-80861819D02*
X220178238Y-80861819D01*
X220178238Y-80861819D02*
X220273476Y-80909438D01*
X220273476Y-80909438D02*
X220321095Y-80957057D01*
X220321095Y-80957057D02*
X220368714Y-81052295D01*
X220368714Y-81052295D02*
X220368714Y-81147533D01*
X220368714Y-81147533D02*
X220321095Y-81290390D01*
X220321095Y-81290390D02*
X219749667Y-81861819D01*
X219749667Y-81861819D02*
X220368714Y-81861819D01*
G04 #@! TO.C,C1*
X207859333Y-81821580D02*
X207811714Y-81869200D01*
X207811714Y-81869200D02*
X207668857Y-81916819D01*
X207668857Y-81916819D02*
X207573619Y-81916819D01*
X207573619Y-81916819D02*
X207430762Y-81869200D01*
X207430762Y-81869200D02*
X207335524Y-81773961D01*
X207335524Y-81773961D02*
X207287905Y-81678723D01*
X207287905Y-81678723D02*
X207240286Y-81488247D01*
X207240286Y-81488247D02*
X207240286Y-81345390D01*
X207240286Y-81345390D02*
X207287905Y-81154914D01*
X207287905Y-81154914D02*
X207335524Y-81059676D01*
X207335524Y-81059676D02*
X207430762Y-80964438D01*
X207430762Y-80964438D02*
X207573619Y-80916819D01*
X207573619Y-80916819D02*
X207668857Y-80916819D01*
X207668857Y-80916819D02*
X207811714Y-80964438D01*
X207811714Y-80964438D02*
X207859333Y-81012057D01*
X208811714Y-81916819D02*
X208240286Y-81916819D01*
X208526000Y-81916819D02*
X208526000Y-80916819D01*
X208526000Y-80916819D02*
X208430762Y-81059676D01*
X208430762Y-81059676D02*
X208335524Y-81154914D01*
X208335524Y-81154914D02*
X208240286Y-81202533D01*
D11*
G04 #@! TO.C,U2*
X202636000Y-86533000D02*
X202636000Y-87533000D01*
X203416000Y-86533000D02*
X202636000Y-86533000D01*
X221961000Y-86533000D02*
X221961000Y-86153000D01*
X202636000Y-104773000D02*
X202636000Y-103773000D01*
X203416000Y-104773000D02*
X202636000Y-104773000D01*
X228376000Y-86533000D02*
X221961000Y-86533000D01*
X228376000Y-86533000D02*
X228376000Y-104773000D01*
X228376000Y-104773000D02*
X221961000Y-104773000D01*
G04 #@! TO.C,D3*
X197374000Y-99240000D02*
X197374000Y-103250000D01*
X199374000Y-99240000D02*
X199374000Y-103250000D01*
X199374000Y-99240000D02*
X197374000Y-99240000D01*
G04 #@! TO.C,J7*
X191262000Y-113471000D02*
X183582000Y-113471000D01*
X192532000Y-110811000D02*
X193862000Y-110811000D01*
X183582000Y-110811000D02*
X183582000Y-113471000D01*
X191262000Y-110811000D02*
X191262000Y-113471000D01*
X193862000Y-110811000D02*
X193862000Y-112141000D01*
X191262000Y-110811000D02*
X183582000Y-110811000D01*
G04 #@! TO.C,R9*
X218982936Y-107040000D02*
X220437064Y-107040000D01*
X218982936Y-108860000D02*
X220437064Y-108860000D01*
G04 #@! TO.C,R8*
X215357064Y-108860000D02*
X213902936Y-108860000D01*
X215357064Y-107040000D02*
X213902936Y-107040000D01*
G04 #@! TO.C,SW1*
X181508800Y-83534000D02*
X187908800Y-83534000D01*
X187908800Y-80734000D02*
X187908800Y-79534000D01*
X187908800Y-83534000D02*
X187908800Y-82334000D01*
X187908800Y-79534000D02*
X181508800Y-79534000D01*
X181508800Y-82334000D02*
X181508800Y-83534000D01*
X181508800Y-79534000D02*
X181508800Y-80734000D01*
G04 #@! TO.C,U1*
X195834000Y-96881000D02*
X199284000Y-96881000D01*
X195834000Y-86761000D02*
X193884000Y-86761000D01*
X195834000Y-96881000D02*
X193884000Y-96881000D01*
X195834000Y-86761000D02*
X197784000Y-86761000D01*
G04 #@! TO.C,R7*
X192058936Y-108479000D02*
X193513064Y-108479000D01*
X192058936Y-106659000D02*
X193513064Y-106659000D01*
G04 #@! TO.C,R6*
X192058936Y-102849000D02*
X193513064Y-102849000D01*
X192058936Y-104669000D02*
X193513064Y-104669000D01*
G04 #@! TO.C,R5*
X183544800Y-87341064D02*
X183544800Y-85886936D01*
X185364800Y-87341064D02*
X185364800Y-85886936D01*
G04 #@! TO.C,R4*
X186851936Y-93832000D02*
X188306064Y-93832000D01*
X186851936Y-95652000D02*
X188306064Y-95652000D01*
G04 #@! TO.C,R3*
X186851936Y-98150000D02*
X188306064Y-98150000D01*
X186851936Y-99970000D02*
X188306064Y-99970000D01*
G04 #@! TO.C,R2*
X205012936Y-107040000D02*
X206467064Y-107040000D01*
X205012936Y-108860000D02*
X206467064Y-108860000D01*
G04 #@! TO.C,R1*
X201710936Y-82402000D02*
X203165064Y-82402000D01*
X201710936Y-84222000D02*
X203165064Y-84222000D01*
G04 #@! TO.C,Q4*
X186639200Y-109510000D02*
X185989200Y-109510000D01*
X186639200Y-106390000D02*
X185989200Y-106390000D01*
X186639200Y-109510000D02*
X188314200Y-109510000D01*
X186639200Y-106390000D02*
X187289200Y-106390000D01*
G04 #@! TO.C,Q3*
X186639200Y-105293600D02*
X185989200Y-105293600D01*
X186639200Y-102173600D02*
X185989200Y-102173600D01*
X186639200Y-105293600D02*
X188314200Y-105293600D01*
X186639200Y-102173600D02*
X187289200Y-102173600D01*
G04 #@! TO.C,Q2*
X187035000Y-86233000D02*
X187035000Y-85583000D01*
X190155000Y-86233000D02*
X190155000Y-85583000D01*
X187035000Y-86233000D02*
X187035000Y-87908000D01*
X190155000Y-86233000D02*
X190155000Y-86883000D01*
G04 #@! TO.C,Q1*
X190180400Y-90678000D02*
X190180400Y-91328000D01*
X187060400Y-90678000D02*
X187060400Y-91328000D01*
X190180400Y-90678000D02*
X190180400Y-89003000D01*
X187060400Y-90678000D02*
X187060400Y-90028000D01*
G04 #@! TO.C,J4*
X221802000Y-77791000D02*
X221802000Y-79121000D01*
X219202000Y-77791000D02*
X193742000Y-77791000D01*
X193742000Y-77791000D02*
X193742000Y-80451000D01*
X219202000Y-77791000D02*
X219202000Y-80451000D01*
X219202000Y-80451000D02*
X193742000Y-80451000D01*
X220472000Y-77791000D02*
X221802000Y-77791000D01*
G04 #@! TO.C,J2*
X221802000Y-110811000D02*
X221802000Y-112141000D01*
X219202000Y-110811000D02*
X193742000Y-110811000D01*
X193742000Y-110811000D02*
X193742000Y-113471000D01*
X219202000Y-110811000D02*
X219202000Y-113471000D01*
X219202000Y-113471000D02*
X193742000Y-113471000D01*
X220472000Y-110811000D02*
X221802000Y-110811000D01*
D12*
G04 #@! TO.C,J1*
X180196000Y-90228000D02*
X179516000Y-90228000D01*
X176956000Y-90228000D02*
X176606000Y-90228000D01*
X176606000Y-90228000D02*
X176606000Y-99168000D01*
X180196000Y-99168000D02*
X179516000Y-99168000D01*
X176606000Y-99168000D02*
X176956000Y-99168000D01*
X184542000Y-91650000D02*
G75*
G03*
X184542000Y-91650000I-100000J0D01*
G01*
D11*
G04 #@! TO.C,D2*
X182927000Y-105418000D02*
X178867000Y-105418000D01*
X182927000Y-107688000D02*
X182927000Y-105418000D01*
X178867000Y-107688000D02*
X182927000Y-107688000D01*
G04 #@! TO.C,D1*
X182800000Y-101735000D02*
X178740000Y-101735000D01*
X182800000Y-104005000D02*
X182800000Y-101735000D01*
X178740000Y-104005000D02*
X182800000Y-104005000D01*
G04 #@! TO.C,C6*
X179785600Y-87376052D02*
X179785600Y-85953548D01*
X181605600Y-87376052D02*
X181605600Y-85953548D01*
G04 #@! TO.C,C5*
X195503748Y-85365000D02*
X196926252Y-85365000D01*
X195503748Y-83545000D02*
X196926252Y-83545000D01*
G04 #@! TO.C,C4*
X192299000Y-81610252D02*
X192299000Y-80187748D01*
X190479000Y-81610252D02*
X190479000Y-80187748D01*
G04 #@! TO.C,C3*
X215087252Y-82402000D02*
X213664748Y-82402000D01*
X215087252Y-84222000D02*
X213664748Y-84222000D01*
G04 #@! TO.C,C2*
X218998748Y-84222000D02*
X220421252Y-84222000D01*
X218998748Y-82402000D02*
X220421252Y-82402000D01*
G04 #@! TO.C,C1*
X207314748Y-84222000D02*
X208737252Y-84222000D01*
X207314748Y-82402000D02*
X208737252Y-82402000D01*
G04 #@! TD*
M02*
