G04 #@! TF.GenerationSoftware,KiCad,Pcbnew,7.0.5-0*
G04 #@! TF.CreationDate,2024-02-05T02:45:17-05:00*
G04 #@! TF.ProjectId,keystone-esp,6b657973-746f-46e6-952d-6573702e6b69,rev?*
G04 #@! TF.SameCoordinates,Original*
G04 #@! TF.FileFunction,Copper,L2,Bot*
G04 #@! TF.FilePolarity,Positive*
%FSLAX46Y46*%
G04 Gerber Fmt 4.6, Leading zero omitted, Abs format (unit mm)*
G04 Created by KiCad (PCBNEW 7.0.5-0) date 2024-02-05 02:45:17*
%MOMM*%
%LPD*%
G01*
G04 APERTURE LIST*
G04 #@! TA.AperFunction,HeatsinkPad*
%ADD10C,0.600000*%
G04 #@! TD*
G04 #@! TA.AperFunction,ComponentPad*
%ADD11R,1.700000X1.700000*%
G04 #@! TD*
G04 #@! TA.AperFunction,ComponentPad*
%ADD12O,1.700000X1.700000*%
G04 #@! TD*
G04 #@! TA.AperFunction,SMDPad,CuDef*
%ADD13O,3.000000X1.700000*%
G04 #@! TD*
G04 #@! TA.AperFunction,ComponentPad*
%ADD14C,0.650000*%
G04 #@! TD*
G04 #@! TA.AperFunction,ComponentPad*
%ADD15O,1.700000X0.900000*%
G04 #@! TD*
G04 #@! TA.AperFunction,ComponentPad*
%ADD16O,2.400000X0.900000*%
G04 #@! TD*
G04 #@! TA.AperFunction,ViaPad*
%ADD17C,0.800000*%
G04 #@! TD*
G04 #@! TA.AperFunction,Conductor*
%ADD18C,0.304800*%
G04 #@! TD*
G04 APERTURE END LIST*
D10*
G04 #@! TO.P,U2,39,GND*
G04 #@! TO.N,GND*
X214188500Y-94973000D03*
X212663500Y-96498000D03*
X213426000Y-94210500D03*
X213426000Y-95735500D03*
X212663500Y-94973000D03*
X214188500Y-96498000D03*
X214951000Y-94210500D03*
X211901000Y-94210500D03*
X212663500Y-93448000D03*
X214951000Y-95735500D03*
X211901000Y-95735500D03*
X214188500Y-93448000D03*
G04 #@! TD*
D11*
G04 #@! TO.P,J7,1,Pin_1*
G04 #@! TO.N,GND*
X192532000Y-112141000D03*
D12*
G04 #@! TO.P,J7,2,Pin_2*
G04 #@! TO.N,VCC*
X189992000Y-112141000D03*
G04 #@! TO.P,J7,3,Pin_3*
X187452000Y-112141000D03*
G04 #@! TO.P,J7,4,Pin_4*
G04 #@! TO.N,VBUS*
X184912000Y-112141000D03*
G04 #@! TD*
D13*
G04 #@! TO.P,J3,6,Pin_6*
G04 #@! TO.N,GND*
X219075000Y-89281000D03*
G04 #@! TO.P,J3,5,Pin_5*
G04 #@! TO.N,/EN*
X219075000Y-91821000D03*
G04 #@! TO.P,J3,4,Pin_4*
G04 #@! TO.N,Net-(D3-K)*
X219075000Y-94361000D03*
G04 #@! TO.P,J3,3,Pin_3*
G04 #@! TO.N,/TX*
X219075000Y-96901000D03*
G04 #@! TO.P,J3,2,Pin_2*
G04 #@! TO.N,/RX*
X219075000Y-99441000D03*
G04 #@! TO.P,J3,1,Pin_1*
G04 #@! TO.N,/IO0*
X219075000Y-101981000D03*
G04 #@! TD*
D11*
G04 #@! TO.P,J4,1,Pin_1*
G04 #@! TO.N,GND*
X220472000Y-79121000D03*
D12*
G04 #@! TO.P,J4,2,Pin_2*
G04 #@! TO.N,/IO36*
X217932000Y-79121000D03*
G04 #@! TO.P,J4,3,Pin_3*
G04 #@! TO.N,/IO39*
X215392000Y-79121000D03*
G04 #@! TO.P,J4,4,Pin_4*
G04 #@! TO.N,/IO34*
X212852000Y-79121000D03*
G04 #@! TO.P,J4,5,Pin_5*
G04 #@! TO.N,/IO35*
X210312000Y-79121000D03*
G04 #@! TO.P,J4,6,Pin_6*
G04 #@! TO.N,/IO32*
X207772000Y-79121000D03*
G04 #@! TO.P,J4,7,Pin_7*
G04 #@! TO.N,/IO33*
X205232000Y-79121000D03*
G04 #@! TO.P,J4,8,Pin_8*
G04 #@! TO.N,/IO25*
X202692000Y-79121000D03*
G04 #@! TO.P,J4,9,Pin_9*
G04 #@! TO.N,/IO26*
X200152000Y-79121000D03*
G04 #@! TO.P,J4,10,Pin_10*
G04 #@! TO.N,/IO27*
X197612000Y-79121000D03*
G04 #@! TO.P,J4,11,Pin_11*
G04 #@! TO.N,/IO14*
X195072000Y-79121000D03*
G04 #@! TD*
D11*
G04 #@! TO.P,J2,1,Pin_1*
G04 #@! TO.N,/IO23*
X220472000Y-112141000D03*
D12*
G04 #@! TO.P,J2,2,Pin_2*
G04 #@! TO.N,/IO22*
X217932000Y-112141000D03*
G04 #@! TO.P,J2,3,Pin_3*
G04 #@! TO.N,/IO21*
X215392000Y-112141000D03*
G04 #@! TO.P,J2,4,Pin_4*
G04 #@! TO.N,/IO19*
X212852000Y-112141000D03*
G04 #@! TO.P,J2,5,Pin_5*
G04 #@! TO.N,/IO18*
X210312000Y-112141000D03*
G04 #@! TO.P,J2,6,Pin_6*
G04 #@! TO.N,/IO5*
X207772000Y-112141000D03*
G04 #@! TO.P,J2,7,Pin_7*
G04 #@! TO.N,/IO17*
X205232000Y-112141000D03*
G04 #@! TO.P,J2,8,Pin_8*
G04 #@! TO.N,/IO16*
X202692000Y-112141000D03*
G04 #@! TO.P,J2,9,Pin_9*
G04 #@! TO.N,/IO4*
X200152000Y-112141000D03*
G04 #@! TO.P,J2,10,Pin_10*
G04 #@! TO.N,/IO13*
X197612000Y-112141000D03*
G04 #@! TO.P,J2,11,Pin_11*
G04 #@! TO.N,/IO15*
X195072000Y-112141000D03*
G04 #@! TD*
D14*
G04 #@! TO.P,J1,A1,GND*
G04 #@! TO.N,GND*
X182706000Y-91723000D03*
G04 #@! TO.P,J1,A4,VBUS*
G04 #@! TO.N,VBUS*
X182706000Y-92573000D03*
G04 #@! TO.P,J1,A5,CC1*
G04 #@! TO.N,Net-(J1-CC1)*
X182706000Y-93423000D03*
G04 #@! TO.P,J1,A6,DP1*
G04 #@! TO.N,Net-(J1-DP1)*
X182706000Y-94273000D03*
G04 #@! TO.P,J1,A7,DN1*
G04 #@! TO.N,Net-(J1-DN1)*
X182706000Y-95123000D03*
G04 #@! TO.P,J1,A8,SBU1*
G04 #@! TO.N,unconnected-(J1-SBU1-PadA8)*
X182706000Y-95973000D03*
G04 #@! TO.P,J1,A9,VBUS*
G04 #@! TO.N,VBUS*
X182706000Y-96823000D03*
G04 #@! TO.P,J1,A12,GND*
G04 #@! TO.N,GND*
X182706000Y-97673000D03*
G04 #@! TO.P,J1,B1,GND*
X181356000Y-97673000D03*
G04 #@! TO.P,J1,B4,VBUS*
G04 #@! TO.N,VBUS*
X181356000Y-96823000D03*
G04 #@! TO.P,J1,B5,CC2*
G04 #@! TO.N,Net-(J1-CC2)*
X181356000Y-95973000D03*
G04 #@! TO.P,J1,B6,DP2*
G04 #@! TO.N,Net-(J1-DP1)*
X181356000Y-95123000D03*
G04 #@! TO.P,J1,B7,DN2*
G04 #@! TO.N,Net-(J1-DN1)*
X181356000Y-94273000D03*
G04 #@! TO.P,J1,B8,SBU2*
G04 #@! TO.N,unconnected-(J1-SBU2-PadB8)*
X181356000Y-93423000D03*
G04 #@! TO.P,J1,B9,VBUS*
G04 #@! TO.N,VBUS*
X181356000Y-92573000D03*
G04 #@! TO.P,J1,B12,GND*
G04 #@! TO.N,GND*
X181356000Y-91723000D03*
D15*
G04 #@! TO.P,J1,S1,SHELL*
X178346000Y-90373000D03*
G04 #@! TO.P,J1,S2,SHELL*
X178346000Y-99023000D03*
D16*
G04 #@! TO.P,J1,S3,SHELL*
X181726000Y-90373000D03*
G04 #@! TO.P,J1,S4,SHELL*
X181726000Y-99023000D03*
G04 #@! TD*
D17*
G04 #@! TO.N,GND*
X180594000Y-97790000D03*
X179832000Y-91313000D03*
X205105000Y-90932000D03*
X190119000Y-94996000D03*
X197866000Y-97790000D03*
X185801000Y-105791000D03*
X187960000Y-101473000D03*
X190373000Y-99187000D03*
X209550000Y-81407000D03*
X184531000Y-92075000D03*
X184277000Y-99244000D03*
X212725000Y-81788000D03*
G04 #@! TO.N,/IO27*
X197612000Y-80772000D03*
X206756000Y-88392000D03*
G04 #@! TO.N,/IO26*
X200152000Y-80772000D03*
X207899000Y-88519000D03*
G04 #@! TO.N,/IO25*
X202692000Y-80772000D03*
X209296000Y-88392000D03*
G04 #@! TO.N,/IO0*
X196469000Y-103632000D03*
X197612000Y-108077000D03*
X191389000Y-91313000D03*
G04 #@! TO.N,VCC*
X209677000Y-94742000D03*
G04 #@! TO.N,/RX*
X189611000Y-108839000D03*
G04 #@! TO.N,VCC*
X192786000Y-109347000D03*
G04 #@! TO.N,/TX*
X189611000Y-105283000D03*
G04 #@! TO.N,VCC*
X192786000Y-101346000D03*
G04 #@! TO.N,Net-(D3-K)*
X199771000Y-98679000D03*
G04 #@! TO.N,/EN*
X218186000Y-85217000D03*
X189484000Y-79629000D03*
X182626000Y-88227300D03*
X205232000Y-84074000D03*
G04 #@! TO.N,/IO0*
X207409793Y-106439297D03*
G04 #@! TO.N,/TX*
X215265000Y-98171000D03*
G04 #@! TO.N,/RX*
X215686000Y-100624000D03*
G04 #@! TO.N,Net-(D2-A)*
X189611000Y-107061000D03*
X178979500Y-108204000D03*
G04 #@! TO.N,Net-(D1-A)*
X189611000Y-102489000D03*
X178852500Y-104394000D03*
G04 #@! TO.N,/IO23*
X220345000Y-106172000D03*
X221107000Y-109855000D03*
G04 #@! TO.N,VCC*
X217170000Y-109347000D03*
X193421000Y-97536000D03*
G04 #@! TO.N,Net-(J1-DN1)*
X184404000Y-97536000D03*
X188341000Y-96520000D03*
G04 #@! TO.N,/EN*
X187452000Y-91440000D03*
G04 #@! TD*
D18*
G04 #@! TO.N,/RX*
X189611000Y-108839000D02*
X190500000Y-107950000D01*
X190500000Y-107950000D02*
X195072000Y-107950000D01*
X195072000Y-107950000D02*
X196405500Y-106616500D01*
X204430000Y-100624000D02*
X215686000Y-100624000D01*
X196405500Y-106616500D02*
X198437500Y-106616500D01*
X198437500Y-106616500D02*
X204430000Y-100624000D01*
G04 #@! TO.N,/EN*
X187452000Y-91440000D02*
X185547000Y-89535000D01*
X185547000Y-89535000D02*
X184239300Y-88227300D01*
X186563000Y-88519000D02*
X185547000Y-89535000D01*
X184239300Y-88227300D02*
X182626000Y-88227300D01*
X186563000Y-88519000D02*
X199517000Y-88519000D01*
X199517000Y-88519000D02*
X200533000Y-89535000D01*
X200533000Y-89535000D02*
X205232000Y-89535000D01*
G04 #@! TO.N,Net-(D2-A)*
X178979500Y-108204000D02*
X182499000Y-108204000D01*
X182499000Y-108204000D02*
X183642000Y-107061000D01*
X183642000Y-107061000D02*
X189611000Y-107061000D01*
G04 #@! TO.N,Net-(D1-A)*
X183515000Y-102489000D02*
X189611000Y-102489000D01*
X181610000Y-104394000D02*
X183515000Y-102489000D01*
X178852500Y-104394000D02*
X181610000Y-104394000D01*
G04 #@! TO.N,/IO27*
X206756000Y-88392000D02*
X206756000Y-84074000D01*
X206756000Y-84074000D02*
X205486000Y-82804000D01*
X205486000Y-82804000D02*
X198882000Y-82804000D01*
X198882000Y-82804000D02*
X197612000Y-81534000D01*
X197612000Y-81534000D02*
X197612000Y-80772000D01*
G04 #@! TO.N,/EN*
X201676000Y-89535000D02*
X201676000Y-88138000D01*
X201676000Y-88138000D02*
X195580000Y-82042000D01*
X195580000Y-82042000D02*
X191897000Y-82042000D01*
X191897000Y-82042000D02*
X189484000Y-79629000D01*
G04 #@! TO.N,/IO26*
X201549000Y-82169000D02*
X200152000Y-80772000D01*
X206375000Y-82169000D02*
X201549000Y-82169000D01*
X207899000Y-88519000D02*
X207899000Y-83693000D01*
X207899000Y-83693000D02*
X206375000Y-82169000D01*
G04 #@! TO.N,/IO25*
X202946000Y-81026000D02*
X202692000Y-80772000D01*
X206756000Y-81026000D02*
X202946000Y-81026000D01*
X209296000Y-88392000D02*
X209296000Y-83566000D01*
X209296000Y-83566000D02*
X206756000Y-81026000D01*
G04 #@! TO.N,/IO0*
X197612000Y-108077000D02*
X199390000Y-108077000D01*
X201027703Y-106439297D02*
X207409793Y-106439297D01*
X199390000Y-108077000D02*
X201027703Y-106439297D01*
X196469000Y-103632000D02*
X192659000Y-103632000D01*
X192659000Y-103632000D02*
X191389000Y-102362000D01*
X191389000Y-102362000D02*
X191389000Y-91313000D01*
G04 #@! TO.N,Net-(D3-K)*
X199771000Y-98679000D02*
X207010000Y-91440000D01*
X207010000Y-91440000D02*
X215392000Y-91440000D01*
X215392000Y-91440000D02*
X218313000Y-94361000D01*
X218313000Y-94361000D02*
X219075000Y-94361000D01*
G04 #@! TO.N,/EN*
X215392000Y-89535000D02*
X205232000Y-89535000D01*
X216154000Y-90297000D02*
X215392000Y-89535000D01*
X205232000Y-84074000D02*
X205232000Y-89535000D01*
G04 #@! TO.N,VCC*
X192786000Y-101346000D02*
X199263000Y-101346000D01*
X199263000Y-101346000D02*
X205867000Y-94742000D01*
X205867000Y-94742000D02*
X209677000Y-94742000D01*
X192786000Y-101346000D02*
X192786000Y-98171000D01*
X192786000Y-98171000D02*
X193421000Y-97536000D01*
G04 #@! TO.N,/TX*
X189611000Y-105283000D02*
X197612000Y-105283000D01*
X197612000Y-105283000D02*
X204724000Y-98171000D01*
X204724000Y-98171000D02*
X215265000Y-98171000D01*
G04 #@! TO.N,VCC*
X192786000Y-109347000D02*
X217170000Y-109347000D01*
G04 #@! TO.N,Net-(J1-DN1)*
X188341000Y-96520000D02*
X185420000Y-96520000D01*
X185420000Y-96520000D02*
X184404000Y-97536000D01*
G04 #@! TO.N,/EN*
X216154000Y-90297000D02*
X216154000Y-86106000D01*
X219075000Y-91821000D02*
X217678000Y-91821000D01*
X217678000Y-91821000D02*
X216154000Y-90297000D01*
X217043000Y-85217000D02*
X218186000Y-85217000D01*
X216916000Y-85344000D02*
X217043000Y-85217000D01*
X216154000Y-86106000D02*
X216916000Y-85344000D01*
G04 #@! TO.N,/IO0*
X219075000Y-101981000D02*
X208280000Y-101981000D01*
X207404297Y-106439297D02*
X207409793Y-106439297D01*
X208280000Y-101981000D02*
X207264000Y-102997000D01*
X207264000Y-102997000D02*
X207264000Y-106299000D01*
X207264000Y-106299000D02*
X207404297Y-106439297D01*
G04 #@! TO.N,/RX*
X216869000Y-99441000D02*
X219075000Y-99441000D01*
X215686000Y-100624000D02*
X216869000Y-99441000D01*
G04 #@! TO.N,/TX*
X216535000Y-96901000D02*
X219075000Y-96901000D01*
X215265000Y-98171000D02*
X216535000Y-96901000D01*
G04 #@! TO.N,/IO23*
X221107000Y-109855000D02*
X221107000Y-106934000D01*
X221107000Y-106934000D02*
X220345000Y-106172000D01*
G04 #@! TO.N,VBUS*
X181356000Y-96823000D02*
X180008000Y-96823000D01*
X179324000Y-93345000D02*
X180096000Y-92573000D01*
X180096000Y-92573000D02*
X181356000Y-92573000D01*
X180008000Y-96823000D02*
X179324000Y-96139000D01*
X179324000Y-96139000D02*
X179324000Y-93345000D01*
G04 #@! TO.N,Net-(J1-DN1)*
X181356000Y-94273000D02*
X181649000Y-94273000D01*
X181649000Y-94273000D02*
X182499000Y-95123000D01*
X182499000Y-95123000D02*
X182706000Y-95123000D01*
G04 #@! TD*
G04 #@! TA.AperFunction,Conductor*
G04 #@! TO.N,GND*
G36*
X215137237Y-92112585D02*
G01*
X215157879Y-92129219D01*
X217054224Y-94025564D01*
X217087709Y-94086887D01*
X217090071Y-94124052D01*
X217069341Y-94360997D01*
X217069341Y-94361000D01*
X217089936Y-94596403D01*
X217089938Y-94596413D01*
X217151094Y-94824655D01*
X217151096Y-94824659D01*
X217151097Y-94824663D01*
X217198893Y-94927161D01*
X217250964Y-95038828D01*
X217250965Y-95038830D01*
X217386505Y-95232402D01*
X217553596Y-95399493D01*
X217553599Y-95399495D01*
X217739160Y-95529426D01*
X217782784Y-95584000D01*
X217789978Y-95653499D01*
X217758456Y-95715854D01*
X217739160Y-95732574D01*
X217553594Y-95862508D01*
X217386506Y-96029597D01*
X217386505Y-96029599D01*
X217270533Y-96195224D01*
X217215956Y-96238848D01*
X217168958Y-96248100D01*
X216620768Y-96248100D01*
X216604720Y-96246328D01*
X216604698Y-96246566D01*
X216596931Y-96245831D01*
X216525722Y-96248069D01*
X216523775Y-96248100D01*
X216493922Y-96248100D01*
X216486615Y-96249022D01*
X216480796Y-96249480D01*
X216432054Y-96251012D01*
X216432048Y-96251013D01*
X216411556Y-96256966D01*
X216392516Y-96260909D01*
X216371350Y-96263584D01*
X216371335Y-96263587D01*
X216325999Y-96281536D01*
X216320475Y-96283427D01*
X216273638Y-96297037D01*
X216273637Y-96297037D01*
X216255276Y-96307896D01*
X216237808Y-96316454D01*
X216217964Y-96324311D01*
X216178509Y-96352976D01*
X216173627Y-96356182D01*
X216131649Y-96381009D01*
X216116560Y-96396098D01*
X216101772Y-96408729D01*
X216084508Y-96421273D01*
X216084503Y-96421277D01*
X216053422Y-96458847D01*
X216049490Y-96463168D01*
X215278479Y-97234181D01*
X215217156Y-97267666D01*
X215190798Y-97270500D01*
X215170354Y-97270500D01*
X215139501Y-97277058D01*
X214985197Y-97309855D01*
X214985192Y-97309857D01*
X214812270Y-97386848D01*
X214812265Y-97386851D01*
X214664213Y-97494418D01*
X214598407Y-97517898D01*
X214591328Y-97518100D01*
X214425227Y-97518100D01*
X214358188Y-97498415D01*
X214312433Y-97445611D01*
X214302489Y-97376453D01*
X214331514Y-97312897D01*
X214384272Y-97277059D01*
X214537800Y-97223336D01*
X214537807Y-97223333D01*
X214551607Y-97214661D01*
X214551607Y-97214660D01*
X214188501Y-96851553D01*
X214188500Y-96851553D01*
X213825391Y-97214660D01*
X213839197Y-97223335D01*
X213839201Y-97223337D01*
X213992727Y-97277058D01*
X214049503Y-97317780D01*
X214075251Y-97382732D01*
X214061795Y-97451294D01*
X214013408Y-97501697D01*
X213951773Y-97518100D01*
X212900227Y-97518100D01*
X212833188Y-97498415D01*
X212787433Y-97445611D01*
X212777489Y-97376453D01*
X212806514Y-97312897D01*
X212859272Y-97277059D01*
X213012800Y-97223336D01*
X213012807Y-97223333D01*
X213026607Y-97214661D01*
X213026607Y-97214660D01*
X212663501Y-96851553D01*
X212663500Y-96851553D01*
X212300391Y-97214660D01*
X212314197Y-97223335D01*
X212314201Y-97223337D01*
X212467727Y-97277058D01*
X212524503Y-97317780D01*
X212550251Y-97382732D01*
X212536795Y-97451294D01*
X212488408Y-97501697D01*
X212426773Y-97518100D01*
X204809768Y-97518100D01*
X204793720Y-97516328D01*
X204793698Y-97516566D01*
X204785931Y-97515831D01*
X204714722Y-97518069D01*
X204712775Y-97518100D01*
X204682922Y-97518100D01*
X204675615Y-97519022D01*
X204669796Y-97519480D01*
X204621051Y-97521012D01*
X204621050Y-97521013D01*
X204600552Y-97526967D01*
X204581514Y-97530909D01*
X204560349Y-97533584D01*
X204560342Y-97533585D01*
X204560340Y-97533586D01*
X204560338Y-97533586D01*
X204560337Y-97533587D01*
X204514999Y-97551536D01*
X204509473Y-97553428D01*
X204462639Y-97567035D01*
X204462637Y-97567036D01*
X204444266Y-97577900D01*
X204426804Y-97586455D01*
X204406966Y-97594310D01*
X204406965Y-97594311D01*
X204406964Y-97594311D01*
X204406963Y-97594312D01*
X204398881Y-97600183D01*
X204367510Y-97622974D01*
X204362630Y-97626180D01*
X204320649Y-97651009D01*
X204305560Y-97666098D01*
X204290772Y-97678729D01*
X204273508Y-97691273D01*
X204273503Y-97691277D01*
X204242422Y-97728847D01*
X204238490Y-97733169D01*
X197377879Y-104593781D01*
X197316556Y-104627266D01*
X197290198Y-104630100D01*
X197008887Y-104630100D01*
X196941848Y-104610415D01*
X196896093Y-104557611D01*
X196886149Y-104488453D01*
X196915174Y-104424897D01*
X196936002Y-104405782D01*
X196968047Y-104382500D01*
X197074871Y-104304888D01*
X197201533Y-104164216D01*
X197296179Y-104000284D01*
X197354674Y-103820256D01*
X197374460Y-103632000D01*
X197354674Y-103443744D01*
X197296179Y-103263716D01*
X197201533Y-103099784D01*
X197074871Y-102959112D01*
X197069564Y-102955256D01*
X196921734Y-102847851D01*
X196921729Y-102847848D01*
X196748807Y-102770857D01*
X196748802Y-102770855D01*
X196603001Y-102739865D01*
X196563646Y-102731500D01*
X196374354Y-102731500D01*
X196341897Y-102738398D01*
X196189197Y-102770855D01*
X196189192Y-102770857D01*
X196016270Y-102847848D01*
X196016265Y-102847851D01*
X195868213Y-102955418D01*
X195802407Y-102978898D01*
X195795328Y-102979100D01*
X192980802Y-102979100D01*
X192913763Y-102959415D01*
X192893121Y-102942781D01*
X192350711Y-102400371D01*
X192317226Y-102339048D01*
X192322210Y-102269356D01*
X192364082Y-102213423D01*
X192429546Y-102189006D01*
X192488828Y-102199410D01*
X192506197Y-102207144D01*
X192691354Y-102246500D01*
X192691355Y-102246500D01*
X192880644Y-102246500D01*
X192880646Y-102246500D01*
X193065803Y-102207144D01*
X193238730Y-102130151D01*
X193386786Y-102022582D01*
X193452593Y-101999102D01*
X193459672Y-101998900D01*
X199177232Y-101998900D01*
X199193279Y-102000671D01*
X199193302Y-102000434D01*
X199201068Y-102001168D01*
X199201068Y-102001167D01*
X199201069Y-102001168D01*
X199204536Y-102001059D01*
X199272278Y-101998931D01*
X199274225Y-101998900D01*
X199304071Y-101998900D01*
X199304075Y-101998900D01*
X199311377Y-101997977D01*
X199317194Y-101997518D01*
X199365948Y-101995987D01*
X199386449Y-101990030D01*
X199405476Y-101986089D01*
X199426660Y-101983414D01*
X199472000Y-101965461D01*
X199477528Y-101963570D01*
X199486275Y-101961028D01*
X199524359Y-101949965D01*
X199542730Y-101939100D01*
X199560196Y-101930543D01*
X199580037Y-101922688D01*
X199619497Y-101894016D01*
X199624363Y-101890820D01*
X199666348Y-101865992D01*
X199681443Y-101850895D01*
X199696224Y-101838272D01*
X199713493Y-101825726D01*
X199744587Y-101788138D01*
X199748489Y-101783849D01*
X205080179Y-96452160D01*
X211537891Y-96452160D01*
X211551697Y-96460835D01*
X211551701Y-96460837D01*
X211721859Y-96520377D01*
X211764482Y-96525180D01*
X211828896Y-96552246D01*
X211868451Y-96609840D01*
X211873819Y-96634515D01*
X211878621Y-96677138D01*
X211878622Y-96677141D01*
X211938162Y-96847298D01*
X211938167Y-96847308D01*
X211946838Y-96861108D01*
X212264298Y-96543649D01*
X212463500Y-96543649D01*
X212503113Y-96625905D01*
X212574492Y-96682827D01*
X212640968Y-96698000D01*
X212686032Y-96698000D01*
X212752508Y-96682827D01*
X212823887Y-96625905D01*
X212863500Y-96543649D01*
X212863500Y-96497999D01*
X213017053Y-96497999D01*
X213380160Y-96861107D01*
X213412121Y-96857507D01*
X213439887Y-96857508D01*
X213471838Y-96861108D01*
X213789297Y-96543649D01*
X213988500Y-96543649D01*
X214028113Y-96625905D01*
X214099492Y-96682827D01*
X214165968Y-96698000D01*
X214211032Y-96698000D01*
X214277508Y-96682827D01*
X214348887Y-96625905D01*
X214388500Y-96543649D01*
X214388500Y-96498000D01*
X214542053Y-96498000D01*
X214905160Y-96861107D01*
X214905161Y-96861107D01*
X214913833Y-96847307D01*
X214973378Y-96677138D01*
X214978180Y-96634518D01*
X215005246Y-96570103D01*
X215062840Y-96530548D01*
X215087518Y-96525180D01*
X215130138Y-96520378D01*
X215300307Y-96460833D01*
X215314107Y-96452161D01*
X215314107Y-96452160D01*
X214951000Y-96089053D01*
X214542053Y-96497999D01*
X214542053Y-96498000D01*
X214388500Y-96498000D01*
X214388500Y-96452351D01*
X214348887Y-96370095D01*
X214277508Y-96313173D01*
X214211032Y-96298000D01*
X214165968Y-96298000D01*
X214099492Y-96313173D01*
X214028113Y-96370095D01*
X213988500Y-96452351D01*
X213988500Y-96543649D01*
X213789297Y-96543649D01*
X213834946Y-96498000D01*
X213834947Y-96497998D01*
X213426000Y-96089053D01*
X213017053Y-96497998D01*
X213017053Y-96497999D01*
X212863500Y-96497999D01*
X212863500Y-96452351D01*
X212823887Y-96370095D01*
X212752508Y-96313173D01*
X212686032Y-96298000D01*
X212640968Y-96298000D01*
X212574492Y-96313173D01*
X212503113Y-96370095D01*
X212463500Y-96452351D01*
X212463500Y-96543649D01*
X212264298Y-96543649D01*
X212309947Y-96498000D01*
X212309947Y-96497999D01*
X211901001Y-96089053D01*
X211901000Y-96089053D01*
X211537891Y-96452160D01*
X205080179Y-96452160D01*
X205796837Y-95735502D01*
X211095938Y-95735502D01*
X211116121Y-95914638D01*
X211116122Y-95914641D01*
X211175662Y-96084798D01*
X211175667Y-96084808D01*
X211184338Y-96098608D01*
X211501798Y-95781149D01*
X211701000Y-95781149D01*
X211740613Y-95863405D01*
X211811992Y-95920327D01*
X211878468Y-95935500D01*
X211923532Y-95935500D01*
X211990008Y-95920327D01*
X212061387Y-95863405D01*
X212101000Y-95781149D01*
X212101000Y-95735500D01*
X212254553Y-95735500D01*
X212663500Y-96144447D01*
X213026798Y-95781149D01*
X213226000Y-95781149D01*
X213265613Y-95863405D01*
X213336992Y-95920327D01*
X213403468Y-95935500D01*
X213448532Y-95935500D01*
X213515008Y-95920327D01*
X213586387Y-95863405D01*
X213626000Y-95781149D01*
X213626000Y-95735500D01*
X213779552Y-95735500D01*
X214188499Y-96144447D01*
X214551796Y-95781149D01*
X214751000Y-95781149D01*
X214790613Y-95863405D01*
X214861992Y-95920327D01*
X214928468Y-95935500D01*
X214973532Y-95935500D01*
X215040008Y-95920327D01*
X215111387Y-95863405D01*
X215151000Y-95781149D01*
X215151000Y-95735500D01*
X215304553Y-95735500D01*
X215667660Y-96098607D01*
X215667661Y-96098607D01*
X215676333Y-96084807D01*
X215735878Y-95914638D01*
X215756062Y-95735502D01*
X215756062Y-95735497D01*
X215735878Y-95556361D01*
X215735877Y-95556358D01*
X215676337Y-95386201D01*
X215676335Y-95386197D01*
X215667660Y-95372391D01*
X215304553Y-95735499D01*
X215304553Y-95735500D01*
X215151000Y-95735500D01*
X215151000Y-95689851D01*
X215111387Y-95607595D01*
X215040008Y-95550673D01*
X214973532Y-95535500D01*
X214928468Y-95535500D01*
X214861992Y-95550673D01*
X214790613Y-95607595D01*
X214751000Y-95689851D01*
X214751000Y-95781149D01*
X214551796Y-95781149D01*
X214597445Y-95735500D01*
X214597445Y-95735499D01*
X214188501Y-95326553D01*
X214188500Y-95326553D01*
X213779552Y-95735499D01*
X213779552Y-95735500D01*
X213626000Y-95735500D01*
X213626000Y-95689851D01*
X213586387Y-95607595D01*
X213515008Y-95550673D01*
X213448532Y-95535500D01*
X213403468Y-95535500D01*
X213336992Y-95550673D01*
X213265613Y-95607595D01*
X213226000Y-95689851D01*
X213226000Y-95781149D01*
X213026798Y-95781149D01*
X213072447Y-95735500D01*
X212663500Y-95326553D01*
X212254553Y-95735499D01*
X212254553Y-95735500D01*
X212101000Y-95735500D01*
X212101000Y-95689851D01*
X212061387Y-95607595D01*
X211990008Y-95550673D01*
X211923532Y-95535500D01*
X211878468Y-95535500D01*
X211811992Y-95550673D01*
X211740613Y-95607595D01*
X211701000Y-95689851D01*
X211701000Y-95781149D01*
X211501798Y-95781149D01*
X211547447Y-95735500D01*
X211547447Y-95735499D01*
X211184338Y-95372390D01*
X211184338Y-95372391D01*
X211175664Y-95386196D01*
X211116122Y-95556358D01*
X211116121Y-95556361D01*
X211095938Y-95735497D01*
X211095938Y-95735502D01*
X205796837Y-95735502D01*
X206101120Y-95431219D01*
X206162444Y-95397734D01*
X206188802Y-95394900D01*
X209003328Y-95394900D01*
X209070367Y-95414585D01*
X209076213Y-95418582D01*
X209224265Y-95526148D01*
X209224270Y-95526151D01*
X209397192Y-95603142D01*
X209397197Y-95603144D01*
X209582354Y-95642500D01*
X209582355Y-95642500D01*
X209771644Y-95642500D01*
X209771646Y-95642500D01*
X209956803Y-95603144D01*
X210129730Y-95526151D01*
X210282871Y-95414888D01*
X210409533Y-95274216D01*
X210504179Y-95110284D01*
X210533892Y-95018838D01*
X211537890Y-95018838D01*
X211900999Y-95381947D01*
X212264298Y-95018649D01*
X212463500Y-95018649D01*
X212503113Y-95100905D01*
X212574492Y-95157827D01*
X212640968Y-95173000D01*
X212686032Y-95173000D01*
X212752508Y-95157827D01*
X212823887Y-95100905D01*
X212863500Y-95018649D01*
X212863500Y-94973000D01*
X213017053Y-94973000D01*
X213426000Y-95381947D01*
X213789298Y-95018649D01*
X213988500Y-95018649D01*
X214028113Y-95100905D01*
X214099492Y-95157827D01*
X214165968Y-95173000D01*
X214211032Y-95173000D01*
X214277508Y-95157827D01*
X214348887Y-95100905D01*
X214388500Y-95018649D01*
X214388500Y-94972999D01*
X214542053Y-94972999D01*
X214951000Y-95381946D01*
X215314108Y-95018838D01*
X215310508Y-94986884D01*
X215310507Y-94959119D01*
X215314107Y-94927160D01*
X214951001Y-94564053D01*
X214951000Y-94564053D01*
X214542053Y-94972998D01*
X214542053Y-94972999D01*
X214388500Y-94972999D01*
X214388500Y-94927351D01*
X214348887Y-94845095D01*
X214277508Y-94788173D01*
X214211032Y-94773000D01*
X214165968Y-94773000D01*
X214099492Y-94788173D01*
X214028113Y-94845095D01*
X213988500Y-94927351D01*
X213988500Y-95018649D01*
X213789298Y-95018649D01*
X213834947Y-94973000D01*
X213426000Y-94564053D01*
X213017053Y-94973000D01*
X212863500Y-94973000D01*
X212863500Y-94927351D01*
X212823887Y-94845095D01*
X212752508Y-94788173D01*
X212686032Y-94773000D01*
X212640968Y-94773000D01*
X212574492Y-94788173D01*
X212503113Y-94845095D01*
X212463500Y-94927351D01*
X212463500Y-95018649D01*
X212264298Y-95018649D01*
X212309947Y-94973000D01*
X212309947Y-94972999D01*
X211901001Y-94564053D01*
X211901000Y-94564053D01*
X211537890Y-94927161D01*
X211541491Y-94959123D01*
X211541491Y-94986892D01*
X211537890Y-95018838D01*
X210533892Y-95018838D01*
X210562674Y-94930256D01*
X210582460Y-94742000D01*
X210562674Y-94553744D01*
X210504179Y-94373716D01*
X210409948Y-94210502D01*
X211095938Y-94210502D01*
X211116121Y-94389638D01*
X211116122Y-94389641D01*
X211175662Y-94559798D01*
X211175667Y-94559808D01*
X211184338Y-94573608D01*
X211501797Y-94256149D01*
X211701000Y-94256149D01*
X211740613Y-94338405D01*
X211811992Y-94395327D01*
X211878468Y-94410500D01*
X211923532Y-94410500D01*
X211990008Y-94395327D01*
X212061387Y-94338405D01*
X212101000Y-94256149D01*
X212101000Y-94210500D01*
X212254553Y-94210500D01*
X212663500Y-94619447D01*
X213026798Y-94256149D01*
X213226000Y-94256149D01*
X213265613Y-94338405D01*
X213336992Y-94395327D01*
X213403468Y-94410500D01*
X213448532Y-94410500D01*
X213515008Y-94395327D01*
X213586387Y-94338405D01*
X213626000Y-94256149D01*
X213626000Y-94210498D01*
X213779552Y-94210498D01*
X214188500Y-94619446D01*
X214551797Y-94256149D01*
X214751000Y-94256149D01*
X214790613Y-94338405D01*
X214861992Y-94395327D01*
X214928468Y-94410500D01*
X214973532Y-94410500D01*
X215040008Y-94395327D01*
X215111387Y-94338405D01*
X215151000Y-94256149D01*
X215151000Y-94210499D01*
X215304553Y-94210499D01*
X215667660Y-94573607D01*
X215667661Y-94573607D01*
X215676333Y-94559807D01*
X215735878Y-94389638D01*
X215756062Y-94210502D01*
X215756062Y-94210497D01*
X215735878Y-94031361D01*
X215735877Y-94031358D01*
X215676337Y-93861201D01*
X215676335Y-93861197D01*
X215667660Y-93847391D01*
X215304553Y-94210498D01*
X215304553Y-94210499D01*
X215151000Y-94210499D01*
X215151000Y-94164851D01*
X215111387Y-94082595D01*
X215040008Y-94025673D01*
X214973532Y-94010500D01*
X214928468Y-94010500D01*
X214861992Y-94025673D01*
X214790613Y-94082595D01*
X214751000Y-94164851D01*
X214751000Y-94256149D01*
X214551797Y-94256149D01*
X214597447Y-94210499D01*
X214597447Y-94210498D01*
X214188500Y-93801553D01*
X213779552Y-94210498D01*
X213626000Y-94210498D01*
X213626000Y-94164851D01*
X213586387Y-94082595D01*
X213515008Y-94025673D01*
X213448532Y-94010500D01*
X213403468Y-94010500D01*
X213336992Y-94025673D01*
X213265613Y-94082595D01*
X213226000Y-94164851D01*
X213226000Y-94256149D01*
X213026798Y-94256149D01*
X213072447Y-94210500D01*
X212663500Y-93801553D01*
X212254553Y-94210500D01*
X212101000Y-94210500D01*
X212101000Y-94164851D01*
X212061387Y-94082595D01*
X211990008Y-94025673D01*
X211923532Y-94010500D01*
X211878468Y-94010500D01*
X211811992Y-94025673D01*
X211740613Y-94082595D01*
X211701000Y-94164851D01*
X211701000Y-94256149D01*
X211501797Y-94256149D01*
X211547447Y-94210499D01*
X211547447Y-94210498D01*
X211184339Y-93847390D01*
X211184338Y-93847391D01*
X211175664Y-93861196D01*
X211116122Y-94031358D01*
X211116121Y-94031361D01*
X211095938Y-94210497D01*
X211095938Y-94210502D01*
X210409948Y-94210502D01*
X210409533Y-94209784D01*
X210282871Y-94069112D01*
X210277787Y-94065418D01*
X210129734Y-93957851D01*
X210129729Y-93957848D01*
X209956807Y-93880857D01*
X209956802Y-93880855D01*
X209802226Y-93848000D01*
X209771646Y-93841500D01*
X209582354Y-93841500D01*
X209554639Y-93847391D01*
X209397197Y-93880855D01*
X209397192Y-93880857D01*
X209224270Y-93957848D01*
X209224265Y-93957851D01*
X209076213Y-94065418D01*
X209010407Y-94088898D01*
X209003328Y-94089100D01*
X205952766Y-94089100D01*
X205936716Y-94087328D01*
X205936694Y-94087566D01*
X205928932Y-94086831D01*
X205857737Y-94089069D01*
X205855789Y-94089100D01*
X205825925Y-94089100D01*
X205825921Y-94089100D01*
X205825910Y-94089101D01*
X205818606Y-94090023D01*
X205812788Y-94090481D01*
X205764052Y-94092013D01*
X205764047Y-94092014D01*
X205743560Y-94097966D01*
X205724514Y-94101911D01*
X205703338Y-94104586D01*
X205703335Y-94104587D01*
X205657985Y-94122542D01*
X205652458Y-94124434D01*
X205605641Y-94138035D01*
X205587274Y-94148897D01*
X205569811Y-94157452D01*
X205542714Y-94168182D01*
X205541767Y-94165791D01*
X205485743Y-94178125D01*
X205420218Y-94153871D01*
X205378208Y-94098042D01*
X205373049Y-94028363D01*
X205406381Y-93966958D01*
X205879500Y-93493839D01*
X211537890Y-93493839D01*
X211900998Y-93856947D01*
X211900999Y-93856947D01*
X212264297Y-93493649D01*
X212463500Y-93493649D01*
X212503113Y-93575905D01*
X212574492Y-93632827D01*
X212640968Y-93648000D01*
X212686032Y-93648000D01*
X212752508Y-93632827D01*
X212823887Y-93575905D01*
X212863500Y-93493649D01*
X212863500Y-93448000D01*
X213017053Y-93448000D01*
X213426000Y-93856947D01*
X213789298Y-93493649D01*
X213988500Y-93493649D01*
X214028113Y-93575905D01*
X214099492Y-93632827D01*
X214165968Y-93648000D01*
X214211032Y-93648000D01*
X214277508Y-93632827D01*
X214348887Y-93575905D01*
X214388500Y-93493649D01*
X214388500Y-93447999D01*
X214542052Y-93447999D01*
X214951000Y-93856947D01*
X214951001Y-93856947D01*
X215314108Y-93493838D01*
X215314108Y-93493837D01*
X215300308Y-93485167D01*
X215300298Y-93485162D01*
X215130141Y-93425622D01*
X215130138Y-93425621D01*
X215087515Y-93420819D01*
X215023102Y-93393752D01*
X214983547Y-93336157D01*
X214978180Y-93311482D01*
X214973377Y-93268859D01*
X214913837Y-93098701D01*
X214913835Y-93098697D01*
X214905160Y-93084891D01*
X214542052Y-93447999D01*
X214388500Y-93447999D01*
X214388500Y-93402351D01*
X214348887Y-93320095D01*
X214277508Y-93263173D01*
X214211032Y-93248000D01*
X214165968Y-93248000D01*
X214099492Y-93263173D01*
X214028113Y-93320095D01*
X213988500Y-93402351D01*
X213988500Y-93493649D01*
X213789298Y-93493649D01*
X213834947Y-93448000D01*
X213834946Y-93447999D01*
X213471838Y-93084890D01*
X213439892Y-93088491D01*
X213412123Y-93088491D01*
X213380161Y-93084890D01*
X213017053Y-93447999D01*
X213017053Y-93448000D01*
X212863500Y-93448000D01*
X212863500Y-93402351D01*
X212823887Y-93320095D01*
X212752508Y-93263173D01*
X212686032Y-93248000D01*
X212640968Y-93248000D01*
X212574492Y-93263173D01*
X212503113Y-93320095D01*
X212463500Y-93402351D01*
X212463500Y-93493649D01*
X212264297Y-93493649D01*
X212309946Y-93448000D01*
X212309946Y-93447999D01*
X211946838Y-93084890D01*
X211946838Y-93084891D01*
X211938165Y-93098695D01*
X211878622Y-93268859D01*
X211873819Y-93311484D01*
X211846752Y-93375898D01*
X211789156Y-93415452D01*
X211764484Y-93420819D01*
X211721859Y-93425622D01*
X211551695Y-93485165D01*
X211537891Y-93493838D01*
X211537890Y-93493839D01*
X205879500Y-93493839D01*
X206642001Y-92731338D01*
X212300390Y-92731338D01*
X212663500Y-93094446D01*
X212663501Y-93094446D01*
X213026608Y-92731338D01*
X213825390Y-92731338D01*
X214188500Y-93094447D01*
X214188501Y-93094447D01*
X214551608Y-92731338D01*
X214551608Y-92731337D01*
X214537808Y-92722667D01*
X214537798Y-92722662D01*
X214367641Y-92663122D01*
X214367638Y-92663121D01*
X214188503Y-92642938D01*
X214188497Y-92642938D01*
X214009361Y-92663121D01*
X214009358Y-92663122D01*
X213839196Y-92722664D01*
X213825391Y-92731338D01*
X213825390Y-92731338D01*
X213026608Y-92731338D01*
X213026608Y-92731337D01*
X213012808Y-92722667D01*
X213012798Y-92722662D01*
X212842641Y-92663122D01*
X212842638Y-92663121D01*
X212663503Y-92642938D01*
X212663497Y-92642938D01*
X212484361Y-92663121D01*
X212484358Y-92663122D01*
X212314196Y-92722664D01*
X212300391Y-92731338D01*
X212300390Y-92731338D01*
X206642001Y-92731338D01*
X207244120Y-92129219D01*
X207305444Y-92095734D01*
X207331802Y-92092900D01*
X215070198Y-92092900D01*
X215137237Y-92112585D01*
G37*
G04 #@! TD.AperFunction*
G04 #@! TA.AperFunction,Conductor*
G36*
X181646394Y-97625342D02*
G01*
X181690188Y-97653635D01*
X182056742Y-98020189D01*
X182090227Y-98081512D01*
X182085243Y-98151204D01*
X182056742Y-98195552D01*
X181975999Y-98276294D01*
X181975999Y-98723000D01*
X181475999Y-98723000D01*
X181476000Y-98146553D01*
X181189628Y-97860181D01*
X181156143Y-97798858D01*
X181161118Y-97729278D01*
X181195613Y-97800905D01*
X181266992Y-97857827D01*
X181333468Y-97873000D01*
X181378532Y-97873000D01*
X181445008Y-97857827D01*
X181516387Y-97800905D01*
X181556000Y-97718649D01*
X181556000Y-97627351D01*
X181554724Y-97624702D01*
X181576727Y-97620026D01*
X181646394Y-97625342D01*
G37*
G04 #@! TD.AperFunction*
G04 #@! TA.AperFunction,Conductor*
G36*
X181975999Y-91119704D02*
G01*
X182056742Y-91200447D01*
X182090227Y-91261770D01*
X182085243Y-91331462D01*
X182056742Y-91375810D01*
X181690187Y-91742364D01*
X181628864Y-91775849D01*
X181576726Y-91775974D01*
X181554724Y-91771297D01*
X181556000Y-91768649D01*
X181556000Y-91677351D01*
X181516387Y-91595095D01*
X181445008Y-91538173D01*
X181378532Y-91523000D01*
X181333468Y-91523000D01*
X181266992Y-91538173D01*
X181195613Y-91595095D01*
X181162816Y-91663197D01*
X181154571Y-91605853D01*
X181183596Y-91542297D01*
X181189628Y-91535819D01*
X181475999Y-91249446D01*
X181476000Y-91249445D01*
X181476000Y-90673000D01*
X181975999Y-90673000D01*
X181975999Y-91119704D01*
G37*
G04 #@! TD.AperFunction*
G04 #@! TA.AperFunction,Conductor*
G36*
X222259039Y-77109185D02*
G01*
X222304794Y-77161989D01*
X222316000Y-77213500D01*
X222316000Y-114048500D01*
X222296315Y-114115539D01*
X222243511Y-114161294D01*
X222192000Y-114172500D01*
X176527500Y-114172500D01*
X176460461Y-114152815D01*
X176414706Y-114100011D01*
X176403500Y-114048500D01*
X176403500Y-112141000D01*
X183556341Y-112141000D01*
X183576936Y-112376403D01*
X183576938Y-112376413D01*
X183638094Y-112604655D01*
X183638096Y-112604659D01*
X183638097Y-112604663D01*
X183718004Y-112776023D01*
X183737965Y-112818830D01*
X183737967Y-112818834D01*
X183846281Y-112973521D01*
X183873505Y-113012401D01*
X184040599Y-113179495D01*
X184137384Y-113247264D01*
X184234165Y-113315032D01*
X184234167Y-113315033D01*
X184234170Y-113315035D01*
X184448337Y-113414903D01*
X184676592Y-113476063D01*
X184853034Y-113491500D01*
X184911999Y-113496659D01*
X184912000Y-113496659D01*
X184912001Y-113496659D01*
X184970966Y-113491500D01*
X185147408Y-113476063D01*
X185375663Y-113414903D01*
X185589830Y-113315035D01*
X185783401Y-113179495D01*
X185950495Y-113012401D01*
X186080424Y-112826842D01*
X186135002Y-112783217D01*
X186204500Y-112776023D01*
X186266855Y-112807546D01*
X186283575Y-112826842D01*
X186413500Y-113012395D01*
X186413505Y-113012401D01*
X186580599Y-113179495D01*
X186677384Y-113247264D01*
X186774165Y-113315032D01*
X186774167Y-113315033D01*
X186774170Y-113315035D01*
X186988337Y-113414903D01*
X187216592Y-113476063D01*
X187393034Y-113491500D01*
X187451999Y-113496659D01*
X187452000Y-113496659D01*
X187452001Y-113496659D01*
X187510966Y-113491500D01*
X187687408Y-113476063D01*
X187915663Y-113414903D01*
X188129830Y-113315035D01*
X188323401Y-113179495D01*
X188490495Y-113012401D01*
X188620424Y-112826842D01*
X188675002Y-112783217D01*
X188744500Y-112776023D01*
X188806855Y-112807546D01*
X188823575Y-112826842D01*
X188953500Y-113012395D01*
X188953505Y-113012401D01*
X189120599Y-113179495D01*
X189217384Y-113247264D01*
X189314165Y-113315032D01*
X189314167Y-113315033D01*
X189314170Y-113315035D01*
X189528337Y-113414903D01*
X189756592Y-113476063D01*
X189933034Y-113491500D01*
X189991999Y-113496659D01*
X189992000Y-113496659D01*
X189992001Y-113496659D01*
X190050966Y-113491500D01*
X190227408Y-113476063D01*
X190455663Y-113414903D01*
X190669830Y-113315035D01*
X190863401Y-113179495D01*
X190985717Y-113057178D01*
X191047036Y-113023696D01*
X191116728Y-113028680D01*
X191172662Y-113070551D01*
X191189577Y-113101528D01*
X191238646Y-113233088D01*
X191238649Y-113233093D01*
X191324809Y-113348187D01*
X191324812Y-113348190D01*
X191439906Y-113434350D01*
X191439913Y-113434354D01*
X191574620Y-113484596D01*
X191574627Y-113484598D01*
X191634155Y-113490999D01*
X191634172Y-113491000D01*
X192282000Y-113491000D01*
X192282000Y-112576501D01*
X192389685Y-112625680D01*
X192496237Y-112641000D01*
X192567763Y-112641000D01*
X192674315Y-112625680D01*
X192781999Y-112576501D01*
X192781999Y-113490999D01*
X192782000Y-113491000D01*
X193429828Y-113491000D01*
X193429844Y-113490999D01*
X193489372Y-113484598D01*
X193489379Y-113484596D01*
X193624086Y-113434354D01*
X193624093Y-113434350D01*
X193739187Y-113348190D01*
X193739190Y-113348187D01*
X193825350Y-113233093D01*
X193825354Y-113233086D01*
X193874422Y-113101529D01*
X193916293Y-113045595D01*
X193981757Y-113021178D01*
X194050030Y-113036030D01*
X194078285Y-113057181D01*
X194200599Y-113179495D01*
X194297384Y-113247265D01*
X194394165Y-113315032D01*
X194394167Y-113315033D01*
X194394170Y-113315035D01*
X194608337Y-113414903D01*
X194836592Y-113476063D01*
X195013034Y-113491500D01*
X195071999Y-113496659D01*
X195072000Y-113496659D01*
X195072001Y-113496659D01*
X195130966Y-113491500D01*
X195307408Y-113476063D01*
X195535663Y-113414903D01*
X195749830Y-113315035D01*
X195943401Y-113179495D01*
X196110495Y-113012401D01*
X196240424Y-112826842D01*
X196295002Y-112783217D01*
X196364500Y-112776023D01*
X196426855Y-112807546D01*
X196443575Y-112826842D01*
X196573500Y-113012395D01*
X196573505Y-113012401D01*
X196740599Y-113179495D01*
X196837384Y-113247265D01*
X196934165Y-113315032D01*
X196934167Y-113315033D01*
X196934170Y-113315035D01*
X197148337Y-113414903D01*
X197376592Y-113476063D01*
X197553034Y-113491500D01*
X197611999Y-113496659D01*
X197612000Y-113496659D01*
X197612001Y-113496659D01*
X197670966Y-113491500D01*
X197847408Y-113476063D01*
X198075663Y-113414903D01*
X198289830Y-113315035D01*
X198483401Y-113179495D01*
X198650495Y-113012401D01*
X198780424Y-112826842D01*
X198835002Y-112783217D01*
X198904500Y-112776023D01*
X198966855Y-112807546D01*
X198983575Y-112826842D01*
X199113500Y-113012395D01*
X199113505Y-113012401D01*
X199280599Y-113179495D01*
X199377384Y-113247265D01*
X199474165Y-113315032D01*
X199474167Y-113315033D01*
X199474170Y-113315035D01*
X199688337Y-113414903D01*
X199916592Y-113476063D01*
X200093034Y-113491500D01*
X200151999Y-113496659D01*
X200152000Y-113496659D01*
X200152001Y-113496659D01*
X200210966Y-113491500D01*
X200387408Y-113476063D01*
X200615663Y-113414903D01*
X200829830Y-113315035D01*
X201023401Y-113179495D01*
X201190495Y-113012401D01*
X201320424Y-112826842D01*
X201375002Y-112783217D01*
X201444500Y-112776023D01*
X201506855Y-112807546D01*
X201523575Y-112826842D01*
X201653500Y-113012395D01*
X201653505Y-113012401D01*
X201820599Y-113179495D01*
X201917384Y-113247265D01*
X202014165Y-113315032D01*
X202014167Y-113315033D01*
X202014170Y-113315035D01*
X202228337Y-113414903D01*
X202456592Y-113476063D01*
X202633034Y-113491500D01*
X202691999Y-113496659D01*
X202692000Y-113496659D01*
X202692001Y-113496659D01*
X202750966Y-113491500D01*
X202927408Y-113476063D01*
X203155663Y-113414903D01*
X203369830Y-113315035D01*
X203563401Y-113179495D01*
X203730495Y-113012401D01*
X203860424Y-112826842D01*
X203915002Y-112783217D01*
X203984500Y-112776023D01*
X204046855Y-112807546D01*
X204063575Y-112826842D01*
X204193500Y-113012395D01*
X204193505Y-113012401D01*
X204360599Y-113179495D01*
X204457384Y-113247265D01*
X204554165Y-113315032D01*
X204554167Y-113315033D01*
X204554170Y-113315035D01*
X204768337Y-113414903D01*
X204996592Y-113476063D01*
X205173034Y-113491500D01*
X205231999Y-113496659D01*
X205232000Y-113496659D01*
X205232001Y-113496659D01*
X205290966Y-113491500D01*
X205467408Y-113476063D01*
X205695663Y-113414903D01*
X205909830Y-113315035D01*
X206103401Y-113179495D01*
X206270495Y-113012401D01*
X206400424Y-112826842D01*
X206455002Y-112783217D01*
X206524500Y-112776023D01*
X206586855Y-112807546D01*
X206603575Y-112826842D01*
X206733500Y-113012395D01*
X206733505Y-113012401D01*
X206900599Y-113179495D01*
X206997384Y-113247265D01*
X207094165Y-113315032D01*
X207094167Y-113315033D01*
X207094170Y-113315035D01*
X207308337Y-113414903D01*
X207536592Y-113476063D01*
X207713034Y-113491500D01*
X207771999Y-113496659D01*
X207772000Y-113496659D01*
X207772001Y-113496659D01*
X207830966Y-113491500D01*
X208007408Y-113476063D01*
X208235663Y-113414903D01*
X208449830Y-113315035D01*
X208643401Y-113179495D01*
X208810495Y-113012401D01*
X208940424Y-112826842D01*
X208995002Y-112783217D01*
X209064500Y-112776023D01*
X209126855Y-112807546D01*
X209143575Y-112826842D01*
X209273500Y-113012395D01*
X209273505Y-113012401D01*
X209440599Y-113179495D01*
X209537384Y-113247265D01*
X209634165Y-113315032D01*
X209634167Y-113315033D01*
X209634170Y-113315035D01*
X209848337Y-113414903D01*
X210076592Y-113476063D01*
X210253034Y-113491500D01*
X210311999Y-113496659D01*
X210312000Y-113496659D01*
X210312001Y-113496659D01*
X210370966Y-113491500D01*
X210547408Y-113476063D01*
X210775663Y-113414903D01*
X210989830Y-113315035D01*
X211183401Y-113179495D01*
X211350495Y-113012401D01*
X211480424Y-112826842D01*
X211535002Y-112783217D01*
X211604500Y-112776023D01*
X211666855Y-112807546D01*
X211683575Y-112826842D01*
X211813500Y-113012395D01*
X211813505Y-113012401D01*
X211980599Y-113179495D01*
X212077384Y-113247265D01*
X212174165Y-113315032D01*
X212174167Y-113315033D01*
X212174170Y-113315035D01*
X212388337Y-113414903D01*
X212616592Y-113476063D01*
X212793034Y-113491500D01*
X212851999Y-113496659D01*
X212852000Y-113496659D01*
X212852001Y-113496659D01*
X212910966Y-113491500D01*
X213087408Y-113476063D01*
X213315663Y-113414903D01*
X213529830Y-113315035D01*
X213723401Y-113179495D01*
X213890495Y-113012401D01*
X214020424Y-112826842D01*
X214075002Y-112783217D01*
X214144500Y-112776023D01*
X214206855Y-112807546D01*
X214223575Y-112826842D01*
X214353500Y-113012395D01*
X214353505Y-113012401D01*
X214520599Y-113179495D01*
X214617384Y-113247265D01*
X214714165Y-113315032D01*
X214714167Y-113315033D01*
X214714170Y-113315035D01*
X214928337Y-113414903D01*
X215156592Y-113476063D01*
X215333034Y-113491500D01*
X215391999Y-113496659D01*
X215392000Y-113496659D01*
X215392001Y-113496659D01*
X215450966Y-113491500D01*
X215627408Y-113476063D01*
X215855663Y-113414903D01*
X216069830Y-113315035D01*
X216263401Y-113179495D01*
X216430495Y-113012401D01*
X216560424Y-112826842D01*
X216615002Y-112783217D01*
X216684500Y-112776023D01*
X216746855Y-112807546D01*
X216763575Y-112826842D01*
X216893500Y-113012395D01*
X216893505Y-113012401D01*
X217060599Y-113179495D01*
X217157384Y-113247265D01*
X217254165Y-113315032D01*
X217254167Y-113315033D01*
X217254170Y-113315035D01*
X217468337Y-113414903D01*
X217696592Y-113476063D01*
X217873034Y-113491500D01*
X217931999Y-113496659D01*
X217932000Y-113496659D01*
X217932001Y-113496659D01*
X217990966Y-113491500D01*
X218167408Y-113476063D01*
X218395663Y-113414903D01*
X218609830Y-113315035D01*
X218803401Y-113179495D01*
X218925329Y-113057566D01*
X218986648Y-113024084D01*
X219056340Y-113029068D01*
X219112274Y-113070939D01*
X219129189Y-113101917D01*
X219178202Y-113233328D01*
X219178206Y-113233335D01*
X219264452Y-113348544D01*
X219264455Y-113348547D01*
X219379664Y-113434793D01*
X219379671Y-113434797D01*
X219514517Y-113485091D01*
X219514516Y-113485091D01*
X219521444Y-113485835D01*
X219574127Y-113491500D01*
X221369872Y-113491499D01*
X221429483Y-113485091D01*
X221564331Y-113434796D01*
X221679546Y-113348546D01*
X221765796Y-113233331D01*
X221816091Y-113098483D01*
X221822500Y-113038873D01*
X221822499Y-111243128D01*
X221816091Y-111183517D01*
X221814810Y-111180083D01*
X221765797Y-111048671D01*
X221765793Y-111048664D01*
X221679547Y-110933455D01*
X221679544Y-110933452D01*
X221557231Y-110841888D01*
X221559142Y-110839334D01*
X221520829Y-110801001D01*
X221505995Y-110732725D01*
X221530429Y-110667267D01*
X221556792Y-110641285D01*
X221559727Y-110639151D01*
X221559730Y-110639151D01*
X221712871Y-110527888D01*
X221839533Y-110387216D01*
X221934179Y-110223284D01*
X221992674Y-110043256D01*
X222012460Y-109855000D01*
X221992674Y-109666744D01*
X221934179Y-109486716D01*
X221839533Y-109322784D01*
X221839529Y-109322778D01*
X221791750Y-109269714D01*
X221761520Y-109206722D01*
X221759900Y-109186742D01*
X221759900Y-107019773D01*
X221761672Y-107003723D01*
X221761435Y-107003701D01*
X221762169Y-106995933D01*
X221759931Y-106924704D01*
X221759900Y-106922756D01*
X221759900Y-106892927D01*
X221758977Y-106885627D01*
X221758518Y-106879794D01*
X221756987Y-106831053D01*
X221751033Y-106810561D01*
X221747087Y-106791504D01*
X221744414Y-106770340D01*
X221744413Y-106770340D01*
X221726460Y-106724995D01*
X221724571Y-106719475D01*
X221720137Y-106704214D01*
X221710965Y-106672642D01*
X221700101Y-106654272D01*
X221691544Y-106636805D01*
X221683688Y-106616963D01*
X221655026Y-106577515D01*
X221651819Y-106572632D01*
X221626994Y-106530655D01*
X221626993Y-106530654D01*
X221626992Y-106530652D01*
X221611906Y-106515566D01*
X221599271Y-106500774D01*
X221586726Y-106483507D01*
X221586723Y-106483505D01*
X221586723Y-106483504D01*
X221586722Y-106483503D01*
X221549151Y-106452422D01*
X221544839Y-106448499D01*
X221279409Y-106183069D01*
X221245925Y-106121747D01*
X221243770Y-106108351D01*
X221230674Y-105983744D01*
X221172179Y-105803716D01*
X221077533Y-105639784D01*
X220950871Y-105499112D01*
X220950870Y-105499111D01*
X220797734Y-105387851D01*
X220797729Y-105387848D01*
X220624807Y-105310857D01*
X220624802Y-105310855D01*
X220479001Y-105279865D01*
X220439646Y-105271500D01*
X220250354Y-105271500D01*
X220217897Y-105278398D01*
X220065197Y-105310855D01*
X220065192Y-105310857D01*
X219892270Y-105387848D01*
X219892265Y-105387851D01*
X219739129Y-105499111D01*
X219612466Y-105639785D01*
X219517821Y-105803715D01*
X219517818Y-105803722D01*
X219462106Y-105975188D01*
X219459326Y-105983744D01*
X219447474Y-106096508D01*
X219440777Y-106160235D01*
X219439540Y-106172000D01*
X219459326Y-106360256D01*
X219459327Y-106360259D01*
X219517818Y-106540277D01*
X219517821Y-106540284D01*
X219612467Y-106704216D01*
X219691062Y-106791504D01*
X219739129Y-106844888D01*
X219892265Y-106956148D01*
X219892270Y-106956151D01*
X220065192Y-107033142D01*
X220065197Y-107033144D01*
X220250354Y-107072500D01*
X220270798Y-107072500D01*
X220337837Y-107092185D01*
X220358479Y-107108819D01*
X220417781Y-107168121D01*
X220451266Y-107229444D01*
X220454100Y-107255802D01*
X220454100Y-109186742D01*
X220434415Y-109253781D01*
X220422250Y-109269714D01*
X220374470Y-109322778D01*
X220374465Y-109322785D01*
X220279821Y-109486715D01*
X220279818Y-109486722D01*
X220235491Y-109623148D01*
X220221326Y-109666744D01*
X220201540Y-109855000D01*
X220221326Y-110043256D01*
X220221327Y-110043259D01*
X220279818Y-110223277D01*
X220279821Y-110223284D01*
X220374467Y-110387216D01*
X220501128Y-110527888D01*
X220501129Y-110527888D01*
X220553836Y-110566182D01*
X220596502Y-110621512D01*
X220602481Y-110691125D01*
X220569875Y-110752920D01*
X220509037Y-110787277D01*
X220480951Y-110790500D01*
X219574129Y-110790500D01*
X219574123Y-110790501D01*
X219514516Y-110796908D01*
X219379671Y-110847202D01*
X219379664Y-110847206D01*
X219264455Y-110933452D01*
X219264452Y-110933455D01*
X219178206Y-111048664D01*
X219178203Y-111048669D01*
X219129189Y-111180083D01*
X219087317Y-111236016D01*
X219021853Y-111260433D01*
X218953580Y-111245581D01*
X218925326Y-111224430D01*
X218803402Y-111102506D01*
X218803395Y-111102501D01*
X218609834Y-110966967D01*
X218609830Y-110966965D01*
X218538727Y-110933809D01*
X218395663Y-110867097D01*
X218395659Y-110867096D01*
X218395655Y-110867094D01*
X218167413Y-110805938D01*
X218167403Y-110805936D01*
X217932001Y-110785341D01*
X217931999Y-110785341D01*
X217696596Y-110805936D01*
X217696586Y-110805938D01*
X217468344Y-110867094D01*
X217468335Y-110867098D01*
X217254171Y-110966964D01*
X217254169Y-110966965D01*
X217060597Y-111102505D01*
X216893508Y-111269594D01*
X216763574Y-111455160D01*
X216708997Y-111498784D01*
X216639498Y-111505977D01*
X216577144Y-111474455D01*
X216560429Y-111455164D01*
X216430495Y-111269599D01*
X216430493Y-111269596D01*
X216263402Y-111102506D01*
X216263395Y-111102501D01*
X216069834Y-110966967D01*
X216069830Y-110966965D01*
X215998727Y-110933809D01*
X215855663Y-110867097D01*
X215855659Y-110867096D01*
X215855655Y-110867094D01*
X215627413Y-110805938D01*
X215627403Y-110805936D01*
X215392001Y-110785341D01*
X215391999Y-110785341D01*
X215156596Y-110805936D01*
X215156586Y-110805938D01*
X214928344Y-110867094D01*
X214928335Y-110867098D01*
X214714171Y-110966964D01*
X214714169Y-110966965D01*
X214520597Y-111102505D01*
X214353508Y-111269594D01*
X214223574Y-111455159D01*
X214168997Y-111498784D01*
X214099498Y-111505976D01*
X214037144Y-111474454D01*
X214020424Y-111455158D01*
X213890494Y-111269597D01*
X213723402Y-111102506D01*
X213723395Y-111102501D01*
X213529834Y-110966967D01*
X213529830Y-110966965D01*
X213458727Y-110933809D01*
X213315663Y-110867097D01*
X213315659Y-110867096D01*
X213315655Y-110867094D01*
X213087413Y-110805938D01*
X213087403Y-110805936D01*
X212852001Y-110785341D01*
X212851999Y-110785341D01*
X212616596Y-110805936D01*
X212616586Y-110805938D01*
X212388344Y-110867094D01*
X212388335Y-110867098D01*
X212174171Y-110966964D01*
X212174169Y-110966965D01*
X211980597Y-111102505D01*
X211813505Y-111269597D01*
X211683575Y-111455158D01*
X211628998Y-111498783D01*
X211559500Y-111505977D01*
X211497145Y-111474454D01*
X211480425Y-111455158D01*
X211350494Y-111269597D01*
X211183402Y-111102506D01*
X211183395Y-111102501D01*
X210989834Y-110966967D01*
X210989830Y-110966965D01*
X210918727Y-110933809D01*
X210775663Y-110867097D01*
X210775659Y-110867096D01*
X210775655Y-110867094D01*
X210547413Y-110805938D01*
X210547403Y-110805936D01*
X210312001Y-110785341D01*
X210311999Y-110785341D01*
X210076596Y-110805936D01*
X210076586Y-110805938D01*
X209848344Y-110867094D01*
X209848335Y-110867098D01*
X209634171Y-110966964D01*
X209634169Y-110966965D01*
X209440597Y-111102505D01*
X209273505Y-111269597D01*
X209143575Y-111455158D01*
X209088998Y-111498783D01*
X209019500Y-111505977D01*
X208957145Y-111474454D01*
X208940425Y-111455158D01*
X208810494Y-111269597D01*
X208643402Y-111102506D01*
X208643395Y-111102501D01*
X208449834Y-110966967D01*
X208449830Y-110966965D01*
X208378727Y-110933809D01*
X208235663Y-110867097D01*
X208235659Y-110867096D01*
X208235655Y-110867094D01*
X208007413Y-110805938D01*
X208007403Y-110805936D01*
X207772001Y-110785341D01*
X207771999Y-110785341D01*
X207536596Y-110805936D01*
X207536586Y-110805938D01*
X207308344Y-110867094D01*
X207308335Y-110867098D01*
X207094171Y-110966964D01*
X207094169Y-110966965D01*
X206900597Y-111102505D01*
X206733508Y-111269594D01*
X206603574Y-111455160D01*
X206548997Y-111498784D01*
X206479498Y-111505977D01*
X206417144Y-111474455D01*
X206400429Y-111455164D01*
X206270495Y-111269599D01*
X206270493Y-111269596D01*
X206103402Y-111102506D01*
X206103395Y-111102501D01*
X205909834Y-110966967D01*
X205909830Y-110966965D01*
X205838727Y-110933809D01*
X205695663Y-110867097D01*
X205695659Y-110867096D01*
X205695655Y-110867094D01*
X205467413Y-110805938D01*
X205467403Y-110805936D01*
X205232001Y-110785341D01*
X205231999Y-110785341D01*
X204996596Y-110805936D01*
X204996586Y-110805938D01*
X204768344Y-110867094D01*
X204768335Y-110867098D01*
X204554171Y-110966964D01*
X204554169Y-110966965D01*
X204360597Y-111102505D01*
X204193505Y-111269597D01*
X204063575Y-111455158D01*
X204008998Y-111498783D01*
X203939500Y-111505977D01*
X203877145Y-111474454D01*
X203860425Y-111455158D01*
X203730494Y-111269597D01*
X203563402Y-111102506D01*
X203563395Y-111102501D01*
X203369834Y-110966967D01*
X203369830Y-110966965D01*
X203298727Y-110933809D01*
X203155663Y-110867097D01*
X203155659Y-110867096D01*
X203155655Y-110867094D01*
X202927413Y-110805938D01*
X202927403Y-110805936D01*
X202692001Y-110785341D01*
X202691999Y-110785341D01*
X202456596Y-110805936D01*
X202456586Y-110805938D01*
X202228344Y-110867094D01*
X202228335Y-110867098D01*
X202014171Y-110966964D01*
X202014169Y-110966965D01*
X201820597Y-111102505D01*
X201653505Y-111269597D01*
X201523575Y-111455158D01*
X201468998Y-111498783D01*
X201399500Y-111505977D01*
X201337145Y-111474454D01*
X201320425Y-111455158D01*
X201190494Y-111269597D01*
X201023402Y-111102506D01*
X201023395Y-111102501D01*
X200829834Y-110966967D01*
X200829830Y-110966965D01*
X200758727Y-110933809D01*
X200615663Y-110867097D01*
X200615659Y-110867096D01*
X200615655Y-110867094D01*
X200387413Y-110805938D01*
X200387403Y-110805936D01*
X200152001Y-110785341D01*
X200151999Y-110785341D01*
X199916596Y-110805936D01*
X199916586Y-110805938D01*
X199688344Y-110867094D01*
X199688335Y-110867098D01*
X199474171Y-110966964D01*
X199474169Y-110966965D01*
X199280597Y-111102505D01*
X199113505Y-111269597D01*
X198983575Y-111455158D01*
X198928998Y-111498783D01*
X198859500Y-111505977D01*
X198797145Y-111474454D01*
X198780425Y-111455158D01*
X198650494Y-111269597D01*
X198483402Y-111102506D01*
X198483395Y-111102501D01*
X198289834Y-110966967D01*
X198289830Y-110966965D01*
X198218727Y-110933809D01*
X198075663Y-110867097D01*
X198075659Y-110867096D01*
X198075655Y-110867094D01*
X197847413Y-110805938D01*
X197847403Y-110805936D01*
X197612001Y-110785341D01*
X197611999Y-110785341D01*
X197376596Y-110805936D01*
X197376586Y-110805938D01*
X197148344Y-110867094D01*
X197148335Y-110867098D01*
X196934171Y-110966964D01*
X196934169Y-110966965D01*
X196740597Y-111102505D01*
X196573508Y-111269594D01*
X196443574Y-111455160D01*
X196388997Y-111498784D01*
X196319498Y-111505977D01*
X196257144Y-111474455D01*
X196240429Y-111455164D01*
X196110495Y-111269599D01*
X196110493Y-111269596D01*
X195943402Y-111102506D01*
X195943395Y-111102501D01*
X195749834Y-110966967D01*
X195749830Y-110966965D01*
X195678727Y-110933809D01*
X195535663Y-110867097D01*
X195535659Y-110867096D01*
X195535655Y-110867094D01*
X195307413Y-110805938D01*
X195307403Y-110805936D01*
X195072001Y-110785341D01*
X195071999Y-110785341D01*
X194836596Y-110805936D01*
X194836586Y-110805938D01*
X194608344Y-110867094D01*
X194608335Y-110867098D01*
X194394171Y-110966964D01*
X194394169Y-110966965D01*
X194200600Y-111102503D01*
X194078284Y-111224819D01*
X194016961Y-111258303D01*
X193947269Y-111253319D01*
X193891336Y-111211447D01*
X193874421Y-111180470D01*
X193825354Y-111048913D01*
X193825350Y-111048906D01*
X193739190Y-110933812D01*
X193739187Y-110933809D01*
X193624093Y-110847649D01*
X193624086Y-110847645D01*
X193489379Y-110797403D01*
X193489372Y-110797401D01*
X193429844Y-110791000D01*
X192782000Y-110791000D01*
X192781999Y-111705498D01*
X192674315Y-111656320D01*
X192567763Y-111641000D01*
X192496237Y-111641000D01*
X192389685Y-111656320D01*
X192282000Y-111705498D01*
X192282000Y-110791000D01*
X191634155Y-110791000D01*
X191574627Y-110797401D01*
X191574620Y-110797403D01*
X191439913Y-110847645D01*
X191439906Y-110847649D01*
X191324812Y-110933809D01*
X191324809Y-110933812D01*
X191238649Y-111048906D01*
X191238645Y-111048913D01*
X191189578Y-111180470D01*
X191147707Y-111236404D01*
X191082242Y-111260821D01*
X191013969Y-111245969D01*
X190985715Y-111224819D01*
X190940979Y-111180083D01*
X190863401Y-111102505D01*
X190863397Y-111102502D01*
X190863396Y-111102501D01*
X190669834Y-110966967D01*
X190669830Y-110966965D01*
X190598727Y-110933809D01*
X190455663Y-110867097D01*
X190455659Y-110867096D01*
X190455655Y-110867094D01*
X190227413Y-110805938D01*
X190227403Y-110805936D01*
X189992001Y-110785341D01*
X189991999Y-110785341D01*
X189756596Y-110805936D01*
X189756586Y-110805938D01*
X189528344Y-110867094D01*
X189528335Y-110867098D01*
X189314171Y-110966964D01*
X189314169Y-110966965D01*
X189120597Y-111102505D01*
X188953508Y-111269594D01*
X188823574Y-111455159D01*
X188768997Y-111498784D01*
X188699498Y-111505976D01*
X188637144Y-111474454D01*
X188620424Y-111455158D01*
X188490494Y-111269597D01*
X188323402Y-111102506D01*
X188323395Y-111102501D01*
X188129834Y-110966967D01*
X188129830Y-110966965D01*
X188058727Y-110933809D01*
X187915663Y-110867097D01*
X187915659Y-110867096D01*
X187915655Y-110867094D01*
X187687413Y-110805938D01*
X187687403Y-110805936D01*
X187452001Y-110785341D01*
X187451999Y-110785341D01*
X187216596Y-110805936D01*
X187216586Y-110805938D01*
X186988344Y-110867094D01*
X186988335Y-110867098D01*
X186774171Y-110966964D01*
X186774169Y-110966965D01*
X186580597Y-111102505D01*
X186413508Y-111269594D01*
X186283574Y-111455160D01*
X186228997Y-111498784D01*
X186159498Y-111505977D01*
X186097144Y-111474455D01*
X186080429Y-111455164D01*
X185950495Y-111269599D01*
X185950493Y-111269596D01*
X185783402Y-111102506D01*
X185783395Y-111102501D01*
X185589834Y-110966967D01*
X185589830Y-110966965D01*
X185518727Y-110933809D01*
X185375663Y-110867097D01*
X185375659Y-110867096D01*
X185375655Y-110867094D01*
X185147413Y-110805938D01*
X185147403Y-110805936D01*
X184912001Y-110785341D01*
X184911999Y-110785341D01*
X184676596Y-110805936D01*
X184676586Y-110805938D01*
X184448344Y-110867094D01*
X184448335Y-110867098D01*
X184234171Y-110966964D01*
X184234169Y-110966965D01*
X184040597Y-111102505D01*
X183873505Y-111269597D01*
X183737965Y-111463169D01*
X183737964Y-111463171D01*
X183638098Y-111677335D01*
X183638094Y-111677344D01*
X183576938Y-111905586D01*
X183576936Y-111905596D01*
X183556341Y-112140999D01*
X183556341Y-112141000D01*
X176403500Y-112141000D01*
X176403500Y-104394000D01*
X177947040Y-104394000D01*
X177966826Y-104582256D01*
X177966827Y-104582259D01*
X178025318Y-104762277D01*
X178025321Y-104762284D01*
X178119967Y-104926216D01*
X178228631Y-105046899D01*
X178246629Y-105066888D01*
X178399765Y-105178148D01*
X178399770Y-105178151D01*
X178572692Y-105255142D01*
X178572697Y-105255144D01*
X178757854Y-105294500D01*
X178757855Y-105294500D01*
X178947144Y-105294500D01*
X178947146Y-105294500D01*
X179132303Y-105255144D01*
X179305230Y-105178151D01*
X179343138Y-105150609D01*
X179453287Y-105070582D01*
X179519093Y-105047102D01*
X179526172Y-105046900D01*
X181524232Y-105046900D01*
X181540279Y-105048671D01*
X181540302Y-105048434D01*
X181548068Y-105049168D01*
X181548068Y-105049167D01*
X181548069Y-105049168D01*
X181551536Y-105049059D01*
X181619278Y-105046931D01*
X181621225Y-105046900D01*
X181651071Y-105046900D01*
X181651075Y-105046900D01*
X181658377Y-105045977D01*
X181664194Y-105045518D01*
X181712948Y-105043987D01*
X181733449Y-105038030D01*
X181752476Y-105034089D01*
X181773660Y-105031414D01*
X181819000Y-105013461D01*
X181824528Y-105011570D01*
X181833275Y-105009028D01*
X181871359Y-104997965D01*
X181889730Y-104987100D01*
X181907196Y-104978543D01*
X181927037Y-104970688D01*
X181966497Y-104942016D01*
X181971363Y-104938820D01*
X182013348Y-104913992D01*
X182028443Y-104898895D01*
X182043224Y-104886272D01*
X182060493Y-104873726D01*
X182091587Y-104836138D01*
X182095489Y-104831849D01*
X183749120Y-103178219D01*
X183810444Y-103144734D01*
X183836802Y-103141900D01*
X188937328Y-103141900D01*
X189004367Y-103161585D01*
X189010213Y-103165582D01*
X189158265Y-103273148D01*
X189158270Y-103273151D01*
X189331192Y-103350142D01*
X189331197Y-103350144D01*
X189516354Y-103389500D01*
X189516355Y-103389500D01*
X189705644Y-103389500D01*
X189705646Y-103389500D01*
X189890803Y-103350144D01*
X190063730Y-103273151D01*
X190216871Y-103161888D01*
X190343533Y-103021216D01*
X190438179Y-102857284D01*
X190496674Y-102677256D01*
X190509982Y-102550628D01*
X190536566Y-102486015D01*
X190593864Y-102446030D01*
X190663683Y-102443370D01*
X190723856Y-102478879D01*
X190746111Y-102519440D01*
X190748715Y-102518410D01*
X190769538Y-102571005D01*
X190771430Y-102576532D01*
X190785033Y-102623355D01*
X190785035Y-102623360D01*
X190795900Y-102641731D01*
X190804458Y-102659201D01*
X190812311Y-102679035D01*
X190812314Y-102679041D01*
X190840973Y-102718486D01*
X190844182Y-102723370D01*
X190869009Y-102765350D01*
X190884094Y-102780434D01*
X190896734Y-102795233D01*
X190909274Y-102812494D01*
X190946852Y-102843581D01*
X190951175Y-102847515D01*
X192136681Y-104033021D01*
X192146779Y-104045625D01*
X192146963Y-104045474D01*
X192151930Y-104051479D01*
X192203873Y-104100256D01*
X192205272Y-104101612D01*
X192226373Y-104122713D01*
X192232194Y-104127229D01*
X192236636Y-104131022D01*
X192272185Y-104164405D01*
X192272189Y-104164408D01*
X192290875Y-104174680D01*
X192307142Y-104185365D01*
X192324000Y-104198441D01*
X192324005Y-104198445D01*
X192368760Y-104217812D01*
X192374007Y-104220383D01*
X192406952Y-104238494D01*
X192416741Y-104243876D01*
X192436436Y-104248932D01*
X192437411Y-104249183D01*
X192455812Y-104255482D01*
X192475399Y-104263959D01*
X192509200Y-104269311D01*
X192523564Y-104271587D01*
X192529279Y-104272770D01*
X192576520Y-104284900D01*
X192597861Y-104284900D01*
X192617258Y-104286426D01*
X192638329Y-104289764D01*
X192686876Y-104285174D01*
X192692713Y-104284900D01*
X195795328Y-104284900D01*
X195862367Y-104304585D01*
X195868213Y-104308582D01*
X196001998Y-104405782D01*
X196044664Y-104461112D01*
X196050643Y-104530725D01*
X196018038Y-104592520D01*
X195957199Y-104626877D01*
X195929113Y-104630100D01*
X190284672Y-104630100D01*
X190217633Y-104610415D01*
X190211787Y-104606418D01*
X190063734Y-104498851D01*
X190063729Y-104498848D01*
X189890807Y-104421857D01*
X189890802Y-104421855D01*
X189745000Y-104390865D01*
X189705646Y-104382500D01*
X189516354Y-104382500D01*
X189483897Y-104389398D01*
X189331197Y-104421855D01*
X189331192Y-104421857D01*
X189158270Y-104498848D01*
X189158265Y-104498851D01*
X189005129Y-104610111D01*
X188878466Y-104750785D01*
X188783821Y-104914715D01*
X188783818Y-104914722D01*
X188725327Y-105094740D01*
X188725326Y-105094744D01*
X188705540Y-105283000D01*
X188725326Y-105471256D01*
X188725327Y-105471259D01*
X188783818Y-105651277D01*
X188783821Y-105651284D01*
X188878467Y-105815216D01*
X188973188Y-105920414D01*
X189005129Y-105955888D01*
X189163527Y-106070971D01*
X189161976Y-106073105D01*
X189202098Y-106115199D01*
X189215309Y-106183808D01*
X189189330Y-106248668D01*
X189162634Y-106271800D01*
X189163527Y-106273029D01*
X189010213Y-106384418D01*
X188944407Y-106407898D01*
X188937328Y-106408100D01*
X183727768Y-106408100D01*
X183711720Y-106406328D01*
X183711698Y-106406566D01*
X183703931Y-106405831D01*
X183632722Y-106408069D01*
X183630775Y-106408100D01*
X183600922Y-106408100D01*
X183593615Y-106409022D01*
X183587796Y-106409480D01*
X183539051Y-106411012D01*
X183539050Y-106411013D01*
X183518552Y-106416967D01*
X183499514Y-106420909D01*
X183478349Y-106423584D01*
X183478342Y-106423585D01*
X183478340Y-106423586D01*
X183478338Y-106423586D01*
X183478337Y-106423587D01*
X183432999Y-106441536D01*
X183427473Y-106443428D01*
X183380639Y-106457035D01*
X183380637Y-106457036D01*
X183362266Y-106467900D01*
X183344804Y-106476455D01*
X183324966Y-106484310D01*
X183324965Y-106484311D01*
X183324964Y-106484311D01*
X183324963Y-106484312D01*
X183316881Y-106490183D01*
X183285510Y-106512974D01*
X183280630Y-106516180D01*
X183238649Y-106541009D01*
X183223560Y-106556098D01*
X183208772Y-106568729D01*
X183191508Y-106581273D01*
X183191503Y-106581277D01*
X183160422Y-106618847D01*
X183156490Y-106623168D01*
X182264879Y-107514781D01*
X182203556Y-107548266D01*
X182177198Y-107551100D01*
X179653172Y-107551100D01*
X179586133Y-107531415D01*
X179580287Y-107527418D01*
X179432234Y-107419851D01*
X179432229Y-107419848D01*
X179259307Y-107342857D01*
X179259302Y-107342855D01*
X179113500Y-107311865D01*
X179074146Y-107303500D01*
X178884854Y-107303500D01*
X178852397Y-107310398D01*
X178699697Y-107342855D01*
X178699692Y-107342857D01*
X178526770Y-107419848D01*
X178526765Y-107419851D01*
X178373629Y-107531111D01*
X178246966Y-107671785D01*
X178152321Y-107835715D01*
X178152318Y-107835722D01*
X178093827Y-108015740D01*
X178093826Y-108015744D01*
X178074040Y-108204000D01*
X178093826Y-108392256D01*
X178093827Y-108392259D01*
X178152318Y-108572277D01*
X178152321Y-108572284D01*
X178246967Y-108736216D01*
X178355631Y-108856899D01*
X178373629Y-108876888D01*
X178526765Y-108988148D01*
X178526770Y-108988151D01*
X178699692Y-109065142D01*
X178699697Y-109065144D01*
X178884854Y-109104500D01*
X178884855Y-109104500D01*
X179074144Y-109104500D01*
X179074146Y-109104500D01*
X179259303Y-109065144D01*
X179432230Y-108988151D01*
X179580286Y-108880582D01*
X179646093Y-108857102D01*
X179653172Y-108856900D01*
X182413232Y-108856900D01*
X182429279Y-108858671D01*
X182429302Y-108858434D01*
X182437068Y-108859168D01*
X182437068Y-108859167D01*
X182437069Y-108859168D01*
X182440536Y-108859059D01*
X182508278Y-108856931D01*
X182510225Y-108856900D01*
X182540071Y-108856900D01*
X182540075Y-108856900D01*
X182547377Y-108855977D01*
X182553194Y-108855518D01*
X182601948Y-108853987D01*
X182622449Y-108848030D01*
X182641476Y-108844089D01*
X182662660Y-108841414D01*
X182708000Y-108823461D01*
X182713528Y-108821570D01*
X182722275Y-108819028D01*
X182760359Y-108807965D01*
X182778730Y-108797100D01*
X182796196Y-108788543D01*
X182816037Y-108780688D01*
X182855497Y-108752016D01*
X182860363Y-108748820D01*
X182902348Y-108723992D01*
X182917443Y-108708895D01*
X182932224Y-108696272D01*
X182949493Y-108683726D01*
X182980587Y-108646138D01*
X182984489Y-108641849D01*
X183876120Y-107750219D01*
X183937444Y-107716734D01*
X183963802Y-107713900D01*
X188937328Y-107713900D01*
X189004367Y-107733585D01*
X189010213Y-107737582D01*
X189163527Y-107848971D01*
X189161976Y-107851105D01*
X189202098Y-107893199D01*
X189215309Y-107961808D01*
X189189330Y-108026668D01*
X189162634Y-108049800D01*
X189163527Y-108051029D01*
X189005129Y-108166111D01*
X188878466Y-108306785D01*
X188783821Y-108470715D01*
X188783818Y-108470722D01*
X188728223Y-108641827D01*
X188725326Y-108650744D01*
X188705540Y-108839000D01*
X188725326Y-109027256D01*
X188725327Y-109027259D01*
X188783818Y-109207277D01*
X188783821Y-109207284D01*
X188878467Y-109371216D01*
X189005129Y-109511888D01*
X189158265Y-109623148D01*
X189158270Y-109623151D01*
X189331192Y-109700142D01*
X189331197Y-109700144D01*
X189516354Y-109739500D01*
X189516355Y-109739500D01*
X189705644Y-109739500D01*
X189705646Y-109739500D01*
X189890803Y-109700144D01*
X190063730Y-109623151D01*
X190216871Y-109511888D01*
X190343533Y-109371216D01*
X190438179Y-109207284D01*
X190496674Y-109027256D01*
X190509770Y-108902647D01*
X190536355Y-108838035D01*
X190545410Y-108827930D01*
X190734122Y-108639219D01*
X190795445Y-108605734D01*
X190821803Y-108602900D01*
X191965740Y-108602900D01*
X192032779Y-108622585D01*
X192078534Y-108675389D01*
X192088478Y-108744547D01*
X192059453Y-108808103D01*
X192057889Y-108809873D01*
X192053466Y-108814785D01*
X191958821Y-108978715D01*
X191958818Y-108978722D01*
X191917951Y-109104500D01*
X191900326Y-109158744D01*
X191880540Y-109347000D01*
X191900326Y-109535256D01*
X191900327Y-109535259D01*
X191958818Y-109715277D01*
X191958821Y-109715284D01*
X192053467Y-109879216D01*
X192162132Y-109999900D01*
X192180129Y-110019888D01*
X192333265Y-110131148D01*
X192333270Y-110131151D01*
X192506192Y-110208142D01*
X192506197Y-110208144D01*
X192691354Y-110247500D01*
X192691355Y-110247500D01*
X192880644Y-110247500D01*
X192880646Y-110247500D01*
X193065803Y-110208144D01*
X193238730Y-110131151D01*
X193276638Y-110103609D01*
X193386787Y-110023582D01*
X193452593Y-110000102D01*
X193459672Y-109999900D01*
X216496328Y-109999900D01*
X216563367Y-110019585D01*
X216569213Y-110023582D01*
X216717265Y-110131148D01*
X216717270Y-110131151D01*
X216890192Y-110208142D01*
X216890197Y-110208144D01*
X217075354Y-110247500D01*
X217075355Y-110247500D01*
X217264644Y-110247500D01*
X217264646Y-110247500D01*
X217449803Y-110208144D01*
X217622730Y-110131151D01*
X217775871Y-110019888D01*
X217902533Y-109879216D01*
X217997179Y-109715284D01*
X218055674Y-109535256D01*
X218075460Y-109347000D01*
X218055674Y-109158744D01*
X217997179Y-108978716D01*
X217902533Y-108814784D01*
X217775871Y-108674112D01*
X217743708Y-108650744D01*
X217622734Y-108562851D01*
X217622729Y-108562848D01*
X217449807Y-108485857D01*
X217449802Y-108485855D01*
X217304001Y-108454865D01*
X217264646Y-108446500D01*
X217075354Y-108446500D01*
X217042897Y-108453398D01*
X216890197Y-108485855D01*
X216890192Y-108485857D01*
X216717270Y-108562848D01*
X216717265Y-108562851D01*
X216569213Y-108670418D01*
X216503407Y-108693898D01*
X216496328Y-108694100D01*
X199995601Y-108694100D01*
X199928562Y-108674415D01*
X199882807Y-108621611D01*
X199872863Y-108552453D01*
X199901888Y-108488897D01*
X199907920Y-108482419D01*
X201261824Y-107128516D01*
X201323147Y-107095031D01*
X201349505Y-107092197D01*
X206736121Y-107092197D01*
X206803160Y-107111882D01*
X206809006Y-107115879D01*
X206957058Y-107223445D01*
X206957063Y-107223448D01*
X207129985Y-107300439D01*
X207129990Y-107300441D01*
X207315147Y-107339797D01*
X207315148Y-107339797D01*
X207504437Y-107339797D01*
X207504439Y-107339797D01*
X207689596Y-107300441D01*
X207862523Y-107223448D01*
X208015664Y-107112185D01*
X208142326Y-106971513D01*
X208236972Y-106807581D01*
X208295467Y-106627553D01*
X208315253Y-106439297D01*
X208295467Y-106251041D01*
X208236972Y-106071013D01*
X208142326Y-105907081D01*
X208015664Y-105766409D01*
X207968015Y-105731790D01*
X207925349Y-105676460D01*
X207916900Y-105631472D01*
X207916900Y-103318802D01*
X207936585Y-103251763D01*
X207953219Y-103231121D01*
X208514121Y-102670219D01*
X208575444Y-102636734D01*
X208601802Y-102633900D01*
X217168959Y-102633900D01*
X217235998Y-102653585D01*
X217270534Y-102686777D01*
X217386505Y-102852402D01*
X217553597Y-103019494D01*
X217747169Y-103155034D01*
X217747171Y-103155035D01*
X217961337Y-103254903D01*
X218189592Y-103316063D01*
X218366032Y-103331499D01*
X218366033Y-103331500D01*
X218366034Y-103331500D01*
X219783967Y-103331500D01*
X219783967Y-103331499D01*
X219960408Y-103316063D01*
X220188663Y-103254903D01*
X220402829Y-103155035D01*
X220596401Y-103019495D01*
X220763495Y-102852401D01*
X220899035Y-102658830D01*
X220998903Y-102444663D01*
X221060063Y-102216408D01*
X221080659Y-101981000D01*
X221060063Y-101745592D01*
X220998903Y-101517337D01*
X220899035Y-101303171D01*
X220899034Y-101303169D01*
X220763494Y-101109597D01*
X220596402Y-100942505D01*
X220410840Y-100812574D01*
X220367215Y-100757997D01*
X220360021Y-100688499D01*
X220391544Y-100626144D01*
X220410824Y-100609436D01*
X220596401Y-100479495D01*
X220763495Y-100312401D01*
X220899035Y-100118830D01*
X220998903Y-99904663D01*
X221060063Y-99676408D01*
X221080659Y-99441000D01*
X221060063Y-99205592D01*
X220998903Y-98977337D01*
X220899035Y-98763171D01*
X220899034Y-98763169D01*
X220763494Y-98569597D01*
X220596402Y-98402505D01*
X220410840Y-98272574D01*
X220367215Y-98217997D01*
X220360021Y-98148499D01*
X220391544Y-98086144D01*
X220410824Y-98069436D01*
X220596401Y-97939495D01*
X220763495Y-97772401D01*
X220899035Y-97578830D01*
X220998903Y-97364663D01*
X221060063Y-97136408D01*
X221080659Y-96901000D01*
X221079546Y-96888284D01*
X221067610Y-96751851D01*
X221060063Y-96665592D01*
X220998903Y-96437337D01*
X220899035Y-96223171D01*
X220899034Y-96223169D01*
X220763494Y-96029597D01*
X220596403Y-95862506D01*
X220480212Y-95781149D01*
X220410838Y-95732573D01*
X220367215Y-95677999D01*
X220360021Y-95608500D01*
X220391543Y-95546145D01*
X220410836Y-95529428D01*
X220596401Y-95399495D01*
X220763495Y-95232401D01*
X220899035Y-95038830D01*
X220998903Y-94824663D01*
X221060063Y-94596408D01*
X221080659Y-94361000D01*
X221060063Y-94125592D01*
X220998903Y-93897337D01*
X220899035Y-93683171D01*
X220887574Y-93666802D01*
X220763494Y-93489597D01*
X220596402Y-93322505D01*
X220410840Y-93192574D01*
X220367215Y-93137997D01*
X220360021Y-93068499D01*
X220391544Y-93006144D01*
X220410824Y-92989436D01*
X220596401Y-92859495D01*
X220763495Y-92692401D01*
X220899035Y-92498830D01*
X220998903Y-92284663D01*
X221060063Y-92056408D01*
X221080659Y-91821000D01*
X221079546Y-91808284D01*
X221068435Y-91681284D01*
X221060063Y-91585592D01*
X221006475Y-91385595D01*
X220998905Y-91357344D01*
X220998904Y-91357343D01*
X220998903Y-91357337D01*
X220899035Y-91143171D01*
X220886133Y-91124744D01*
X220763494Y-90949597D01*
X220596402Y-90782505D01*
X220410405Y-90652269D01*
X220366780Y-90597692D01*
X220359586Y-90528194D01*
X220391109Y-90465839D01*
X220410405Y-90449119D01*
X220596073Y-90319113D01*
X220596079Y-90319108D01*
X220763105Y-90152082D01*
X220898600Y-89958578D01*
X220998429Y-89744492D01*
X220998432Y-89744486D01*
X221055636Y-89531000D01*
X217094364Y-89531000D01*
X217151567Y-89744486D01*
X217151570Y-89744492D01*
X217251399Y-89958577D01*
X217251400Y-89958579D01*
X217386886Y-90152073D01*
X217386891Y-90152079D01*
X217553920Y-90319108D01*
X217553926Y-90319113D01*
X217739594Y-90449119D01*
X217783219Y-90503696D01*
X217790413Y-90573194D01*
X217758890Y-90635549D01*
X217739594Y-90652269D01*
X217644267Y-90719017D01*
X217578061Y-90741344D01*
X217510294Y-90724334D01*
X217485463Y-90705123D01*
X216843219Y-90062878D01*
X216809734Y-90001555D01*
X216806900Y-89975197D01*
X216806900Y-89031000D01*
X217094364Y-89031000D01*
X218825000Y-89031000D01*
X218825000Y-87931000D01*
X219325000Y-87931000D01*
X219325000Y-89031000D01*
X221055636Y-89031000D01*
X221055635Y-89030999D01*
X220998432Y-88817513D01*
X220998429Y-88817507D01*
X220898600Y-88603422D01*
X220898599Y-88603420D01*
X220763113Y-88409926D01*
X220763108Y-88409920D01*
X220596079Y-88242891D01*
X220596073Y-88242886D01*
X220402579Y-88107400D01*
X220402577Y-88107399D01*
X220188492Y-88007570D01*
X220188483Y-88007566D01*
X219960326Y-87946432D01*
X219960316Y-87946430D01*
X219783946Y-87931000D01*
X219325000Y-87931000D01*
X218825000Y-87931000D01*
X218366054Y-87931000D01*
X218189683Y-87946430D01*
X218189673Y-87946432D01*
X217961516Y-88007566D01*
X217961507Y-88007570D01*
X217747422Y-88107399D01*
X217747420Y-88107400D01*
X217553926Y-88242886D01*
X217553920Y-88242891D01*
X217386894Y-88409917D01*
X217251399Y-88603421D01*
X217151570Y-88817507D01*
X217151567Y-88817513D01*
X217094364Y-89030999D01*
X217094364Y-89031000D01*
X216806900Y-89031000D01*
X216806900Y-86427801D01*
X216826585Y-86360762D01*
X216843214Y-86340125D01*
X217277121Y-85906219D01*
X217338444Y-85872734D01*
X217364802Y-85869900D01*
X217512328Y-85869900D01*
X217579367Y-85889585D01*
X217585213Y-85893582D01*
X217733265Y-86001148D01*
X217733270Y-86001151D01*
X217906192Y-86078142D01*
X217906197Y-86078144D01*
X218091354Y-86117500D01*
X218091355Y-86117500D01*
X218280644Y-86117500D01*
X218280646Y-86117500D01*
X218465803Y-86078144D01*
X218638730Y-86001151D01*
X218791871Y-85889888D01*
X218918533Y-85749216D01*
X219013179Y-85585284D01*
X219071674Y-85405256D01*
X219091460Y-85217000D01*
X219071674Y-85028744D01*
X219013179Y-84848716D01*
X218918533Y-84684784D01*
X218791871Y-84544112D01*
X218786787Y-84540418D01*
X218638734Y-84432851D01*
X218638729Y-84432848D01*
X218465807Y-84355857D01*
X218465802Y-84355855D01*
X218320001Y-84324865D01*
X218280646Y-84316500D01*
X218091354Y-84316500D01*
X218058897Y-84323398D01*
X217906197Y-84355855D01*
X217906192Y-84355857D01*
X217733270Y-84432848D01*
X217733265Y-84432851D01*
X217585213Y-84540418D01*
X217519407Y-84563898D01*
X217512328Y-84564100D01*
X217128768Y-84564100D01*
X217112720Y-84562328D01*
X217112698Y-84562566D01*
X217104931Y-84561831D01*
X217033722Y-84564069D01*
X217031775Y-84564100D01*
X217001922Y-84564100D01*
X216994615Y-84565022D01*
X216988796Y-84565480D01*
X216940051Y-84567012D01*
X216940050Y-84567013D01*
X216919552Y-84572967D01*
X216900514Y-84576909D01*
X216879349Y-84579584D01*
X216879342Y-84579585D01*
X216879340Y-84579586D01*
X216879338Y-84579586D01*
X216879337Y-84579587D01*
X216833999Y-84597536D01*
X216828473Y-84599428D01*
X216781639Y-84613035D01*
X216781637Y-84613036D01*
X216763266Y-84623900D01*
X216745804Y-84632455D01*
X216725966Y-84640310D01*
X216725965Y-84640311D01*
X216725964Y-84640311D01*
X216725963Y-84640312D01*
X216717881Y-84646183D01*
X216686510Y-84668974D01*
X216681630Y-84672180D01*
X216639649Y-84697009D01*
X216624560Y-84712098D01*
X216609772Y-84724729D01*
X216592508Y-84737273D01*
X216592503Y-84737277D01*
X216561422Y-84774847D01*
X216557490Y-84779168D01*
X216495212Y-84841448D01*
X216495210Y-84841449D01*
X215752976Y-85583682D01*
X215740378Y-85593776D01*
X215740530Y-85593960D01*
X215734518Y-85598933D01*
X215685741Y-85650874D01*
X215684388Y-85652270D01*
X215663287Y-85673371D01*
X215663284Y-85673375D01*
X215658769Y-85679196D01*
X215654977Y-85683635D01*
X215621596Y-85719182D01*
X215621594Y-85719186D01*
X215611313Y-85737885D01*
X215600638Y-85754136D01*
X215587557Y-85771001D01*
X215587552Y-85771009D01*
X215568185Y-85815761D01*
X215565616Y-85821005D01*
X215542123Y-85863741D01*
X215536814Y-85884416D01*
X215530515Y-85902812D01*
X215522042Y-85922392D01*
X215522040Y-85922400D01*
X215514412Y-85970564D01*
X215513227Y-85976286D01*
X215501100Y-86023513D01*
X215501099Y-86023522D01*
X215501099Y-86044865D01*
X215499573Y-86064256D01*
X215496236Y-86085327D01*
X215496236Y-86085328D01*
X215500825Y-86133875D01*
X215501100Y-86139713D01*
X215501100Y-88756045D01*
X215481415Y-88823084D01*
X215428611Y-88868839D01*
X215388772Y-88879494D01*
X215368859Y-88881377D01*
X215364121Y-88881825D01*
X215358288Y-88882100D01*
X210254270Y-88882100D01*
X210187231Y-88862415D01*
X210141476Y-88809611D01*
X210131532Y-88740453D01*
X210136339Y-88719782D01*
X210167100Y-88625109D01*
X210181674Y-88580256D01*
X210201460Y-88392000D01*
X210181674Y-88203744D01*
X210123179Y-88023716D01*
X210070241Y-87932025D01*
X210028534Y-87859785D01*
X210028529Y-87859778D01*
X209980750Y-87806714D01*
X209950520Y-87743722D01*
X209948900Y-87723742D01*
X209948900Y-83651765D01*
X209950671Y-83635716D01*
X209950434Y-83635694D01*
X209951168Y-83627932D01*
X209948931Y-83556735D01*
X209948900Y-83554787D01*
X209948900Y-83524931D01*
X209948900Y-83524925D01*
X209947974Y-83517598D01*
X209947517Y-83511790D01*
X209945986Y-83463052D01*
X209945985Y-83463047D01*
X209940035Y-83442569D01*
X209936087Y-83423507D01*
X209933414Y-83402340D01*
X209915457Y-83356989D01*
X209913570Y-83351477D01*
X209899964Y-83304641D01*
X209889098Y-83286267D01*
X209880542Y-83268802D01*
X209872688Y-83248963D01*
X209844023Y-83209509D01*
X209840816Y-83204626D01*
X209815994Y-83162655D01*
X209815993Y-83162654D01*
X209815992Y-83162652D01*
X209800906Y-83147565D01*
X209788271Y-83132774D01*
X209775726Y-83115507D01*
X209775723Y-83115505D01*
X209775723Y-83115504D01*
X209775722Y-83115503D01*
X209738151Y-83084422D01*
X209733839Y-83080499D01*
X207280271Y-80626932D01*
X207246787Y-80565609D01*
X207251771Y-80495917D01*
X207293643Y-80439984D01*
X207359107Y-80415567D01*
X207400045Y-80419475D01*
X207536592Y-80456063D01*
X207707319Y-80471000D01*
X207771999Y-80476659D01*
X207772000Y-80476659D01*
X207772001Y-80476659D01*
X207836681Y-80471000D01*
X208007408Y-80456063D01*
X208235663Y-80394903D01*
X208449830Y-80295035D01*
X208643401Y-80159495D01*
X208810495Y-79992401D01*
X208940424Y-79806842D01*
X208995002Y-79763217D01*
X209064500Y-79756023D01*
X209126855Y-79787546D01*
X209143575Y-79806842D01*
X209273500Y-79992395D01*
X209273505Y-79992401D01*
X209440599Y-80159495D01*
X209530307Y-80222309D01*
X209634165Y-80295032D01*
X209634167Y-80295033D01*
X209634170Y-80295035D01*
X209848337Y-80394903D01*
X209848343Y-80394904D01*
X209848344Y-80394905D01*
X209903285Y-80409626D01*
X210076592Y-80456063D01*
X210247319Y-80471000D01*
X210311999Y-80476659D01*
X210312000Y-80476659D01*
X210312001Y-80476659D01*
X210376681Y-80471000D01*
X210547408Y-80456063D01*
X210775663Y-80394903D01*
X210989830Y-80295035D01*
X211183401Y-80159495D01*
X211350495Y-79992401D01*
X211480424Y-79806842D01*
X211535002Y-79763217D01*
X211604500Y-79756023D01*
X211666855Y-79787546D01*
X211683575Y-79806842D01*
X211813500Y-79992395D01*
X211813505Y-79992401D01*
X211980599Y-80159495D01*
X212070307Y-80222309D01*
X212174165Y-80295032D01*
X212174167Y-80295033D01*
X212174170Y-80295035D01*
X212388337Y-80394903D01*
X212388343Y-80394904D01*
X212388344Y-80394905D01*
X212443285Y-80409626D01*
X212616592Y-80456063D01*
X212787319Y-80471000D01*
X212851999Y-80476659D01*
X212852000Y-80476659D01*
X212852001Y-80476659D01*
X212916681Y-80471000D01*
X213087408Y-80456063D01*
X213315663Y-80394903D01*
X213529830Y-80295035D01*
X213723401Y-80159495D01*
X213890495Y-79992401D01*
X214020424Y-79806842D01*
X214075002Y-79763217D01*
X214144500Y-79756023D01*
X214206855Y-79787546D01*
X214223575Y-79806842D01*
X214353500Y-79992395D01*
X214353505Y-79992401D01*
X214520599Y-80159495D01*
X214610307Y-80222309D01*
X214714165Y-80295032D01*
X214714167Y-80295033D01*
X214714170Y-80295035D01*
X214928337Y-80394903D01*
X214928343Y-80394904D01*
X214928344Y-80394905D01*
X214983285Y-80409626D01*
X215156592Y-80456063D01*
X215327319Y-80471000D01*
X215391999Y-80476659D01*
X215392000Y-80476659D01*
X215392001Y-80476659D01*
X215456681Y-80471000D01*
X215627408Y-80456063D01*
X215855663Y-80394903D01*
X216069830Y-80295035D01*
X216263401Y-80159495D01*
X216430495Y-79992401D01*
X216560424Y-79806842D01*
X216615002Y-79763217D01*
X216684500Y-79756023D01*
X216746855Y-79787546D01*
X216763575Y-79806842D01*
X216893500Y-79992395D01*
X216893505Y-79992401D01*
X217060599Y-80159495D01*
X217150307Y-80222309D01*
X217254165Y-80295032D01*
X217254167Y-80295033D01*
X217254170Y-80295035D01*
X217468337Y-80394903D01*
X217468343Y-80394904D01*
X217468344Y-80394905D01*
X217523285Y-80409626D01*
X217696592Y-80456063D01*
X217867319Y-80471000D01*
X217931999Y-80476659D01*
X217932000Y-80476659D01*
X217932001Y-80476659D01*
X217996681Y-80471000D01*
X218167408Y-80456063D01*
X218395663Y-80394903D01*
X218609830Y-80295035D01*
X218803401Y-80159495D01*
X218925717Y-80037178D01*
X218987036Y-80003696D01*
X219056728Y-80008680D01*
X219112662Y-80050551D01*
X219129577Y-80081528D01*
X219178646Y-80213088D01*
X219178649Y-80213093D01*
X219264809Y-80328187D01*
X219264812Y-80328190D01*
X219379906Y-80414350D01*
X219379913Y-80414354D01*
X219514620Y-80464596D01*
X219514627Y-80464598D01*
X219574155Y-80470999D01*
X219574172Y-80471000D01*
X220222000Y-80471000D01*
X220222000Y-79556501D01*
X220329685Y-79605680D01*
X220436237Y-79621000D01*
X220507763Y-79621000D01*
X220614315Y-79605680D01*
X220722000Y-79556501D01*
X220722000Y-80471000D01*
X221369828Y-80471000D01*
X221369844Y-80470999D01*
X221429372Y-80464598D01*
X221429379Y-80464596D01*
X221564086Y-80414354D01*
X221564093Y-80414350D01*
X221679187Y-80328190D01*
X221679190Y-80328187D01*
X221765350Y-80213093D01*
X221765354Y-80213086D01*
X221815596Y-80078379D01*
X221815598Y-80078372D01*
X221821999Y-80018844D01*
X221822000Y-80018827D01*
X221822000Y-79371000D01*
X220905686Y-79371000D01*
X220931493Y-79330844D01*
X220972000Y-79192889D01*
X220972000Y-79049111D01*
X220931493Y-78911156D01*
X220905686Y-78871000D01*
X221822000Y-78871000D01*
X221822000Y-78223172D01*
X221821999Y-78223155D01*
X221815598Y-78163627D01*
X221815596Y-78163620D01*
X221765354Y-78028913D01*
X221765350Y-78028906D01*
X221679190Y-77913812D01*
X221679187Y-77913809D01*
X221564093Y-77827649D01*
X221564086Y-77827645D01*
X221429379Y-77777403D01*
X221429372Y-77777401D01*
X221369844Y-77771000D01*
X220722000Y-77771000D01*
X220722000Y-78685498D01*
X220614315Y-78636320D01*
X220507763Y-78621000D01*
X220436237Y-78621000D01*
X220329685Y-78636320D01*
X220222000Y-78685498D01*
X220222000Y-77771000D01*
X219574155Y-77771000D01*
X219514627Y-77777401D01*
X219514620Y-77777403D01*
X219379913Y-77827645D01*
X219379906Y-77827649D01*
X219264812Y-77913809D01*
X219264809Y-77913812D01*
X219178649Y-78028906D01*
X219178645Y-78028913D01*
X219129578Y-78160470D01*
X219087707Y-78216404D01*
X219022242Y-78240821D01*
X218953969Y-78225969D01*
X218925715Y-78204819D01*
X218881366Y-78160470D01*
X218803401Y-78082505D01*
X218803397Y-78082502D01*
X218803396Y-78082501D01*
X218609834Y-77946967D01*
X218609830Y-77946965D01*
X218538727Y-77913809D01*
X218395663Y-77847097D01*
X218395659Y-77847096D01*
X218395655Y-77847094D01*
X218167413Y-77785938D01*
X218167403Y-77785936D01*
X217932001Y-77765341D01*
X217931999Y-77765341D01*
X217696596Y-77785936D01*
X217696586Y-77785938D01*
X217468344Y-77847094D01*
X217468335Y-77847098D01*
X217254171Y-77946964D01*
X217254169Y-77946965D01*
X217060597Y-78082505D01*
X216893508Y-78249594D01*
X216763574Y-78435160D01*
X216708997Y-78478784D01*
X216639498Y-78485977D01*
X216577144Y-78454455D01*
X216560429Y-78435164D01*
X216430495Y-78249599D01*
X216430493Y-78249596D01*
X216263402Y-78082506D01*
X216263395Y-78082501D01*
X216069834Y-77946967D01*
X216069830Y-77946965D01*
X215998727Y-77913809D01*
X215855663Y-77847097D01*
X215855659Y-77847096D01*
X215855655Y-77847094D01*
X215627413Y-77785938D01*
X215627403Y-77785936D01*
X215392001Y-77765341D01*
X215391999Y-77765341D01*
X215156596Y-77785936D01*
X215156586Y-77785938D01*
X214928344Y-77847094D01*
X214928335Y-77847098D01*
X214714171Y-77946964D01*
X214714169Y-77946965D01*
X214520597Y-78082505D01*
X214353505Y-78249597D01*
X214223575Y-78435158D01*
X214168998Y-78478783D01*
X214099500Y-78485977D01*
X214037145Y-78454454D01*
X214020425Y-78435158D01*
X213890494Y-78249597D01*
X213723402Y-78082506D01*
X213723395Y-78082501D01*
X213529834Y-77946967D01*
X213529830Y-77946965D01*
X213458727Y-77913809D01*
X213315663Y-77847097D01*
X213315659Y-77847096D01*
X213315655Y-77847094D01*
X213087413Y-77785938D01*
X213087403Y-77785936D01*
X212852001Y-77765341D01*
X212851999Y-77765341D01*
X212616596Y-77785936D01*
X212616586Y-77785938D01*
X212388344Y-77847094D01*
X212388335Y-77847098D01*
X212174171Y-77946964D01*
X212174169Y-77946965D01*
X211980597Y-78082505D01*
X211813505Y-78249597D01*
X211683575Y-78435158D01*
X211628998Y-78478783D01*
X211559500Y-78485977D01*
X211497145Y-78454454D01*
X211480425Y-78435158D01*
X211350494Y-78249597D01*
X211183402Y-78082506D01*
X211183395Y-78082501D01*
X210989834Y-77946967D01*
X210989830Y-77946965D01*
X210918727Y-77913809D01*
X210775663Y-77847097D01*
X210775659Y-77847096D01*
X210775655Y-77847094D01*
X210547413Y-77785938D01*
X210547403Y-77785936D01*
X210312001Y-77765341D01*
X210311999Y-77765341D01*
X210076596Y-77785936D01*
X210076586Y-77785938D01*
X209848344Y-77847094D01*
X209848335Y-77847098D01*
X209634171Y-77946964D01*
X209634169Y-77946965D01*
X209440597Y-78082505D01*
X209273505Y-78249597D01*
X209143575Y-78435158D01*
X209088998Y-78478783D01*
X209019500Y-78485977D01*
X208957145Y-78454454D01*
X208940425Y-78435158D01*
X208810494Y-78249597D01*
X208643402Y-78082506D01*
X208643395Y-78082501D01*
X208449834Y-77946967D01*
X208449830Y-77946965D01*
X208378727Y-77913809D01*
X208235663Y-77847097D01*
X208235659Y-77847096D01*
X208235655Y-77847094D01*
X208007413Y-77785938D01*
X208007403Y-77785936D01*
X207772001Y-77765341D01*
X207771999Y-77765341D01*
X207536596Y-77785936D01*
X207536586Y-77785938D01*
X207308344Y-77847094D01*
X207308335Y-77847098D01*
X207094171Y-77946964D01*
X207094169Y-77946965D01*
X206900597Y-78082505D01*
X206733505Y-78249597D01*
X206603575Y-78435158D01*
X206548998Y-78478783D01*
X206479500Y-78485977D01*
X206417145Y-78454454D01*
X206400425Y-78435158D01*
X206270494Y-78249597D01*
X206103402Y-78082506D01*
X206103395Y-78082501D01*
X205909834Y-77946967D01*
X205909830Y-77946965D01*
X205838727Y-77913809D01*
X205695663Y-77847097D01*
X205695659Y-77847096D01*
X205695655Y-77847094D01*
X205467413Y-77785938D01*
X205467403Y-77785936D01*
X205232001Y-77765341D01*
X205231999Y-77765341D01*
X204996596Y-77785936D01*
X204996586Y-77785938D01*
X204768344Y-77847094D01*
X204768335Y-77847098D01*
X204554171Y-77946964D01*
X204554169Y-77946965D01*
X204360597Y-78082505D01*
X204193505Y-78249597D01*
X204063575Y-78435158D01*
X204008998Y-78478783D01*
X203939500Y-78485977D01*
X203877145Y-78454454D01*
X203860425Y-78435158D01*
X203730494Y-78249597D01*
X203563402Y-78082506D01*
X203563395Y-78082501D01*
X203369834Y-77946967D01*
X203369830Y-77946965D01*
X203298727Y-77913809D01*
X203155663Y-77847097D01*
X203155659Y-77847096D01*
X203155655Y-77847094D01*
X202927413Y-77785938D01*
X202927403Y-77785936D01*
X202692001Y-77765341D01*
X202691999Y-77765341D01*
X202456596Y-77785936D01*
X202456586Y-77785938D01*
X202228344Y-77847094D01*
X202228335Y-77847098D01*
X202014171Y-77946964D01*
X202014169Y-77946965D01*
X201820597Y-78082505D01*
X201653505Y-78249597D01*
X201523575Y-78435158D01*
X201468998Y-78478783D01*
X201399500Y-78485977D01*
X201337145Y-78454454D01*
X201320425Y-78435158D01*
X201190494Y-78249597D01*
X201023402Y-78082506D01*
X201023395Y-78082501D01*
X200829834Y-77946967D01*
X200829830Y-77946965D01*
X200758727Y-77913809D01*
X200615663Y-77847097D01*
X200615659Y-77847096D01*
X200615655Y-77847094D01*
X200387413Y-77785938D01*
X200387403Y-77785936D01*
X200152001Y-77765341D01*
X200151999Y-77765341D01*
X199916596Y-77785936D01*
X199916586Y-77785938D01*
X199688344Y-77847094D01*
X199688335Y-77847098D01*
X199474171Y-77946964D01*
X199474169Y-77946965D01*
X199280597Y-78082505D01*
X199113505Y-78249597D01*
X198983575Y-78435158D01*
X198928998Y-78478783D01*
X198859500Y-78485977D01*
X198797145Y-78454454D01*
X198780425Y-78435158D01*
X198650494Y-78249597D01*
X198483402Y-78082506D01*
X198483395Y-78082501D01*
X198289834Y-77946967D01*
X198289830Y-77946965D01*
X198218727Y-77913809D01*
X198075663Y-77847097D01*
X198075659Y-77847096D01*
X198075655Y-77847094D01*
X197847413Y-77785938D01*
X197847403Y-77785936D01*
X197612001Y-77765341D01*
X197611999Y-77765341D01*
X197376596Y-77785936D01*
X197376586Y-77785938D01*
X197148344Y-77847094D01*
X197148335Y-77847098D01*
X196934171Y-77946964D01*
X196934169Y-77946965D01*
X196740597Y-78082505D01*
X196573505Y-78249597D01*
X196443575Y-78435158D01*
X196388998Y-78478783D01*
X196319500Y-78485977D01*
X196257145Y-78454454D01*
X196240425Y-78435158D01*
X196110494Y-78249597D01*
X195943402Y-78082506D01*
X195943395Y-78082501D01*
X195749834Y-77946967D01*
X195749830Y-77946965D01*
X195678727Y-77913809D01*
X195535663Y-77847097D01*
X195535659Y-77847096D01*
X195535655Y-77847094D01*
X195307413Y-77785938D01*
X195307403Y-77785936D01*
X195072001Y-77765341D01*
X195071999Y-77765341D01*
X194836596Y-77785936D01*
X194836586Y-77785938D01*
X194608344Y-77847094D01*
X194608335Y-77847098D01*
X194394171Y-77946964D01*
X194394169Y-77946965D01*
X194200597Y-78082505D01*
X194033505Y-78249597D01*
X193897965Y-78443169D01*
X193897964Y-78443171D01*
X193798098Y-78657335D01*
X193798094Y-78657344D01*
X193736938Y-78885586D01*
X193736936Y-78885596D01*
X193716341Y-79120999D01*
X193716341Y-79121000D01*
X193736936Y-79356403D01*
X193736938Y-79356413D01*
X193798094Y-79584655D01*
X193798096Y-79584659D01*
X193798097Y-79584663D01*
X193818772Y-79629000D01*
X193897965Y-79798830D01*
X193897967Y-79798834D01*
X194006281Y-79953521D01*
X194033505Y-79992401D01*
X194200599Y-80159495D01*
X194290307Y-80222309D01*
X194394165Y-80295032D01*
X194394167Y-80295033D01*
X194394170Y-80295035D01*
X194608337Y-80394903D01*
X194608343Y-80394904D01*
X194608344Y-80394905D01*
X194663285Y-80409626D01*
X194836592Y-80456063D01*
X195007319Y-80471000D01*
X195071999Y-80476659D01*
X195072000Y-80476659D01*
X195072001Y-80476659D01*
X195136681Y-80471000D01*
X195307408Y-80456063D01*
X195535663Y-80394903D01*
X195749830Y-80295035D01*
X195943401Y-80159495D01*
X196110495Y-79992401D01*
X196240424Y-79806842D01*
X196295002Y-79763217D01*
X196364500Y-79756023D01*
X196426855Y-79787546D01*
X196443575Y-79806842D01*
X196573501Y-79992396D01*
X196573506Y-79992402D01*
X196740596Y-80159493D01*
X196779422Y-80186679D01*
X196823047Y-80241255D01*
X196830241Y-80310753D01*
X196815687Y-80350253D01*
X196784820Y-80403716D01*
X196732218Y-80565609D01*
X196726326Y-80583744D01*
X196706540Y-80772000D01*
X196726326Y-80960256D01*
X196726327Y-80960259D01*
X196784818Y-81140277D01*
X196784821Y-81140284D01*
X196879467Y-81304216D01*
X196927250Y-81357284D01*
X196957480Y-81420275D01*
X196959100Y-81440256D01*
X196959100Y-81448232D01*
X196957328Y-81464279D01*
X196957566Y-81464302D01*
X196956831Y-81472068D01*
X196959069Y-81543277D01*
X196959100Y-81545224D01*
X196959100Y-81575076D01*
X196960022Y-81582384D01*
X196960480Y-81588203D01*
X196962012Y-81636945D01*
X196962013Y-81636951D01*
X196967965Y-81657438D01*
X196971910Y-81676483D01*
X196974585Y-81697657D01*
X196974588Y-81697668D01*
X196992538Y-81743005D01*
X196994430Y-81748532D01*
X197008033Y-81795355D01*
X197008035Y-81795360D01*
X197018900Y-81813731D01*
X197027458Y-81831201D01*
X197035311Y-81851035D01*
X197035314Y-81851041D01*
X197063973Y-81890486D01*
X197067182Y-81895370D01*
X197092009Y-81937350D01*
X197107094Y-81952434D01*
X197119734Y-81967233D01*
X197132274Y-81984494D01*
X197169852Y-82015581D01*
X197174175Y-82019515D01*
X198359681Y-83205021D01*
X198369779Y-83217625D01*
X198369963Y-83217474D01*
X198374930Y-83223479D01*
X198426873Y-83272256D01*
X198428272Y-83273612D01*
X198449373Y-83294713D01*
X198455194Y-83299229D01*
X198459636Y-83303022D01*
X198495185Y-83336405D01*
X198495189Y-83336408D01*
X198513875Y-83346680D01*
X198530142Y-83357365D01*
X198547000Y-83370441D01*
X198547005Y-83370445D01*
X198591760Y-83389812D01*
X198597007Y-83392383D01*
X198615119Y-83402340D01*
X198639741Y-83415876D01*
X198659436Y-83420932D01*
X198660411Y-83421183D01*
X198678812Y-83427482D01*
X198698399Y-83435959D01*
X198732200Y-83441311D01*
X198746564Y-83443587D01*
X198752279Y-83444770D01*
X198799520Y-83456900D01*
X198820861Y-83456900D01*
X198840258Y-83458426D01*
X198861329Y-83461764D01*
X198909876Y-83457174D01*
X198915713Y-83456900D01*
X204333701Y-83456900D01*
X204400740Y-83476585D01*
X204446495Y-83529389D01*
X204456439Y-83598547D01*
X204441088Y-83642900D01*
X204404821Y-83705715D01*
X204404818Y-83705722D01*
X204346327Y-83885740D01*
X204346326Y-83885744D01*
X204326540Y-84074000D01*
X204346326Y-84262256D01*
X204346327Y-84262259D01*
X204404818Y-84442277D01*
X204404821Y-84442284D01*
X204499467Y-84606216D01*
X204547250Y-84659284D01*
X204577480Y-84722275D01*
X204579100Y-84742256D01*
X204579100Y-88758100D01*
X204559415Y-88825139D01*
X204506611Y-88870894D01*
X204455100Y-88882100D01*
X202452900Y-88882100D01*
X202385861Y-88862415D01*
X202340106Y-88809611D01*
X202328900Y-88758100D01*
X202328900Y-88223765D01*
X202330671Y-88207716D01*
X202330434Y-88207694D01*
X202331168Y-88199931D01*
X202328931Y-88128722D01*
X202328900Y-88126775D01*
X202328900Y-88096929D01*
X202328899Y-88096921D01*
X202327977Y-88089618D01*
X202327518Y-88083790D01*
X202325987Y-88035054D01*
X202325987Y-88035052D01*
X202320030Y-88014549D01*
X202316087Y-87995502D01*
X202313414Y-87974341D01*
X202313413Y-87974338D01*
X202295461Y-87928998D01*
X202293572Y-87923478D01*
X202288820Y-87907123D01*
X202279965Y-87876641D01*
X202269097Y-87858265D01*
X202260542Y-87840801D01*
X202252688Y-87820963D01*
X202224022Y-87781508D01*
X202220813Y-87776623D01*
X202209613Y-87757685D01*
X202195992Y-87734652D01*
X202180906Y-87719565D01*
X202168271Y-87704774D01*
X202155726Y-87687507D01*
X202155723Y-87687505D01*
X202155723Y-87687504D01*
X202155722Y-87687503D01*
X202118151Y-87656422D01*
X202113839Y-87652499D01*
X196102318Y-81640979D01*
X196092227Y-81628381D01*
X196092043Y-81628534D01*
X196087067Y-81622519D01*
X196050524Y-81588203D01*
X196035100Y-81573719D01*
X196033725Y-81572385D01*
X196012629Y-81551289D01*
X196012626Y-81551286D01*
X196006804Y-81546770D01*
X196002361Y-81542975D01*
X195966813Y-81509593D01*
X195948115Y-81499314D01*
X195931852Y-81488631D01*
X195914996Y-81475556D01*
X195914994Y-81475554D01*
X195888938Y-81464279D01*
X195870229Y-81456182D01*
X195865007Y-81453625D01*
X195822259Y-81430124D01*
X195822256Y-81430123D01*
X195801587Y-81424816D01*
X195783184Y-81418515D01*
X195763601Y-81410041D01*
X195763595Y-81410039D01*
X195715434Y-81402412D01*
X195709714Y-81401227D01*
X195701593Y-81399142D01*
X195662483Y-81389100D01*
X195662480Y-81389100D01*
X195641139Y-81389100D01*
X195621741Y-81387573D01*
X195613717Y-81386302D01*
X195600672Y-81384236D01*
X195600671Y-81384236D01*
X195552123Y-81388825D01*
X195546287Y-81389100D01*
X192218802Y-81389100D01*
X192151763Y-81369415D01*
X192131121Y-81352781D01*
X190418410Y-79640070D01*
X190384925Y-79578747D01*
X190382770Y-79565351D01*
X190380731Y-79545952D01*
X190369674Y-79440744D01*
X190311179Y-79260716D01*
X190216533Y-79096784D01*
X190089871Y-78956112D01*
X190089870Y-78956111D01*
X189936734Y-78844851D01*
X189936729Y-78844848D01*
X189763807Y-78767857D01*
X189763802Y-78767855D01*
X189618001Y-78736865D01*
X189578646Y-78728500D01*
X189389354Y-78728500D01*
X189356897Y-78735398D01*
X189204197Y-78767855D01*
X189204192Y-78767857D01*
X189031270Y-78844848D01*
X189031265Y-78844851D01*
X188878129Y-78956111D01*
X188751466Y-79096785D01*
X188656821Y-79260715D01*
X188656818Y-79260722D01*
X188620987Y-79371000D01*
X188598326Y-79440744D01*
X188578540Y-79629000D01*
X188598326Y-79817256D01*
X188598327Y-79817259D01*
X188656818Y-79997277D01*
X188656821Y-79997284D01*
X188751467Y-80161216D01*
X188869227Y-80292001D01*
X188878129Y-80301888D01*
X189031265Y-80413148D01*
X189031270Y-80413151D01*
X189204192Y-80490142D01*
X189204197Y-80490144D01*
X189389354Y-80529500D01*
X189409798Y-80529500D01*
X189476837Y-80549185D01*
X189497479Y-80565819D01*
X191374681Y-82443021D01*
X191384779Y-82455625D01*
X191384963Y-82455474D01*
X191389930Y-82461479D01*
X191441873Y-82510256D01*
X191443272Y-82511612D01*
X191464373Y-82532713D01*
X191470194Y-82537229D01*
X191474636Y-82541022D01*
X191510185Y-82574405D01*
X191510189Y-82574408D01*
X191528875Y-82584680D01*
X191545142Y-82595365D01*
X191562000Y-82608441D01*
X191562005Y-82608445D01*
X191606760Y-82627812D01*
X191612007Y-82630383D01*
X191644952Y-82648494D01*
X191654741Y-82653876D01*
X191674436Y-82658932D01*
X191675411Y-82659183D01*
X191693812Y-82665482D01*
X191713399Y-82673959D01*
X191747200Y-82679311D01*
X191761564Y-82681587D01*
X191767279Y-82682770D01*
X191814520Y-82694900D01*
X191835861Y-82694900D01*
X191855258Y-82696426D01*
X191876329Y-82699764D01*
X191924876Y-82695174D01*
X191930713Y-82694900D01*
X195258198Y-82694900D01*
X195325237Y-82714585D01*
X195345879Y-82731218D01*
X200986782Y-88372122D01*
X201020266Y-88433443D01*
X201023100Y-88459801D01*
X201023100Y-88758100D01*
X201003415Y-88825139D01*
X200950611Y-88870894D01*
X200899100Y-88882100D01*
X200854802Y-88882100D01*
X200787763Y-88862415D01*
X200767121Y-88845781D01*
X200039319Y-88117979D01*
X200029227Y-88105381D01*
X200029043Y-88105534D01*
X200024067Y-88099519D01*
X200021300Y-88096921D01*
X199972100Y-88050719D01*
X199970725Y-88049385D01*
X199949629Y-88028289D01*
X199949626Y-88028286D01*
X199943804Y-88023770D01*
X199939361Y-88019975D01*
X199903813Y-87986593D01*
X199885115Y-87976314D01*
X199868852Y-87965631D01*
X199851996Y-87952556D01*
X199851994Y-87952554D01*
X199828300Y-87942301D01*
X199807229Y-87933182D01*
X199802007Y-87930625D01*
X199759259Y-87907124D01*
X199759256Y-87907123D01*
X199738587Y-87901816D01*
X199720184Y-87895515D01*
X199700601Y-87887041D01*
X199700595Y-87887039D01*
X199652434Y-87879412D01*
X199646714Y-87878227D01*
X199634015Y-87874967D01*
X199599483Y-87866100D01*
X199599480Y-87866100D01*
X199578139Y-87866100D01*
X199558741Y-87864573D01*
X199550717Y-87863302D01*
X199537672Y-87861236D01*
X199537671Y-87861236D01*
X199489123Y-87865825D01*
X199483287Y-87866100D01*
X186648768Y-87866100D01*
X186632720Y-87864328D01*
X186632698Y-87864566D01*
X186624931Y-87863831D01*
X186553722Y-87866069D01*
X186551775Y-87866100D01*
X186521922Y-87866100D01*
X186514615Y-87867022D01*
X186508796Y-87867480D01*
X186460051Y-87869012D01*
X186460050Y-87869013D01*
X186439552Y-87874967D01*
X186420514Y-87878909D01*
X186399349Y-87881584D01*
X186399342Y-87881585D01*
X186399340Y-87881586D01*
X186399338Y-87881586D01*
X186399337Y-87881587D01*
X186353999Y-87899536D01*
X186348473Y-87901428D01*
X186301639Y-87915035D01*
X186301637Y-87915036D01*
X186283266Y-87925900D01*
X186265804Y-87934455D01*
X186245966Y-87942310D01*
X186245965Y-87942311D01*
X186245964Y-87942311D01*
X186245963Y-87942312D01*
X186240295Y-87946430D01*
X186206510Y-87970974D01*
X186201630Y-87974180D01*
X186159649Y-87999009D01*
X186144560Y-88014098D01*
X186129772Y-88026729D01*
X186112508Y-88039273D01*
X186112503Y-88039277D01*
X186081422Y-88076847D01*
X186077490Y-88081169D01*
X185634680Y-88523978D01*
X185573357Y-88557463D01*
X185503665Y-88552479D01*
X185459318Y-88523978D01*
X184761619Y-87826279D01*
X184751527Y-87813681D01*
X184751343Y-87813834D01*
X184746367Y-87807819D01*
X184745190Y-87806714D01*
X184694400Y-87759019D01*
X184693025Y-87757685D01*
X184671929Y-87736589D01*
X184671926Y-87736586D01*
X184666104Y-87732070D01*
X184661661Y-87728275D01*
X184626113Y-87694893D01*
X184607415Y-87684614D01*
X184591152Y-87673931D01*
X184574296Y-87660856D01*
X184574294Y-87660854D01*
X184550600Y-87650601D01*
X184529529Y-87641482D01*
X184524307Y-87638925D01*
X184481559Y-87615424D01*
X184481556Y-87615423D01*
X184460887Y-87610116D01*
X184442484Y-87603815D01*
X184422901Y-87595341D01*
X184422895Y-87595339D01*
X184374734Y-87587712D01*
X184369014Y-87586527D01*
X184360893Y-87584442D01*
X184321783Y-87574400D01*
X184321780Y-87574400D01*
X184300439Y-87574400D01*
X184281041Y-87572873D01*
X184273017Y-87571602D01*
X184259972Y-87569536D01*
X184259971Y-87569536D01*
X184211423Y-87574125D01*
X184205587Y-87574400D01*
X183299672Y-87574400D01*
X183232633Y-87554715D01*
X183226787Y-87550718D01*
X183078734Y-87443151D01*
X183078729Y-87443148D01*
X182905807Y-87366157D01*
X182905802Y-87366155D01*
X182760000Y-87335165D01*
X182720646Y-87326800D01*
X182531354Y-87326800D01*
X182498897Y-87333698D01*
X182346197Y-87366155D01*
X182346192Y-87366157D01*
X182173270Y-87443148D01*
X182173265Y-87443151D01*
X182020129Y-87554411D01*
X181893466Y-87695085D01*
X181798821Y-87859015D01*
X181798818Y-87859022D01*
X181741623Y-88035052D01*
X181740326Y-88039044D01*
X181730901Y-88128722D01*
X181720912Y-88223765D01*
X181720540Y-88227300D01*
X181740326Y-88415556D01*
X181740327Y-88415559D01*
X181798818Y-88595577D01*
X181798821Y-88595584D01*
X181893467Y-88759516D01*
X182009996Y-88888934D01*
X182020129Y-88900188D01*
X182173265Y-89011448D01*
X182173270Y-89011451D01*
X182346192Y-89088442D01*
X182346197Y-89088444D01*
X182531354Y-89127800D01*
X182531355Y-89127800D01*
X182720644Y-89127800D01*
X182720646Y-89127800D01*
X182905803Y-89088444D01*
X183078730Y-89011451D01*
X183116638Y-88983909D01*
X183226787Y-88903882D01*
X183292593Y-88880402D01*
X183299672Y-88880200D01*
X183917498Y-88880200D01*
X183984537Y-88899885D01*
X184005179Y-88916519D01*
X185009566Y-89920905D01*
X185009567Y-89920907D01*
X185033400Y-89944740D01*
X185048274Y-89962718D01*
X185053360Y-89970202D01*
X185053361Y-89970203D01*
X185053362Y-89970204D01*
X185098373Y-90009886D01*
X185101197Y-90012537D01*
X185810996Y-90722336D01*
X186517589Y-91428929D01*
X186551074Y-91490252D01*
X186553229Y-91503648D01*
X186566326Y-91628257D01*
X186566327Y-91628260D01*
X186624818Y-91808277D01*
X186624821Y-91808284D01*
X186719467Y-91972216D01*
X186845856Y-92112585D01*
X186846129Y-92112888D01*
X186999265Y-92224148D01*
X186999270Y-92224151D01*
X187172192Y-92301142D01*
X187172197Y-92301144D01*
X187357354Y-92340500D01*
X187357355Y-92340500D01*
X187546644Y-92340500D01*
X187546646Y-92340500D01*
X187731803Y-92301144D01*
X187904730Y-92224151D01*
X188057871Y-92112888D01*
X188184533Y-91972216D01*
X188279179Y-91808284D01*
X188337674Y-91628256D01*
X188357460Y-91440000D01*
X188337674Y-91251744D01*
X188279179Y-91071716D01*
X188184533Y-90907784D01*
X188057871Y-90767112D01*
X188057870Y-90767111D01*
X187904734Y-90655851D01*
X187904729Y-90655848D01*
X187731807Y-90578857D01*
X187731802Y-90578855D01*
X187582387Y-90547097D01*
X187546646Y-90539500D01*
X187546645Y-90539500D01*
X187526202Y-90539500D01*
X187459163Y-90519815D01*
X187438521Y-90503181D01*
X186558021Y-89622681D01*
X186524536Y-89561358D01*
X186529520Y-89491666D01*
X186558021Y-89447319D01*
X186797121Y-89208219D01*
X186858444Y-89174734D01*
X186884802Y-89171900D01*
X199195198Y-89171900D01*
X199262237Y-89191585D01*
X199282879Y-89208219D01*
X200010681Y-89936021D01*
X200020779Y-89948625D01*
X200020963Y-89948474D01*
X200025930Y-89954479D01*
X200077873Y-90003256D01*
X200079272Y-90004612D01*
X200100373Y-90025713D01*
X200106194Y-90030229D01*
X200110636Y-90034022D01*
X200146185Y-90067405D01*
X200146189Y-90067408D01*
X200164875Y-90077680D01*
X200181142Y-90088365D01*
X200198000Y-90101441D01*
X200198005Y-90101445D01*
X200242760Y-90120812D01*
X200248007Y-90123383D01*
X200280952Y-90141494D01*
X200290741Y-90146876D01*
X200310436Y-90151932D01*
X200311411Y-90152183D01*
X200329812Y-90158482D01*
X200349399Y-90166959D01*
X200383200Y-90172311D01*
X200397564Y-90174587D01*
X200403279Y-90175770D01*
X200450520Y-90187900D01*
X200471861Y-90187900D01*
X200491258Y-90189426D01*
X200512329Y-90192764D01*
X200560876Y-90188174D01*
X200566713Y-90187900D01*
X201602565Y-90187900D01*
X201625797Y-90190095D01*
X201634678Y-90191790D01*
X201694579Y-90188021D01*
X201698452Y-90187900D01*
X205149520Y-90187900D01*
X205158565Y-90187900D01*
X205181797Y-90190095D01*
X205190678Y-90191790D01*
X205250579Y-90188021D01*
X205254452Y-90187900D01*
X215070198Y-90187900D01*
X215137237Y-90207585D01*
X215157879Y-90224219D01*
X215346160Y-90412500D01*
X215504277Y-90570616D01*
X215537762Y-90631939D01*
X215532778Y-90701630D01*
X215490907Y-90757564D01*
X215425442Y-90781981D01*
X215412717Y-90782236D01*
X215412683Y-90782234D01*
X215367978Y-90786460D01*
X215364123Y-90786825D01*
X215358287Y-90787100D01*
X207095768Y-90787100D01*
X207079720Y-90785328D01*
X207079698Y-90785566D01*
X207071931Y-90784831D01*
X207000722Y-90787069D01*
X206998775Y-90787100D01*
X206968922Y-90787100D01*
X206961615Y-90788022D01*
X206955796Y-90788480D01*
X206907051Y-90790012D01*
X206907050Y-90790013D01*
X206886552Y-90795967D01*
X206867514Y-90799909D01*
X206846349Y-90802584D01*
X206846342Y-90802585D01*
X206846340Y-90802586D01*
X206846338Y-90802586D01*
X206846337Y-90802587D01*
X206800999Y-90820536D01*
X206795473Y-90822428D01*
X206748639Y-90836035D01*
X206748637Y-90836036D01*
X206730266Y-90846900D01*
X206712804Y-90855455D01*
X206692966Y-90863310D01*
X206692965Y-90863311D01*
X206692964Y-90863311D01*
X206692963Y-90863312D01*
X206684881Y-90869183D01*
X206653510Y-90891974D01*
X206648630Y-90895180D01*
X206606649Y-90920009D01*
X206591560Y-90935098D01*
X206576772Y-90947729D01*
X206559508Y-90960273D01*
X206559503Y-90960277D01*
X206528422Y-90997847D01*
X206524489Y-91002169D01*
X203152938Y-94373722D01*
X199784479Y-97742181D01*
X199723156Y-97775666D01*
X199696798Y-97778500D01*
X199676354Y-97778500D01*
X199649608Y-97784185D01*
X199491197Y-97817855D01*
X199491192Y-97817857D01*
X199318270Y-97894848D01*
X199318265Y-97894851D01*
X199165129Y-98006111D01*
X199038466Y-98146785D01*
X198943821Y-98310715D01*
X198943818Y-98310722D01*
X198886807Y-98486186D01*
X198885326Y-98490744D01*
X198865540Y-98679000D01*
X198885326Y-98867256D01*
X198885327Y-98867259D01*
X198943818Y-99047277D01*
X198943821Y-99047284D01*
X199038467Y-99211216D01*
X199125241Y-99307588D01*
X199165129Y-99351888D01*
X199318265Y-99463148D01*
X199318270Y-99463151D01*
X199491192Y-99540142D01*
X199491197Y-99540144D01*
X199676354Y-99579500D01*
X199676355Y-99579500D01*
X199806797Y-99579500D01*
X199873836Y-99599185D01*
X199919591Y-99651989D01*
X199929535Y-99721147D01*
X199900510Y-99784703D01*
X199894478Y-99791181D01*
X199028879Y-100656781D01*
X198967556Y-100690266D01*
X198941198Y-100693100D01*
X193562900Y-100693100D01*
X193495861Y-100673415D01*
X193450106Y-100620611D01*
X193438900Y-100569100D01*
X193438900Y-98553225D01*
X193458585Y-98486186D01*
X193511389Y-98440431D01*
X193537114Y-98431936D01*
X193700803Y-98397144D01*
X193873730Y-98320151D01*
X194026871Y-98208888D01*
X194153533Y-98068216D01*
X194248179Y-97904284D01*
X194306674Y-97724256D01*
X194326460Y-97536000D01*
X194306674Y-97347744D01*
X194248179Y-97167716D01*
X194153533Y-97003784D01*
X194026871Y-96863112D01*
X194024113Y-96861108D01*
X193873734Y-96751851D01*
X193873729Y-96751848D01*
X193700807Y-96674857D01*
X193700802Y-96674855D01*
X193555000Y-96643865D01*
X193515646Y-96635500D01*
X193326354Y-96635500D01*
X193293897Y-96642398D01*
X193141197Y-96674855D01*
X193141192Y-96674857D01*
X192968270Y-96751848D01*
X192968265Y-96751851D01*
X192815129Y-96863111D01*
X192688466Y-97003785D01*
X192593821Y-97167715D01*
X192593818Y-97167722D01*
X192535327Y-97347739D01*
X192535327Y-97347740D01*
X192535326Y-97347744D01*
X192524948Y-97446486D01*
X192522229Y-97472351D01*
X192495644Y-97536965D01*
X192486589Y-97547069D01*
X192384976Y-97648682D01*
X192372378Y-97658776D01*
X192372530Y-97658960D01*
X192366518Y-97663933D01*
X192317741Y-97715874D01*
X192316388Y-97717270D01*
X192295287Y-97738371D01*
X192295281Y-97738378D01*
X192290768Y-97744196D01*
X192286977Y-97748635D01*
X192256293Y-97781311D01*
X192196052Y-97816706D01*
X192126238Y-97813914D01*
X192069017Y-97773821D01*
X192042555Y-97709156D01*
X192041900Y-97696428D01*
X192041900Y-91981256D01*
X192061585Y-91914217D01*
X192073750Y-91898284D01*
X192076281Y-91895473D01*
X192121533Y-91845216D01*
X192216179Y-91681284D01*
X192274674Y-91501256D01*
X192294460Y-91313000D01*
X192274674Y-91124744D01*
X192216179Y-90944716D01*
X192121533Y-90780784D01*
X191994871Y-90640112D01*
X191983622Y-90631939D01*
X191841734Y-90528851D01*
X191841729Y-90528848D01*
X191668807Y-90451857D01*
X191668802Y-90451855D01*
X191523001Y-90420865D01*
X191483646Y-90412500D01*
X191294354Y-90412500D01*
X191261897Y-90419398D01*
X191109197Y-90451855D01*
X191109192Y-90451857D01*
X190936270Y-90528848D01*
X190936265Y-90528851D01*
X190783129Y-90640111D01*
X190656466Y-90780785D01*
X190561821Y-90944715D01*
X190561818Y-90944722D01*
X190503327Y-91124740D01*
X190503326Y-91124744D01*
X190494585Y-91207913D01*
X190484029Y-91308352D01*
X190483540Y-91313000D01*
X190503326Y-91501256D01*
X190503327Y-91501259D01*
X190561818Y-91681277D01*
X190561821Y-91681284D01*
X190656467Y-91845216D01*
X190701719Y-91895473D01*
X190704250Y-91898284D01*
X190734480Y-91961275D01*
X190736100Y-91981256D01*
X190736100Y-102254716D01*
X190716415Y-102321755D01*
X190663611Y-102367510D01*
X190594453Y-102377454D01*
X190530897Y-102348429D01*
X190494169Y-102293034D01*
X190438181Y-102120722D01*
X190438180Y-102120721D01*
X190438179Y-102120716D01*
X190343533Y-101956784D01*
X190216871Y-101816112D01*
X190178386Y-101788151D01*
X190063734Y-101704851D01*
X190063729Y-101704848D01*
X189890807Y-101627857D01*
X189890802Y-101627855D01*
X189745000Y-101596865D01*
X189705646Y-101588500D01*
X189516354Y-101588500D01*
X189483897Y-101595398D01*
X189331197Y-101627855D01*
X189331192Y-101627857D01*
X189158270Y-101704848D01*
X189158265Y-101704851D01*
X189010213Y-101812418D01*
X188944407Y-101835898D01*
X188937328Y-101836100D01*
X183600768Y-101836100D01*
X183584720Y-101834328D01*
X183584698Y-101834566D01*
X183576931Y-101833831D01*
X183505722Y-101836069D01*
X183503775Y-101836100D01*
X183473922Y-101836100D01*
X183466615Y-101837022D01*
X183460796Y-101837480D01*
X183412051Y-101839012D01*
X183412050Y-101839013D01*
X183391552Y-101844967D01*
X183372514Y-101848909D01*
X183351349Y-101851584D01*
X183351342Y-101851585D01*
X183351340Y-101851586D01*
X183351338Y-101851586D01*
X183351337Y-101851587D01*
X183305999Y-101869536D01*
X183300473Y-101871428D01*
X183253639Y-101885035D01*
X183253637Y-101885036D01*
X183235266Y-101895900D01*
X183217804Y-101904455D01*
X183197966Y-101912310D01*
X183197965Y-101912311D01*
X183197964Y-101912311D01*
X183197963Y-101912312D01*
X183189881Y-101918183D01*
X183158510Y-101940974D01*
X183153630Y-101944180D01*
X183111649Y-101969009D01*
X183096560Y-101984098D01*
X183081772Y-101996729D01*
X183064508Y-102009273D01*
X183064503Y-102009277D01*
X183033422Y-102046847D01*
X183029490Y-102051169D01*
X181375879Y-103704781D01*
X181314556Y-103738266D01*
X181288198Y-103741100D01*
X179526172Y-103741100D01*
X179459133Y-103721415D01*
X179453287Y-103717418D01*
X179305234Y-103609851D01*
X179305229Y-103609848D01*
X179132307Y-103532857D01*
X179132302Y-103532855D01*
X178986501Y-103501865D01*
X178947146Y-103493500D01*
X178757854Y-103493500D01*
X178725397Y-103500398D01*
X178572697Y-103532855D01*
X178572692Y-103532857D01*
X178399770Y-103609848D01*
X178399765Y-103609851D01*
X178246629Y-103721111D01*
X178119966Y-103861785D01*
X178025321Y-104025715D01*
X178025318Y-104025722D01*
X177966827Y-104205740D01*
X177966826Y-104205744D01*
X177947040Y-104394000D01*
X176403500Y-104394000D01*
X176403500Y-99273000D01*
X177025529Y-99273000D01*
X177088685Y-99443527D01*
X177088687Y-99443531D01*
X177190892Y-99607503D01*
X177324002Y-99747534D01*
X177324003Y-99747535D01*
X177482586Y-99857913D01*
X177660137Y-99934106D01*
X177849394Y-99973000D01*
X178095999Y-99973000D01*
X178096000Y-99323000D01*
X178596000Y-99323000D01*
X178596000Y-99973000D01*
X178794176Y-99973000D01*
X178938221Y-99958352D01*
X179122561Y-99900515D01*
X179122571Y-99900510D01*
X179291498Y-99806748D01*
X179291505Y-99806743D01*
X179438105Y-99680892D01*
X179556368Y-99528109D01*
X179556370Y-99528105D01*
X179641457Y-99354643D01*
X179662596Y-99273000D01*
X178912111Y-99273000D01*
X178951610Y-99248543D01*
X179019201Y-99159038D01*
X179049895Y-99051160D01*
X179039546Y-98939479D01*
X178989552Y-98839078D01*
X178917069Y-98773000D01*
X179666471Y-98773000D01*
X179603314Y-98602472D01*
X179603312Y-98602468D01*
X179501107Y-98438496D01*
X179367997Y-98298465D01*
X179367996Y-98298464D01*
X179209413Y-98188086D01*
X179031862Y-98111893D01*
X178842606Y-98073000D01*
X178596000Y-98073000D01*
X178596000Y-98723000D01*
X178095999Y-98723000D01*
X178096000Y-98073000D01*
X177897824Y-98073000D01*
X177753778Y-98087647D01*
X177569438Y-98145484D01*
X177569428Y-98145489D01*
X177400501Y-98239251D01*
X177400494Y-98239256D01*
X177253894Y-98365107D01*
X177135631Y-98517890D01*
X177135629Y-98517894D01*
X177050542Y-98691356D01*
X177029404Y-98773000D01*
X177779889Y-98773000D01*
X177740390Y-98797457D01*
X177672799Y-98886962D01*
X177642105Y-98994840D01*
X177652454Y-99106521D01*
X177702448Y-99206922D01*
X177774931Y-99273000D01*
X177025529Y-99273000D01*
X176403500Y-99273000D01*
X176403500Y-93324328D01*
X178666236Y-93324328D01*
X178670825Y-93372875D01*
X178671100Y-93378713D01*
X178671100Y-96053232D01*
X178669328Y-96069279D01*
X178669566Y-96069302D01*
X178668831Y-96077068D01*
X178671069Y-96148277D01*
X178671100Y-96150224D01*
X178671100Y-96180076D01*
X178672022Y-96187384D01*
X178672480Y-96193203D01*
X178674012Y-96241945D01*
X178674013Y-96241951D01*
X178679965Y-96262438D01*
X178683910Y-96281483D01*
X178686585Y-96302657D01*
X178686588Y-96302668D01*
X178704538Y-96348005D01*
X178706430Y-96353532D01*
X178720033Y-96400355D01*
X178720035Y-96400360D01*
X178730900Y-96418731D01*
X178739457Y-96436199D01*
X178742373Y-96443564D01*
X178747311Y-96456035D01*
X178747314Y-96456041D01*
X178775973Y-96495486D01*
X178779182Y-96500370D01*
X178804009Y-96542350D01*
X178819094Y-96557434D01*
X178831734Y-96572233D01*
X178844274Y-96589494D01*
X178881852Y-96620581D01*
X178886175Y-96624515D01*
X179485681Y-97224021D01*
X179495779Y-97236625D01*
X179495963Y-97236474D01*
X179500930Y-97242479D01*
X179552873Y-97291256D01*
X179554272Y-97292612D01*
X179575373Y-97313713D01*
X179581194Y-97318229D01*
X179585636Y-97322022D01*
X179621185Y-97355405D01*
X179621189Y-97355408D01*
X179639875Y-97365680D01*
X179656142Y-97376365D01*
X179673000Y-97389441D01*
X179673005Y-97389445D01*
X179717760Y-97408812D01*
X179723007Y-97411383D01*
X179739591Y-97420500D01*
X179765741Y-97434876D01*
X179785095Y-97439845D01*
X179786411Y-97440183D01*
X179804812Y-97446482D01*
X179824399Y-97454959D01*
X179858200Y-97460311D01*
X179872564Y-97462587D01*
X179878279Y-97463770D01*
X179925520Y-97475900D01*
X179946861Y-97475900D01*
X179966258Y-97477426D01*
X179987329Y-97480764D01*
X180035876Y-97476174D01*
X180041713Y-97475900D01*
X180409456Y-97475900D01*
X180476495Y-97495585D01*
X180522250Y-97548389D01*
X180532777Y-97612861D01*
X180526456Y-97672999D01*
X180544584Y-97845473D01*
X180544585Y-97845476D01*
X180598173Y-98010404D01*
X180600461Y-98015543D01*
X180609741Y-98084794D01*
X180580109Y-98148069D01*
X180547356Y-98174390D01*
X180430508Y-98239246D01*
X180430494Y-98239256D01*
X180283894Y-98365107D01*
X180165631Y-98517890D01*
X180165629Y-98517894D01*
X180080542Y-98691356D01*
X180059404Y-98773000D01*
X180809889Y-98773000D01*
X180770390Y-98797457D01*
X180702799Y-98886962D01*
X180672105Y-98994840D01*
X180682454Y-99106521D01*
X180732448Y-99206922D01*
X180804931Y-99273000D01*
X180055529Y-99273000D01*
X180118685Y-99443527D01*
X180118687Y-99443531D01*
X180220892Y-99607503D01*
X180354002Y-99747534D01*
X180354003Y-99747535D01*
X180512586Y-99857913D01*
X180690137Y-99934106D01*
X180879394Y-99973000D01*
X181476000Y-99973000D01*
X181476000Y-99323000D01*
X181976000Y-99323000D01*
X181976000Y-99973000D01*
X182524176Y-99973000D01*
X182668221Y-99958352D01*
X182852561Y-99900515D01*
X182852571Y-99900510D01*
X183021498Y-99806748D01*
X183021505Y-99806743D01*
X183168105Y-99680892D01*
X183286368Y-99528109D01*
X183286370Y-99528105D01*
X183371457Y-99354643D01*
X183392596Y-99273000D01*
X182642111Y-99273000D01*
X182681610Y-99248543D01*
X182749201Y-99159038D01*
X182779895Y-99051160D01*
X182769546Y-98939479D01*
X182719552Y-98839078D01*
X182647069Y-98773000D01*
X183396471Y-98773000D01*
X183333314Y-98602472D01*
X183333312Y-98602468D01*
X183231109Y-98438499D01*
X183198304Y-98403988D01*
X183173727Y-98403677D01*
X183167228Y-98407227D01*
X183097536Y-98402243D01*
X183053189Y-98373742D01*
X182539628Y-97860181D01*
X182506143Y-97798858D01*
X182511118Y-97729278D01*
X182545613Y-97800905D01*
X182616992Y-97857827D01*
X182683468Y-97873000D01*
X182728532Y-97873000D01*
X182795008Y-97857827D01*
X182866387Y-97800905D01*
X182906000Y-97718649D01*
X182906000Y-97627351D01*
X182904724Y-97624702D01*
X182926727Y-97620026D01*
X182996394Y-97625342D01*
X183040188Y-97653635D01*
X183439349Y-98052796D01*
X183443570Y-98045486D01*
X183494138Y-97997271D01*
X183562745Y-97984049D01*
X183627610Y-98010017D01*
X183658344Y-98045487D01*
X183671466Y-98068214D01*
X183671465Y-98068214D01*
X183798129Y-98208888D01*
X183951265Y-98320148D01*
X183951270Y-98320151D01*
X184124192Y-98397142D01*
X184124197Y-98397144D01*
X184309354Y-98436500D01*
X184309355Y-98436500D01*
X184498644Y-98436500D01*
X184498646Y-98436500D01*
X184683803Y-98397144D01*
X184856730Y-98320151D01*
X185009871Y-98208888D01*
X185136533Y-98068216D01*
X185231179Y-97904284D01*
X185289674Y-97724256D01*
X185302770Y-97599646D01*
X185329355Y-97535034D01*
X185338410Y-97524929D01*
X185654121Y-97209219D01*
X185715444Y-97175734D01*
X185741802Y-97172900D01*
X187667328Y-97172900D01*
X187734367Y-97192585D01*
X187740213Y-97196582D01*
X187888265Y-97304148D01*
X187888270Y-97304151D01*
X188061192Y-97381142D01*
X188061197Y-97381144D01*
X188246354Y-97420500D01*
X188246355Y-97420500D01*
X188435644Y-97420500D01*
X188435646Y-97420500D01*
X188620803Y-97381144D01*
X188793730Y-97304151D01*
X188946871Y-97192888D01*
X189073533Y-97052216D01*
X189168179Y-96888284D01*
X189226674Y-96708256D01*
X189246460Y-96520000D01*
X189226674Y-96331744D01*
X189168179Y-96151716D01*
X189073533Y-95987784D01*
X188946871Y-95847112D01*
X188946870Y-95847111D01*
X188793734Y-95735851D01*
X188793729Y-95735848D01*
X188620807Y-95658857D01*
X188620802Y-95658855D01*
X188475001Y-95627865D01*
X188435646Y-95619500D01*
X188246354Y-95619500D01*
X188213897Y-95626398D01*
X188061197Y-95658855D01*
X188061192Y-95658857D01*
X187888270Y-95735848D01*
X187888265Y-95735851D01*
X187740213Y-95843418D01*
X187674407Y-95866898D01*
X187667328Y-95867100D01*
X185505768Y-95867100D01*
X185489720Y-95865328D01*
X185489698Y-95865566D01*
X185481931Y-95864831D01*
X185410722Y-95867069D01*
X185408775Y-95867100D01*
X185378922Y-95867100D01*
X185371615Y-95868022D01*
X185365796Y-95868480D01*
X185317051Y-95870012D01*
X185317050Y-95870013D01*
X185296552Y-95875967D01*
X185277514Y-95879909D01*
X185256349Y-95882584D01*
X185256342Y-95882585D01*
X185256340Y-95882586D01*
X185256338Y-95882586D01*
X185256337Y-95882587D01*
X185210999Y-95900536D01*
X185205473Y-95902428D01*
X185158639Y-95916035D01*
X185158637Y-95916036D01*
X185140266Y-95926900D01*
X185122804Y-95935455D01*
X185102966Y-95943310D01*
X185102965Y-95943311D01*
X185102964Y-95943311D01*
X185102963Y-95943312D01*
X185094881Y-95949183D01*
X185063510Y-95971974D01*
X185058630Y-95975180D01*
X185016649Y-96000009D01*
X185001560Y-96015098D01*
X184986772Y-96027729D01*
X184969508Y-96040273D01*
X184969503Y-96040277D01*
X184938422Y-96077847D01*
X184934490Y-96082168D01*
X184417479Y-96599181D01*
X184356156Y-96632666D01*
X184329798Y-96635500D01*
X184309354Y-96635500D01*
X184276897Y-96642398D01*
X184124197Y-96674855D01*
X184124192Y-96674857D01*
X183951270Y-96751848D01*
X183951265Y-96751851D01*
X183798132Y-96863109D01*
X183798129Y-96863111D01*
X183798129Y-96863112D01*
X183751998Y-96914344D01*
X183692513Y-96950992D01*
X183622656Y-96949661D01*
X183564608Y-96910774D01*
X183536798Y-96846678D01*
X183536636Y-96829499D01*
X183536047Y-96829499D01*
X183536046Y-96823009D01*
X183536047Y-96823000D01*
X183517908Y-96650424D01*
X183464286Y-96485389D01*
X183449625Y-96459996D01*
X183433154Y-96392098D01*
X183449627Y-96335998D01*
X183464286Y-96310611D01*
X183517908Y-96145576D01*
X183536047Y-95973000D01*
X183517908Y-95800424D01*
X183464286Y-95635389D01*
X183449625Y-95609996D01*
X183433154Y-95542098D01*
X183449627Y-95485998D01*
X183464286Y-95460611D01*
X183517908Y-95295576D01*
X183536047Y-95123000D01*
X183517908Y-94950424D01*
X183464286Y-94785389D01*
X183449627Y-94760000D01*
X183433154Y-94692103D01*
X183449627Y-94635999D01*
X183464286Y-94610611D01*
X183517908Y-94445576D01*
X183536047Y-94273000D01*
X183517908Y-94100424D01*
X183464286Y-93935389D01*
X183449627Y-93910000D01*
X183433154Y-93842103D01*
X183449627Y-93785999D01*
X183464286Y-93760611D01*
X183517908Y-93595576D01*
X183536047Y-93423000D01*
X183517908Y-93250424D01*
X183464286Y-93085389D01*
X183463998Y-93084891D01*
X183449630Y-93060005D01*
X183449627Y-93060000D01*
X183433154Y-92992103D01*
X183449627Y-92935999D01*
X183464286Y-92910611D01*
X183517908Y-92745576D01*
X183536047Y-92573000D01*
X183517908Y-92400424D01*
X183464286Y-92235389D01*
X183449337Y-92209498D01*
X183432865Y-92141599D01*
X183449339Y-92085497D01*
X183463826Y-92060404D01*
X183517414Y-91895476D01*
X183517415Y-91895473D01*
X183535543Y-91722999D01*
X183517415Y-91550526D01*
X183517414Y-91550523D01*
X183463826Y-91385595D01*
X183439349Y-91343202D01*
X183040187Y-91742364D01*
X182978864Y-91775849D01*
X182926726Y-91775974D01*
X182904724Y-91771297D01*
X182906000Y-91768649D01*
X182906000Y-91677351D01*
X182866387Y-91595095D01*
X182795008Y-91538173D01*
X182728532Y-91523000D01*
X182683468Y-91523000D01*
X182616992Y-91538173D01*
X182545613Y-91595095D01*
X182512816Y-91663197D01*
X182504571Y-91605853D01*
X182533596Y-91542297D01*
X182539628Y-91535819D01*
X183053189Y-91022257D01*
X183114512Y-90988772D01*
X183177439Y-90993272D01*
X183198246Y-90991952D01*
X183286368Y-90878108D01*
X183286370Y-90878105D01*
X183371457Y-90704643D01*
X183392596Y-90623000D01*
X182642111Y-90623000D01*
X182681610Y-90598543D01*
X182749201Y-90509038D01*
X182779895Y-90401160D01*
X182769546Y-90289479D01*
X182719552Y-90189078D01*
X182647069Y-90123000D01*
X183396471Y-90123000D01*
X183333314Y-89952472D01*
X183333312Y-89952468D01*
X183231107Y-89788496D01*
X183097997Y-89648465D01*
X183097996Y-89648464D01*
X182939413Y-89538086D01*
X182761862Y-89461893D01*
X182572606Y-89423000D01*
X181976000Y-89423000D01*
X181976000Y-90073000D01*
X181476000Y-90073000D01*
X181476000Y-89423000D01*
X180927824Y-89423000D01*
X180783778Y-89437647D01*
X180599438Y-89495484D01*
X180599428Y-89495489D01*
X180430501Y-89589251D01*
X180430494Y-89589256D01*
X180283894Y-89715107D01*
X180165631Y-89867890D01*
X180165629Y-89867894D01*
X180080542Y-90041356D01*
X180059404Y-90123000D01*
X180809889Y-90123000D01*
X180770390Y-90147457D01*
X180702799Y-90236962D01*
X180672105Y-90344840D01*
X180682454Y-90456521D01*
X180732448Y-90556922D01*
X180804931Y-90623000D01*
X180055529Y-90623000D01*
X180118685Y-90793527D01*
X180118687Y-90793531D01*
X180220892Y-90957503D01*
X180354002Y-91097534D01*
X180354003Y-91097535D01*
X180512588Y-91207914D01*
X180512590Y-91207915D01*
X180535359Y-91217686D01*
X180589204Y-91262211D01*
X180610428Y-91328779D01*
X180599747Y-91382058D01*
X180598176Y-91385587D01*
X180544585Y-91550523D01*
X180544584Y-91550526D01*
X180526456Y-91723000D01*
X180532777Y-91783139D01*
X180520207Y-91851868D01*
X180472475Y-91902892D01*
X180409456Y-91920100D01*
X180181768Y-91920100D01*
X180165720Y-91918328D01*
X180165698Y-91918566D01*
X180157931Y-91917831D01*
X180086722Y-91920069D01*
X180084775Y-91920100D01*
X180054922Y-91920100D01*
X180047615Y-91921022D01*
X180041796Y-91921480D01*
X179993051Y-91923012D01*
X179993050Y-91923013D01*
X179972552Y-91928967D01*
X179953514Y-91932909D01*
X179932349Y-91935584D01*
X179932342Y-91935585D01*
X179932340Y-91935586D01*
X179932338Y-91935586D01*
X179932337Y-91935587D01*
X179886999Y-91953536D01*
X179881473Y-91955428D01*
X179834639Y-91969035D01*
X179834637Y-91969036D01*
X179816266Y-91979900D01*
X179798804Y-91988455D01*
X179778966Y-91996310D01*
X179778965Y-91996311D01*
X179778964Y-91996311D01*
X179778963Y-91996312D01*
X179770881Y-92002183D01*
X179739510Y-92024974D01*
X179734630Y-92028180D01*
X179692649Y-92053009D01*
X179677560Y-92068098D01*
X179662772Y-92080729D01*
X179645508Y-92093273D01*
X179645503Y-92093277D01*
X179614422Y-92130847D01*
X179610490Y-92135169D01*
X178922976Y-92822682D01*
X178910378Y-92832776D01*
X178910530Y-92832960D01*
X178904518Y-92837933D01*
X178855741Y-92889874D01*
X178854388Y-92891270D01*
X178833287Y-92912371D01*
X178833284Y-92912375D01*
X178828769Y-92918196D01*
X178824977Y-92922635D01*
X178791596Y-92958182D01*
X178791594Y-92958186D01*
X178781313Y-92976885D01*
X178770638Y-92993136D01*
X178757557Y-93010001D01*
X178757552Y-93010009D01*
X178738185Y-93054761D01*
X178735616Y-93060005D01*
X178712123Y-93102741D01*
X178706814Y-93123416D01*
X178700515Y-93141812D01*
X178692042Y-93161392D01*
X178692040Y-93161400D01*
X178684412Y-93209564D01*
X178683227Y-93215286D01*
X178671100Y-93262513D01*
X178671099Y-93262522D01*
X178671099Y-93283865D01*
X178669573Y-93303256D01*
X178666236Y-93324327D01*
X178666236Y-93324328D01*
X176403500Y-93324328D01*
X176403500Y-90623000D01*
X177025529Y-90623000D01*
X177088685Y-90793527D01*
X177088687Y-90793531D01*
X177190892Y-90957503D01*
X177324002Y-91097534D01*
X177324003Y-91097535D01*
X177482586Y-91207913D01*
X177660137Y-91284106D01*
X177849394Y-91323000D01*
X178095999Y-91323000D01*
X178096000Y-90673000D01*
X178596000Y-90673000D01*
X178596000Y-91323000D01*
X178794176Y-91323000D01*
X178938221Y-91308352D01*
X179122561Y-91250515D01*
X179122571Y-91250510D01*
X179291498Y-91156748D01*
X179291505Y-91156743D01*
X179438105Y-91030892D01*
X179556368Y-90878109D01*
X179556370Y-90878105D01*
X179641457Y-90704643D01*
X179662596Y-90623000D01*
X178912111Y-90623000D01*
X178951610Y-90598543D01*
X179019201Y-90509038D01*
X179049895Y-90401160D01*
X179039546Y-90289479D01*
X178989552Y-90189078D01*
X178917069Y-90123000D01*
X179666471Y-90123000D01*
X179603314Y-89952472D01*
X179603312Y-89952468D01*
X179501107Y-89788496D01*
X179367997Y-89648465D01*
X179367996Y-89648464D01*
X179209413Y-89538086D01*
X179031862Y-89461893D01*
X178842606Y-89423000D01*
X178596000Y-89423000D01*
X178596000Y-90073000D01*
X178095999Y-90073000D01*
X178096000Y-89423000D01*
X177897824Y-89423000D01*
X177753778Y-89437647D01*
X177569438Y-89495484D01*
X177569428Y-89495489D01*
X177400501Y-89589251D01*
X177400494Y-89589256D01*
X177253894Y-89715107D01*
X177135631Y-89867890D01*
X177135629Y-89867894D01*
X177050542Y-90041356D01*
X177029404Y-90123000D01*
X177779889Y-90123000D01*
X177740390Y-90147457D01*
X177672799Y-90236962D01*
X177642105Y-90344840D01*
X177652454Y-90456521D01*
X177702448Y-90556922D01*
X177774931Y-90623000D01*
X177025529Y-90623000D01*
X176403500Y-90623000D01*
X176403500Y-77213500D01*
X176423185Y-77146461D01*
X176475989Y-77100706D01*
X176527500Y-77089500D01*
X222192000Y-77089500D01*
X222259039Y-77109185D01*
G37*
G04 #@! TD.AperFunction*
G04 #@! TD*
M02*
