G04 #@! TF.GenerationSoftware,KiCad,Pcbnew,7.0.5-0*
G04 #@! TF.CreationDate,2024-02-05T02:45:17-05:00*
G04 #@! TF.ProjectId,keystone-esp,6b657973-746f-46e6-952d-6573702e6b69,rev?*
G04 #@! TF.SameCoordinates,Original*
G04 #@! TF.FileFunction,Paste,Top*
G04 #@! TF.FilePolarity,Positive*
%FSLAX46Y46*%
G04 Gerber Fmt 4.6, Leading zero omitted, Abs format (unit mm)*
G04 Created by KiCad (PCBNEW 7.0.5-0) date 2024-02-05 02:45:17*
%MOMM*%
%LPD*%
G01*
G04 APERTURE LIST*
G04 Aperture macros list*
%AMRoundRect*
0 Rectangle with rounded corners*
0 $1 Rounding radius*
0 $2 $3 $4 $5 $6 $7 $8 $9 X,Y pos of 4 corners*
0 Add a 4 corners polygon primitive as box body*
4,1,4,$2,$3,$4,$5,$6,$7,$8,$9,$2,$3,0*
0 Add four circle primitives for the rounded corners*
1,1,$1+$1,$2,$3*
1,1,$1+$1,$4,$5*
1,1,$1+$1,$6,$7*
1,1,$1+$1,$8,$9*
0 Add four rect primitives between the rounded corners*
20,1,$1+$1,$2,$3,$4,$5,0*
20,1,$1+$1,$4,$5,$6,$7,0*
20,1,$1+$1,$6,$7,$8,$9,0*
20,1,$1+$1,$8,$9,$2,$3,0*%
G04 Aperture macros list end*
%ADD10R,1.050000X1.050000*%
%ADD11R,0.900000X1.500000*%
%ADD12R,1.500000X0.900000*%
%ADD13RoundRect,0.225000X-0.375000X0.225000X-0.375000X-0.225000X0.375000X-0.225000X0.375000X0.225000X0*%
%ADD14RoundRect,0.250000X-0.400000X-0.625000X0.400000X-0.625000X0.400000X0.625000X-0.400000X0.625000X0*%
%ADD15RoundRect,0.250000X0.400000X0.625000X-0.400000X0.625000X-0.400000X-0.625000X0.400000X-0.625000X0*%
%ADD16R,1.250000X1.000000*%
%ADD17RoundRect,0.150000X0.825000X0.150000X-0.825000X0.150000X-0.825000X-0.150000X0.825000X-0.150000X0*%
%ADD18RoundRect,0.250000X0.625000X-0.400000X0.625000X0.400000X-0.625000X0.400000X-0.625000X-0.400000X0*%
%ADD19RoundRect,0.150000X0.587500X0.150000X-0.587500X0.150000X-0.587500X-0.150000X0.587500X-0.150000X0*%
%ADD20RoundRect,0.150000X0.150000X-0.587500X0.150000X0.587500X-0.150000X0.587500X-0.150000X-0.587500X0*%
%ADD21RoundRect,0.150000X-0.150000X0.587500X-0.150000X-0.587500X0.150000X-0.587500X0.150000X0.587500X0*%
%ADD22RoundRect,0.250001X0.462499X0.624999X-0.462499X0.624999X-0.462499X-0.624999X0.462499X-0.624999X0*%
%ADD23RoundRect,0.250000X0.650000X-0.412500X0.650000X0.412500X-0.650000X0.412500X-0.650000X-0.412500X0*%
%ADD24RoundRect,0.250000X-0.412500X-0.650000X0.412500X-0.650000X0.412500X0.650000X-0.412500X0.650000X0*%
%ADD25RoundRect,0.250000X0.412500X0.650000X-0.412500X0.650000X-0.412500X-0.650000X0.412500X-0.650000X0*%
G04 APERTURE END LIST*
D10*
G04 #@! TO.C,U2*
X213426000Y-94973000D03*
X214951000Y-94973000D03*
X214951000Y-96498000D03*
X211901000Y-93448000D03*
X213426000Y-93448000D03*
X213426000Y-96498000D03*
X211901000Y-94973000D03*
X211901000Y-96498000D03*
X214951000Y-93448000D03*
D11*
X220766000Y-104403000D03*
X219496000Y-104403000D03*
X218226000Y-104403000D03*
X216956000Y-104403000D03*
X215686000Y-104403000D03*
X214416000Y-104403000D03*
X213146000Y-104403000D03*
X211876000Y-104403000D03*
X210606000Y-104403000D03*
X209336000Y-104403000D03*
X208066000Y-104403000D03*
X206796000Y-104403000D03*
X205526000Y-104403000D03*
X204256000Y-104403000D03*
D12*
X203006000Y-101373000D03*
X203006000Y-100103000D03*
X203006000Y-98833000D03*
X203006000Y-97563000D03*
X203006000Y-96293000D03*
X203006000Y-95023000D03*
X203006000Y-93753000D03*
X203006000Y-92483000D03*
X203006000Y-91213000D03*
X203006000Y-89943000D03*
D11*
X204256000Y-86903000D03*
X205526000Y-86903000D03*
X206796000Y-86903000D03*
X208066000Y-86903000D03*
X209336000Y-86903000D03*
X210606000Y-86903000D03*
X211876000Y-86903000D03*
X213146000Y-86903000D03*
X214416000Y-86903000D03*
X215686000Y-86903000D03*
X216956000Y-86903000D03*
X218226000Y-86903000D03*
X219496000Y-86903000D03*
X220766000Y-86903000D03*
G04 #@! TD*
D13*
G04 #@! TO.C,D3*
X198374000Y-99950000D03*
X198374000Y-103250000D03*
G04 #@! TD*
D14*
G04 #@! TO.C,R9*
X218160000Y-107950000D03*
X221260000Y-107950000D03*
G04 #@! TD*
D15*
G04 #@! TO.C,R8*
X216180000Y-107950000D03*
X213080000Y-107950000D03*
G04 #@! TD*
D16*
G04 #@! TO.C,SW1*
X180833800Y-81534000D03*
X188583800Y-81534000D03*
G04 #@! TD*
D17*
G04 #@! TO.C,U1*
X193359000Y-96266000D03*
X193359000Y-94996000D03*
X193359000Y-93726000D03*
X193359000Y-92456000D03*
X193359000Y-91186000D03*
X193359000Y-89916000D03*
X193359000Y-88646000D03*
X193359000Y-87376000D03*
X198309000Y-87376000D03*
X198309000Y-88646000D03*
X198309000Y-89916000D03*
X198309000Y-91186000D03*
X198309000Y-92456000D03*
X198309000Y-93726000D03*
X198309000Y-94996000D03*
X198309000Y-96266000D03*
G04 #@! TD*
D14*
G04 #@! TO.C,R7*
X194336000Y-107569000D03*
X191236000Y-107569000D03*
G04 #@! TD*
G04 #@! TO.C,R6*
X191236000Y-103759000D03*
X194336000Y-103759000D03*
G04 #@! TD*
D18*
G04 #@! TO.C,R5*
X184454800Y-88164000D03*
X184454800Y-85064000D03*
G04 #@! TD*
D14*
G04 #@! TO.C,R4*
X186029000Y-94742000D03*
X189129000Y-94742000D03*
G04 #@! TD*
G04 #@! TO.C,R3*
X186029000Y-99060000D03*
X189129000Y-99060000D03*
G04 #@! TD*
G04 #@! TO.C,R2*
X204190000Y-107950000D03*
X207290000Y-107950000D03*
G04 #@! TD*
G04 #@! TO.C,R1*
X200888000Y-83312000D03*
X203988000Y-83312000D03*
G04 #@! TD*
D19*
G04 #@! TO.C,Q4*
X187576700Y-108900000D03*
X187576700Y-107000000D03*
X185701700Y-107950000D03*
G04 #@! TD*
G04 #@! TO.C,Q3*
X187576700Y-104683600D03*
X187576700Y-102783600D03*
X185701700Y-103733600D03*
G04 #@! TD*
D20*
G04 #@! TO.C,Q2*
X187645000Y-87170500D03*
X189545000Y-87170500D03*
X188595000Y-85295500D03*
G04 #@! TD*
D21*
G04 #@! TO.C,Q1*
X189570400Y-89740500D03*
X187670400Y-89740500D03*
X188620400Y-91615500D03*
G04 #@! TD*
D22*
G04 #@! TO.C,D2*
X181954500Y-106553000D03*
X178979500Y-106553000D03*
G04 #@! TD*
G04 #@! TO.C,D1*
X181827500Y-102870000D03*
X178852500Y-102870000D03*
G04 #@! TD*
D23*
G04 #@! TO.C,C6*
X180695600Y-85102300D03*
X180695600Y-88227300D03*
G04 #@! TD*
D24*
G04 #@! TO.C,C5*
X194652500Y-84455000D03*
X197777500Y-84455000D03*
G04 #@! TD*
D23*
G04 #@! TO.C,C4*
X191389000Y-82461500D03*
X191389000Y-79336500D03*
G04 #@! TD*
D25*
G04 #@! TO.C,C3*
X215938500Y-83312000D03*
X212813500Y-83312000D03*
G04 #@! TD*
D24*
G04 #@! TO.C,C2*
X218147500Y-83312000D03*
X221272500Y-83312000D03*
G04 #@! TD*
G04 #@! TO.C,C1*
X206463500Y-83312000D03*
X209588500Y-83312000D03*
G04 #@! TD*
M02*
