M48
; DRILL file {KiCad 7.0.5-0} date 2024 February 05, Monday 02:45:09
; FORMAT={-:-/ absolute / metric / decimal}
; #@! TF.CreationDate,2024-02-05T02:45:09-05:00
; #@! TF.GenerationSoftware,Kicad,Pcbnew,7.0.5-0
; #@! TF.FileFunction,MixedPlating,1,2
FMAT,2
METRIC
; #@! TA.AperFunction,Plated,PTH,ViaDrill
T1C0.400
; #@! TA.AperFunction,Plated,PTH,ComponentDrill
T2C0.400
; #@! TA.AperFunction,Plated,PTH,ComponentDrill
T3C0.600
; #@! TA.AperFunction,Plated,PTH,ComponentDrill
T4C1.000
%
G90
G05
T1
X178.852Y-104.394
X178.98Y-108.204
X179.832Y-91.313
X180.594Y-97.79
X182.626Y-88.227
X184.277Y-99.244
X184.404Y-97.536
X184.531Y-92.075
X185.801Y-105.791
X187.452Y-91.44
X187.96Y-101.473
X188.341Y-96.52
X189.484Y-79.629
X189.611Y-102.489
X189.611Y-105.283
X189.611Y-107.061
X189.611Y-108.839
X190.119Y-94.996
X190.373Y-99.187
X191.389Y-91.313
X192.786Y-101.346
X192.786Y-109.347
X193.421Y-97.536
X196.469Y-103.632
X197.612Y-80.772
X197.612Y-108.077
X197.866Y-97.79
X199.771Y-98.679
X200.152Y-80.772
X202.692Y-80.772
X205.105Y-90.932
X205.232Y-84.074
X206.756Y-88.392
X207.41Y-106.439
X207.899Y-88.519
X209.296Y-88.392
X209.55Y-81.407
X209.677Y-94.742
X212.725Y-81.788
X215.265Y-98.171
X215.686Y-100.624
X217.17Y-109.347
X218.186Y-85.217
X220.345Y-106.172
X221.107Y-109.855
T2
X181.356Y-91.723
X181.356Y-92.573
X181.356Y-93.423
X181.356Y-94.273
X181.356Y-95.123
X181.356Y-95.973
X181.356Y-96.823
X181.356Y-97.673
X182.706Y-91.723
X182.706Y-92.573
X182.706Y-93.423
X182.706Y-94.273
X182.706Y-95.123
X182.706Y-95.973
X182.706Y-96.823
X182.706Y-97.673
X211.901Y-94.21
X211.901Y-95.736
X212.663Y-93.448
X212.663Y-94.973
X212.663Y-96.498
X213.426Y-94.21
X213.426Y-95.736
X214.188Y-93.448
X214.188Y-94.973
X214.188Y-96.498
X214.951Y-94.21
X214.951Y-95.736
T4
X184.912Y-112.141
X187.452Y-112.141
X189.992Y-112.141
X192.532Y-112.141
X195.072Y-79.121
X195.072Y-112.141
X197.612Y-79.121
X197.612Y-112.141
X200.152Y-79.121
X200.152Y-112.141
X202.692Y-79.121
X202.692Y-112.141
X205.232Y-79.121
X205.232Y-112.141
X207.772Y-79.121
X207.772Y-112.141
X210.312Y-79.121
X210.312Y-112.141
X212.852Y-79.121
X212.852Y-112.141
X215.392Y-79.121
X215.392Y-112.141
X217.932Y-79.121
X217.932Y-112.141
X220.472Y-79.121
X220.472Y-112.141
T3
G00X178.746Y-90.373
M15
G01X177.946Y-90.373
M16
G05
G00X178.746Y-99.023
M15
G01X177.946Y-99.023
M16
G05
G00X182.476Y-90.373
M15
G01X180.976Y-90.373
M16
G05
G00X182.476Y-99.023
M15
G01X180.976Y-99.023
M16
G05
T0
M30
