G04 #@! TF.GenerationSoftware,KiCad,Pcbnew,7.0.5-0*
G04 #@! TF.CreationDate,2024-02-05T02:45:17-05:00*
G04 #@! TF.ProjectId,keystone-esp,6b657973-746f-46e6-952d-6573702e6b69,rev?*
G04 #@! TF.SameCoordinates,Original*
G04 #@! TF.FileFunction,Soldermask,Bot*
G04 #@! TF.FilePolarity,Negative*
%FSLAX46Y46*%
G04 Gerber Fmt 4.6, Leading zero omitted, Abs format (unit mm)*
G04 Created by KiCad (PCBNEW 7.0.5-0) date 2024-02-05 02:45:17*
%MOMM*%
%LPD*%
G01*
G04 APERTURE LIST*
%ADD10R,1.700000X1.700000*%
%ADD11O,1.700000X1.700000*%
%ADD12O,3.000000X1.700000*%
%ADD13C,0.650000*%
%ADD14O,1.700000X0.900000*%
%ADD15O,2.400000X0.900000*%
G04 APERTURE END LIST*
D10*
G04 #@! TO.C,J7*
X192532000Y-112141000D03*
D11*
X189992000Y-112141000D03*
X187452000Y-112141000D03*
X184912000Y-112141000D03*
G04 #@! TD*
D12*
G04 #@! TO.C,J3*
X219075000Y-89281000D03*
X219075000Y-91821000D03*
X219075000Y-94361000D03*
X219075000Y-96901000D03*
X219075000Y-99441000D03*
X219075000Y-101981000D03*
G04 #@! TD*
D10*
G04 #@! TO.C,J4*
X220472000Y-79121000D03*
D11*
X217932000Y-79121000D03*
X215392000Y-79121000D03*
X212852000Y-79121000D03*
X210312000Y-79121000D03*
X207772000Y-79121000D03*
X205232000Y-79121000D03*
X202692000Y-79121000D03*
X200152000Y-79121000D03*
X197612000Y-79121000D03*
X195072000Y-79121000D03*
G04 #@! TD*
D10*
G04 #@! TO.C,J2*
X220472000Y-112141000D03*
D11*
X217932000Y-112141000D03*
X215392000Y-112141000D03*
X212852000Y-112141000D03*
X210312000Y-112141000D03*
X207772000Y-112141000D03*
X205232000Y-112141000D03*
X202692000Y-112141000D03*
X200152000Y-112141000D03*
X197612000Y-112141000D03*
X195072000Y-112141000D03*
G04 #@! TD*
D13*
G04 #@! TO.C,J1*
X182706000Y-91723000D03*
X182706000Y-92573000D03*
X182706000Y-93423000D03*
X182706000Y-94273000D03*
X182706000Y-95123000D03*
X182706000Y-95973000D03*
X182706000Y-96823000D03*
X182706000Y-97673000D03*
X181356000Y-97673000D03*
X181356000Y-96823000D03*
X181356000Y-95973000D03*
X181356000Y-95123000D03*
X181356000Y-94273000D03*
X181356000Y-93423000D03*
X181356000Y-92573000D03*
X181356000Y-91723000D03*
D14*
X178346000Y-90373000D03*
X178346000Y-99023000D03*
D15*
X181726000Y-90373000D03*
X181726000Y-99023000D03*
G04 #@! TD*
M02*
